G75*
%MOIN*%
%OFA0B0*%
%FSLAX25Y25*%
%IPPOS*%
%LPD*%
%AMOC8*
5,1,8,0,0,1.08239X$1,22.5*
%
%ADD10C,0.00000*%
%ADD11R,0.05512X0.01181*%
%ADD12R,0.01181X0.05512*%
%ADD13R,0.04724X0.01969*%
%ADD14R,0.02756X0.03543*%
%ADD15R,0.03543X0.02756*%
%ADD16R,0.04724X0.02756*%
%ADD17R,0.16142X0.16142*%
%ADD18C,0.03181*%
%ADD19R,0.03181X0.03181*%
%ADD20R,0.01102X0.03346*%
%ADD21R,0.03346X0.01102*%
%ADD22R,0.10630X0.03937*%
%ADD23R,0.05906X0.05118*%
%ADD24R,0.02362X0.02362*%
%ADD25R,0.05118X0.05906*%
%ADD26R,0.04331X0.03937*%
%ADD27R,0.03937X0.04331*%
%ADD28R,0.08661X0.01969*%
%ADD29OC8,0.06000*%
%ADD30R,0.03150X0.03150*%
%ADD31R,0.03937X0.02756*%
%ADD32C,0.05150*%
%ADD33R,0.01181X0.03937*%
%ADD34R,0.03150X0.05906*%
%ADD35C,0.00787*%
%ADD36C,0.02381*%
%ADD37C,0.01181*%
%ADD38C,0.02578*%
%ADD39C,0.02775*%
%ADD40C,0.01600*%
%ADD41C,0.01000*%
%ADD42C,0.01200*%
%ADD43C,0.01575*%
%ADD44C,0.03169*%
%ADD45C,0.11811*%
%ADD46C,0.00984*%
%ADD47C,0.02362*%
%ADD48C,0.03150*%
%ADD49C,0.01969*%
%ADD50C,0.02756*%
%ADD51C,0.00866*%
D10*
X0006118Y0012146D02*
X0006118Y0026320D01*
X0006118Y0027894D02*
X0006118Y0133406D01*
X0006118Y0148367D01*
X0020291Y0148367D01*
X0021866Y0148367D02*
X0227378Y0148367D01*
X0228165Y0148367D02*
X0242339Y0148367D01*
X0242339Y0134194D01*
X0242339Y0132619D02*
X0242339Y0027107D01*
X0242338Y0027107D02*
X0242319Y0026726D01*
X0242290Y0026345D01*
X0242252Y0025966D01*
X0242205Y0025587D01*
X0242148Y0025210D01*
X0242082Y0024834D01*
X0242007Y0024460D01*
X0241923Y0024087D01*
X0241829Y0023717D01*
X0241727Y0023350D01*
X0241615Y0022985D01*
X0241495Y0022623D01*
X0241366Y0022264D01*
X0241228Y0021908D01*
X0241082Y0021556D01*
X0240926Y0021207D01*
X0240763Y0020862D01*
X0240591Y0020522D01*
X0240410Y0020185D01*
X0240222Y0019854D01*
X0240025Y0019527D01*
X0239821Y0019204D01*
X0239608Y0018887D01*
X0239388Y0018576D01*
X0239160Y0018270D01*
X0238925Y0017969D01*
X0238683Y0017674D01*
X0238433Y0017386D01*
X0238176Y0017103D01*
X0237913Y0016827D01*
X0237643Y0016558D01*
X0237366Y0016295D01*
X0237083Y0016039D01*
X0236794Y0015790D01*
X0236499Y0015548D01*
X0236198Y0015314D01*
X0235891Y0015087D01*
X0235579Y0014867D01*
X0235261Y0014655D01*
X0234939Y0014452D01*
X0234611Y0014256D01*
X0234279Y0014068D01*
X0233942Y0013888D01*
X0233602Y0013717D01*
X0233256Y0013554D01*
X0232907Y0013400D01*
X0232555Y0013254D01*
X0232199Y0013117D01*
X0231839Y0012988D01*
X0231477Y0012869D01*
X0231112Y0012758D01*
X0230744Y0012657D01*
X0230374Y0012564D01*
X0230001Y0012481D01*
X0229627Y0012407D01*
X0229251Y0012342D01*
X0228874Y0012286D01*
X0228495Y0012239D01*
X0228115Y0012202D01*
X0227734Y0012174D01*
X0227353Y0012155D01*
X0226972Y0012146D01*
X0226590Y0012146D01*
X0226591Y0012146D02*
X0021079Y0012146D01*
X0006118Y0012146D01*
X0021079Y0012147D02*
X0020698Y0012166D01*
X0020317Y0012195D01*
X0019938Y0012233D01*
X0019559Y0012280D01*
X0019182Y0012337D01*
X0018806Y0012403D01*
X0018432Y0012478D01*
X0018059Y0012562D01*
X0017689Y0012656D01*
X0017322Y0012758D01*
X0016957Y0012870D01*
X0016595Y0012990D01*
X0016236Y0013119D01*
X0015880Y0013257D01*
X0015528Y0013403D01*
X0015179Y0013559D01*
X0014834Y0013722D01*
X0014494Y0013894D01*
X0014157Y0014075D01*
X0013826Y0014263D01*
X0013499Y0014460D01*
X0013176Y0014664D01*
X0012859Y0014877D01*
X0012548Y0015097D01*
X0012242Y0015325D01*
X0011941Y0015560D01*
X0011646Y0015802D01*
X0011358Y0016052D01*
X0011075Y0016309D01*
X0010799Y0016572D01*
X0010530Y0016842D01*
X0010267Y0017119D01*
X0010011Y0017402D01*
X0009762Y0017691D01*
X0009520Y0017986D01*
X0009286Y0018287D01*
X0009059Y0018594D01*
X0008839Y0018906D01*
X0008627Y0019224D01*
X0008424Y0019546D01*
X0008228Y0019874D01*
X0008040Y0020206D01*
X0007860Y0020543D01*
X0007689Y0020883D01*
X0007526Y0021229D01*
X0007372Y0021578D01*
X0007226Y0021930D01*
X0007089Y0022286D01*
X0006960Y0022646D01*
X0006841Y0023008D01*
X0006730Y0023373D01*
X0006629Y0023741D01*
X0006536Y0024111D01*
X0006453Y0024484D01*
X0006379Y0024858D01*
X0006314Y0025234D01*
X0006258Y0025611D01*
X0006211Y0025990D01*
X0006174Y0026370D01*
X0006146Y0026751D01*
X0006127Y0027132D01*
X0006118Y0027513D01*
X0006118Y0027895D01*
X0006118Y0133406D02*
X0006137Y0133787D01*
X0006166Y0134168D01*
X0006204Y0134547D01*
X0006251Y0134926D01*
X0006308Y0135303D01*
X0006374Y0135679D01*
X0006449Y0136053D01*
X0006533Y0136426D01*
X0006627Y0136796D01*
X0006729Y0137163D01*
X0006841Y0137528D01*
X0006961Y0137890D01*
X0007090Y0138249D01*
X0007228Y0138605D01*
X0007374Y0138957D01*
X0007530Y0139306D01*
X0007693Y0139651D01*
X0007865Y0139991D01*
X0008046Y0140328D01*
X0008234Y0140659D01*
X0008431Y0140986D01*
X0008635Y0141309D01*
X0008848Y0141626D01*
X0009068Y0141937D01*
X0009296Y0142243D01*
X0009531Y0142544D01*
X0009773Y0142839D01*
X0010023Y0143127D01*
X0010280Y0143410D01*
X0010543Y0143686D01*
X0010813Y0143955D01*
X0011090Y0144218D01*
X0011373Y0144474D01*
X0011662Y0144723D01*
X0011957Y0144965D01*
X0012258Y0145199D01*
X0012565Y0145426D01*
X0012877Y0145646D01*
X0013195Y0145858D01*
X0013517Y0146061D01*
X0013845Y0146257D01*
X0014177Y0146445D01*
X0014514Y0146625D01*
X0014854Y0146796D01*
X0015200Y0146959D01*
X0015549Y0147113D01*
X0015901Y0147259D01*
X0016257Y0147396D01*
X0016617Y0147525D01*
X0016979Y0147644D01*
X0017344Y0147755D01*
X0017712Y0147856D01*
X0018082Y0147949D01*
X0018455Y0148032D01*
X0018829Y0148106D01*
X0019205Y0148171D01*
X0019582Y0148227D01*
X0019961Y0148274D01*
X0020341Y0148311D01*
X0020722Y0148339D01*
X0021103Y0148358D01*
X0021484Y0148367D01*
X0021866Y0148367D01*
X0227378Y0148367D02*
X0227759Y0148348D01*
X0228140Y0148319D01*
X0228519Y0148281D01*
X0228898Y0148234D01*
X0229275Y0148177D01*
X0229651Y0148111D01*
X0230025Y0148036D01*
X0230398Y0147952D01*
X0230768Y0147858D01*
X0231135Y0147756D01*
X0231500Y0147644D01*
X0231862Y0147524D01*
X0232221Y0147395D01*
X0232577Y0147257D01*
X0232929Y0147111D01*
X0233278Y0146955D01*
X0233623Y0146792D01*
X0233963Y0146620D01*
X0234300Y0146439D01*
X0234631Y0146251D01*
X0234958Y0146054D01*
X0235281Y0145850D01*
X0235598Y0145637D01*
X0235909Y0145417D01*
X0236215Y0145189D01*
X0236516Y0144954D01*
X0236811Y0144712D01*
X0237099Y0144462D01*
X0237382Y0144205D01*
X0237658Y0143942D01*
X0237927Y0143672D01*
X0238190Y0143395D01*
X0238446Y0143112D01*
X0238695Y0142823D01*
X0238937Y0142528D01*
X0239171Y0142227D01*
X0239398Y0141920D01*
X0239618Y0141608D01*
X0239830Y0141290D01*
X0240033Y0140968D01*
X0240229Y0140640D01*
X0240417Y0140308D01*
X0240597Y0139971D01*
X0240768Y0139631D01*
X0240931Y0139285D01*
X0241085Y0138936D01*
X0241231Y0138584D01*
X0241368Y0138228D01*
X0241497Y0137868D01*
X0241616Y0137506D01*
X0241727Y0137141D01*
X0241828Y0136773D01*
X0241921Y0136403D01*
X0242004Y0136030D01*
X0242078Y0135656D01*
X0242143Y0135280D01*
X0242199Y0134903D01*
X0242246Y0134524D01*
X0242283Y0134144D01*
X0242311Y0133763D01*
X0242330Y0133382D01*
X0242339Y0133001D01*
X0242339Y0132619D01*
D11*
X0146433Y0087422D03*
X0146433Y0085453D03*
X0146433Y0083485D03*
X0146433Y0081516D03*
X0146433Y0079548D03*
X0146433Y0077579D03*
X0146433Y0075611D03*
X0146433Y0073642D03*
X0146433Y0071674D03*
X0146433Y0069705D03*
X0146433Y0067737D03*
X0146433Y0065768D03*
X0146433Y0063800D03*
X0146433Y0061831D03*
X0146433Y0059863D03*
X0146433Y0057894D03*
X0146433Y0055926D03*
X0146433Y0053957D03*
X0146433Y0051989D03*
X0146433Y0050020D03*
X0146433Y0048052D03*
X0146433Y0046083D03*
X0146433Y0044115D03*
X0146433Y0042146D03*
X0146433Y0040178D03*
X0085016Y0040178D03*
X0085016Y0042146D03*
X0085016Y0044115D03*
X0085016Y0046083D03*
X0085016Y0048052D03*
X0085016Y0050020D03*
X0085016Y0051989D03*
X0085016Y0053957D03*
X0085016Y0055926D03*
X0085016Y0057894D03*
X0085016Y0059863D03*
X0085016Y0061831D03*
X0085016Y0063800D03*
X0085016Y0065768D03*
X0085016Y0067737D03*
X0085016Y0069705D03*
X0085016Y0071674D03*
X0085016Y0073642D03*
X0085016Y0075611D03*
X0085016Y0077579D03*
X0085016Y0079548D03*
X0085016Y0081516D03*
X0085016Y0083485D03*
X0085016Y0085453D03*
X0085016Y0087422D03*
D12*
X0092102Y0094509D03*
X0094071Y0094509D03*
X0096039Y0094509D03*
X0098008Y0094509D03*
X0099976Y0094509D03*
X0101945Y0094509D03*
X0103913Y0094509D03*
X0105882Y0094509D03*
X0107850Y0094509D03*
X0109819Y0094509D03*
X0111787Y0094509D03*
X0113756Y0094509D03*
X0115724Y0094509D03*
X0117693Y0094509D03*
X0119661Y0094509D03*
X0121630Y0094509D03*
X0123598Y0094509D03*
X0125567Y0094509D03*
X0127535Y0094509D03*
X0129504Y0094509D03*
X0131472Y0094509D03*
X0133441Y0094509D03*
X0135409Y0094509D03*
X0137378Y0094509D03*
X0139346Y0094509D03*
X0139346Y0033091D03*
X0137378Y0033091D03*
X0135409Y0033091D03*
X0133441Y0033091D03*
X0131472Y0033091D03*
X0129504Y0033091D03*
X0127535Y0033091D03*
X0125567Y0033091D03*
X0123598Y0033091D03*
X0121630Y0033091D03*
X0119661Y0033091D03*
X0117693Y0033091D03*
X0115724Y0033091D03*
X0113756Y0033091D03*
X0111787Y0033091D03*
X0109819Y0033091D03*
X0107850Y0033091D03*
X0105882Y0033091D03*
X0103913Y0033091D03*
X0101945Y0033091D03*
X0099976Y0033091D03*
X0098008Y0033091D03*
X0096039Y0033091D03*
X0094071Y0033091D03*
X0092102Y0033091D03*
D13*
X0062811Y0032619D03*
X0062811Y0035768D03*
X0062811Y0038918D03*
X0062811Y0042068D03*
X0062811Y0045217D03*
X0062811Y0048367D03*
X0062811Y0051516D03*
X0062811Y0054666D03*
X0062811Y0057816D03*
X0062811Y0060965D03*
X0062811Y0064115D03*
X0062811Y0067264D03*
X0062811Y0070414D03*
X0062811Y0073564D03*
X0062811Y0076713D03*
X0062811Y0079863D03*
X0062811Y0083012D03*
X0062811Y0086162D03*
X0062811Y0089312D03*
X0062811Y0092461D03*
X0062811Y0095611D03*
X0018717Y0095611D03*
X0018717Y0092461D03*
X0018717Y0089312D03*
X0018717Y0086162D03*
X0018717Y0083012D03*
X0018717Y0079863D03*
X0018717Y0076713D03*
X0018717Y0073564D03*
X0018717Y0070414D03*
X0018717Y0067264D03*
X0018717Y0064115D03*
X0018717Y0060965D03*
X0018717Y0057816D03*
X0018717Y0054666D03*
X0018717Y0051516D03*
X0018717Y0048367D03*
X0018717Y0045217D03*
X0018717Y0042068D03*
X0018717Y0038918D03*
X0018717Y0035768D03*
X0018717Y0032619D03*
X0018717Y0029469D03*
X0062811Y0029469D03*
D14*
G36*
X0114268Y0022753D02*
X0112319Y0024702D01*
X0114822Y0027205D01*
X0116771Y0025256D01*
X0114268Y0022753D01*
G37*
G36*
X0117887Y0019134D02*
X0115938Y0021083D01*
X0118441Y0023586D01*
X0120390Y0021637D01*
X0117887Y0019134D01*
G37*
G36*
X0158832Y0043544D02*
X0156883Y0045493D01*
X0159386Y0047996D01*
X0161335Y0046047D01*
X0158832Y0043544D01*
G37*
G36*
X0155213Y0047163D02*
X0153264Y0049112D01*
X0155767Y0051615D01*
X0157716Y0049666D01*
X0155213Y0047163D01*
G37*
G36*
X0158832Y0051418D02*
X0156883Y0053367D01*
X0159386Y0055870D01*
X0161335Y0053921D01*
X0158832Y0051418D01*
G37*
G36*
X0165685Y0056657D02*
X0167634Y0054708D01*
X0165131Y0052205D01*
X0163182Y0054154D01*
X0165685Y0056657D01*
G37*
G36*
X0162066Y0060276D02*
X0164015Y0058327D01*
X0161512Y0055824D01*
X0159563Y0057773D01*
X0162066Y0060276D01*
G37*
G36*
X0158832Y0058504D02*
X0156883Y0060453D01*
X0159386Y0062956D01*
X0161335Y0061007D01*
X0158832Y0058504D01*
G37*
G36*
X0155213Y0055037D02*
X0153264Y0056986D01*
X0155767Y0059489D01*
X0157716Y0057540D01*
X0155213Y0055037D01*
G37*
G36*
X0155213Y0062124D02*
X0153264Y0064073D01*
X0155767Y0066576D01*
X0157716Y0064627D01*
X0155213Y0062124D01*
G37*
X0192535Y0049154D03*
X0197654Y0049154D03*
X0197654Y0044430D03*
X0192535Y0044430D03*
X0192535Y0039705D03*
X0197654Y0039705D03*
X0216945Y0039705D03*
X0222063Y0039705D03*
X0222063Y0044430D03*
X0216945Y0044430D03*
X0216945Y0049154D03*
X0222063Y0049154D03*
G36*
X0135472Y0102186D02*
X0133523Y0100237D01*
X0131020Y0102740D01*
X0132969Y0104689D01*
X0135472Y0102186D01*
G37*
G36*
X0139091Y0105805D02*
X0137142Y0103856D01*
X0134639Y0106359D01*
X0136588Y0108308D01*
X0139091Y0105805D01*
G37*
G36*
X0131807Y0105805D02*
X0129858Y0103856D01*
X0127355Y0106359D01*
X0129304Y0108308D01*
X0131807Y0105805D01*
G37*
G36*
X0128188Y0102186D02*
X0126239Y0100237D01*
X0123736Y0102740D01*
X0125685Y0104689D01*
X0128188Y0102186D01*
G37*
G36*
X0124721Y0105805D02*
X0122772Y0103856D01*
X0120269Y0106359D01*
X0122218Y0108308D01*
X0124721Y0105805D01*
G37*
G36*
X0121102Y0102186D02*
X0119153Y0100237D01*
X0116650Y0102740D01*
X0118599Y0104689D01*
X0121102Y0102186D01*
G37*
X0097260Y0101123D03*
X0092142Y0101123D03*
X0082929Y0107697D03*
X0077811Y0107697D03*
X0077772Y0103682D03*
X0072654Y0103682D03*
X0018913Y0104272D03*
X0013795Y0104272D03*
X0013795Y0116871D03*
X0018913Y0116871D03*
X0018913Y0123957D03*
X0013795Y0123957D03*
X0137417Y0122383D03*
X0142535Y0122383D03*
G36*
X0213894Y0124000D02*
X0215843Y0125949D01*
X0218346Y0123446D01*
X0216397Y0121497D01*
X0213894Y0124000D01*
G37*
G36*
X0217513Y0127619D02*
X0219462Y0129568D01*
X0221965Y0127065D01*
X0220016Y0125116D01*
X0217513Y0127619D01*
G37*
D15*
X0231315Y0136359D03*
X0231315Y0141477D03*
X0219701Y0108012D03*
X0219701Y0102894D03*
X0217142Y0094430D03*
X0217142Y0089312D03*
X0178559Y0057225D03*
X0178559Y0052107D03*
X0153362Y0076516D03*
X0153362Y0081634D03*
X0078559Y0079272D03*
X0078559Y0074154D03*
X0078559Y0066674D03*
X0078559Y0061556D03*
X0078559Y0055650D03*
X0078559Y0050532D03*
X0068520Y0059194D03*
X0068520Y0064312D03*
X0082496Y0031241D03*
X0082496Y0026123D03*
X0088008Y0026123D03*
X0088008Y0031241D03*
X0124228Y0026516D03*
X0124228Y0021398D03*
X0012417Y0060375D03*
X0012417Y0065493D03*
X0012417Y0082816D03*
X0012417Y0087934D03*
X0059661Y0113524D03*
X0059661Y0118642D03*
D16*
X0039780Y0021595D03*
X0025213Y0021595D03*
D17*
X0196669Y0105847D03*
D18*
X0194701Y0103879D03*
X0194701Y0107816D03*
X0198638Y0107816D03*
X0202575Y0107816D03*
X0202575Y0103879D03*
X0198638Y0103879D03*
X0198638Y0099942D03*
X0202575Y0099942D03*
X0194701Y0099942D03*
X0190764Y0099942D03*
X0190764Y0103879D03*
X0190764Y0107816D03*
X0194701Y0111753D03*
X0198638Y0111753D03*
X0202575Y0111753D03*
D19*
X0190764Y0111753D03*
D20*
X0191748Y0119528D03*
X0189780Y0119528D03*
X0187811Y0119528D03*
X0185843Y0119528D03*
X0193717Y0119528D03*
X0195685Y0119528D03*
X0197654Y0119528D03*
X0199622Y0119528D03*
X0201591Y0119528D03*
X0203559Y0119528D03*
X0205528Y0119528D03*
X0207496Y0119528D03*
X0207496Y0092166D03*
X0205528Y0092166D03*
X0203559Y0092166D03*
X0201591Y0092166D03*
X0199622Y0092166D03*
X0197654Y0092166D03*
X0195685Y0092166D03*
X0193717Y0092166D03*
X0191748Y0092166D03*
X0189780Y0092166D03*
X0187811Y0092166D03*
X0185843Y0092166D03*
D21*
X0183185Y0095020D03*
X0183185Y0096989D03*
X0183185Y0098957D03*
X0183185Y0100926D03*
X0183185Y0102894D03*
X0183185Y0104863D03*
X0183185Y0106831D03*
X0183185Y0108800D03*
X0183185Y0110768D03*
X0183185Y0112737D03*
X0183185Y0114705D03*
X0183185Y0116674D03*
X0210154Y0116674D03*
X0210154Y0114705D03*
X0210154Y0112737D03*
X0210154Y0110768D03*
X0210154Y0108800D03*
X0210154Y0106831D03*
X0210154Y0104863D03*
X0210154Y0102894D03*
X0210154Y0100926D03*
X0210154Y0098957D03*
X0210154Y0096989D03*
X0210154Y0095020D03*
D22*
X0226591Y0081831D03*
X0226591Y0073170D03*
X0230528Y0049548D03*
X0230528Y0040886D03*
X0206906Y0040493D03*
X0206906Y0049154D03*
X0196669Y0134587D03*
X0196669Y0143249D03*
D23*
X0208480Y0142658D03*
X0215567Y0142658D03*
X0215567Y0135178D03*
X0208480Y0135178D03*
X0184071Y0135178D03*
X0176197Y0135178D03*
X0176197Y0142658D03*
X0184071Y0142658D03*
X0206906Y0081241D03*
X0214780Y0081241D03*
X0214780Y0073760D03*
X0206906Y0073760D03*
X0186433Y0071989D03*
X0186433Y0079469D03*
D24*
X0225016Y0094036D03*
X0231315Y0094036D03*
X0231315Y0099154D03*
X0225016Y0099154D03*
X0236039Y0082225D03*
X0236039Y0075926D03*
X0209268Y0127894D03*
X0202969Y0127894D03*
X0221276Y0135768D03*
X0226591Y0135768D03*
X0226591Y0142068D03*
X0221276Y0142068D03*
D25*
X0166551Y0119233D03*
X0159071Y0119233D03*
X0159071Y0112146D03*
X0166551Y0112146D03*
X0166551Y0091674D03*
X0159071Y0091674D03*
D26*
X0159465Y0104272D03*
X0166157Y0104272D03*
X0153559Y0119233D03*
X0146866Y0119233D03*
X0159465Y0127107D03*
X0166157Y0127107D03*
X0225016Y0130453D03*
X0230528Y0130453D03*
X0230528Y0123760D03*
X0225016Y0123760D03*
X0195882Y0078485D03*
X0195882Y0071792D03*
X0178953Y0072579D03*
X0178953Y0079272D03*
X0203559Y0034194D03*
X0210252Y0034194D03*
X0227181Y0034194D03*
X0233874Y0034194D03*
X0086630Y0116083D03*
X0086630Y0120808D03*
X0079937Y0120808D03*
X0079937Y0116083D03*
D27*
X0019701Y0110571D03*
X0013008Y0110571D03*
X0159465Y0097973D03*
X0166157Y0097973D03*
X0173835Y0079272D03*
X0173835Y0072579D03*
G36*
X0166331Y0069123D02*
X0163548Y0071906D01*
X0166609Y0074967D01*
X0169392Y0072184D01*
X0166331Y0069123D01*
G37*
G36*
X0161319Y0069677D02*
X0164102Y0066894D01*
X0161041Y0063833D01*
X0158258Y0066616D01*
X0161319Y0069677D01*
G37*
G36*
X0172177Y0063277D02*
X0169394Y0066060D01*
X0172455Y0069121D01*
X0175238Y0066338D01*
X0172177Y0063277D01*
G37*
G36*
X0167165Y0063831D02*
X0169948Y0061048D01*
X0166887Y0057987D01*
X0164104Y0060770D01*
X0167165Y0063831D01*
G37*
X0193520Y0061162D03*
X0193520Y0054469D03*
X0218717Y0056831D03*
X0218717Y0063524D03*
X0224819Y0089312D03*
X0231512Y0089312D03*
X0231512Y0105847D03*
X0231512Y0111359D03*
X0224819Y0111359D03*
X0224819Y0105847D03*
X0224819Y0116871D03*
X0231512Y0116871D03*
X0166157Y0132619D03*
X0159465Y0132619D03*
X0159465Y0138131D03*
X0166157Y0138131D03*
D28*
X0052181Y0118859D03*
X0052181Y0113859D03*
X0052181Y0108859D03*
X0052181Y0103859D03*
X0029346Y0103898D03*
X0029346Y0108898D03*
X0029346Y0113898D03*
X0029346Y0118859D03*
D29*
X0035213Y0129194D03*
X0045213Y0129194D03*
X0055213Y0129194D03*
X0065213Y0129194D03*
X0065213Y0139194D03*
X0055213Y0139194D03*
X0045213Y0139194D03*
X0035213Y0139194D03*
D30*
X0028756Y0123957D03*
X0022850Y0123957D03*
X0184071Y0056044D03*
X0184071Y0050138D03*
D31*
X0200409Y0055257D03*
X0200409Y0062737D03*
X0209071Y0062737D03*
X0209071Y0058997D03*
X0209071Y0055257D03*
X0224622Y0056438D03*
X0233283Y0056438D03*
X0233283Y0060178D03*
X0233283Y0063918D03*
X0224622Y0063918D03*
D32*
X0222063Y0027383D03*
X0212063Y0027383D03*
X0202063Y0027383D03*
X0192063Y0027383D03*
X0182063Y0027383D03*
X0172063Y0027383D03*
X0162063Y0027383D03*
X0152063Y0027383D03*
X0157063Y0017383D03*
X0167063Y0017383D03*
X0177063Y0017383D03*
X0187063Y0017383D03*
X0197063Y0017383D03*
X0207063Y0017383D03*
X0217063Y0017383D03*
X0147063Y0017383D03*
D33*
X0145685Y0128879D03*
X0143717Y0128879D03*
X0141748Y0128879D03*
X0139780Y0128879D03*
X0137811Y0128879D03*
X0135843Y0128879D03*
X0133874Y0128879D03*
X0131906Y0128879D03*
X0129937Y0128879D03*
X0127969Y0128879D03*
X0126000Y0128879D03*
X0124031Y0128879D03*
X0122063Y0128879D03*
X0120094Y0128879D03*
X0118126Y0128879D03*
X0116157Y0128879D03*
X0114189Y0128879D03*
X0112220Y0128879D03*
X0110252Y0128879D03*
X0108283Y0128879D03*
X0106315Y0128879D03*
X0104346Y0128879D03*
X0102378Y0128879D03*
X0100409Y0128879D03*
X0098441Y0128879D03*
X0096472Y0128879D03*
X0094504Y0128879D03*
X0092535Y0128879D03*
X0090567Y0128879D03*
X0088598Y0128879D03*
X0086630Y0128879D03*
X0084661Y0128879D03*
X0082693Y0128879D03*
X0080724Y0128879D03*
D34*
X0076787Y0138131D03*
X0149622Y0138131D03*
D35*
X0146679Y0137106D02*
X0146258Y0138122D01*
X0145480Y0138900D01*
X0144463Y0139321D01*
X0143363Y0139321D01*
X0142347Y0138900D01*
X0141569Y0138122D01*
X0141148Y0137106D01*
X0141148Y0136006D01*
X0141551Y0135032D01*
X0141551Y0131893D01*
X0141022Y0132422D01*
X0134600Y0132422D01*
X0133874Y0131696D01*
X0133874Y0131696D01*
X0133874Y0132056D01*
X0130921Y0135009D01*
X0129768Y0136162D01*
X0129254Y0136162D01*
X0129446Y0136625D01*
X0129446Y0137725D01*
X0129025Y0138741D01*
X0128247Y0139519D01*
X0127231Y0139940D01*
X0126130Y0139940D01*
X0125114Y0139519D01*
X0124336Y0138741D01*
X0123915Y0137725D01*
X0123915Y0137391D01*
X0122460Y0135936D01*
X0121858Y0136538D01*
X0120841Y0136959D01*
X0119741Y0136959D01*
X0118725Y0136538D01*
X0117947Y0135760D01*
X0117526Y0134744D01*
X0117526Y0133643D01*
X0117947Y0132627D01*
X0118126Y0132448D01*
X0118126Y0132422D01*
X0116131Y0132422D01*
X0116336Y0132627D01*
X0116757Y0133643D01*
X0116757Y0134744D01*
X0116336Y0135760D01*
X0115559Y0136538D01*
X0114542Y0136959D01*
X0114395Y0136959D01*
X0114395Y0137893D01*
X0113974Y0138910D01*
X0113196Y0139687D01*
X0112180Y0140108D01*
X0111080Y0140108D01*
X0110063Y0139687D01*
X0109491Y0139115D01*
X0109250Y0139697D01*
X0108472Y0140475D01*
X0107456Y0140896D01*
X0106355Y0140896D01*
X0105339Y0140475D01*
X0104561Y0139697D01*
X0104140Y0138681D01*
X0104140Y0137580D01*
X0104248Y0137320D01*
X0104248Y0132422D01*
X0097198Y0132422D01*
X0096472Y0131696D01*
X0095747Y0132422D01*
X0087356Y0132422D01*
X0086433Y0131499D01*
X0086433Y0126258D01*
X0087356Y0125335D01*
X0088402Y0125335D01*
X0088402Y0120284D01*
X0089071Y0119614D01*
X0089071Y0119361D01*
X0089492Y0118345D01*
X0090270Y0117567D01*
X0091286Y0117146D01*
X0092386Y0117146D01*
X0093130Y0117454D01*
X0093117Y0117421D01*
X0093117Y0116321D01*
X0093215Y0116083D01*
X0091123Y0116083D01*
X0089965Y0115604D01*
X0089451Y0115090D01*
X0083677Y0115090D01*
X0083677Y0121764D01*
X0084661Y0122748D01*
X0084661Y0126061D01*
X0084858Y0126258D01*
X0084858Y0134245D01*
X0085200Y0135069D01*
X0085584Y0135069D01*
X0085763Y0134890D01*
X0086779Y0134469D01*
X0087879Y0134469D01*
X0088896Y0134890D01*
X0089674Y0135668D01*
X0090095Y0136684D01*
X0090095Y0137784D01*
X0089674Y0138801D01*
X0088896Y0139579D01*
X0087879Y0140000D01*
X0086779Y0140000D01*
X0085763Y0139579D01*
X0085584Y0139400D01*
X0085294Y0139400D01*
X0084379Y0140315D01*
X0080613Y0140315D01*
X0079218Y0138920D01*
X0077950Y0137652D01*
X0077950Y0133885D01*
X0078559Y0133276D01*
X0078559Y0129891D01*
X0074622Y0125954D01*
X0074622Y0133560D01*
X0074143Y0134718D01*
X0069787Y0139073D01*
X0069787Y0141088D01*
X0067108Y0143768D01*
X0063318Y0143768D01*
X0060638Y0141088D01*
X0060638Y0137299D01*
X0063318Y0134619D01*
X0065333Y0134619D01*
X0068323Y0131629D01*
X0068323Y0126049D01*
X0064665Y0122392D01*
X0064545Y0122392D01*
X0063384Y0121911D01*
X0063265Y0121792D01*
X0059035Y0121792D01*
X0058560Y0121595D01*
X0057237Y0121595D01*
X0057060Y0121418D01*
X0047198Y0121418D01*
X0046276Y0120495D01*
X0046276Y0117222D01*
X0047139Y0116359D01*
X0047001Y0116221D01*
X0043073Y0116221D01*
X0042624Y0115772D01*
X0042484Y0115911D01*
X0042484Y0117382D01*
X0044729Y0119627D01*
X0045882Y0120780D01*
X0045882Y0124619D01*
X0047108Y0124619D01*
X0049787Y0127299D01*
X0049787Y0131088D01*
X0048295Y0132581D01*
X0050123Y0134409D01*
X0053212Y0134409D01*
X0053422Y0134619D01*
X0057108Y0134619D01*
X0059787Y0137299D01*
X0059787Y0141088D01*
X0057108Y0143768D01*
X0053318Y0143768D01*
X0050638Y0141088D01*
X0050638Y0138346D01*
X0049787Y0138346D01*
X0049787Y0141088D01*
X0047108Y0143768D01*
X0043318Y0143768D01*
X0040638Y0141088D01*
X0040638Y0137299D01*
X0042562Y0135375D01*
X0037863Y0135375D01*
X0039787Y0137299D01*
X0039787Y0141088D01*
X0037108Y0143768D01*
X0033318Y0143768D01*
X0030638Y0141088D01*
X0030638Y0137299D01*
X0032562Y0135375D01*
X0030500Y0135375D01*
X0026787Y0131662D01*
X0026787Y0127107D01*
X0026529Y0127107D01*
X0025803Y0126381D01*
X0025077Y0127107D01*
X0021140Y0127107D01*
X0020944Y0127304D01*
X0016883Y0127304D01*
X0015961Y0126381D01*
X0015961Y0122786D01*
X0015804Y0122786D01*
X0014788Y0122365D01*
X0014010Y0121587D01*
X0013589Y0120570D01*
X0013589Y0120217D01*
X0011765Y0120217D01*
X0010843Y0119295D01*
X0010843Y0114447D01*
X0010978Y0114312D01*
X0010387Y0114312D01*
X0009465Y0113389D01*
X0009465Y0108163D01*
X0009331Y0108219D01*
X0008074Y0108219D01*
X0007693Y0108061D01*
X0007693Y0133357D01*
X0007877Y0135135D01*
X0008925Y0138570D01*
X0010813Y0141625D01*
X0013417Y0144099D01*
X0016565Y0145828D01*
X0020049Y0146699D01*
X0021844Y0146792D01*
X0021856Y0146792D01*
X0022499Y0146784D01*
X0022507Y0146792D01*
X0154256Y0146792D01*
X0153853Y0146389D01*
X0153600Y0146389D01*
X0152583Y0145968D01*
X0151805Y0145190D01*
X0151384Y0144174D01*
X0151384Y0143073D01*
X0151805Y0142057D01*
X0152583Y0141279D01*
X0153600Y0140858D01*
X0154700Y0140858D01*
X0155470Y0141177D01*
X0155742Y0140520D01*
X0156520Y0139742D01*
X0157537Y0139321D01*
X0158637Y0139321D01*
X0159653Y0139742D01*
X0160431Y0140520D01*
X0160493Y0140671D01*
X0162614Y0140671D01*
X0162614Y0129925D01*
X0162417Y0129728D01*
X0162417Y0125542D01*
X0157699Y0125542D01*
X0154540Y0128701D01*
X0151681Y0128701D01*
X0150803Y0129579D01*
X0149535Y0130847D01*
X0147850Y0130847D01*
X0147850Y0131499D01*
X0146928Y0132422D01*
X0145882Y0132422D01*
X0145882Y0134613D01*
X0146258Y0134989D01*
X0146679Y0136006D01*
X0146679Y0137106D01*
X0146678Y0137106D02*
X0162614Y0137106D01*
X0162614Y0136321D02*
X0146679Y0136321D01*
X0146484Y0135535D02*
X0162614Y0135535D01*
X0162614Y0134749D02*
X0146017Y0134749D01*
X0145882Y0133963D02*
X0162614Y0133963D01*
X0162614Y0133177D02*
X0145882Y0133177D01*
X0146959Y0132391D02*
X0162614Y0132391D01*
X0162614Y0131605D02*
X0147745Y0131605D01*
X0149563Y0130819D02*
X0162614Y0130819D01*
X0162614Y0130033D02*
X0150349Y0130033D01*
X0151134Y0129247D02*
X0162417Y0129247D01*
X0162417Y0128461D02*
X0154779Y0128461D01*
X0155565Y0127675D02*
X0162417Y0127675D01*
X0162417Y0126890D02*
X0156351Y0126890D01*
X0157137Y0126104D02*
X0162417Y0126104D01*
X0161226Y0121211D02*
X0155905Y0121211D01*
X0152746Y0124370D01*
X0149887Y0124370D01*
X0148619Y0125638D01*
X0147850Y0126407D01*
X0147850Y0126258D01*
X0147305Y0125712D01*
X0147457Y0125560D01*
X0147457Y0122776D01*
X0149684Y0122776D01*
X0150606Y0121854D01*
X0150606Y0116612D01*
X0149684Y0115690D01*
X0144048Y0115690D01*
X0143126Y0116612D01*
X0143126Y0121854D01*
X0143520Y0122247D01*
X0143520Y0123929D01*
X0141748Y0125701D01*
X0141748Y0126061D01*
X0141022Y0125335D01*
X0139841Y0125335D01*
X0140370Y0124806D01*
X0140370Y0119959D01*
X0139448Y0119036D01*
X0137133Y0119036D01*
X0136649Y0118552D01*
X0136649Y0116083D01*
X0143047Y0116083D01*
X0144205Y0115604D01*
X0144316Y0115493D01*
X0152314Y0115493D01*
X0152812Y0115699D01*
X0153912Y0115699D01*
X0154929Y0115278D01*
X0155707Y0114500D01*
X0156128Y0113484D01*
X0156128Y0112987D01*
X0156357Y0112758D01*
X0156746Y0111817D01*
X0156746Y0102932D01*
X0157106Y0102572D01*
X0157462Y0101713D01*
X0159661Y0101713D01*
X0160655Y0102708D01*
X0160655Y0116121D01*
X0161808Y0117274D01*
X0162417Y0117883D01*
X0162417Y0120020D01*
X0161226Y0121211D01*
X0161835Y0120602D02*
X0150606Y0120602D01*
X0150606Y0119816D02*
X0162417Y0119816D01*
X0162417Y0119030D02*
X0150606Y0119030D01*
X0150606Y0118245D02*
X0162417Y0118245D01*
X0161993Y0117459D02*
X0150606Y0117459D01*
X0150606Y0116673D02*
X0161207Y0116673D01*
X0160655Y0115887D02*
X0149881Y0115887D01*
X0155106Y0115101D02*
X0160655Y0115101D01*
X0160655Y0114315D02*
X0155783Y0114315D01*
X0156109Y0113529D02*
X0160655Y0113529D01*
X0160655Y0112743D02*
X0156363Y0112743D01*
X0156688Y0111957D02*
X0160655Y0111957D01*
X0160655Y0111171D02*
X0156746Y0111171D01*
X0156746Y0110385D02*
X0160655Y0110385D01*
X0160655Y0109599D02*
X0156746Y0109599D01*
X0156746Y0108814D02*
X0160655Y0108814D01*
X0160655Y0108028D02*
X0156746Y0108028D01*
X0156746Y0107242D02*
X0160655Y0107242D01*
X0160655Y0106456D02*
X0156746Y0106456D01*
X0156746Y0105670D02*
X0160655Y0105670D01*
X0160655Y0104884D02*
X0156746Y0104884D01*
X0156746Y0104098D02*
X0160655Y0104098D01*
X0160655Y0103312D02*
X0156746Y0103312D01*
X0157126Y0102526D02*
X0160474Y0102526D01*
X0159688Y0101740D02*
X0157451Y0101740D01*
X0159465Y0098733D02*
X0162624Y0101892D01*
X0162624Y0115305D01*
X0166551Y0119233D01*
X0175697Y0124370D02*
X0179517Y0124370D01*
X0182883Y0121005D01*
X0184677Y0121005D01*
X0185536Y0121005D01*
X0185646Y0120895D01*
X0185646Y0118665D01*
X0185511Y0118800D01*
X0184121Y0118800D01*
X0184082Y0118839D01*
X0181228Y0118839D01*
X0175697Y0124370D01*
X0176321Y0123746D02*
X0180141Y0123746D01*
X0180927Y0122960D02*
X0177107Y0122960D01*
X0177893Y0122174D02*
X0181713Y0122174D01*
X0182499Y0121388D02*
X0178679Y0121388D01*
X0179465Y0120602D02*
X0185646Y0120602D01*
X0185646Y0119816D02*
X0180250Y0119816D01*
X0181036Y0119030D02*
X0185646Y0119030D01*
X0198835Y0122776D02*
X0198835Y0126429D01*
X0197566Y0127697D01*
X0195907Y0129356D01*
X0195864Y0129461D01*
X0195086Y0130239D01*
X0194070Y0130660D01*
X0193817Y0130660D01*
X0193432Y0131044D01*
X0200694Y0131044D01*
X0200803Y0130934D01*
X0200803Y0130318D01*
X0200213Y0129728D01*
X0200213Y0126061D01*
X0200803Y0125470D01*
X0200803Y0124854D01*
X0200016Y0124067D01*
X0200016Y0123928D01*
X0199524Y0123436D01*
X0199524Y0122110D01*
X0198857Y0122776D01*
X0198835Y0122776D01*
X0198835Y0122960D02*
X0199524Y0122960D01*
X0199524Y0122174D02*
X0199459Y0122174D01*
X0199834Y0123746D02*
X0198835Y0123746D01*
X0198835Y0124532D02*
X0200481Y0124532D01*
X0200803Y0125318D02*
X0198835Y0125318D01*
X0198835Y0126104D02*
X0200213Y0126104D01*
X0200213Y0126890D02*
X0198374Y0126890D01*
X0197588Y0127675D02*
X0200213Y0127675D01*
X0200213Y0128461D02*
X0196802Y0128461D01*
X0196016Y0129247D02*
X0200213Y0129247D01*
X0200518Y0130033D02*
X0195292Y0130033D01*
X0193657Y0130819D02*
X0200803Y0130819D01*
X0206424Y0139312D02*
X0203559Y0142177D01*
X0203559Y0145869D01*
X0202637Y0146792D01*
X0190702Y0146792D01*
X0189780Y0145869D01*
X0189780Y0142734D01*
X0189123Y0142077D01*
X0188954Y0142077D01*
X0187793Y0141596D01*
X0186905Y0140707D01*
X0186424Y0139546D01*
X0186424Y0139312D01*
X0180466Y0139312D01*
X0180134Y0138980D01*
X0179802Y0139312D01*
X0172592Y0139312D01*
X0171669Y0138389D01*
X0171669Y0133909D01*
X0170795Y0134784D01*
X0169701Y0134784D01*
X0169701Y0140106D01*
X0170677Y0140511D01*
X0171455Y0141289D01*
X0171876Y0142305D01*
X0171876Y0143405D01*
X0171455Y0144421D01*
X0170677Y0145199D01*
X0169660Y0145620D01*
X0169513Y0145620D01*
X0169513Y0145767D01*
X0169092Y0146784D01*
X0169084Y0146792D01*
X0222584Y0146792D01*
X0222457Y0146739D01*
X0221679Y0145962D01*
X0221258Y0144945D01*
X0221258Y0144823D01*
X0219442Y0144823D01*
X0218520Y0143901D01*
X0218520Y0140234D01*
X0219442Y0139312D01*
X0221062Y0139312D01*
X0220302Y0138524D01*
X0219959Y0138524D01*
X0219172Y0139312D01*
X0206424Y0139312D01*
X0206272Y0139464D02*
X0219290Y0139464D01*
X0219805Y0138678D02*
X0220451Y0138678D01*
X0218520Y0140250D02*
X0205486Y0140250D01*
X0204700Y0141036D02*
X0218520Y0141036D01*
X0218520Y0141822D02*
X0203914Y0141822D01*
X0203559Y0142608D02*
X0218520Y0142608D01*
X0218520Y0143394D02*
X0203559Y0143394D01*
X0203559Y0144180D02*
X0218798Y0144180D01*
X0221267Y0144966D02*
X0203559Y0144966D01*
X0203559Y0145751D02*
X0221592Y0145751D01*
X0222255Y0146537D02*
X0202891Y0146537D01*
X0190447Y0146537D02*
X0169194Y0146537D01*
X0169513Y0145751D02*
X0189780Y0145751D01*
X0189780Y0144966D02*
X0170910Y0144966D01*
X0171555Y0144180D02*
X0189780Y0144180D01*
X0189780Y0143394D02*
X0171876Y0143394D01*
X0171876Y0142608D02*
X0189654Y0142608D01*
X0188338Y0141822D02*
X0171676Y0141822D01*
X0171202Y0141036D02*
X0187233Y0141036D01*
X0186715Y0140250D02*
X0170048Y0140250D01*
X0169701Y0139464D02*
X0186424Y0139464D01*
X0171958Y0138678D02*
X0169701Y0138678D01*
X0169701Y0137892D02*
X0171669Y0137892D01*
X0171669Y0137106D02*
X0169701Y0137106D01*
X0169701Y0136321D02*
X0171669Y0136321D01*
X0171669Y0135535D02*
X0169701Y0135535D01*
X0170830Y0134749D02*
X0171669Y0134749D01*
X0171669Y0133963D02*
X0171616Y0133963D01*
X0162614Y0137892D02*
X0146353Y0137892D01*
X0145702Y0138678D02*
X0162614Y0138678D01*
X0162614Y0139464D02*
X0158982Y0139464D01*
X0160161Y0140250D02*
X0162614Y0140250D01*
X0157191Y0139464D02*
X0128302Y0139464D01*
X0129051Y0138678D02*
X0142125Y0138678D01*
X0141474Y0137892D02*
X0129376Y0137892D01*
X0129446Y0137106D02*
X0141148Y0137106D01*
X0141148Y0136321D02*
X0129320Y0136321D01*
X0130396Y0135535D02*
X0141343Y0135535D01*
X0141551Y0134749D02*
X0131181Y0134749D01*
X0131967Y0133963D02*
X0141551Y0133963D01*
X0141551Y0133177D02*
X0132753Y0133177D01*
X0133539Y0132391D02*
X0134569Y0132391D01*
X0131906Y0131241D02*
X0128953Y0134194D01*
X0126591Y0134194D01*
X0125884Y0136378D02*
X0126680Y0137175D01*
X0125884Y0136378D02*
X0125686Y0136378D01*
X0124406Y0135098D01*
X0124406Y0133289D01*
X0125686Y0132009D01*
X0127533Y0132009D01*
X0127969Y0131574D01*
X0127969Y0128879D01*
X0126000Y0128879D02*
X0126000Y0123760D01*
X0128953Y0120808D01*
X0128971Y0123573D02*
X0127968Y0124576D01*
X0127968Y0125335D01*
X0129211Y0125335D01*
X0129937Y0126061D01*
X0130663Y0125335D01*
X0133148Y0125335D01*
X0133677Y0125864D01*
X0133677Y0123060D01*
X0134355Y0122383D01*
X0132318Y0120346D01*
X0132318Y0116083D01*
X0125777Y0116083D01*
X0126433Y0116740D01*
X0126854Y0117756D01*
X0126854Y0118250D01*
X0127370Y0118463D01*
X0127378Y0118472D01*
X0127386Y0118463D01*
X0128403Y0118042D01*
X0129503Y0118042D01*
X0130519Y0118463D01*
X0131297Y0119241D01*
X0131718Y0120258D01*
X0131718Y0121358D01*
X0131297Y0122374D01*
X0130519Y0123152D01*
X0129503Y0123573D01*
X0128971Y0123573D01*
X0128798Y0123746D02*
X0133677Y0123746D01*
X0133677Y0124532D02*
X0128012Y0124532D01*
X0127968Y0125318D02*
X0133677Y0125318D01*
X0133778Y0122960D02*
X0130711Y0122960D01*
X0131380Y0122174D02*
X0134147Y0122174D01*
X0133361Y0121388D02*
X0131706Y0121388D01*
X0131718Y0120602D02*
X0132575Y0120602D01*
X0132318Y0119816D02*
X0131535Y0119816D01*
X0131086Y0119030D02*
X0132318Y0119030D01*
X0132318Y0118245D02*
X0129991Y0118245D01*
X0127915Y0118245D02*
X0126854Y0118245D01*
X0126731Y0117459D02*
X0132318Y0117459D01*
X0132318Y0116673D02*
X0126366Y0116673D01*
X0124089Y0118306D02*
X0122063Y0120332D01*
X0122063Y0128879D01*
X0124031Y0128879D02*
X0124031Y0122579D01*
X0125803Y0120808D01*
X0119504Y0120808D02*
X0118126Y0122186D01*
X0118126Y0128879D01*
X0120094Y0128879D02*
X0120094Y0133997D01*
X0120291Y0134194D01*
X0117719Y0133177D02*
X0116564Y0133177D01*
X0116757Y0133963D02*
X0117526Y0133963D01*
X0117528Y0134749D02*
X0116755Y0134749D01*
X0116430Y0135535D02*
X0117854Y0135535D01*
X0118508Y0136321D02*
X0115776Y0136321D01*
X0114395Y0137106D02*
X0123631Y0137106D01*
X0123985Y0137892D02*
X0114395Y0137892D01*
X0114070Y0138678D02*
X0124310Y0138678D01*
X0125059Y0139464D02*
X0113420Y0139464D01*
X0111630Y0137343D02*
X0110252Y0135965D01*
X0110252Y0128879D01*
X0112220Y0128879D02*
X0112220Y0132422D01*
X0113992Y0134194D01*
X0114189Y0128879D02*
X0114189Y0121810D01*
X0114523Y0121476D01*
X0114523Y0118487D01*
X0115352Y0117658D01*
X0116157Y0120002D02*
X0118333Y0117827D01*
X0116157Y0120002D02*
X0116157Y0128879D01*
X0112220Y0125335D02*
X0112220Y0120995D01*
X0112554Y0120661D01*
X0112554Y0117672D01*
X0112587Y0117640D01*
X0112587Y0117108D01*
X0113008Y0116092D01*
X0113016Y0116083D01*
X0098549Y0116083D01*
X0098647Y0116321D01*
X0098647Y0117421D01*
X0098226Y0118437D01*
X0097850Y0118813D01*
X0097850Y0119951D01*
X0099114Y0119951D01*
X0099439Y0119627D01*
X0101026Y0119627D01*
X0101402Y0119251D01*
X0102418Y0118830D01*
X0103519Y0118830D01*
X0104535Y0119251D01*
X0105313Y0120029D01*
X0105734Y0121045D01*
X0105734Y0122145D01*
X0105313Y0123162D01*
X0104535Y0123939D01*
X0103519Y0124360D01*
X0102418Y0124360D01*
X0101402Y0123939D01*
X0101187Y0123725D01*
X0100630Y0124282D01*
X0097045Y0124282D01*
X0096669Y0124657D01*
X0096669Y0125864D01*
X0097198Y0125335D01*
X0106315Y0125335D01*
X0106315Y0124914D01*
X0106502Y0124726D01*
X0106502Y0124195D01*
X0106923Y0123178D01*
X0107701Y0122400D01*
X0108718Y0121979D01*
X0109818Y0121979D01*
X0110834Y0122400D01*
X0111612Y0123178D01*
X0112033Y0124195D01*
X0112033Y0125295D01*
X0112016Y0125335D01*
X0112220Y0125335D01*
X0112220Y0125318D02*
X0112024Y0125318D01*
X0112033Y0124532D02*
X0112220Y0124532D01*
X0112220Y0123746D02*
X0111847Y0123746D01*
X0112220Y0122960D02*
X0111394Y0122960D01*
X0112220Y0122174D02*
X0110288Y0122174D01*
X0108248Y0122174D02*
X0105722Y0122174D01*
X0105734Y0121388D02*
X0112220Y0121388D01*
X0112554Y0120602D02*
X0105550Y0120602D01*
X0105101Y0119816D02*
X0112554Y0119816D01*
X0112554Y0119030D02*
X0104003Y0119030D01*
X0101934Y0119030D02*
X0097850Y0119030D01*
X0097850Y0119816D02*
X0099249Y0119816D01*
X0098306Y0118245D02*
X0112554Y0118245D01*
X0112587Y0117459D02*
X0098632Y0117459D01*
X0098647Y0116673D02*
X0112767Y0116673D01*
X0102969Y0121595D02*
X0100255Y0121595D01*
X0099733Y0122117D01*
X0101166Y0123746D02*
X0101209Y0123746D01*
X0104728Y0123746D02*
X0106688Y0123746D01*
X0106502Y0124532D02*
X0096795Y0124532D01*
X0096669Y0125318D02*
X0106315Y0125318D01*
X0108283Y0125729D02*
X0109268Y0124745D01*
X0108283Y0125729D02*
X0108283Y0128879D01*
X0104248Y0133177D02*
X0084858Y0133177D01*
X0084858Y0133963D02*
X0104248Y0133963D01*
X0104248Y0134749D02*
X0088555Y0134749D01*
X0089541Y0135535D02*
X0104248Y0135535D01*
X0104248Y0136321D02*
X0089944Y0136321D01*
X0090095Y0137106D02*
X0104248Y0137106D01*
X0104140Y0137892D02*
X0090050Y0137892D01*
X0089724Y0138678D02*
X0104140Y0138678D01*
X0104465Y0139464D02*
X0089010Y0139464D01*
X0085649Y0139464D02*
X0085230Y0139464D01*
X0084444Y0140250D02*
X0105114Y0140250D01*
X0108697Y0140250D02*
X0156012Y0140250D01*
X0155529Y0141036D02*
X0155129Y0141036D01*
X0153170Y0141036D02*
X0069787Y0141036D01*
X0069787Y0140250D02*
X0080548Y0140250D01*
X0079762Y0139464D02*
X0069787Y0139464D01*
X0070182Y0138678D02*
X0078976Y0138678D01*
X0078190Y0137892D02*
X0070968Y0137892D01*
X0071754Y0137106D02*
X0077950Y0137106D01*
X0077950Y0136321D02*
X0072540Y0136321D01*
X0073326Y0135535D02*
X0077950Y0135535D01*
X0077950Y0134749D02*
X0074112Y0134749D01*
X0074455Y0133963D02*
X0077950Y0133963D01*
X0078559Y0133177D02*
X0074622Y0133177D01*
X0074622Y0132391D02*
X0078559Y0132391D01*
X0078559Y0131605D02*
X0074622Y0131605D01*
X0074622Y0130819D02*
X0078559Y0130819D01*
X0078559Y0130033D02*
X0074622Y0130033D01*
X0074622Y0129247D02*
X0077916Y0129247D01*
X0077130Y0128461D02*
X0074622Y0128461D01*
X0074622Y0127675D02*
X0076344Y0127675D01*
X0075558Y0126890D02*
X0074622Y0126890D01*
X0074622Y0126104D02*
X0074772Y0126104D01*
X0074622Y0123170D02*
X0074622Y0118446D01*
X0076984Y0116083D01*
X0079937Y0116083D01*
X0083677Y0115887D02*
X0090648Y0115887D01*
X0089462Y0115101D02*
X0083677Y0115101D01*
X0083677Y0116673D02*
X0093117Y0116673D01*
X0090531Y0117459D02*
X0083677Y0117459D01*
X0083677Y0118245D02*
X0089592Y0118245D01*
X0089208Y0119030D02*
X0083677Y0119030D01*
X0083677Y0119816D02*
X0088869Y0119816D01*
X0088402Y0120602D02*
X0083677Y0120602D01*
X0083677Y0121388D02*
X0088402Y0121388D01*
X0088402Y0122174D02*
X0084087Y0122174D01*
X0084661Y0122960D02*
X0088402Y0122960D01*
X0088402Y0123746D02*
X0084661Y0123746D01*
X0084661Y0124532D02*
X0088402Y0124532D01*
X0088402Y0125318D02*
X0084661Y0125318D01*
X0084704Y0126104D02*
X0086587Y0126104D01*
X0086433Y0126890D02*
X0084858Y0126890D01*
X0084858Y0127675D02*
X0086433Y0127675D01*
X0086433Y0128461D02*
X0084858Y0128461D01*
X0084858Y0129247D02*
X0086433Y0129247D01*
X0086433Y0130033D02*
X0084858Y0130033D01*
X0084858Y0130819D02*
X0086433Y0130819D01*
X0086539Y0131605D02*
X0084858Y0131605D01*
X0084858Y0132391D02*
X0087325Y0132391D01*
X0086104Y0134749D02*
X0085067Y0134749D01*
X0082693Y0128879D02*
X0082693Y0123564D01*
X0079937Y0120808D01*
X0074622Y0123170D02*
X0080331Y0128879D01*
X0080724Y0128879D01*
X0092535Y0122579D02*
X0095882Y0119233D01*
X0095882Y0116871D01*
X0105396Y0122960D02*
X0107142Y0122960D01*
X0097167Y0132391D02*
X0095778Y0132391D01*
X0109346Y0139464D02*
X0109840Y0139464D01*
X0122075Y0136321D02*
X0122845Y0136321D01*
X0131906Y0131241D02*
X0131906Y0128879D01*
X0131521Y0129263D01*
X0139859Y0125318D02*
X0142131Y0125318D01*
X0142917Y0124532D02*
X0140370Y0124532D01*
X0140370Y0123746D02*
X0143520Y0123746D01*
X0143520Y0122960D02*
X0140370Y0122960D01*
X0140370Y0122174D02*
X0143446Y0122174D01*
X0143126Y0121388D02*
X0140370Y0121388D01*
X0140370Y0120602D02*
X0143126Y0120602D01*
X0143126Y0119816D02*
X0140228Y0119816D01*
X0143126Y0119030D02*
X0137128Y0119030D01*
X0136649Y0118245D02*
X0143126Y0118245D01*
X0143126Y0117459D02*
X0136649Y0117459D01*
X0136649Y0116673D02*
X0143126Y0116673D01*
X0143521Y0115887D02*
X0143851Y0115887D01*
X0146866Y0119233D02*
X0145488Y0120611D01*
X0145488Y0124745D01*
X0143717Y0126516D01*
X0143717Y0128879D01*
X0141551Y0132391D02*
X0141053Y0132391D01*
X0147696Y0126104D02*
X0148154Y0126104D01*
X0147457Y0125318D02*
X0148939Y0125318D01*
X0149725Y0124532D02*
X0147457Y0124532D01*
X0147457Y0123746D02*
X0153370Y0123746D01*
X0154156Y0122960D02*
X0147457Y0122960D01*
X0150286Y0122174D02*
X0154942Y0122174D01*
X0155727Y0121388D02*
X0150606Y0121388D01*
X0148647Y0110375D02*
X0144316Y0110375D01*
X0144205Y0110264D01*
X0143047Y0109784D01*
X0108835Y0109784D01*
X0104904Y0109784D01*
X0109819Y0104870D01*
X0109819Y0104675D01*
X0110605Y0104675D01*
X0111405Y0104344D01*
X0111405Y0104778D01*
X0111826Y0105795D01*
X0112604Y0106573D01*
X0113620Y0106994D01*
X0114720Y0106994D01*
X0115737Y0106573D01*
X0116514Y0105795D01*
X0116796Y0105116D01*
X0117945Y0106265D01*
X0119249Y0106265D01*
X0122160Y0103354D01*
X0122160Y0103393D01*
X0125031Y0106265D01*
X0126336Y0106265D01*
X0129444Y0103157D01*
X0129444Y0103393D01*
X0132315Y0106265D01*
X0133620Y0106265D01*
X0135174Y0104710D01*
X0135361Y0104632D01*
X0135506Y0104488D01*
X0139051Y0104488D01*
X0140054Y0103485D01*
X0140567Y0103485D01*
X0141042Y0103682D01*
X0142060Y0103682D01*
X0143001Y0103292D01*
X0145736Y0100557D01*
X0146495Y0101316D01*
X0147511Y0101737D01*
X0148043Y0101737D01*
X0149444Y0103138D01*
X0149444Y0108217D01*
X0149068Y0108592D01*
X0148647Y0109609D01*
X0148647Y0110375D01*
X0148651Y0109599D02*
X0105089Y0109599D01*
X0105875Y0108814D02*
X0148977Y0108814D01*
X0149444Y0108028D02*
X0106661Y0108028D01*
X0107447Y0107242D02*
X0149444Y0107242D01*
X0149444Y0106456D02*
X0115853Y0106456D01*
X0116566Y0105670D02*
X0117350Y0105670D01*
X0119844Y0105670D02*
X0124437Y0105670D01*
X0123651Y0104884D02*
X0120630Y0104884D01*
X0121416Y0104098D02*
X0122865Y0104098D01*
X0126931Y0105670D02*
X0131720Y0105670D01*
X0130934Y0104884D02*
X0127717Y0104884D01*
X0128503Y0104098D02*
X0130148Y0104098D01*
X0129444Y0103312D02*
X0129288Y0103312D01*
X0129183Y0101773D02*
X0129183Y0108439D01*
X0134214Y0105670D02*
X0149444Y0105670D01*
X0149444Y0104884D02*
X0135000Y0104884D01*
X0139441Y0104098D02*
X0149444Y0104098D01*
X0149444Y0103312D02*
X0142952Y0103312D01*
X0143767Y0102526D02*
X0148832Y0102526D01*
X0148046Y0101740D02*
X0144553Y0101740D01*
X0145338Y0100954D02*
X0146134Y0100954D01*
X0148062Y0098972D02*
X0151413Y0102323D01*
X0151413Y0110159D01*
X0152157Y0100283D02*
X0152378Y0100063D01*
X0152378Y0097118D01*
X0150777Y0095516D01*
X0149647Y0096646D01*
X0150406Y0097405D01*
X0150827Y0098422D01*
X0150827Y0098953D01*
X0152157Y0100283D01*
X0152042Y0100169D02*
X0152272Y0100169D01*
X0152378Y0099383D02*
X0151256Y0099383D01*
X0150827Y0098597D02*
X0152378Y0098597D01*
X0152378Y0097811D02*
X0150574Y0097811D01*
X0150026Y0097025D02*
X0152285Y0097025D01*
X0151499Y0096239D02*
X0150054Y0096239D01*
X0155594Y0093095D02*
X0162417Y0093095D01*
X0162417Y0092309D02*
X0154808Y0092309D01*
X0154396Y0091897D02*
X0156787Y0094289D01*
X0156844Y0094233D01*
X0162085Y0094233D01*
X0162417Y0094565D01*
X0162417Y0088069D01*
X0163340Y0087146D01*
X0163992Y0087146D01*
X0163992Y0086711D01*
X0158087Y0080805D01*
X0156709Y0082183D01*
X0156709Y0083527D01*
X0157106Y0083925D01*
X0157496Y0084866D01*
X0157496Y0088246D01*
X0157106Y0089186D01*
X0154396Y0091897D01*
X0154769Y0091523D02*
X0162417Y0091523D01*
X0162417Y0090738D02*
X0155555Y0090738D01*
X0156341Y0089952D02*
X0162417Y0089952D01*
X0162417Y0089166D02*
X0157115Y0089166D01*
X0157441Y0088380D02*
X0162417Y0088380D01*
X0162892Y0087594D02*
X0157496Y0087594D01*
X0157496Y0086808D02*
X0163992Y0086808D01*
X0163303Y0086022D02*
X0157496Y0086022D01*
X0157496Y0085236D02*
X0162517Y0085236D01*
X0161731Y0084450D02*
X0157324Y0084450D01*
X0156846Y0083664D02*
X0160945Y0083664D01*
X0160160Y0082878D02*
X0156709Y0082878D01*
X0156800Y0082093D02*
X0159374Y0082093D01*
X0158588Y0081307D02*
X0157585Y0081307D01*
X0153362Y0081634D02*
X0152850Y0081516D01*
X0146433Y0081516D01*
X0146433Y0079548D02*
X0141236Y0079548D01*
X0140764Y0079075D01*
X0138795Y0077133D02*
X0139197Y0076731D01*
X0140214Y0076310D01*
X0141314Y0076310D01*
X0142102Y0076637D01*
X0142102Y0072399D01*
X0142828Y0071674D01*
X0142102Y0070948D01*
X0142102Y0068189D01*
X0141845Y0068446D01*
X0140683Y0068927D01*
X0139427Y0068927D01*
X0138266Y0068446D01*
X0137377Y0067558D01*
X0137229Y0067201D01*
X0132834Y0062806D01*
X0132601Y0062572D01*
X0132317Y0062856D01*
X0131156Y0063337D01*
X0129899Y0063337D01*
X0128738Y0062856D01*
X0128694Y0062812D01*
X0124498Y0062812D01*
X0123795Y0063515D01*
X0123795Y0080247D01*
X0124778Y0080247D01*
X0125795Y0080668D01*
X0126197Y0081070D01*
X0126599Y0080668D01*
X0127615Y0080247D01*
X0128715Y0080247D01*
X0129732Y0080668D01*
X0130510Y0081446D01*
X0130931Y0082462D01*
X0130931Y0082994D01*
X0131472Y0083536D01*
X0131472Y0082017D01*
X0129722Y0080266D01*
X0129190Y0080266D01*
X0128174Y0079845D01*
X0127396Y0079067D01*
X0126975Y0078051D01*
X0126975Y0076951D01*
X0127396Y0075934D01*
X0128174Y0075156D01*
X0129190Y0074735D01*
X0129684Y0074735D01*
X0129897Y0074220D01*
X0130675Y0073442D01*
X0131692Y0073021D01*
X0132792Y0073021D01*
X0133808Y0073442D01*
X0133826Y0073459D01*
X0134811Y0073051D01*
X0135911Y0073051D01*
X0136928Y0073472D01*
X0137705Y0074250D01*
X0138126Y0075267D01*
X0138126Y0075798D01*
X0138795Y0076467D01*
X0138795Y0077133D01*
X0138795Y0076591D02*
X0139535Y0076591D01*
X0138134Y0075805D02*
X0142102Y0075805D01*
X0142102Y0075019D02*
X0138024Y0075019D01*
X0137689Y0074233D02*
X0142102Y0074233D01*
X0142102Y0073448D02*
X0136868Y0073448D01*
X0133855Y0073448D02*
X0133814Y0073448D01*
X0130670Y0073448D02*
X0123795Y0073448D01*
X0123795Y0074233D02*
X0129892Y0074233D01*
X0128504Y0075019D02*
X0123795Y0075019D01*
X0123795Y0075805D02*
X0127525Y0075805D01*
X0127124Y0076591D02*
X0123795Y0076591D01*
X0123795Y0077377D02*
X0126975Y0077377D01*
X0127021Y0078163D02*
X0123795Y0078163D01*
X0123795Y0078949D02*
X0127347Y0078949D01*
X0128064Y0079735D02*
X0123795Y0079735D01*
X0125439Y0080521D02*
X0126955Y0080521D01*
X0129376Y0080521D02*
X0129976Y0080521D01*
X0130370Y0081307D02*
X0130762Y0081307D01*
X0130778Y0082093D02*
X0131472Y0082093D01*
X0131472Y0082878D02*
X0130931Y0082878D01*
X0128165Y0083012D02*
X0131472Y0086320D01*
X0131472Y0094509D01*
X0133441Y0094509D02*
X0133441Y0081201D01*
X0133441Y0081201D01*
X0129740Y0077501D01*
X0132242Y0075786D02*
X0135409Y0078954D01*
X0135409Y0094509D01*
X0137378Y0094509D02*
X0137378Y0090650D01*
X0136827Y0090099D01*
X0136827Y0077282D01*
X0135361Y0075817D01*
X0133441Y0081201D02*
X0133441Y0081438D01*
X0138795Y0081307D02*
X0139084Y0081307D01*
X0139197Y0081420D02*
X0138795Y0081018D01*
X0138795Y0084971D01*
X0139739Y0084971D01*
X0140755Y0085392D01*
X0140816Y0085453D01*
X0142102Y0085453D01*
X0142102Y0084211D01*
X0142828Y0083485D01*
X0142102Y0082759D01*
X0142102Y0081516D01*
X0142097Y0081516D01*
X0141314Y0081841D01*
X0140214Y0081841D01*
X0139197Y0081420D01*
X0138795Y0082093D02*
X0142102Y0082093D01*
X0142222Y0082878D02*
X0138795Y0082878D01*
X0138795Y0083664D02*
X0142649Y0083664D01*
X0142102Y0084450D02*
X0138795Y0084450D01*
X0139976Y0083800D02*
X0140291Y0083485D01*
X0146433Y0083485D01*
X0146433Y0085453D02*
X0150291Y0085453D01*
X0151787Y0086949D01*
X0151787Y0088089D01*
X0149995Y0089882D01*
X0148068Y0089882D01*
X0146276Y0091674D01*
X0146433Y0087422D02*
X0139504Y0087422D01*
X0139189Y0087737D01*
X0140378Y0085236D02*
X0142102Y0085236D01*
X0150764Y0078856D02*
X0150938Y0078682D01*
X0152972Y0078682D01*
X0154928Y0076726D01*
X0154928Y0076558D01*
X0155408Y0075397D01*
X0156297Y0074508D01*
X0157458Y0074027D01*
X0158715Y0074027D01*
X0159876Y0074508D01*
X0160765Y0075397D01*
X0161246Y0076558D01*
X0161246Y0076726D01*
X0168001Y0083482D01*
X0168721Y0084201D01*
X0169110Y0085142D01*
X0169110Y0087146D01*
X0169763Y0087146D01*
X0170685Y0088069D01*
X0170685Y0089607D01*
X0170754Y0089607D01*
X0171965Y0090818D01*
X0175837Y0094690D01*
X0175794Y0094586D01*
X0175794Y0093486D01*
X0176215Y0092470D01*
X0176993Y0091692D01*
X0178009Y0091271D01*
X0179109Y0091271D01*
X0180125Y0091692D01*
X0180903Y0092470D01*
X0181079Y0092894D01*
X0183717Y0092894D01*
X0183717Y0090306D01*
X0177280Y0083869D01*
X0177280Y0082816D01*
X0176652Y0082816D01*
X0176455Y0083012D01*
X0171214Y0083012D01*
X0170291Y0082090D01*
X0170291Y0081579D01*
X0169660Y0081841D01*
X0168560Y0081841D01*
X0167544Y0081420D01*
X0166766Y0080642D01*
X0166345Y0079625D01*
X0166345Y0078525D01*
X0166766Y0077509D01*
X0167544Y0076731D01*
X0168560Y0076310D01*
X0169660Y0076310D01*
X0170291Y0076571D01*
X0170291Y0076455D01*
X0171214Y0075532D01*
X0173637Y0075532D01*
X0174828Y0074341D01*
X0174828Y0073920D01*
X0175213Y0073536D01*
X0175213Y0069959D01*
X0176135Y0069036D01*
X0181770Y0069036D01*
X0182693Y0069959D01*
X0182693Y0073396D01*
X0183244Y0073948D01*
X0183244Y0073948D01*
X0184455Y0075159D01*
X0184455Y0075335D01*
X0190038Y0075335D01*
X0190961Y0076258D01*
X0190961Y0079844D01*
X0191046Y0079809D01*
X0192142Y0079809D01*
X0192142Y0075864D01*
X0192867Y0075138D01*
X0192142Y0074413D01*
X0192142Y0069814D01*
X0189064Y0069814D01*
X0188124Y0069424D01*
X0178877Y0060178D01*
X0176135Y0060178D01*
X0175545Y0059587D01*
X0173381Y0059587D01*
X0173262Y0059706D01*
X0173239Y0059716D01*
X0171524Y0061431D01*
X0171524Y0061701D01*
X0172829Y0061701D01*
X0176814Y0065685D01*
X0176814Y0066990D01*
X0173107Y0070696D01*
X0171803Y0070696D01*
X0167818Y0066712D01*
X0167818Y0065407D01*
X0171524Y0061701D01*
X0167818Y0065407D01*
X0166513Y0065407D01*
X0162529Y0061422D01*
X0162529Y0060118D01*
X0164467Y0058179D01*
X0164467Y0057666D01*
X0164099Y0057298D01*
X0163624Y0057101D01*
X0162738Y0056215D01*
X0162541Y0055740D01*
X0161606Y0054805D01*
X0161606Y0054248D01*
X0159498Y0052140D01*
X0158222Y0052140D01*
X0157758Y0051948D01*
X0157663Y0051948D01*
X0156420Y0053191D01*
X0155116Y0053191D01*
X0154111Y0052186D01*
X0150764Y0052186D01*
X0150764Y0057697D01*
X0151748Y0057697D01*
X0151688Y0057637D01*
X0151688Y0056332D01*
X0154559Y0053461D01*
X0155864Y0053461D01*
X0159292Y0056889D01*
X0159292Y0058194D01*
X0156420Y0061065D01*
X0156381Y0061065D01*
X0158981Y0063665D01*
X0160389Y0062258D01*
X0161693Y0062258D01*
X0165678Y0066242D01*
X0165678Y0067547D01*
X0161972Y0071253D01*
X0160667Y0071253D01*
X0159119Y0069705D01*
X0150764Y0069705D01*
X0150764Y0070948D01*
X0150038Y0071674D01*
X0150764Y0072399D01*
X0150764Y0078856D01*
X0150764Y0078163D02*
X0153491Y0078163D01*
X0154277Y0077377D02*
X0150764Y0077377D01*
X0150764Y0076591D02*
X0154928Y0076591D01*
X0155239Y0075805D02*
X0150764Y0075805D01*
X0150764Y0075019D02*
X0155786Y0075019D01*
X0156961Y0074233D02*
X0150764Y0074233D01*
X0150764Y0073448D02*
X0175213Y0073448D01*
X0175213Y0072662D02*
X0150764Y0072662D01*
X0150240Y0071876D02*
X0175213Y0071876D01*
X0175213Y0071090D02*
X0162135Y0071090D01*
X0162921Y0070304D02*
X0171410Y0070304D01*
X0170624Y0069518D02*
X0163707Y0069518D01*
X0164493Y0068732D02*
X0169838Y0068732D01*
X0169052Y0067946D02*
X0165279Y0067946D01*
X0165678Y0067160D02*
X0168266Y0067160D01*
X0167818Y0066374D02*
X0165678Y0066374D01*
X0165024Y0065588D02*
X0167818Y0065588D01*
X0168423Y0064802D02*
X0168423Y0064802D01*
X0169208Y0064017D02*
X0169208Y0064017D01*
X0169994Y0063231D02*
X0169994Y0063231D01*
X0170780Y0062445D02*
X0170780Y0062445D01*
X0171524Y0061659D02*
X0180358Y0061659D01*
X0181144Y0062445D02*
X0173573Y0062445D01*
X0174359Y0063231D02*
X0181930Y0063231D01*
X0182716Y0064017D02*
X0175145Y0064017D01*
X0175931Y0064802D02*
X0183502Y0064802D01*
X0184288Y0065588D02*
X0176717Y0065588D01*
X0176814Y0066374D02*
X0185074Y0066374D01*
X0185859Y0067160D02*
X0176644Y0067160D01*
X0175858Y0067946D02*
X0186645Y0067946D01*
X0187431Y0068732D02*
X0175072Y0068732D01*
X0175653Y0069518D02*
X0174286Y0069518D01*
X0173500Y0070304D02*
X0175213Y0070304D01*
X0178953Y0072579D02*
X0176797Y0074735D01*
X0176797Y0075156D01*
X0173835Y0078119D01*
X0173835Y0079272D01*
X0170941Y0075805D02*
X0160934Y0075805D01*
X0161246Y0076591D02*
X0167882Y0076591D01*
X0166898Y0077377D02*
X0161896Y0077377D01*
X0162682Y0078163D02*
X0166495Y0078163D01*
X0166345Y0078949D02*
X0163468Y0078949D01*
X0164254Y0079735D02*
X0166390Y0079735D01*
X0166716Y0080521D02*
X0165040Y0080521D01*
X0165826Y0081307D02*
X0167431Y0081307D01*
X0166612Y0082093D02*
X0170294Y0082093D01*
X0171080Y0082878D02*
X0167398Y0082878D01*
X0168001Y0083482D02*
X0168001Y0083482D01*
X0168184Y0083664D02*
X0177280Y0083664D01*
X0177280Y0082878D02*
X0176589Y0082878D01*
X0177861Y0084450D02*
X0168824Y0084450D01*
X0169110Y0085236D02*
X0178647Y0085236D01*
X0179433Y0086022D02*
X0169110Y0086022D01*
X0169110Y0086808D02*
X0180219Y0086808D01*
X0181005Y0087594D02*
X0170210Y0087594D01*
X0170685Y0088380D02*
X0181791Y0088380D01*
X0182577Y0089166D02*
X0170685Y0089166D01*
X0171099Y0089952D02*
X0183363Y0089952D01*
X0183717Y0090738D02*
X0171884Y0090738D01*
X0172670Y0091523D02*
X0177399Y0091523D01*
X0176375Y0092309D02*
X0173456Y0092309D01*
X0174242Y0093095D02*
X0175956Y0093095D01*
X0175794Y0093881D02*
X0175028Y0093881D01*
X0175814Y0094667D02*
X0175827Y0094667D01*
X0179719Y0091523D02*
X0183717Y0091523D01*
X0183717Y0092309D02*
X0180743Y0092309D01*
X0193717Y0092166D02*
X0193717Y0084694D01*
X0191596Y0082574D01*
X0194939Y0082619D02*
X0195685Y0083364D01*
X0195685Y0092166D01*
X0199819Y0083376D02*
X0199819Y0075729D01*
X0195882Y0071792D01*
X0192142Y0071876D02*
X0182693Y0071876D01*
X0182693Y0072662D02*
X0192142Y0072662D01*
X0192142Y0073448D02*
X0182744Y0073448D01*
X0183530Y0074233D02*
X0192142Y0074233D01*
X0192748Y0075019D02*
X0184316Y0075019D01*
X0182693Y0071090D02*
X0192142Y0071090D01*
X0192142Y0070304D02*
X0182693Y0070304D01*
X0182252Y0069518D02*
X0188349Y0069518D01*
X0190745Y0065277D02*
X0199326Y0065277D01*
X0201184Y0067135D01*
X0202311Y0067135D01*
X0205076Y0067160D02*
X0215992Y0067160D01*
X0216096Y0067264D02*
X0215173Y0066342D01*
X0215173Y0060707D01*
X0216096Y0059784D01*
X0221337Y0059784D01*
X0221857Y0060303D01*
X0221857Y0059549D01*
X0221946Y0059335D01*
X0221079Y0058468D01*
X0221079Y0056438D01*
X0219727Y0055086D01*
X0219307Y0054073D01*
X0219307Y0051775D01*
X0219110Y0051578D01*
X0219110Y0049393D01*
X0217494Y0047776D01*
X0214915Y0047776D01*
X0213992Y0046854D01*
X0213992Y0037281D01*
X0214915Y0036359D01*
X0218975Y0036359D01*
X0219504Y0036888D01*
X0220033Y0036359D01*
X0223441Y0036359D01*
X0223441Y0033215D01*
X0221758Y0031532D01*
X0221238Y0031532D01*
X0219712Y0030900D01*
X0218545Y0029733D01*
X0217913Y0028208D01*
X0217913Y0026557D01*
X0218545Y0025032D01*
X0219712Y0023865D01*
X0221238Y0023233D01*
X0222888Y0023233D01*
X0224414Y0023865D01*
X0225581Y0025032D01*
X0226213Y0026557D01*
X0226213Y0027078D01*
X0229785Y0030650D01*
X0229999Y0030650D01*
X0230921Y0031573D01*
X0230921Y0036814D01*
X0230392Y0037343D01*
X0236495Y0037343D01*
X0237417Y0038266D01*
X0237417Y0043507D01*
X0236495Y0044430D01*
X0225016Y0044430D01*
X0225016Y0046005D01*
X0236495Y0046005D01*
X0237417Y0046927D01*
X0237417Y0052169D01*
X0236495Y0053091D01*
X0231709Y0053091D01*
X0231709Y0053485D01*
X0235904Y0053485D01*
X0236569Y0054150D01*
X0236779Y0053940D01*
X0237832Y0053504D01*
X0238971Y0053504D01*
X0240024Y0053940D01*
X0240764Y0054680D01*
X0240764Y0027157D01*
X0240580Y0025378D01*
X0239532Y0021943D01*
X0239531Y0021943D01*
X0237643Y0018888D01*
X0235039Y0016414D01*
X0231892Y0014685D01*
X0228407Y0013814D01*
X0226613Y0013721D01*
X0226601Y0013721D01*
X0225958Y0013729D01*
X0225950Y0013721D01*
X0209067Y0013721D01*
X0209414Y0013865D01*
X0210581Y0015032D01*
X0211213Y0016557D01*
X0211213Y0018208D01*
X0210581Y0019733D01*
X0210213Y0020101D01*
X0210213Y0023657D01*
X0211238Y0023233D01*
X0212888Y0023233D01*
X0214414Y0023865D01*
X0215581Y0025032D01*
X0216213Y0026557D01*
X0216213Y0028208D01*
X0215581Y0029733D01*
X0214414Y0030900D01*
X0212888Y0031532D01*
X0211238Y0031532D01*
X0209987Y0031014D01*
X0209733Y0031628D01*
X0207299Y0034062D01*
X0207299Y0036814D01*
X0207164Y0036949D01*
X0212873Y0036949D01*
X0213795Y0037872D01*
X0213795Y0043114D01*
X0212873Y0044036D01*
X0206959Y0044036D01*
X0206863Y0044068D01*
X0206414Y0044036D01*
X0200938Y0044036D01*
X0200606Y0043704D01*
X0200606Y0045943D01*
X0200938Y0045611D01*
X0212873Y0045611D01*
X0213795Y0046533D01*
X0213795Y0051775D01*
X0212981Y0052590D01*
X0213774Y0052590D01*
X0214827Y0053026D01*
X0215633Y0053831D01*
X0216068Y0054884D01*
X0216068Y0056023D01*
X0215633Y0057076D01*
X0214827Y0057881D01*
X0213774Y0058317D01*
X0212635Y0058317D01*
X0211892Y0058009D01*
X0211692Y0058209D01*
X0207299Y0058209D01*
X0207299Y0059784D01*
X0211692Y0059784D01*
X0212614Y0060707D01*
X0212614Y0064767D01*
X0211692Y0065690D01*
X0207668Y0065690D01*
X0206632Y0065819D01*
X0206469Y0065886D01*
X0206093Y0065886D01*
X0205719Y0065933D01*
X0205549Y0065886D01*
X0205373Y0065886D01*
X0205025Y0065742D01*
X0204689Y0065650D01*
X0205076Y0066585D01*
X0205076Y0067685D01*
X0204655Y0068701D01*
X0203877Y0069479D01*
X0202978Y0069852D01*
X0202978Y0072472D01*
X0203246Y0072740D01*
X0203966Y0073460D01*
X0204356Y0074401D01*
X0204356Y0076056D01*
X0205406Y0077107D01*
X0210511Y0077107D01*
X0210843Y0077439D01*
X0211174Y0077107D01*
X0215851Y0077107D01*
X0217623Y0075335D01*
X0232780Y0075335D01*
X0233283Y0074832D01*
X0233283Y0074092D01*
X0234206Y0073170D01*
X0237873Y0073170D01*
X0238795Y0074092D01*
X0238795Y0077759D01*
X0237873Y0078682D01*
X0235558Y0078682D01*
X0234771Y0079469D01*
X0237873Y0079469D01*
X0238795Y0080392D01*
X0238795Y0084058D01*
X0237873Y0084981D01*
X0234206Y0084981D01*
X0233480Y0084255D01*
X0233480Y0084452D01*
X0232558Y0085375D01*
X0222566Y0085375D01*
X0222369Y0085571D01*
X0227440Y0085571D01*
X0228165Y0086297D01*
X0228891Y0085571D01*
X0234133Y0085571D01*
X0235055Y0086494D01*
X0235055Y0092129D01*
X0234133Y0093052D01*
X0234071Y0093052D01*
X0234071Y0093869D01*
X0237319Y0097117D01*
X0237319Y0104003D01*
X0237596Y0104281D01*
X0238017Y0105297D01*
X0238017Y0106397D01*
X0237596Y0107414D01*
X0236818Y0108191D01*
X0235802Y0108612D01*
X0235055Y0108612D01*
X0235055Y0108665D01*
X0234133Y0109587D01*
X0228891Y0109587D01*
X0228362Y0109058D01*
X0228362Y0119688D01*
X0227833Y0120217D01*
X0231981Y0120217D01*
X0231981Y0119752D01*
X0232402Y0118736D01*
X0233180Y0117958D01*
X0234196Y0117537D01*
X0235296Y0117537D01*
X0236313Y0117958D01*
X0237091Y0118736D01*
X0237512Y0119752D01*
X0237512Y0120852D01*
X0237511Y0120853D01*
X0237596Y0120938D01*
X0238894Y0122235D01*
X0238894Y0132687D01*
X0237683Y0133898D01*
X0234661Y0136920D01*
X0234661Y0138389D01*
X0233739Y0139312D01*
X0228891Y0139312D01*
X0228104Y0138524D01*
X0226045Y0138524D01*
X0226804Y0139312D01*
X0228424Y0139312D01*
X0229346Y0140234D01*
X0229346Y0143901D01*
X0228424Y0144823D01*
X0226789Y0144823D01*
X0226789Y0144945D01*
X0226368Y0145962D01*
X0225590Y0146739D01*
X0225463Y0146792D01*
X0227328Y0146792D01*
X0229107Y0146608D01*
X0232542Y0145560D01*
X0235597Y0143671D01*
X0238071Y0141068D01*
X0239800Y0137920D01*
X0240671Y0134435D01*
X0240764Y0132641D01*
X0240764Y0132629D01*
X0240756Y0131986D01*
X0240764Y0131978D01*
X0240764Y0058055D01*
X0240024Y0058795D01*
X0238971Y0059231D01*
X0237832Y0059231D01*
X0236779Y0058795D01*
X0236639Y0058655D01*
X0235904Y0059390D01*
X0231709Y0059390D01*
X0231709Y0060611D01*
X0232063Y0060965D01*
X0235904Y0060965D01*
X0236827Y0061888D01*
X0236827Y0065948D01*
X0235904Y0066871D01*
X0230663Y0066871D01*
X0230392Y0066600D01*
X0229557Y0066254D01*
X0228165Y0064863D01*
X0228165Y0065948D01*
X0227243Y0066871D01*
X0222001Y0066871D01*
X0221866Y0066736D01*
X0221337Y0067264D01*
X0216096Y0067264D01*
X0215206Y0066374D02*
X0204989Y0066374D01*
X0204968Y0067946D02*
X0240764Y0067946D01*
X0240764Y0067160D02*
X0221442Y0067160D01*
X0224622Y0063918D02*
X0225016Y0063524D01*
X0228165Y0065588D02*
X0228891Y0065588D01*
X0229847Y0066374D02*
X0227739Y0066374D01*
X0231970Y0060873D02*
X0240764Y0060873D01*
X0240764Y0061659D02*
X0236598Y0061659D01*
X0236827Y0062445D02*
X0240764Y0062445D01*
X0240764Y0063231D02*
X0236827Y0063231D01*
X0236827Y0064017D02*
X0240764Y0064017D01*
X0240764Y0064802D02*
X0236827Y0064802D01*
X0236827Y0065588D02*
X0240764Y0065588D01*
X0240764Y0066374D02*
X0236401Y0066374D01*
X0240764Y0068732D02*
X0204624Y0068732D01*
X0203784Y0069518D02*
X0240764Y0069518D01*
X0240764Y0070304D02*
X0202978Y0070304D01*
X0202978Y0071090D02*
X0240764Y0071090D01*
X0240764Y0071876D02*
X0202978Y0071876D01*
X0203168Y0072662D02*
X0240764Y0072662D01*
X0240764Y0073448D02*
X0238150Y0073448D01*
X0238795Y0074233D02*
X0240764Y0074233D01*
X0240764Y0075019D02*
X0238795Y0075019D01*
X0238795Y0075805D02*
X0240764Y0075805D01*
X0240764Y0076591D02*
X0238795Y0076591D01*
X0238795Y0077377D02*
X0240764Y0077377D01*
X0240764Y0078163D02*
X0238392Y0078163D01*
X0238138Y0079735D02*
X0240764Y0079735D01*
X0240764Y0080521D02*
X0238795Y0080521D01*
X0238795Y0081307D02*
X0240764Y0081307D01*
X0240764Y0082093D02*
X0238795Y0082093D01*
X0238795Y0082878D02*
X0240764Y0082878D01*
X0240764Y0083664D02*
X0238795Y0083664D01*
X0238403Y0084450D02*
X0240764Y0084450D01*
X0240764Y0085236D02*
X0232696Y0085236D01*
X0233480Y0084450D02*
X0233675Y0084450D01*
X0234583Y0086022D02*
X0240764Y0086022D01*
X0240764Y0086808D02*
X0235055Y0086808D01*
X0235055Y0087594D02*
X0240764Y0087594D01*
X0240764Y0088380D02*
X0235055Y0088380D01*
X0235055Y0089166D02*
X0240764Y0089166D01*
X0240764Y0089952D02*
X0235055Y0089952D01*
X0235055Y0090738D02*
X0240764Y0090738D01*
X0240764Y0091523D02*
X0235055Y0091523D01*
X0234875Y0092309D02*
X0240764Y0092309D01*
X0240764Y0093095D02*
X0234071Y0093095D01*
X0234083Y0093881D02*
X0240764Y0093881D01*
X0240764Y0094667D02*
X0234869Y0094667D01*
X0235655Y0095453D02*
X0240764Y0095453D01*
X0240764Y0096239D02*
X0236441Y0096239D01*
X0237227Y0097025D02*
X0240764Y0097025D01*
X0240764Y0097811D02*
X0237319Y0097811D01*
X0237319Y0098597D02*
X0240764Y0098597D01*
X0240764Y0099383D02*
X0237319Y0099383D01*
X0237319Y0100169D02*
X0240764Y0100169D01*
X0240764Y0100954D02*
X0237319Y0100954D01*
X0237319Y0101740D02*
X0240764Y0101740D01*
X0240764Y0102526D02*
X0237319Y0102526D01*
X0237319Y0103312D02*
X0240764Y0103312D01*
X0240764Y0104098D02*
X0237414Y0104098D01*
X0237846Y0104884D02*
X0240764Y0104884D01*
X0240764Y0105670D02*
X0238017Y0105670D01*
X0237993Y0106456D02*
X0240764Y0106456D01*
X0240764Y0107242D02*
X0237667Y0107242D01*
X0236982Y0108028D02*
X0240764Y0108028D01*
X0240764Y0108814D02*
X0234906Y0108814D01*
X0240764Y0109599D02*
X0228362Y0109599D01*
X0228362Y0110385D02*
X0240764Y0110385D01*
X0240764Y0111171D02*
X0228362Y0111171D01*
X0228362Y0111957D02*
X0240764Y0111957D01*
X0240764Y0112743D02*
X0228362Y0112743D01*
X0228362Y0113529D02*
X0240764Y0113529D01*
X0240764Y0114315D02*
X0228362Y0114315D01*
X0228362Y0115101D02*
X0240764Y0115101D01*
X0240764Y0115887D02*
X0228362Y0115887D01*
X0228362Y0116673D02*
X0240764Y0116673D01*
X0240764Y0117459D02*
X0228362Y0117459D01*
X0228362Y0118245D02*
X0232893Y0118245D01*
X0232280Y0119030D02*
X0228362Y0119030D01*
X0228234Y0119816D02*
X0231981Y0119816D01*
X0236600Y0118245D02*
X0240764Y0118245D01*
X0240764Y0119030D02*
X0237213Y0119030D01*
X0237512Y0119816D02*
X0240764Y0119816D01*
X0240764Y0120602D02*
X0237512Y0120602D01*
X0238047Y0121388D02*
X0240764Y0121388D01*
X0240764Y0122174D02*
X0238833Y0122174D01*
X0238894Y0122960D02*
X0240764Y0122960D01*
X0240764Y0123746D02*
X0238894Y0123746D01*
X0238894Y0124532D02*
X0240764Y0124532D01*
X0240764Y0125318D02*
X0238894Y0125318D01*
X0238894Y0126104D02*
X0240764Y0126104D01*
X0240764Y0126890D02*
X0238894Y0126890D01*
X0238894Y0127675D02*
X0240764Y0127675D01*
X0240764Y0128461D02*
X0238894Y0128461D01*
X0238894Y0129247D02*
X0240764Y0129247D01*
X0240764Y0130033D02*
X0238894Y0130033D01*
X0238894Y0130819D02*
X0240764Y0130819D01*
X0240764Y0131605D02*
X0238894Y0131605D01*
X0238894Y0132391D02*
X0240761Y0132391D01*
X0240736Y0133177D02*
X0238404Y0133177D01*
X0237618Y0133963D02*
X0240695Y0133963D01*
X0240592Y0134749D02*
X0236832Y0134749D01*
X0236047Y0135535D02*
X0240396Y0135535D01*
X0240200Y0136321D02*
X0235261Y0136321D01*
X0234661Y0137106D02*
X0240003Y0137106D01*
X0239807Y0137892D02*
X0234661Y0137892D01*
X0234372Y0138678D02*
X0239383Y0138678D01*
X0238951Y0139464D02*
X0228576Y0139464D01*
X0228258Y0138678D02*
X0226194Y0138678D01*
X0229346Y0140250D02*
X0238520Y0140250D01*
X0238088Y0141036D02*
X0229346Y0141036D01*
X0229346Y0141822D02*
X0237354Y0141822D01*
X0236607Y0142608D02*
X0229346Y0142608D01*
X0229346Y0143394D02*
X0235861Y0143394D01*
X0234775Y0144180D02*
X0229068Y0144180D01*
X0226781Y0144966D02*
X0233503Y0144966D01*
X0231913Y0145751D02*
X0226455Y0145751D01*
X0225792Y0146537D02*
X0229338Y0146537D01*
X0221276Y0111654D02*
X0220360Y0111654D01*
X0217407Y0108701D01*
X0214879Y0108701D01*
X0215971Y0107609D01*
X0220370Y0107609D01*
X0220409Y0107570D01*
X0221276Y0107570D01*
X0221276Y0108541D01*
X0221276Y0111654D01*
X0221276Y0111171D02*
X0219877Y0111171D01*
X0219091Y0110385D02*
X0221276Y0110385D01*
X0221276Y0109599D02*
X0218305Y0109599D01*
X0217519Y0108814D02*
X0221276Y0108814D01*
X0221276Y0108028D02*
X0215552Y0108028D01*
X0219538Y0105601D02*
X0224573Y0105601D01*
X0224819Y0105847D01*
X0196669Y0105847D02*
X0194701Y0107816D01*
X0174238Y0106733D02*
X0173137Y0105631D01*
X0172958Y0105631D01*
X0172623Y0105966D01*
X0173028Y0106133D01*
X0173628Y0106733D01*
X0174238Y0106733D01*
X0173961Y0106456D02*
X0173351Y0106456D01*
X0173175Y0105670D02*
X0172919Y0105670D01*
X0170538Y0102205D02*
X0171049Y0101694D01*
X0169898Y0101694D01*
X0169898Y0102205D01*
X0170538Y0102205D01*
X0171003Y0101740D02*
X0169898Y0101740D01*
X0159465Y0098733D02*
X0159465Y0097973D01*
X0162417Y0093881D02*
X0156379Y0093881D01*
X0139346Y0094509D02*
X0139346Y0097292D01*
X0138380Y0098258D01*
X0138294Y0098258D01*
X0137005Y0099548D01*
X0129183Y0101773D02*
X0127535Y0100125D01*
X0127535Y0094509D01*
X0125567Y0094509D02*
X0125567Y0085890D01*
X0125783Y0085674D01*
X0123598Y0083642D02*
X0124228Y0083012D01*
X0123598Y0083642D02*
X0123598Y0094509D01*
X0119661Y0094509D02*
X0119661Y0086575D01*
X0119249Y0086162D01*
X0116639Y0085236D02*
X0110414Y0085236D01*
X0110218Y0084764D02*
X0110639Y0085780D01*
X0110639Y0086881D01*
X0110218Y0087897D01*
X0110135Y0087980D01*
X0110458Y0088762D01*
X0110458Y0089862D01*
X0110327Y0090178D01*
X0113030Y0090178D01*
X0113756Y0090903D01*
X0114289Y0090370D01*
X0114010Y0090091D01*
X0113589Y0089074D01*
X0113589Y0087974D01*
X0114010Y0086958D01*
X0114788Y0086180D01*
X0115804Y0085759D01*
X0116483Y0085759D01*
X0116483Y0085612D01*
X0116904Y0084596D01*
X0117682Y0083818D01*
X0118699Y0083397D01*
X0119465Y0083397D01*
X0119465Y0063515D01*
X0118762Y0062812D01*
X0115352Y0062812D01*
X0115036Y0063128D01*
X0113875Y0063609D01*
X0112619Y0063609D01*
X0111458Y0063128D01*
X0110569Y0062239D01*
X0110088Y0061078D01*
X0110088Y0059822D01*
X0110410Y0059044D01*
X0109969Y0059485D01*
X0106521Y0059485D01*
X0106521Y0060251D01*
X0106155Y0061134D01*
X0106569Y0062132D01*
X0106569Y0063232D01*
X0106155Y0064229D01*
X0106521Y0065113D01*
X0106521Y0066083D01*
X0107568Y0066083D01*
X0107722Y0065710D01*
X0108500Y0064932D01*
X0109517Y0064511D01*
X0110617Y0064511D01*
X0111633Y0064932D01*
X0112411Y0065710D01*
X0112832Y0066726D01*
X0112832Y0067826D01*
X0112411Y0068842D01*
X0111735Y0069519D01*
X0111813Y0069707D01*
X0111813Y0070807D01*
X0111392Y0071824D01*
X0110614Y0072601D01*
X0110556Y0072625D01*
X0110900Y0073455D01*
X0110900Y0074555D01*
X0110479Y0075572D01*
X0109803Y0076248D01*
X0109881Y0076436D01*
X0109881Y0077537D01*
X0109460Y0078553D01*
X0108682Y0079331D01*
X0108174Y0079541D01*
X0108174Y0079682D01*
X0104450Y0083406D01*
X0096697Y0083406D01*
X0091973Y0088131D01*
X0094335Y0088131D01*
X0095488Y0089284D01*
X0098216Y0086556D01*
X0101366Y0086556D01*
X0102406Y0085515D01*
X0103559Y0084362D01*
X0105932Y0084362D01*
X0106307Y0083986D01*
X0107324Y0083565D01*
X0108424Y0083565D01*
X0109440Y0083986D01*
X0110218Y0084764D01*
X0109904Y0084450D02*
X0117050Y0084450D01*
X0118052Y0083664D02*
X0108663Y0083664D01*
X0107084Y0083664D02*
X0096439Y0083664D01*
X0095653Y0084450D02*
X0103471Y0084450D01*
X0102685Y0085236D02*
X0094867Y0085236D01*
X0094081Y0086022D02*
X0101899Y0086022D01*
X0102406Y0085515D02*
X0102406Y0085515D01*
X0104375Y0086331D02*
X0102181Y0088524D01*
X0099031Y0088524D01*
X0096039Y0091516D01*
X0096039Y0094509D01*
X0094071Y0094509D02*
X0094071Y0090650D01*
X0093520Y0090099D01*
X0090923Y0090099D01*
X0084071Y0096951D01*
X0084052Y0094186D02*
X0088848Y0089390D01*
X0088621Y0089390D01*
X0088424Y0089587D01*
X0081608Y0089587D01*
X0080685Y0088665D01*
X0080685Y0080274D01*
X0081411Y0079548D01*
X0080685Y0078822D01*
X0080685Y0077107D01*
X0074467Y0077107D01*
X0073638Y0077936D01*
X0073638Y0092813D01*
X0078976Y0098151D01*
X0081575Y0098151D01*
X0081306Y0097501D01*
X0081306Y0096401D01*
X0081727Y0095385D01*
X0082504Y0094607D01*
X0083521Y0094186D01*
X0084052Y0094186D01*
X0084357Y0093881D02*
X0074706Y0093881D01*
X0073920Y0093095D02*
X0085143Y0093095D01*
X0085929Y0092309D02*
X0073638Y0092309D01*
X0073638Y0091523D02*
X0086714Y0091523D01*
X0087500Y0090738D02*
X0073638Y0090738D01*
X0073638Y0089952D02*
X0088286Y0089952D01*
X0089898Y0087422D02*
X0085016Y0087422D01*
X0085016Y0085453D02*
X0085400Y0085069D01*
X0089875Y0085069D01*
X0095075Y0079869D01*
X0095906Y0079869D01*
X0095977Y0079940D01*
X0100916Y0079940D01*
X0102894Y0077962D01*
X0104021Y0077962D01*
X0106206Y0077897D02*
X0106206Y0078867D01*
X0103635Y0081438D01*
X0095882Y0081438D01*
X0089898Y0087422D01*
X0092509Y0087594D02*
X0097178Y0087594D01*
X0097964Y0086808D02*
X0093295Y0086808D01*
X0094584Y0088380D02*
X0096392Y0088380D01*
X0095606Y0089166D02*
X0095370Y0089166D01*
X0095488Y0089284D02*
X0095488Y0089284D01*
X0099976Y0091516D02*
X0101394Y0090099D01*
X0106906Y0090099D01*
X0107693Y0089312D01*
X0110300Y0088380D02*
X0113589Y0088380D01*
X0113756Y0087973D02*
X0113205Y0087737D01*
X0113746Y0087594D02*
X0110344Y0087594D01*
X0110639Y0086808D02*
X0114160Y0086808D01*
X0113756Y0087973D02*
X0113756Y0094509D01*
X0111787Y0094509D02*
X0111787Y0099705D01*
X0113205Y0101123D01*
X0110055Y0101910D02*
X0109819Y0101674D01*
X0109819Y0094509D01*
X0107850Y0094509D02*
X0107850Y0104054D01*
X0102298Y0109606D01*
X0100489Y0109606D01*
X0100451Y0109568D01*
X0095094Y0109568D01*
X0097037Y0107600D02*
X0099159Y0107600D01*
X0098182Y0107195D01*
X0097404Y0106417D01*
X0096983Y0105401D01*
X0096983Y0104301D01*
X0097404Y0103284D01*
X0098182Y0102506D01*
X0099199Y0102085D01*
X0100299Y0102085D01*
X0100396Y0102126D01*
X0100727Y0102126D01*
X0100163Y0101892D01*
X0099385Y0101114D01*
X0098964Y0100098D01*
X0098964Y0098998D01*
X0099029Y0098839D01*
X0098734Y0098839D01*
X0098008Y0098114D01*
X0097282Y0098839D01*
X0095094Y0098839D01*
X0095094Y0103547D01*
X0094172Y0104469D01*
X0090111Y0104469D01*
X0089718Y0104075D01*
X0082453Y0104075D01*
X0082407Y0104057D01*
X0080728Y0104057D01*
X0080733Y0104517D01*
X0080899Y0104351D01*
X0084959Y0104351D01*
X0085450Y0104842D01*
X0086090Y0104577D01*
X0087191Y0104577D01*
X0088207Y0104998D01*
X0088985Y0105776D01*
X0089406Y0106792D01*
X0089406Y0107892D01*
X0089034Y0108790D01*
X0091382Y0108790D01*
X0092329Y0109183D01*
X0092329Y0109018D01*
X0092750Y0108002D01*
X0093528Y0107224D01*
X0094544Y0106803D01*
X0095645Y0106803D01*
X0096661Y0107224D01*
X0097037Y0107600D01*
X0097457Y0107422D02*
X0097457Y0105847D01*
X0096669Y0105060D01*
X0096983Y0104884D02*
X0087932Y0104884D01*
X0088879Y0105670D02*
X0097095Y0105670D01*
X0097443Y0106456D02*
X0089266Y0106456D01*
X0089406Y0107242D02*
X0093510Y0107242D01*
X0092739Y0108028D02*
X0089350Y0108028D01*
X0091438Y0108814D02*
X0092414Y0108814D01*
X0096679Y0107242D02*
X0098295Y0107242D01*
X0097457Y0107422D02*
X0101394Y0107422D01*
X0101267Y0107600D02*
X0101304Y0107638D01*
X0101483Y0107638D01*
X0103058Y0106063D01*
X0102240Y0106063D01*
X0102093Y0106417D01*
X0101315Y0107195D01*
X0100338Y0107600D01*
X0101267Y0107600D01*
X0101203Y0107242D02*
X0101879Y0107242D01*
X0102055Y0106456D02*
X0102665Y0106456D01*
X0104602Y0104094D02*
X0100505Y0104094D01*
X0099749Y0104851D01*
X0097067Y0104098D02*
X0094543Y0104098D01*
X0095094Y0103312D02*
X0097393Y0103312D01*
X0098163Y0102526D02*
X0095094Y0102526D01*
X0095094Y0101740D02*
X0100011Y0101740D01*
X0099319Y0100954D02*
X0095094Y0100954D01*
X0095094Y0100169D02*
X0098993Y0100169D01*
X0098964Y0099383D02*
X0095094Y0099383D01*
X0097525Y0098597D02*
X0098491Y0098597D01*
X0101729Y0099548D02*
X0101945Y0099332D01*
X0101945Y0094509D01*
X0103913Y0094509D02*
X0103913Y0101694D01*
X0103698Y0101910D01*
X0105882Y0102815D02*
X0105882Y0094509D01*
X0099976Y0094509D02*
X0099976Y0091516D01*
X0104375Y0086331D02*
X0107874Y0086331D01*
X0110639Y0086022D02*
X0115169Y0086022D01*
X0116354Y0088524D02*
X0117693Y0089863D01*
X0117693Y0094509D01*
X0113922Y0090738D02*
X0113590Y0090738D01*
X0113952Y0089952D02*
X0110421Y0089952D01*
X0110458Y0089166D02*
X0113627Y0089166D01*
X0119465Y0082878D02*
X0104978Y0082878D01*
X0105764Y0082093D02*
X0119465Y0082093D01*
X0119465Y0081307D02*
X0106550Y0081307D01*
X0107335Y0080521D02*
X0119465Y0080521D01*
X0119465Y0079735D02*
X0108121Y0079735D01*
X0109064Y0078949D02*
X0119465Y0078949D01*
X0119465Y0078163D02*
X0109622Y0078163D01*
X0109881Y0077377D02*
X0119465Y0077377D01*
X0119465Y0076591D02*
X0109881Y0076591D01*
X0110246Y0075805D02*
X0119465Y0075805D01*
X0119465Y0075019D02*
X0110708Y0075019D01*
X0110900Y0074233D02*
X0119465Y0074233D01*
X0119465Y0073448D02*
X0110897Y0073448D01*
X0110571Y0072662D02*
X0119465Y0072662D01*
X0119465Y0071876D02*
X0111340Y0071876D01*
X0111696Y0071090D02*
X0119465Y0071090D01*
X0119465Y0070304D02*
X0111813Y0070304D01*
X0111736Y0069518D02*
X0119465Y0069518D01*
X0119465Y0068732D02*
X0112457Y0068732D01*
X0112782Y0067946D02*
X0119465Y0067946D01*
X0119465Y0067160D02*
X0112832Y0067160D01*
X0112686Y0066374D02*
X0119465Y0066374D01*
X0119465Y0065588D02*
X0112290Y0065588D01*
X0111321Y0064802D02*
X0119465Y0064802D01*
X0119465Y0064017D02*
X0106243Y0064017D01*
X0106393Y0064802D02*
X0108812Y0064802D01*
X0107844Y0065588D02*
X0106521Y0065588D01*
X0106569Y0063231D02*
X0111705Y0063231D01*
X0110774Y0062445D02*
X0106569Y0062445D01*
X0106373Y0061659D02*
X0110328Y0061659D01*
X0110088Y0060873D02*
X0106264Y0060873D01*
X0106521Y0060087D02*
X0110088Y0060087D01*
X0110153Y0059301D02*
X0110304Y0059301D01*
X0109154Y0057516D02*
X0099031Y0057516D01*
X0098654Y0057894D01*
X0085016Y0057894D01*
X0080685Y0058603D02*
X0078947Y0058603D01*
X0075994Y0061556D01*
X0074622Y0061556D01*
X0074622Y0068600D01*
X0074763Y0068741D01*
X0075213Y0069827D01*
X0075213Y0071201D01*
X0076135Y0071201D01*
X0080685Y0071201D01*
X0080685Y0069905D01*
X0080109Y0070061D01*
X0079832Y0069902D01*
X0079513Y0069902D01*
X0079237Y0069627D01*
X0076135Y0069627D01*
X0075213Y0068704D01*
X0075213Y0064644D01*
X0076135Y0063721D01*
X0080685Y0063721D01*
X0080685Y0058603D01*
X0080685Y0059301D02*
X0078249Y0059301D01*
X0077463Y0060087D02*
X0080685Y0060087D01*
X0080685Y0060873D02*
X0076677Y0060873D01*
X0074622Y0061659D02*
X0080685Y0061659D01*
X0080685Y0062445D02*
X0074622Y0062445D01*
X0074622Y0063231D02*
X0080685Y0063231D01*
X0085016Y0063800D02*
X0089498Y0063800D01*
X0090660Y0062638D01*
X0098492Y0062638D01*
X0099127Y0063272D01*
X0102086Y0063272D01*
X0102676Y0062682D01*
X0103803Y0062682D01*
X0101511Y0061885D02*
X0103695Y0059701D01*
X0103756Y0059701D01*
X0101511Y0061885D02*
X0099702Y0061885D01*
X0099067Y0061250D01*
X0090085Y0061250D01*
X0089504Y0061831D01*
X0085016Y0061831D01*
X0085016Y0059863D02*
X0100444Y0059863D01*
X0100606Y0059701D01*
X0097917Y0064025D02*
X0098758Y0064866D01*
X0102959Y0064866D01*
X0103756Y0065663D01*
X0109291Y0068052D02*
X0095094Y0068052D01*
X0093441Y0069705D01*
X0085016Y0069705D01*
X0085016Y0071674D02*
X0089898Y0071674D01*
X0090479Y0071093D01*
X0094016Y0071093D01*
X0095648Y0069460D01*
X0108251Y0069460D01*
X0109048Y0070257D01*
X0109291Y0068052D02*
X0110067Y0067276D01*
X0114789Y0063231D02*
X0119180Y0063231D01*
X0123795Y0064017D02*
X0134045Y0064017D01*
X0134831Y0064802D02*
X0123795Y0064802D01*
X0123795Y0065588D02*
X0135617Y0065588D01*
X0136403Y0066374D02*
X0123795Y0066374D01*
X0123795Y0067160D02*
X0137188Y0067160D01*
X0137765Y0067946D02*
X0123795Y0067946D01*
X0123795Y0068732D02*
X0138955Y0068732D01*
X0141155Y0068732D02*
X0142102Y0068732D01*
X0142102Y0069518D02*
X0123795Y0069518D01*
X0123795Y0070304D02*
X0142102Y0070304D01*
X0142244Y0071090D02*
X0123795Y0071090D01*
X0123795Y0071876D02*
X0142626Y0071876D01*
X0142024Y0071674D02*
X0141551Y0071201D01*
X0142024Y0071674D02*
X0146433Y0071674D01*
X0146433Y0067737D02*
X0157299Y0067737D01*
X0157614Y0067737D01*
X0158874Y0067737D01*
X0158874Y0066477D01*
X0157614Y0067737D01*
X0158874Y0067737D02*
X0160199Y0067737D01*
X0161180Y0066755D01*
X0164238Y0064802D02*
X0165909Y0064802D01*
X0165123Y0064017D02*
X0163452Y0064017D01*
X0162666Y0063231D02*
X0164337Y0063231D01*
X0163551Y0062445D02*
X0161881Y0062445D01*
X0162765Y0061659D02*
X0156975Y0061659D01*
X0156612Y0060873D02*
X0162529Y0060873D01*
X0162559Y0060087D02*
X0157398Y0060087D01*
X0158184Y0059301D02*
X0163345Y0059301D01*
X0164131Y0058515D02*
X0158970Y0058515D01*
X0159292Y0057729D02*
X0164467Y0057729D01*
X0163466Y0056943D02*
X0159292Y0056943D01*
X0158560Y0056157D02*
X0162714Y0056157D01*
X0162172Y0055372D02*
X0157774Y0055372D01*
X0156988Y0054586D02*
X0161606Y0054586D01*
X0161157Y0053800D02*
X0156202Y0053800D01*
X0156597Y0053014D02*
X0160371Y0053014D01*
X0159586Y0052228D02*
X0157383Y0052228D01*
X0154939Y0053014D02*
X0150764Y0053014D01*
X0150764Y0053800D02*
X0154220Y0053800D01*
X0153434Y0054586D02*
X0150764Y0054586D01*
X0150764Y0055372D02*
X0152648Y0055372D01*
X0151863Y0056157D02*
X0150764Y0056157D01*
X0150764Y0056943D02*
X0151688Y0056943D01*
X0150764Y0052228D02*
X0154153Y0052228D01*
X0161067Y0047022D02*
X0162007Y0047412D01*
X0162727Y0048132D01*
X0163598Y0049003D01*
X0163598Y0045868D01*
X0163589Y0045846D01*
X0163589Y0044589D01*
X0164070Y0043428D01*
X0164959Y0042539D01*
X0166120Y0042058D01*
X0167376Y0042058D01*
X0168537Y0042539D01*
X0169426Y0043428D01*
X0169907Y0044589D01*
X0169907Y0045846D01*
X0169898Y0045868D01*
X0169898Y0053718D01*
X0169602Y0054431D01*
X0169683Y0054350D01*
X0170844Y0053869D01*
X0172101Y0053869D01*
X0173262Y0054350D01*
X0173381Y0054469D01*
X0175545Y0054469D01*
X0175213Y0054137D01*
X0175213Y0052313D01*
X0173994Y0052313D01*
X0172833Y0051832D01*
X0171944Y0050944D01*
X0171463Y0049783D01*
X0171463Y0048526D01*
X0171944Y0047365D01*
X0172833Y0046476D01*
X0172855Y0046467D01*
X0186125Y0033197D01*
X0187011Y0032311D01*
X0188169Y0031831D01*
X0199819Y0031831D01*
X0199819Y0031573D01*
X0200263Y0031128D01*
X0199712Y0030900D01*
X0198545Y0029733D01*
X0198035Y0028502D01*
X0198007Y0028513D01*
X0196907Y0028513D01*
X0196206Y0028223D01*
X0195581Y0029733D01*
X0194414Y0030900D01*
X0192888Y0031532D01*
X0191238Y0031532D01*
X0189712Y0030900D01*
X0188545Y0029733D01*
X0188203Y0028906D01*
X0187771Y0029085D01*
X0186670Y0029085D01*
X0185970Y0028795D01*
X0185581Y0029733D01*
X0184414Y0030900D01*
X0182888Y0031532D01*
X0181238Y0031532D01*
X0179712Y0030900D01*
X0178545Y0029733D01*
X0177913Y0028208D01*
X0177913Y0026557D01*
X0178545Y0025032D01*
X0179712Y0023865D01*
X0181238Y0023233D01*
X0182888Y0023233D01*
X0184414Y0023865D01*
X0184898Y0024349D01*
X0184898Y0020977D01*
X0184712Y0020900D01*
X0183545Y0019733D01*
X0182913Y0018208D01*
X0182913Y0016557D01*
X0183545Y0015032D01*
X0184712Y0013865D01*
X0185059Y0013721D01*
X0179067Y0013721D01*
X0179414Y0013865D01*
X0180581Y0015032D01*
X0181213Y0016557D01*
X0181213Y0018208D01*
X0180581Y0019733D01*
X0179414Y0020900D01*
X0177888Y0021532D01*
X0176238Y0021532D01*
X0174712Y0020900D01*
X0173545Y0019733D01*
X0172913Y0018208D01*
X0172913Y0016557D01*
X0173545Y0015032D01*
X0174712Y0013865D01*
X0175059Y0013721D01*
X0169067Y0013721D01*
X0169414Y0013865D01*
X0170581Y0015032D01*
X0171213Y0016557D01*
X0171213Y0018208D01*
X0170581Y0019733D01*
X0169414Y0020900D01*
X0167888Y0021532D01*
X0166238Y0021532D01*
X0164712Y0020900D01*
X0163545Y0019733D01*
X0162913Y0018208D01*
X0162913Y0016557D01*
X0163545Y0015032D01*
X0164712Y0013865D01*
X0165059Y0013721D01*
X0159067Y0013721D01*
X0159414Y0013865D01*
X0160581Y0015032D01*
X0161213Y0016557D01*
X0161213Y0018208D01*
X0160581Y0019733D01*
X0159414Y0020900D01*
X0158677Y0021205D01*
X0158677Y0024900D01*
X0159712Y0023865D01*
X0161238Y0023233D01*
X0162888Y0023233D01*
X0164414Y0023865D01*
X0165581Y0025032D01*
X0166213Y0026557D01*
X0166213Y0028208D01*
X0165581Y0029733D01*
X0164414Y0030900D01*
X0162888Y0031532D01*
X0161827Y0031532D01*
X0161827Y0039815D01*
X0160558Y0041083D01*
X0155959Y0045683D01*
X0157106Y0046830D01*
X0159048Y0046830D01*
X0159512Y0047022D01*
X0161067Y0047022D01*
X0162108Y0047512D02*
X0163598Y0047512D01*
X0163598Y0046726D02*
X0157003Y0046726D01*
X0156217Y0045941D02*
X0163598Y0045941D01*
X0163589Y0045155D02*
X0156487Y0045155D01*
X0157273Y0044369D02*
X0163680Y0044369D01*
X0164006Y0043583D02*
X0158059Y0043583D01*
X0158845Y0042797D02*
X0164701Y0042797D01*
X0168795Y0042797D02*
X0176525Y0042797D01*
X0175739Y0043583D02*
X0169490Y0043583D01*
X0169816Y0044369D02*
X0174953Y0044369D01*
X0174167Y0045155D02*
X0169907Y0045155D01*
X0169898Y0045941D02*
X0173381Y0045941D01*
X0172582Y0046726D02*
X0169898Y0046726D01*
X0169898Y0047512D02*
X0171883Y0047512D01*
X0171557Y0048298D02*
X0169898Y0048298D01*
X0169898Y0049084D02*
X0171463Y0049084D01*
X0171499Y0049870D02*
X0169898Y0049870D01*
X0169898Y0050656D02*
X0171825Y0050656D01*
X0172442Y0051442D02*
X0169898Y0051442D01*
X0169898Y0052228D02*
X0173788Y0052228D01*
X0175213Y0053014D02*
X0169898Y0053014D01*
X0169864Y0053800D02*
X0175213Y0053800D01*
X0178559Y0057225D02*
X0179150Y0057225D01*
X0179346Y0057028D01*
X0179572Y0060873D02*
X0172082Y0060873D01*
X0172868Y0060087D02*
X0176044Y0060087D01*
X0184071Y0058603D02*
X0184071Y0056044D01*
X0187220Y0056157D02*
X0196866Y0056157D01*
X0196866Y0055977D02*
X0196249Y0055492D01*
X0196092Y0055428D01*
X0195821Y0055156D01*
X0195520Y0054920D01*
X0195437Y0054772D01*
X0195317Y0054652D01*
X0195170Y0054298D01*
X0194983Y0053964D01*
X0194962Y0053796D01*
X0194898Y0053639D01*
X0194898Y0053256D01*
X0194852Y0052875D01*
X0194898Y0052712D01*
X0194898Y0051775D01*
X0194701Y0051578D01*
X0194701Y0049375D01*
X0193102Y0047776D01*
X0190505Y0047776D01*
X0189583Y0046854D01*
X0189583Y0038648D01*
X0179076Y0049154D01*
X0180921Y0049154D01*
X0180921Y0047911D01*
X0181844Y0046989D01*
X0186298Y0046989D01*
X0187220Y0047911D01*
X0187220Y0052366D01*
X0186495Y0053091D01*
X0187220Y0053817D01*
X0187220Y0058271D01*
X0186872Y0058620D01*
X0189976Y0061725D01*
X0189976Y0058344D01*
X0190899Y0057422D01*
X0196140Y0057422D01*
X0196900Y0058182D01*
X0197141Y0057601D01*
X0197161Y0057581D01*
X0196866Y0057287D01*
X0196866Y0055977D01*
X0196866Y0056943D02*
X0187220Y0056943D01*
X0187220Y0057729D02*
X0190592Y0057729D01*
X0189976Y0058515D02*
X0186976Y0058515D01*
X0187553Y0059301D02*
X0189976Y0059301D01*
X0189976Y0060087D02*
X0188339Y0060087D01*
X0189125Y0060873D02*
X0189976Y0060873D01*
X0189976Y0061659D02*
X0189911Y0061659D01*
X0190745Y0065277D02*
X0184071Y0058603D01*
X0187220Y0055372D02*
X0196036Y0055372D01*
X0195290Y0054586D02*
X0187220Y0054586D01*
X0187203Y0053800D02*
X0194963Y0053800D01*
X0194869Y0053014D02*
X0186572Y0053014D01*
X0187220Y0052228D02*
X0194898Y0052228D01*
X0194701Y0051442D02*
X0187220Y0051442D01*
X0187220Y0050656D02*
X0194701Y0050656D01*
X0194701Y0049870D02*
X0187220Y0049870D01*
X0187220Y0049084D02*
X0194410Y0049084D01*
X0193624Y0048298D02*
X0187220Y0048298D01*
X0186822Y0047512D02*
X0190241Y0047512D01*
X0189583Y0046726D02*
X0181504Y0046726D01*
X0181320Y0047512D02*
X0180718Y0047512D01*
X0180921Y0048298D02*
X0179932Y0048298D01*
X0179146Y0049084D02*
X0180921Y0049084D01*
X0182290Y0045941D02*
X0189583Y0045941D01*
X0189583Y0045155D02*
X0183076Y0045155D01*
X0183862Y0044369D02*
X0189583Y0044369D01*
X0189583Y0043583D02*
X0184648Y0043583D01*
X0185434Y0042797D02*
X0189583Y0042797D01*
X0189583Y0042011D02*
X0186219Y0042011D01*
X0187005Y0041225D02*
X0189583Y0041225D01*
X0189583Y0040439D02*
X0187791Y0040439D01*
X0188577Y0039653D02*
X0189583Y0039653D01*
X0189583Y0038867D02*
X0189363Y0038867D01*
X0184384Y0034938D02*
X0161827Y0034938D01*
X0161827Y0035724D02*
X0183598Y0035724D01*
X0182812Y0036510D02*
X0161827Y0036510D01*
X0161827Y0037296D02*
X0182026Y0037296D01*
X0181241Y0038081D02*
X0161827Y0038081D01*
X0161827Y0038867D02*
X0180455Y0038867D01*
X0179669Y0039653D02*
X0161827Y0039653D01*
X0161202Y0040439D02*
X0178883Y0040439D01*
X0178097Y0041225D02*
X0160417Y0041225D01*
X0159631Y0042011D02*
X0177311Y0042011D01*
X0185170Y0034152D02*
X0161827Y0034152D01*
X0161827Y0033366D02*
X0185956Y0033366D01*
X0186742Y0032580D02*
X0161827Y0032580D01*
X0161827Y0031794D02*
X0199819Y0031794D01*
X0199973Y0031008D02*
X0194153Y0031008D01*
X0195092Y0030222D02*
X0199034Y0030222D01*
X0198422Y0029436D02*
X0195704Y0029436D01*
X0196029Y0028650D02*
X0198097Y0028650D01*
X0199598Y0023979D02*
X0199524Y0023904D01*
X0199524Y0020790D01*
X0200581Y0019733D01*
X0201213Y0018208D01*
X0201213Y0016557D01*
X0200581Y0015032D01*
X0199414Y0013865D01*
X0199067Y0013721D01*
X0205059Y0013721D01*
X0204712Y0013865D01*
X0203545Y0015032D01*
X0202913Y0016557D01*
X0202913Y0018208D01*
X0203545Y0019733D01*
X0203913Y0020101D01*
X0203913Y0023657D01*
X0202888Y0023233D01*
X0201238Y0023233D01*
X0199712Y0023865D01*
X0199598Y0023979D01*
X0199555Y0023935D02*
X0199642Y0023935D01*
X0199524Y0023149D02*
X0203913Y0023149D01*
X0203913Y0022363D02*
X0199524Y0022363D01*
X0199524Y0021577D02*
X0203913Y0021577D01*
X0203913Y0020791D02*
X0199524Y0020791D01*
X0200308Y0020005D02*
X0203817Y0020005D01*
X0203332Y0019220D02*
X0200794Y0019220D01*
X0201119Y0018434D02*
X0203007Y0018434D01*
X0202913Y0017648D02*
X0201213Y0017648D01*
X0201213Y0016862D02*
X0202913Y0016862D01*
X0203113Y0016076D02*
X0201013Y0016076D01*
X0200688Y0015290D02*
X0203438Y0015290D01*
X0204073Y0014504D02*
X0200053Y0014504D01*
X0195059Y0013721D02*
X0189067Y0013721D01*
X0189414Y0013865D01*
X0190581Y0015032D01*
X0191213Y0016557D01*
X0191213Y0018208D01*
X0190581Y0019733D01*
X0189414Y0020900D01*
X0189228Y0020977D01*
X0189228Y0024349D01*
X0189712Y0023865D01*
X0191238Y0023233D01*
X0192888Y0023233D01*
X0194414Y0023865D01*
X0195000Y0024452D01*
X0195112Y0024181D01*
X0195390Y0023904D01*
X0195390Y0021181D01*
X0194712Y0020900D01*
X0193545Y0019733D01*
X0192913Y0018208D01*
X0192913Y0016557D01*
X0193545Y0015032D01*
X0194712Y0013865D01*
X0195059Y0013721D01*
X0194073Y0014504D02*
X0190053Y0014504D01*
X0190688Y0015290D02*
X0193438Y0015290D01*
X0193113Y0016076D02*
X0191013Y0016076D01*
X0191213Y0016862D02*
X0192913Y0016862D01*
X0192913Y0017648D02*
X0191213Y0017648D01*
X0191119Y0018434D02*
X0193007Y0018434D01*
X0193332Y0019220D02*
X0190794Y0019220D01*
X0190308Y0020005D02*
X0193817Y0020005D01*
X0194603Y0020791D02*
X0189523Y0020791D01*
X0189228Y0021577D02*
X0195390Y0021577D01*
X0195390Y0022363D02*
X0189228Y0022363D01*
X0189228Y0023149D02*
X0195390Y0023149D01*
X0195359Y0023935D02*
X0194484Y0023935D01*
X0189642Y0023935D02*
X0189228Y0023935D01*
X0184898Y0023935D02*
X0184484Y0023935D01*
X0184898Y0023149D02*
X0158677Y0023149D01*
X0158677Y0022363D02*
X0184898Y0022363D01*
X0184898Y0021577D02*
X0158677Y0021577D01*
X0159523Y0020791D02*
X0164603Y0020791D01*
X0163817Y0020005D02*
X0160308Y0020005D01*
X0160794Y0019220D02*
X0163332Y0019220D01*
X0163007Y0018434D02*
X0161119Y0018434D01*
X0161213Y0017648D02*
X0162913Y0017648D01*
X0162913Y0016862D02*
X0161213Y0016862D01*
X0161013Y0016076D02*
X0163113Y0016076D01*
X0163438Y0015290D02*
X0160688Y0015290D01*
X0160053Y0014504D02*
X0164073Y0014504D01*
X0170053Y0014504D02*
X0174073Y0014504D01*
X0173438Y0015290D02*
X0170688Y0015290D01*
X0171013Y0016076D02*
X0173113Y0016076D01*
X0172913Y0016862D02*
X0171213Y0016862D01*
X0171213Y0017648D02*
X0172913Y0017648D01*
X0173007Y0018434D02*
X0171119Y0018434D01*
X0170794Y0019220D02*
X0173332Y0019220D01*
X0173817Y0020005D02*
X0170308Y0020005D01*
X0169523Y0020791D02*
X0174603Y0020791D01*
X0172888Y0023233D02*
X0174414Y0023865D01*
X0175581Y0025032D01*
X0176213Y0026557D01*
X0176213Y0028208D01*
X0175581Y0029733D01*
X0174414Y0030900D01*
X0172888Y0031532D01*
X0171238Y0031532D01*
X0169712Y0030900D01*
X0168545Y0029733D01*
X0167913Y0028208D01*
X0167913Y0026557D01*
X0168545Y0025032D01*
X0169712Y0023865D01*
X0171238Y0023233D01*
X0172888Y0023233D01*
X0174484Y0023935D02*
X0179642Y0023935D01*
X0178856Y0024721D02*
X0175270Y0024721D01*
X0175778Y0025507D02*
X0178348Y0025507D01*
X0178023Y0026293D02*
X0176103Y0026293D01*
X0176213Y0027079D02*
X0177913Y0027079D01*
X0177913Y0027865D02*
X0176213Y0027865D01*
X0176029Y0028650D02*
X0178097Y0028650D01*
X0178422Y0029436D02*
X0175704Y0029436D01*
X0175092Y0030222D02*
X0179034Y0030222D01*
X0179973Y0031008D02*
X0174153Y0031008D01*
X0169973Y0031008D02*
X0164153Y0031008D01*
X0165092Y0030222D02*
X0169034Y0030222D01*
X0168422Y0029436D02*
X0165704Y0029436D01*
X0166029Y0028650D02*
X0168097Y0028650D01*
X0167913Y0027865D02*
X0166213Y0027865D01*
X0166213Y0027079D02*
X0167913Y0027079D01*
X0168023Y0026293D02*
X0166103Y0026293D01*
X0165778Y0025507D02*
X0168348Y0025507D01*
X0168856Y0024721D02*
X0165270Y0024721D01*
X0164484Y0023935D02*
X0169642Y0023935D01*
X0159642Y0023935D02*
X0158677Y0023935D01*
X0158677Y0024721D02*
X0158856Y0024721D01*
X0154346Y0023837D02*
X0154346Y0020534D01*
X0153545Y0019733D01*
X0152913Y0018208D01*
X0152913Y0016557D01*
X0153545Y0015032D01*
X0154712Y0013865D01*
X0155059Y0013721D01*
X0149067Y0013721D01*
X0149414Y0013865D01*
X0150581Y0015032D01*
X0151213Y0016557D01*
X0151213Y0018208D01*
X0150581Y0019733D01*
X0150016Y0020298D01*
X0150016Y0023739D01*
X0151238Y0023233D01*
X0152888Y0023233D01*
X0154346Y0023837D01*
X0154346Y0023149D02*
X0150016Y0023149D01*
X0150016Y0022363D02*
X0154346Y0022363D01*
X0154346Y0021577D02*
X0150016Y0021577D01*
X0150016Y0020791D02*
X0154346Y0020791D01*
X0153817Y0020005D02*
X0150308Y0020005D01*
X0150794Y0019220D02*
X0153332Y0019220D01*
X0153007Y0018434D02*
X0151119Y0018434D01*
X0151213Y0017648D02*
X0152913Y0017648D01*
X0152913Y0016862D02*
X0151213Y0016862D01*
X0151013Y0016076D02*
X0153113Y0016076D01*
X0153438Y0015290D02*
X0150688Y0015290D01*
X0150053Y0014504D02*
X0154073Y0014504D01*
X0145059Y0013721D02*
X0021128Y0013721D01*
X0019350Y0013905D01*
X0015915Y0014953D01*
X0012860Y0016842D01*
X0010386Y0019445D01*
X0008657Y0022593D01*
X0007786Y0026078D01*
X0007693Y0027872D01*
X0007693Y0027884D01*
X0007701Y0028527D01*
X0007693Y0028535D01*
X0007693Y0102058D01*
X0008074Y0101901D01*
X0009331Y0101901D01*
X0009354Y0101910D01*
X0010843Y0101910D01*
X0010843Y0101848D01*
X0011765Y0100926D01*
X0015826Y0100926D01*
X0016354Y0101455D01*
X0016883Y0100926D01*
X0020944Y0100926D01*
X0021866Y0101848D01*
X0021866Y0101910D01*
X0022057Y0101910D01*
X0026486Y0106339D01*
X0034329Y0106339D01*
X0034526Y0106536D01*
X0040069Y0106536D01*
X0043011Y0109478D01*
X0043553Y0108937D01*
X0043925Y0108782D01*
X0042634Y0107491D01*
X0042634Y0105329D01*
X0042356Y0105051D01*
X0041935Y0104035D01*
X0041935Y0102935D01*
X0042356Y0101918D01*
X0043134Y0101141D01*
X0044151Y0100720D01*
X0045251Y0100720D01*
X0046267Y0101141D01*
X0046812Y0101686D01*
X0047198Y0101300D01*
X0057164Y0101300D01*
X0057755Y0101890D01*
X0060063Y0101890D01*
X0063798Y0105625D01*
X0064377Y0105865D01*
X0065155Y0106643D01*
X0065576Y0107659D01*
X0065576Y0108759D01*
X0065155Y0109776D01*
X0064377Y0110554D01*
X0063361Y0110975D01*
X0062261Y0110975D01*
X0061245Y0110554D01*
X0061236Y0110545D01*
X0061228Y0110554D01*
X0060211Y0110975D01*
X0059680Y0110975D01*
X0059002Y0111652D01*
X0058087Y0112568D01*
X0058087Y0115495D01*
X0057892Y0115690D01*
X0058560Y0115690D01*
X0059035Y0115493D01*
X0065209Y0115493D01*
X0066367Y0115972D01*
X0066478Y0116083D01*
X0066587Y0116083D01*
X0067745Y0116563D01*
X0072654Y0121472D01*
X0072654Y0117630D01*
X0075016Y0115268D01*
X0076119Y0114165D01*
X0075675Y0113720D01*
X0075672Y0113713D01*
X0075102Y0113143D01*
X0074622Y0111985D01*
X0074622Y0107505D01*
X0074851Y0106953D01*
X0074850Y0106862D01*
X0074684Y0107028D01*
X0071769Y0107028D01*
X0071479Y0107729D01*
X0070701Y0108507D01*
X0069684Y0108928D01*
X0068584Y0108928D01*
X0067568Y0108507D01*
X0066790Y0107729D01*
X0066369Y0106712D01*
X0066369Y0105612D01*
X0066790Y0104596D01*
X0067568Y0103818D01*
X0068584Y0103397D01*
X0068837Y0103397D01*
X0069701Y0102534D01*
X0069701Y0101258D01*
X0070623Y0100335D01*
X0072808Y0100335D01*
X0068182Y0095709D01*
X0067732Y0094623D01*
X0067732Y0076126D01*
X0068182Y0075041D01*
X0069012Y0074210D01*
X0069469Y0073754D01*
X0069307Y0073364D01*
X0069307Y0069827D01*
X0069757Y0068741D01*
X0069898Y0068600D01*
X0069898Y0062146D01*
X0068908Y0062146D01*
X0067726Y0063327D01*
X0066022Y0063327D01*
X0065826Y0063524D01*
X0059797Y0063524D01*
X0059600Y0063327D01*
X0055999Y0063327D01*
X0054982Y0064344D01*
X0053599Y0065727D01*
X0047836Y0065727D01*
X0047798Y0065690D01*
X0042747Y0065690D01*
X0041585Y0064528D01*
X0041157Y0064528D01*
X0041157Y0073225D01*
X0041569Y0072232D01*
X0042347Y0071454D01*
X0043363Y0071033D01*
X0044463Y0071033D01*
X0045480Y0071454D01*
X0045856Y0071830D01*
X0047844Y0071830D01*
X0047628Y0071741D01*
X0046850Y0070963D01*
X0046429Y0069946D01*
X0046429Y0068846D01*
X0046850Y0067830D01*
X0047628Y0067052D01*
X0048645Y0066631D01*
X0049745Y0066631D01*
X0050761Y0067052D01*
X0051137Y0067428D01*
X0056180Y0067428D01*
X0058311Y0065296D01*
X0059206Y0065296D01*
X0059797Y0064705D01*
X0065826Y0064705D01*
X0066748Y0065628D01*
X0066748Y0078350D01*
X0065826Y0079272D01*
X0059797Y0079272D01*
X0059206Y0078682D01*
X0053390Y0078682D01*
X0049455Y0082616D01*
X0048302Y0083770D01*
X0046679Y0083770D01*
X0046679Y0083967D01*
X0047441Y0084729D01*
X0048727Y0084729D01*
X0049263Y0084194D01*
X0059206Y0084194D01*
X0059797Y0083603D01*
X0065826Y0083603D01*
X0066748Y0084525D01*
X0066748Y0097247D01*
X0065826Y0098170D01*
X0059797Y0098170D01*
X0059206Y0097579D01*
X0058454Y0097579D01*
X0058078Y0097955D01*
X0057062Y0098376D01*
X0055962Y0098376D01*
X0054945Y0097955D01*
X0054167Y0097177D01*
X0053746Y0096161D01*
X0053746Y0095061D01*
X0053782Y0094976D01*
X0053371Y0094806D01*
X0052593Y0094028D01*
X0052172Y0093011D01*
X0052172Y0091911D01*
X0052593Y0090895D01*
X0052995Y0090493D01*
X0052593Y0090091D01*
X0052172Y0089074D01*
X0052172Y0088131D01*
X0050893Y0088131D01*
X0050358Y0088666D01*
X0045810Y0088666D01*
X0043895Y0086751D01*
X0043363Y0086751D01*
X0042347Y0086330D01*
X0041569Y0085552D01*
X0041159Y0084563D01*
X0040151Y0084145D01*
X0039373Y0083367D01*
X0039108Y0082727D01*
X0024256Y0097579D01*
X0022322Y0097579D01*
X0021731Y0098170D01*
X0015702Y0098170D01*
X0014780Y0097247D01*
X0014780Y0093197D01*
X0014762Y0093240D01*
X0013984Y0094018D01*
X0012967Y0094439D01*
X0011867Y0094439D01*
X0010851Y0094018D01*
X0010073Y0093240D01*
X0009652Y0092224D01*
X0009652Y0091124D01*
X0009821Y0090715D01*
X0009071Y0089964D01*
X0009071Y0085903D01*
X0009600Y0085375D01*
X0009071Y0084846D01*
X0009071Y0080785D01*
X0009821Y0080035D01*
X0009652Y0079625D01*
X0009652Y0078525D01*
X0010073Y0077509D01*
X0010692Y0076890D01*
X0010579Y0076615D01*
X0010579Y0076121D01*
X0010063Y0075908D01*
X0009286Y0075130D01*
X0008865Y0074114D01*
X0008865Y0073014D01*
X0009286Y0071997D01*
X0010063Y0071219D01*
X0010107Y0071201D01*
X0010063Y0071184D01*
X0009286Y0070406D01*
X0008865Y0069389D01*
X0008865Y0068289D01*
X0009149Y0067602D01*
X0009071Y0067523D01*
X0009071Y0063462D01*
X0009993Y0062540D01*
X0010777Y0062540D01*
X0011063Y0062326D01*
X0011636Y0061753D01*
X0011827Y0061753D01*
X0011980Y0061638D01*
X0012782Y0061753D01*
X0015505Y0061753D01*
X0015702Y0061556D01*
X0021731Y0061556D01*
X0021928Y0061753D01*
X0022732Y0061753D01*
X0023226Y0061259D01*
X0024387Y0060778D01*
X0025644Y0060778D01*
X0026805Y0061259D01*
X0027694Y0062147D01*
X0028175Y0063308D01*
X0028175Y0064565D01*
X0027694Y0065726D01*
X0026805Y0066615D01*
X0025644Y0067096D01*
X0024387Y0067096D01*
X0023226Y0066615D01*
X0023088Y0066477D01*
X0022654Y0066477D01*
X0022654Y0081044D01*
X0027312Y0081044D01*
X0031671Y0076685D01*
X0031671Y0056280D01*
X0051245Y0036706D01*
X0051245Y0036654D01*
X0051666Y0035637D01*
X0052444Y0034859D01*
X0052792Y0034715D01*
X0052441Y0034569D01*
X0051663Y0033791D01*
X0051242Y0032775D01*
X0051242Y0032011D01*
X0040370Y0042883D01*
X0039217Y0044036D01*
X0022654Y0044036D01*
X0022654Y0059452D01*
X0021731Y0060375D01*
X0015702Y0060375D01*
X0015111Y0059784D01*
X0014565Y0059784D01*
X0014542Y0059794D01*
X0013442Y0059794D01*
X0012426Y0059373D01*
X0011648Y0058595D01*
X0011227Y0057578D01*
X0011227Y0057431D01*
X0011080Y0057431D01*
X0010063Y0057010D01*
X0009286Y0056232D01*
X0008865Y0055216D01*
X0008865Y0054116D01*
X0009286Y0053100D01*
X0010063Y0052322D01*
X0010107Y0052304D01*
X0010063Y0052286D01*
X0009286Y0051508D01*
X0008865Y0050492D01*
X0008865Y0049391D01*
X0009286Y0048375D01*
X0010063Y0047597D01*
X0011080Y0047176D01*
X0011227Y0047176D01*
X0011227Y0046851D01*
X0011477Y0046246D01*
X0010851Y0045987D01*
X0010073Y0045209D01*
X0009652Y0044192D01*
X0009652Y0043092D01*
X0010073Y0042076D01*
X0010851Y0041298D01*
X0011867Y0040877D01*
X0012967Y0040877D01*
X0013984Y0041298D01*
X0014762Y0042076D01*
X0014780Y0042119D01*
X0014780Y0027833D01*
X0015702Y0026910D01*
X0021731Y0026910D01*
X0022322Y0027501D01*
X0041907Y0027501D01*
X0041907Y0024548D01*
X0036765Y0024548D01*
X0035843Y0023625D01*
X0035843Y0019565D01*
X0036765Y0018642D01*
X0039670Y0018642D01*
X0043173Y0015139D01*
X0044442Y0013871D01*
X0118273Y0013871D01*
X0119235Y0014832D01*
X0140696Y0014832D01*
X0141964Y0016100D01*
X0142321Y0016457D01*
X0142913Y0017049D01*
X0142913Y0016557D01*
X0143545Y0015032D01*
X0144712Y0013865D01*
X0145059Y0013721D01*
X0144073Y0014504D02*
X0118907Y0014504D01*
X0116479Y0018201D02*
X0114170Y0018201D01*
X0119734Y0023766D01*
X0119734Y0026485D01*
X0119661Y0026558D01*
X0119661Y0028760D01*
X0121096Y0028760D01*
X0120882Y0028547D01*
X0120882Y0024486D01*
X0121804Y0023564D01*
X0125928Y0023564D01*
X0126482Y0023010D01*
X0127498Y0022589D01*
X0128598Y0022589D01*
X0129614Y0023010D01*
X0129780Y0023175D01*
X0130264Y0022974D01*
X0130264Y0022480D01*
X0130685Y0021464D01*
X0131463Y0020686D01*
X0132479Y0020265D01*
X0133579Y0020265D01*
X0134596Y0020686D01*
X0135374Y0021464D01*
X0135744Y0022359D01*
X0136057Y0021603D01*
X0136835Y0020826D01*
X0137852Y0020405D01*
X0138952Y0020405D01*
X0139259Y0020532D01*
X0139259Y0019520D01*
X0138902Y0019163D01*
X0117441Y0019163D01*
X0116479Y0018201D01*
X0116712Y0018434D02*
X0114402Y0018434D01*
X0115188Y0019220D02*
X0138959Y0019220D01*
X0139259Y0020005D02*
X0115974Y0020005D01*
X0116760Y0020791D02*
X0131358Y0020791D01*
X0130638Y0021577D02*
X0117546Y0021577D01*
X0118164Y0021360D02*
X0118202Y0021398D01*
X0118331Y0022363D02*
X0130312Y0022363D01*
X0129842Y0023149D02*
X0129754Y0023149D01*
X0133029Y0023030D02*
X0133029Y0024157D01*
X0133499Y0024627D01*
X0133499Y0032264D01*
X0133441Y0032323D01*
X0133441Y0033091D01*
X0135409Y0033091D02*
X0135409Y0037973D01*
X0135252Y0038131D01*
X0134684Y0037422D02*
X0133227Y0037422D01*
X0133293Y0037580D01*
X0133293Y0038681D01*
X0132872Y0039697D01*
X0132094Y0040475D01*
X0131078Y0040896D01*
X0129977Y0040896D01*
X0128961Y0040475D01*
X0128782Y0040296D01*
X0128274Y0040296D01*
X0127550Y0039572D01*
X0127550Y0041700D01*
X0127926Y0042076D01*
X0128347Y0043092D01*
X0128347Y0044192D01*
X0128004Y0045020D01*
X0128674Y0045020D01*
X0129615Y0045410D01*
X0132401Y0048196D01*
X0132876Y0048393D01*
X0133651Y0049168D01*
X0134071Y0050181D01*
X0134071Y0052459D01*
X0135921Y0054309D01*
X0135921Y0053613D01*
X0135984Y0053462D01*
X0135270Y0052749D01*
X0134849Y0051732D01*
X0134849Y0050632D01*
X0135270Y0049616D01*
X0136048Y0048838D01*
X0137064Y0048417D01*
X0138164Y0048417D01*
X0139181Y0048838D01*
X0139959Y0049616D01*
X0139959Y0049617D01*
X0140570Y0049617D01*
X0140776Y0049823D01*
X0142102Y0049823D01*
X0142102Y0048777D01*
X0142828Y0048052D01*
X0142102Y0047326D01*
X0142102Y0038935D01*
X0143025Y0038012D01*
X0148835Y0038012D01*
X0148835Y0034303D01*
X0146953Y0032422D01*
X0145685Y0031153D01*
X0145685Y0021303D01*
X0144712Y0020900D01*
X0143590Y0019778D01*
X0143590Y0030641D01*
X0143676Y0030641D01*
X0144692Y0031062D01*
X0145470Y0031840D01*
X0145891Y0032856D01*
X0145891Y0033956D01*
X0145470Y0034973D01*
X0144692Y0035750D01*
X0143676Y0036171D01*
X0142576Y0036171D01*
X0141560Y0035750D01*
X0141512Y0035703D01*
X0141512Y0036499D01*
X0140589Y0037422D01*
X0136135Y0037422D01*
X0135409Y0036696D01*
X0134684Y0037422D01*
X0134810Y0037296D02*
X0136009Y0037296D01*
X0133293Y0038081D02*
X0142956Y0038081D01*
X0142170Y0038867D02*
X0133216Y0038867D01*
X0132890Y0039653D02*
X0142102Y0039653D01*
X0142102Y0040439D02*
X0132130Y0040439D01*
X0128925Y0040439D02*
X0127550Y0040439D01*
X0127550Y0039653D02*
X0127631Y0039653D01*
X0127550Y0041225D02*
X0142102Y0041225D01*
X0142102Y0042011D02*
X0127861Y0042011D01*
X0128225Y0042797D02*
X0142102Y0042797D01*
X0142102Y0043583D02*
X0128347Y0043583D01*
X0128274Y0044369D02*
X0142102Y0044369D01*
X0142102Y0045155D02*
X0128999Y0045155D01*
X0130146Y0045941D02*
X0142102Y0045941D01*
X0142102Y0046726D02*
X0130931Y0046726D01*
X0131717Y0047512D02*
X0142289Y0047512D01*
X0142024Y0048052D02*
X0140764Y0045217D01*
X0142024Y0048052D02*
X0146433Y0048052D01*
X0142582Y0048298D02*
X0132648Y0048298D01*
X0133568Y0049084D02*
X0135801Y0049084D01*
X0135164Y0049870D02*
X0133942Y0049870D01*
X0134071Y0050656D02*
X0134849Y0050656D01*
X0134849Y0051442D02*
X0134071Y0051442D01*
X0134071Y0052228D02*
X0135054Y0052228D01*
X0134626Y0053014D02*
X0135535Y0053014D01*
X0135412Y0053800D02*
X0135921Y0053800D01*
X0139427Y0049084D02*
X0142102Y0049084D01*
X0130279Y0057019D02*
X0128844Y0055584D01*
X0127948Y0055955D01*
X0126808Y0055955D01*
X0125756Y0055519D01*
X0124950Y0054713D01*
X0124514Y0053661D01*
X0124514Y0053290D01*
X0118134Y0046910D01*
X0118440Y0047648D01*
X0118440Y0048748D01*
X0118095Y0049581D01*
X0118127Y0049613D01*
X0118548Y0050629D01*
X0118548Y0051729D01*
X0118191Y0052592D01*
X0118214Y0052615D01*
X0118635Y0053631D01*
X0118635Y0054731D01*
X0118214Y0055748D01*
X0117436Y0056526D01*
X0117167Y0056637D01*
X0115961Y0057844D01*
X0115716Y0058088D01*
X0120482Y0058088D01*
X0128150Y0058088D01*
X0128738Y0057500D01*
X0129899Y0057019D01*
X0130279Y0057019D01*
X0130204Y0056943D02*
X0116861Y0056943D01*
X0116075Y0057729D02*
X0128509Y0057729D01*
X0129418Y0056157D02*
X0117804Y0056157D01*
X0118370Y0055372D02*
X0125608Y0055372D01*
X0124897Y0054586D02*
X0118635Y0054586D01*
X0118635Y0053800D02*
X0124572Y0053800D01*
X0124238Y0053014D02*
X0118379Y0053014D01*
X0118342Y0052228D02*
X0123452Y0052228D01*
X0122666Y0051442D02*
X0118548Y0051442D01*
X0118548Y0050656D02*
X0121881Y0050656D01*
X0121095Y0049870D02*
X0118234Y0049870D01*
X0118301Y0049084D02*
X0120309Y0049084D01*
X0119523Y0048298D02*
X0118440Y0048298D01*
X0118384Y0047512D02*
X0118737Y0047512D01*
X0115675Y0048198D02*
X0114548Y0048198D01*
X0108005Y0054742D01*
X0098981Y0054742D01*
X0096228Y0051989D01*
X0085016Y0051989D01*
X0085016Y0053957D02*
X0096234Y0053957D01*
X0098406Y0056129D01*
X0108579Y0056129D01*
X0113529Y0051179D01*
X0115783Y0051179D01*
X0115870Y0054181D02*
X0115870Y0055151D01*
X0113992Y0057028D01*
X0109642Y0057028D01*
X0109154Y0057516D01*
X0107430Y0053354D02*
X0099555Y0053354D01*
X0094253Y0048052D01*
X0085016Y0048052D01*
X0085016Y0046083D02*
X0094247Y0046083D01*
X0098536Y0050373D01*
X0099809Y0050373D01*
X0100606Y0051170D01*
X0099111Y0048986D02*
X0094240Y0044115D01*
X0085016Y0044115D01*
X0080685Y0044369D02*
X0068806Y0044369D01*
X0069591Y0043583D02*
X0080685Y0043583D01*
X0080685Y0042797D02*
X0070291Y0042797D01*
X0070291Y0042883D02*
X0066748Y0046426D01*
X0066748Y0056241D01*
X0070944Y0056241D01*
X0071534Y0056831D01*
X0074037Y0056831D01*
X0075213Y0055656D01*
X0075213Y0053620D01*
X0076135Y0052697D01*
X0080685Y0052697D01*
X0080685Y0050746D01*
X0081411Y0050020D01*
X0080685Y0049295D01*
X0080685Y0038935D01*
X0081608Y0038012D01*
X0082841Y0038012D01*
X0082841Y0034661D01*
X0082373Y0034194D01*
X0081512Y0034194D01*
X0081512Y0035878D01*
X0079750Y0037640D01*
X0079750Y0037893D01*
X0079329Y0038910D01*
X0078551Y0039687D01*
X0077534Y0040108D01*
X0076434Y0040108D01*
X0075418Y0039687D01*
X0074640Y0038910D01*
X0074219Y0037893D01*
X0074219Y0036793D01*
X0074640Y0035777D01*
X0075418Y0034999D01*
X0076434Y0034578D01*
X0076687Y0034578D01*
X0077181Y0034084D01*
X0077181Y0032081D01*
X0078450Y0030812D01*
X0079150Y0030112D01*
X0079150Y0029211D01*
X0080072Y0028288D01*
X0084920Y0028288D01*
X0085252Y0028620D01*
X0085584Y0028288D01*
X0088786Y0028288D01*
X0088840Y0028234D01*
X0090114Y0026960D01*
X0094091Y0026960D01*
X0094794Y0027663D01*
X0095891Y0028760D01*
X0103413Y0028760D01*
X0099791Y0025138D01*
X0057857Y0025138D01*
X0058991Y0026273D01*
X0059713Y0026994D01*
X0059797Y0026910D01*
X0065826Y0026910D01*
X0066019Y0027104D01*
X0066985Y0026704D01*
X0068085Y0026704D01*
X0069102Y0027125D01*
X0069880Y0027903D01*
X0070301Y0028919D01*
X0070301Y0029066D01*
X0070448Y0029066D01*
X0071464Y0029487D01*
X0072242Y0030265D01*
X0072663Y0031281D01*
X0072663Y0032381D01*
X0072242Y0033398D01*
X0071866Y0033774D01*
X0071866Y0034222D01*
X0070291Y0035796D01*
X0070291Y0042883D01*
X0070291Y0042011D02*
X0080685Y0042011D01*
X0080685Y0041225D02*
X0070291Y0041225D01*
X0070291Y0040439D02*
X0080685Y0040439D01*
X0080685Y0039653D02*
X0078585Y0039653D01*
X0079346Y0038867D02*
X0080753Y0038867D01*
X0081539Y0038081D02*
X0079672Y0038081D01*
X0080094Y0037296D02*
X0082841Y0037296D01*
X0082841Y0036510D02*
X0080880Y0036510D01*
X0081512Y0035724D02*
X0082841Y0035724D01*
X0082841Y0034938D02*
X0081512Y0034938D01*
X0077113Y0034152D02*
X0071866Y0034152D01*
X0072255Y0033366D02*
X0077181Y0033366D01*
X0077181Y0032580D02*
X0072581Y0032580D01*
X0072663Y0031794D02*
X0077468Y0031794D01*
X0078254Y0031008D02*
X0072550Y0031008D01*
X0072199Y0030222D02*
X0079040Y0030222D01*
X0079150Y0029436D02*
X0071342Y0029436D01*
X0070190Y0028650D02*
X0079710Y0028650D01*
X0075565Y0034938D02*
X0071150Y0034938D01*
X0070364Y0035724D02*
X0074693Y0035724D01*
X0074336Y0036510D02*
X0070291Y0036510D01*
X0070291Y0037296D02*
X0074219Y0037296D01*
X0074297Y0038081D02*
X0070291Y0038081D01*
X0070291Y0038867D02*
X0074622Y0038867D01*
X0075384Y0039653D02*
X0070291Y0039653D01*
X0068323Y0042068D02*
X0065173Y0045217D01*
X0062811Y0045217D01*
X0066748Y0046726D02*
X0080685Y0046726D01*
X0080685Y0045941D02*
X0067234Y0045941D01*
X0068020Y0045155D02*
X0080685Y0045155D01*
X0080685Y0047512D02*
X0066748Y0047512D01*
X0066748Y0048298D02*
X0080685Y0048298D01*
X0080685Y0049084D02*
X0066748Y0049084D01*
X0066748Y0049870D02*
X0081260Y0049870D01*
X0080775Y0050656D02*
X0066748Y0050656D01*
X0066748Y0051442D02*
X0080685Y0051442D01*
X0080685Y0052228D02*
X0066748Y0052228D01*
X0066748Y0053014D02*
X0075819Y0053014D01*
X0075213Y0053800D02*
X0066748Y0053800D01*
X0066748Y0054586D02*
X0075213Y0054586D01*
X0075213Y0055372D02*
X0066748Y0055372D01*
X0066748Y0056157D02*
X0074711Y0056157D01*
X0069898Y0062445D02*
X0068609Y0062445D01*
X0067823Y0063231D02*
X0069898Y0063231D01*
X0069898Y0064017D02*
X0055310Y0064017D01*
X0054524Y0064802D02*
X0059699Y0064802D01*
X0058019Y0065588D02*
X0053738Y0065588D01*
X0056447Y0067160D02*
X0050870Y0067160D01*
X0049195Y0069396D02*
X0056995Y0069396D01*
X0059127Y0067264D01*
X0062811Y0067264D01*
X0066748Y0067160D02*
X0069898Y0067160D01*
X0069898Y0066374D02*
X0066748Y0066374D01*
X0066709Y0065588D02*
X0069898Y0065588D01*
X0069898Y0064802D02*
X0065923Y0064802D01*
X0066748Y0067946D02*
X0069898Y0067946D01*
X0069766Y0068732D02*
X0066748Y0068732D01*
X0066748Y0069518D02*
X0069435Y0069518D01*
X0069307Y0070304D02*
X0066748Y0070304D01*
X0066748Y0071090D02*
X0069307Y0071090D01*
X0069307Y0071876D02*
X0066748Y0071876D01*
X0066748Y0072662D02*
X0069307Y0072662D01*
X0069342Y0073448D02*
X0066748Y0073448D01*
X0066748Y0074233D02*
X0068989Y0074233D01*
X0068203Y0075019D02*
X0066748Y0075019D01*
X0066748Y0075805D02*
X0067865Y0075805D01*
X0067732Y0076591D02*
X0066748Y0076591D01*
X0066748Y0077377D02*
X0067732Y0077377D01*
X0067732Y0078163D02*
X0066748Y0078163D01*
X0066149Y0078949D02*
X0067732Y0078949D01*
X0067732Y0079735D02*
X0052337Y0079735D01*
X0051551Y0080521D02*
X0067732Y0080521D01*
X0067732Y0081307D02*
X0050765Y0081307D01*
X0049979Y0082093D02*
X0067732Y0082093D01*
X0067732Y0082878D02*
X0049193Y0082878D01*
X0050139Y0083012D02*
X0048638Y0084513D01*
X0049006Y0084450D02*
X0047162Y0084450D01*
X0048408Y0083664D02*
X0059735Y0083664D01*
X0062811Y0083012D02*
X0050139Y0083012D01*
X0047487Y0081801D02*
X0041718Y0081801D01*
X0039171Y0082878D02*
X0038957Y0082878D01*
X0039670Y0083664D02*
X0038171Y0083664D01*
X0037385Y0084450D02*
X0040887Y0084450D01*
X0041438Y0085236D02*
X0036599Y0085236D01*
X0035814Y0086022D02*
X0042039Y0086022D01*
X0043952Y0086808D02*
X0035028Y0086808D01*
X0034242Y0087594D02*
X0044738Y0087594D01*
X0045524Y0088380D02*
X0033456Y0088380D01*
X0032670Y0089166D02*
X0052210Y0089166D01*
X0052172Y0088380D02*
X0050644Y0088380D01*
X0049543Y0086698D02*
X0046626Y0086698D01*
X0043913Y0083985D01*
X0047487Y0081801D02*
X0052575Y0076713D01*
X0062811Y0076713D01*
X0062811Y0073564D02*
X0050970Y0073564D01*
X0049348Y0075186D01*
X0048282Y0075186D01*
X0043913Y0079554D01*
X0039189Y0079863D02*
X0039189Y0060178D01*
X0053362Y0046005D01*
X0054150Y0046005D01*
X0053245Y0043820D02*
X0037802Y0059264D01*
X0037802Y0079288D01*
X0024628Y0092461D01*
X0018717Y0092461D01*
X0018717Y0089312D02*
X0025803Y0089312D01*
X0036414Y0078701D01*
X0036414Y0058689D01*
X0052670Y0042433D01*
X0053353Y0042433D01*
X0054150Y0041636D01*
X0053245Y0039452D02*
X0035027Y0057670D01*
X0035027Y0078126D01*
X0026991Y0086162D01*
X0018717Y0086162D01*
X0018717Y0083012D02*
X0028128Y0083012D01*
X0033639Y0077501D01*
X0033639Y0057095D01*
X0052670Y0038064D01*
X0053149Y0038064D01*
X0054010Y0037204D01*
X0056004Y0036048D02*
X0058874Y0038918D01*
X0062811Y0038918D01*
X0062811Y0042068D02*
X0065961Y0042068D01*
X0066748Y0041280D01*
X0066748Y0030257D01*
X0067535Y0029469D01*
X0066080Y0027079D02*
X0065994Y0027079D01*
X0068990Y0027079D02*
X0089996Y0027079D01*
X0089210Y0027865D02*
X0069842Y0027865D01*
X0062811Y0029469D02*
X0059404Y0029469D01*
X0057023Y0027088D01*
X0054918Y0027088D01*
X0053953Y0026320D01*
X0056118Y0029272D02*
X0059465Y0032619D01*
X0062811Y0032619D01*
X0062811Y0035768D02*
X0060273Y0035768D01*
X0057302Y0032601D01*
X0055099Y0032601D01*
X0054491Y0032619D01*
X0054007Y0032225D01*
X0052023Y0034152D02*
X0049101Y0034152D01*
X0048315Y0034938D02*
X0052365Y0034938D01*
X0051630Y0035724D02*
X0047529Y0035724D01*
X0046743Y0036510D02*
X0051304Y0036510D01*
X0050655Y0037296D02*
X0045957Y0037296D01*
X0045172Y0038081D02*
X0049869Y0038081D01*
X0049083Y0038867D02*
X0044386Y0038867D01*
X0043600Y0039653D02*
X0048297Y0039653D01*
X0047512Y0040439D02*
X0042814Y0040439D01*
X0042028Y0041225D02*
X0046726Y0041225D01*
X0045940Y0042011D02*
X0041242Y0042011D01*
X0040456Y0042797D02*
X0045154Y0042797D01*
X0044368Y0043583D02*
X0039670Y0043583D01*
X0040370Y0042883D02*
X0040370Y0042883D01*
X0038402Y0042068D02*
X0049425Y0031044D01*
X0049425Y0025532D01*
X0051787Y0023170D01*
X0100606Y0023170D01*
X0105882Y0028446D01*
X0105882Y0033091D01*
X0103913Y0033091D02*
X0103913Y0042697D01*
X0103756Y0042855D01*
X0101729Y0040493D02*
X0101945Y0040277D01*
X0101945Y0033091D01*
X0099976Y0033091D02*
X0099976Y0039157D01*
X0099545Y0039588D01*
X0099545Y0041538D01*
X0099016Y0042068D01*
X0096069Y0043042D02*
X0099031Y0046005D01*
X0103756Y0046005D01*
X0102676Y0048986D02*
X0099111Y0048986D01*
X0107430Y0053354D02*
X0115567Y0045217D01*
X0121593Y0039470D02*
X0121593Y0033128D01*
X0121630Y0033091D01*
X0123598Y0033091D02*
X0123598Y0027146D01*
X0124228Y0026516D01*
X0120882Y0026293D02*
X0119734Y0026293D01*
X0119734Y0025507D02*
X0120882Y0025507D01*
X0120882Y0024721D02*
X0119734Y0024721D01*
X0119734Y0023935D02*
X0121433Y0023935D01*
X0119117Y0023149D02*
X0126342Y0023149D01*
X0128048Y0025354D02*
X0129504Y0026810D01*
X0129504Y0033091D01*
X0131472Y0033091D02*
X0131472Y0025690D01*
X0131315Y0025532D01*
X0136039Y0025532D02*
X0137378Y0026871D01*
X0137378Y0033091D01*
X0139346Y0033091D02*
X0139346Y0024115D01*
X0138402Y0023170D01*
X0136918Y0020791D02*
X0134701Y0020791D01*
X0135420Y0021577D02*
X0136083Y0021577D01*
X0143590Y0021577D02*
X0145685Y0021577D01*
X0145685Y0022363D02*
X0143590Y0022363D01*
X0143590Y0023149D02*
X0145685Y0023149D01*
X0145685Y0023935D02*
X0143590Y0023935D01*
X0143590Y0024721D02*
X0145685Y0024721D01*
X0145685Y0025507D02*
X0143590Y0025507D01*
X0143590Y0026293D02*
X0145685Y0026293D01*
X0145685Y0027079D02*
X0143590Y0027079D01*
X0143590Y0027865D02*
X0145685Y0027865D01*
X0145685Y0028650D02*
X0143590Y0028650D01*
X0143590Y0029436D02*
X0145685Y0029436D01*
X0145685Y0030222D02*
X0143590Y0030222D01*
X0144563Y0031008D02*
X0145685Y0031008D01*
X0145425Y0031794D02*
X0146326Y0031794D01*
X0145777Y0032580D02*
X0147112Y0032580D01*
X0147898Y0033366D02*
X0145891Y0033366D01*
X0145810Y0034152D02*
X0148683Y0034152D01*
X0148835Y0034938D02*
X0145485Y0034938D01*
X0144719Y0035724D02*
X0148835Y0035724D01*
X0148835Y0036510D02*
X0141502Y0036510D01*
X0141512Y0035724D02*
X0141533Y0035724D01*
X0140716Y0037296D02*
X0148835Y0037296D01*
X0162894Y0048298D02*
X0163598Y0048298D01*
X0160202Y0062445D02*
X0157761Y0062445D01*
X0158547Y0063231D02*
X0159416Y0063231D01*
X0159718Y0070304D02*
X0150764Y0070304D01*
X0150622Y0071090D02*
X0160504Y0071090D01*
X0159212Y0074233D02*
X0174828Y0074233D01*
X0174150Y0075019D02*
X0160387Y0075019D01*
X0142102Y0076591D02*
X0141992Y0076591D01*
X0142102Y0072662D02*
X0123795Y0072662D01*
X0124080Y0063231D02*
X0129643Y0063231D01*
X0131412Y0063231D02*
X0133259Y0063231D01*
X0108135Y0074005D02*
X0107750Y0074390D01*
X0104504Y0074390D01*
X0101394Y0077501D01*
X0099819Y0077501D01*
X0098767Y0078553D01*
X0096552Y0078553D01*
X0096481Y0078482D01*
X0094501Y0078482D01*
X0089498Y0083485D01*
X0085016Y0083485D01*
X0080685Y0083664D02*
X0073638Y0083664D01*
X0073638Y0082878D02*
X0080685Y0082878D01*
X0080685Y0082093D02*
X0073638Y0082093D01*
X0073638Y0081307D02*
X0080685Y0081307D01*
X0080685Y0080521D02*
X0073638Y0080521D01*
X0073638Y0079735D02*
X0081224Y0079735D01*
X0080812Y0078949D02*
X0073638Y0078949D01*
X0073638Y0078163D02*
X0080685Y0078163D01*
X0080685Y0077377D02*
X0074197Y0077377D01*
X0075213Y0071090D02*
X0080685Y0071090D01*
X0080685Y0070304D02*
X0075213Y0070304D01*
X0075085Y0069518D02*
X0076026Y0069518D01*
X0075241Y0068732D02*
X0074754Y0068732D01*
X0074622Y0067946D02*
X0075213Y0067946D01*
X0075213Y0067160D02*
X0074622Y0067160D01*
X0074622Y0066374D02*
X0075213Y0066374D01*
X0075213Y0065588D02*
X0074622Y0065588D01*
X0074622Y0064802D02*
X0075213Y0064802D01*
X0074622Y0064017D02*
X0075840Y0064017D01*
X0085016Y0065768D02*
X0089491Y0065768D01*
X0091234Y0064025D01*
X0097917Y0064025D01*
X0103756Y0072206D02*
X0103186Y0072776D01*
X0091945Y0072776D01*
X0089110Y0075611D01*
X0085016Y0075611D01*
X0085016Y0077579D02*
X0089504Y0077579D01*
X0092920Y0074164D01*
X0099535Y0074164D01*
X0100353Y0074981D01*
X0097457Y0076368D02*
X0094652Y0076368D01*
X0089504Y0081516D01*
X0085016Y0081516D01*
X0080685Y0084450D02*
X0073638Y0084450D01*
X0073638Y0085236D02*
X0080685Y0085236D01*
X0080685Y0086022D02*
X0073638Y0086022D01*
X0073638Y0086808D02*
X0080685Y0086808D01*
X0080685Y0087594D02*
X0073638Y0087594D01*
X0073638Y0088380D02*
X0080685Y0088380D01*
X0081186Y0089166D02*
X0073638Y0089166D01*
X0067732Y0089166D02*
X0066748Y0089166D01*
X0066748Y0089952D02*
X0067732Y0089952D01*
X0067732Y0090738D02*
X0066748Y0090738D01*
X0066748Y0091523D02*
X0067732Y0091523D01*
X0067732Y0092309D02*
X0066748Y0092309D01*
X0066748Y0093095D02*
X0067732Y0093095D01*
X0067732Y0093881D02*
X0066748Y0093881D01*
X0066748Y0094667D02*
X0067750Y0094667D01*
X0068076Y0095453D02*
X0066748Y0095453D01*
X0066748Y0096239D02*
X0068712Y0096239D01*
X0069498Y0097025D02*
X0066748Y0097025D01*
X0066185Y0097811D02*
X0070284Y0097811D01*
X0071070Y0098597D02*
X0007693Y0098597D01*
X0007693Y0099383D02*
X0071856Y0099383D01*
X0072642Y0100169D02*
X0007693Y0100169D01*
X0007693Y0100954D02*
X0011736Y0100954D01*
X0010950Y0101740D02*
X0007693Y0101740D01*
X0007693Y0097811D02*
X0015343Y0097811D01*
X0014780Y0097025D02*
X0007693Y0097025D01*
X0007693Y0096239D02*
X0014780Y0096239D01*
X0014780Y0095453D02*
X0007693Y0095453D01*
X0007693Y0094667D02*
X0014780Y0094667D01*
X0014780Y0093881D02*
X0014121Y0093881D01*
X0010714Y0093881D02*
X0007693Y0093881D01*
X0007693Y0093095D02*
X0010013Y0093095D01*
X0009687Y0092309D02*
X0007693Y0092309D01*
X0007693Y0091523D02*
X0009652Y0091523D01*
X0009812Y0090738D02*
X0007693Y0090738D01*
X0007693Y0089952D02*
X0009071Y0089952D01*
X0009071Y0089166D02*
X0007693Y0089166D01*
X0007693Y0088380D02*
X0009071Y0088380D01*
X0009071Y0087594D02*
X0007693Y0087594D01*
X0007693Y0086808D02*
X0009071Y0086808D01*
X0009071Y0086022D02*
X0007693Y0086022D01*
X0007693Y0085236D02*
X0009461Y0085236D01*
X0009071Y0084450D02*
X0007693Y0084450D01*
X0007693Y0083664D02*
X0009071Y0083664D01*
X0009071Y0082878D02*
X0007693Y0082878D01*
X0007693Y0082093D02*
X0009071Y0082093D01*
X0009071Y0081307D02*
X0007693Y0081307D01*
X0007693Y0080521D02*
X0009335Y0080521D01*
X0009697Y0079735D02*
X0007693Y0079735D01*
X0007693Y0078949D02*
X0009652Y0078949D01*
X0009802Y0078163D02*
X0007693Y0078163D01*
X0007693Y0077377D02*
X0010205Y0077377D01*
X0010579Y0076591D02*
X0007693Y0076591D01*
X0007693Y0075805D02*
X0009961Y0075805D01*
X0009240Y0075019D02*
X0007693Y0075019D01*
X0007693Y0074233D02*
X0008914Y0074233D01*
X0008865Y0073448D02*
X0007693Y0073448D01*
X0007693Y0072662D02*
X0009010Y0072662D01*
X0009407Y0071876D02*
X0007693Y0071876D01*
X0007693Y0071090D02*
X0009970Y0071090D01*
X0009243Y0070304D02*
X0007693Y0070304D01*
X0007693Y0069518D02*
X0008918Y0069518D01*
X0008865Y0068732D02*
X0007693Y0068732D01*
X0007693Y0067946D02*
X0009007Y0067946D01*
X0009071Y0067160D02*
X0007693Y0067160D01*
X0007693Y0066374D02*
X0009071Y0066374D01*
X0009071Y0065588D02*
X0007693Y0065588D01*
X0007693Y0064802D02*
X0009071Y0064802D01*
X0009071Y0064017D02*
X0007693Y0064017D01*
X0007693Y0063231D02*
X0009303Y0063231D01*
X0010904Y0062445D02*
X0007693Y0062445D01*
X0007693Y0061659D02*
X0011952Y0061659D01*
X0012125Y0061659D02*
X0015599Y0061659D01*
X0015414Y0060087D02*
X0007693Y0060087D01*
X0007693Y0060873D02*
X0024158Y0060873D01*
X0022826Y0061659D02*
X0021834Y0061659D01*
X0022019Y0060087D02*
X0031671Y0060087D01*
X0031671Y0060873D02*
X0025874Y0060873D01*
X0027205Y0061659D02*
X0031671Y0061659D01*
X0031671Y0062445D02*
X0027817Y0062445D01*
X0028143Y0063231D02*
X0031671Y0063231D01*
X0031671Y0064017D02*
X0028175Y0064017D01*
X0028077Y0064802D02*
X0031671Y0064802D01*
X0031671Y0065588D02*
X0027751Y0065588D01*
X0027046Y0066374D02*
X0031671Y0066374D01*
X0031671Y0067160D02*
X0022654Y0067160D01*
X0022654Y0067946D02*
X0031671Y0067946D01*
X0031671Y0068732D02*
X0022654Y0068732D01*
X0022654Y0069518D02*
X0031671Y0069518D01*
X0031671Y0070304D02*
X0022654Y0070304D01*
X0022654Y0071090D02*
X0031671Y0071090D01*
X0031671Y0071876D02*
X0022654Y0071876D01*
X0022654Y0072662D02*
X0031671Y0072662D01*
X0031671Y0073448D02*
X0022654Y0073448D01*
X0022654Y0074233D02*
X0031671Y0074233D01*
X0031671Y0075019D02*
X0022654Y0075019D01*
X0022654Y0075805D02*
X0031671Y0075805D01*
X0031671Y0076591D02*
X0022654Y0076591D01*
X0022654Y0077377D02*
X0030979Y0077377D01*
X0030193Y0078163D02*
X0022654Y0078163D01*
X0022654Y0078949D02*
X0029407Y0078949D01*
X0028621Y0079735D02*
X0022654Y0079735D01*
X0022654Y0080521D02*
X0027835Y0080521D01*
X0018717Y0079863D02*
X0013205Y0079863D01*
X0012417Y0079075D01*
X0013992Y0076713D02*
X0013344Y0076065D01*
X0013992Y0076713D02*
X0018717Y0076713D01*
X0018717Y0073564D02*
X0011630Y0073564D01*
X0013992Y0071023D02*
X0014602Y0070414D01*
X0018717Y0070414D01*
X0018717Y0067264D02*
X0015201Y0067264D01*
X0014601Y0067864D01*
X0012605Y0067864D01*
X0011630Y0068839D01*
X0012417Y0068052D01*
X0012354Y0059301D02*
X0007693Y0059301D01*
X0007693Y0058515D02*
X0011615Y0058515D01*
X0011289Y0057729D02*
X0007693Y0057729D01*
X0007693Y0056943D02*
X0009996Y0056943D01*
X0009255Y0056157D02*
X0007693Y0056157D01*
X0007693Y0055372D02*
X0008929Y0055372D01*
X0008865Y0054586D02*
X0007693Y0054586D01*
X0007693Y0053800D02*
X0008996Y0053800D01*
X0009371Y0053014D02*
X0007693Y0053014D01*
X0007693Y0052228D02*
X0010005Y0052228D01*
X0009258Y0051442D02*
X0007693Y0051442D01*
X0007693Y0050656D02*
X0008933Y0050656D01*
X0008865Y0049870D02*
X0007693Y0049870D01*
X0007693Y0049084D02*
X0008992Y0049084D01*
X0009362Y0048298D02*
X0007693Y0048298D01*
X0007693Y0047512D02*
X0010268Y0047512D01*
X0011278Y0046726D02*
X0007693Y0046726D01*
X0007693Y0045941D02*
X0010805Y0045941D01*
X0010051Y0045155D02*
X0007693Y0045155D01*
X0007693Y0044369D02*
X0009725Y0044369D01*
X0009652Y0043583D02*
X0007693Y0043583D01*
X0007693Y0042797D02*
X0009774Y0042797D01*
X0010138Y0042011D02*
X0007693Y0042011D01*
X0007693Y0041225D02*
X0011027Y0041225D01*
X0013808Y0041225D02*
X0014780Y0041225D01*
X0014780Y0040439D02*
X0007693Y0040439D01*
X0007693Y0039653D02*
X0014780Y0039653D01*
X0014780Y0038867D02*
X0007693Y0038867D01*
X0007693Y0038081D02*
X0014780Y0038081D01*
X0014780Y0037296D02*
X0007693Y0037296D01*
X0007693Y0036510D02*
X0014780Y0036510D01*
X0014780Y0035724D02*
X0007693Y0035724D01*
X0007693Y0034938D02*
X0014780Y0034938D01*
X0014780Y0034152D02*
X0007693Y0034152D01*
X0007693Y0033366D02*
X0014780Y0033366D01*
X0014780Y0032580D02*
X0007693Y0032580D01*
X0007693Y0031794D02*
X0014780Y0031794D01*
X0014780Y0031008D02*
X0007693Y0031008D01*
X0007693Y0030222D02*
X0014780Y0030222D01*
X0014780Y0029436D02*
X0007693Y0029436D01*
X0007693Y0028650D02*
X0014780Y0028650D01*
X0014780Y0027865D02*
X0007693Y0027865D01*
X0007734Y0027079D02*
X0015533Y0027079D01*
X0018717Y0029469D02*
X0043152Y0029469D01*
X0043876Y0028745D01*
X0043876Y0023233D01*
X0049489Y0017620D01*
X0110805Y0017620D01*
X0117766Y0024581D01*
X0117766Y0025669D01*
X0117693Y0025742D01*
X0117693Y0033091D01*
X0119661Y0033091D02*
X0119661Y0037186D01*
X0118717Y0038131D01*
X0113559Y0038081D02*
X0110981Y0038081D01*
X0111166Y0038266D02*
X0113559Y0038266D01*
X0113559Y0037609D01*
X0113559Y0037422D01*
X0110002Y0037422D01*
X0110547Y0037648D01*
X0111166Y0038266D01*
X0111787Y0033091D02*
X0111787Y0028052D01*
X0104131Y0020395D01*
X0050638Y0020395D01*
X0046650Y0024383D01*
X0046650Y0029895D01*
X0040777Y0035768D01*
X0018717Y0035768D01*
X0018717Y0032619D02*
X0041964Y0032619D01*
X0045263Y0029320D01*
X0045263Y0023808D01*
X0050063Y0019008D01*
X0104705Y0019008D01*
X0113756Y0028058D01*
X0113756Y0033091D01*
X0115724Y0033091D02*
X0115724Y0026159D01*
X0114545Y0024979D01*
X0119661Y0027079D02*
X0120882Y0027079D01*
X0120882Y0027865D02*
X0119661Y0027865D01*
X0119661Y0028650D02*
X0120986Y0028650D01*
X0125567Y0033091D02*
X0125582Y0033106D01*
X0125582Y0043642D01*
X0109819Y0033091D02*
X0109819Y0028446D01*
X0103156Y0021783D01*
X0051213Y0021783D01*
X0048038Y0024957D01*
X0048038Y0030469D01*
X0039589Y0038918D01*
X0018717Y0038918D01*
X0018717Y0042068D02*
X0038402Y0042068D01*
X0042796Y0045155D02*
X0022654Y0045155D01*
X0022654Y0045941D02*
X0042010Y0045941D01*
X0041224Y0046726D02*
X0022654Y0046726D01*
X0022654Y0047512D02*
X0040438Y0047512D01*
X0039652Y0048298D02*
X0022654Y0048298D01*
X0022654Y0049084D02*
X0038866Y0049084D01*
X0038081Y0049870D02*
X0022654Y0049870D01*
X0022654Y0050656D02*
X0037295Y0050656D01*
X0036509Y0051442D02*
X0022654Y0051442D01*
X0022654Y0052228D02*
X0035723Y0052228D01*
X0034937Y0053014D02*
X0022654Y0053014D01*
X0022654Y0053800D02*
X0034151Y0053800D01*
X0033365Y0054586D02*
X0022654Y0054586D01*
X0022654Y0055372D02*
X0032579Y0055372D01*
X0031793Y0056157D02*
X0022654Y0056157D01*
X0022654Y0056943D02*
X0031671Y0056943D01*
X0031671Y0057729D02*
X0022654Y0057729D01*
X0022654Y0058515D02*
X0031671Y0058515D01*
X0031671Y0059301D02*
X0022654Y0059301D01*
X0018717Y0057816D02*
X0014780Y0057816D01*
X0013992Y0057028D01*
X0011630Y0054666D02*
X0018717Y0054666D01*
X0018717Y0051516D02*
X0013205Y0051516D01*
X0011630Y0049942D01*
X0013992Y0047401D02*
X0014957Y0048367D01*
X0018717Y0048367D01*
X0018717Y0045217D02*
X0013992Y0045217D01*
X0012417Y0043642D01*
X0014697Y0042011D02*
X0014780Y0042011D01*
X0022654Y0044369D02*
X0043582Y0044369D01*
X0053245Y0043820D02*
X0056181Y0043820D01*
X0055978Y0039452D02*
X0053245Y0039452D01*
X0055978Y0039452D02*
X0056080Y0039350D01*
X0056004Y0036048D02*
X0056118Y0034981D01*
X0051487Y0033366D02*
X0049887Y0033366D01*
X0050673Y0032580D02*
X0051242Y0032580D01*
X0058226Y0025507D02*
X0100159Y0025507D01*
X0100945Y0026293D02*
X0059011Y0026293D01*
X0069898Y0031831D02*
X0069898Y0033406D01*
X0068323Y0034981D01*
X0068323Y0042068D01*
X0065173Y0042068D02*
X0062811Y0042068D01*
X0062811Y0048367D02*
X0060849Y0048367D01*
X0057499Y0051716D01*
X0054737Y0051716D01*
X0052248Y0054205D01*
X0051267Y0056313D02*
X0050140Y0056313D01*
X0051267Y0056313D02*
X0051343Y0056390D01*
X0053153Y0056390D01*
X0056264Y0053279D01*
X0057899Y0053279D01*
X0059661Y0051516D01*
X0062811Y0051516D01*
X0062811Y0054666D02*
X0056839Y0054666D01*
X0053007Y0058498D01*
X0047956Y0058498D01*
X0047850Y0058603D01*
X0049882Y0060787D02*
X0052679Y0060787D01*
X0055651Y0057816D01*
X0062811Y0057816D01*
X0057233Y0066374D02*
X0041157Y0066374D01*
X0041157Y0065588D02*
X0042646Y0065588D01*
X0041860Y0064802D02*
X0041157Y0064802D01*
X0041157Y0067160D02*
X0047520Y0067160D01*
X0046802Y0067946D02*
X0041157Y0067946D01*
X0041157Y0068732D02*
X0046477Y0068732D01*
X0046429Y0069518D02*
X0041157Y0069518D01*
X0041157Y0070304D02*
X0046578Y0070304D01*
X0046978Y0071090D02*
X0044601Y0071090D01*
X0043226Y0071090D02*
X0041157Y0071090D01*
X0041157Y0071876D02*
X0041925Y0071876D01*
X0041391Y0072662D02*
X0041157Y0072662D01*
X0043913Y0073798D02*
X0048773Y0073798D01*
X0051787Y0070784D01*
X0057570Y0070784D01*
X0057939Y0070414D01*
X0062811Y0070414D01*
X0059473Y0078949D02*
X0053123Y0078949D01*
X0050078Y0086162D02*
X0049543Y0086698D01*
X0050078Y0086162D02*
X0062811Y0086162D01*
X0066748Y0086022D02*
X0067732Y0086022D01*
X0067732Y0085236D02*
X0066748Y0085236D01*
X0066673Y0084450D02*
X0067732Y0084450D01*
X0067732Y0083664D02*
X0065887Y0083664D01*
X0062811Y0083012D02*
X0062811Y0079863D01*
X0066748Y0086808D02*
X0067732Y0086808D01*
X0067732Y0087594D02*
X0066748Y0087594D01*
X0066748Y0088380D02*
X0067732Y0088380D01*
X0062811Y0089312D02*
X0055724Y0089312D01*
X0054937Y0088524D01*
X0052535Y0089952D02*
X0031884Y0089952D01*
X0031098Y0090738D02*
X0052750Y0090738D01*
X0052332Y0091523D02*
X0030312Y0091523D01*
X0029526Y0092309D02*
X0052172Y0092309D01*
X0052206Y0093095D02*
X0028740Y0093095D01*
X0027954Y0093881D02*
X0052532Y0093881D01*
X0053232Y0094667D02*
X0027169Y0094667D01*
X0026383Y0095453D02*
X0053746Y0095453D01*
X0053779Y0096239D02*
X0025597Y0096239D01*
X0024811Y0097025D02*
X0054104Y0097025D01*
X0054801Y0097811D02*
X0022090Y0097811D01*
X0023441Y0095611D02*
X0018717Y0095611D01*
X0023441Y0095611D02*
X0039189Y0079863D01*
X0054937Y0092461D02*
X0062811Y0092461D01*
X0062811Y0095611D02*
X0056512Y0095611D01*
X0058223Y0097811D02*
X0059437Y0097811D01*
X0057605Y0101740D02*
X0069701Y0101740D01*
X0069701Y0102526D02*
X0060699Y0102526D01*
X0061485Y0103312D02*
X0068922Y0103312D01*
X0067288Y0104098D02*
X0062271Y0104098D01*
X0063057Y0104884D02*
X0066671Y0104884D01*
X0066369Y0105670D02*
X0063907Y0105670D01*
X0064968Y0106456D02*
X0066369Y0106456D01*
X0066588Y0107242D02*
X0065403Y0107242D01*
X0065576Y0108028D02*
X0067089Y0108028D01*
X0068309Y0108814D02*
X0065554Y0108814D01*
X0065228Y0109599D02*
X0074622Y0109599D01*
X0074622Y0108814D02*
X0069960Y0108814D01*
X0071180Y0108028D02*
X0074622Y0108028D01*
X0074731Y0107242D02*
X0071680Y0107242D01*
X0074622Y0110385D02*
X0064546Y0110385D01*
X0062811Y0108209D02*
X0062811Y0107422D01*
X0059248Y0103859D01*
X0052181Y0103859D01*
X0045818Y0100954D02*
X0070004Y0100954D01*
X0077064Y0096239D02*
X0081373Y0096239D01*
X0081306Y0097025D02*
X0077850Y0097025D01*
X0078636Y0097811D02*
X0081434Y0097811D01*
X0081698Y0095453D02*
X0076278Y0095453D01*
X0075492Y0094667D02*
X0082444Y0094667D01*
X0080729Y0104098D02*
X0089740Y0104098D01*
X0077811Y0107697D02*
X0077772Y0108132D01*
X0074622Y0111171D02*
X0059483Y0111171D01*
X0058697Y0111957D02*
X0074622Y0111957D01*
X0074936Y0112743D02*
X0058087Y0112743D01*
X0058087Y0113529D02*
X0075488Y0113529D01*
X0075969Y0114315D02*
X0058087Y0114315D01*
X0058087Y0115101D02*
X0075183Y0115101D01*
X0074397Y0115887D02*
X0066160Y0115887D01*
X0067855Y0116673D02*
X0073611Y0116673D01*
X0072825Y0117459D02*
X0068641Y0117459D01*
X0069426Y0118245D02*
X0072654Y0118245D01*
X0072654Y0119030D02*
X0070212Y0119030D01*
X0070998Y0119816D02*
X0072654Y0119816D01*
X0072654Y0120602D02*
X0071784Y0120602D01*
X0072570Y0121388D02*
X0072654Y0121388D01*
X0067591Y0125318D02*
X0057807Y0125318D01*
X0057108Y0124619D02*
X0059787Y0127299D01*
X0059787Y0131088D01*
X0057108Y0133768D01*
X0053318Y0133768D01*
X0050638Y0131088D01*
X0050638Y0127299D01*
X0053318Y0124619D01*
X0057108Y0124619D01*
X0058592Y0126104D02*
X0068323Y0126104D01*
X0068323Y0126890D02*
X0059378Y0126890D01*
X0059787Y0127675D02*
X0068323Y0127675D01*
X0068323Y0128461D02*
X0059787Y0128461D01*
X0059787Y0129247D02*
X0068323Y0129247D01*
X0068323Y0130033D02*
X0059787Y0130033D01*
X0059787Y0130819D02*
X0068323Y0130819D01*
X0068323Y0131605D02*
X0059271Y0131605D01*
X0058485Y0132391D02*
X0067561Y0132391D01*
X0066775Y0133177D02*
X0057699Y0133177D01*
X0057237Y0134749D02*
X0063188Y0134749D01*
X0062402Y0135535D02*
X0058023Y0135535D01*
X0058809Y0136321D02*
X0061616Y0136321D01*
X0060830Y0137106D02*
X0059595Y0137106D01*
X0059787Y0137892D02*
X0060638Y0137892D01*
X0060638Y0138678D02*
X0059787Y0138678D01*
X0059787Y0139464D02*
X0060638Y0139464D01*
X0060638Y0140250D02*
X0059787Y0140250D01*
X0059787Y0141036D02*
X0060638Y0141036D01*
X0061371Y0141822D02*
X0059054Y0141822D01*
X0058268Y0142608D02*
X0062157Y0142608D01*
X0062943Y0143394D02*
X0057482Y0143394D01*
X0052943Y0143394D02*
X0047482Y0143394D01*
X0048268Y0142608D02*
X0052157Y0142608D01*
X0051371Y0141822D02*
X0049054Y0141822D01*
X0049787Y0141036D02*
X0050638Y0141036D01*
X0050638Y0140250D02*
X0049787Y0140250D01*
X0049787Y0139464D02*
X0050638Y0139464D01*
X0050638Y0138678D02*
X0049787Y0138678D01*
X0049308Y0136378D02*
X0052397Y0136378D01*
X0055213Y0139194D01*
X0049308Y0136378D02*
X0046336Y0133406D01*
X0031315Y0133406D01*
X0028756Y0130847D01*
X0028756Y0123957D01*
X0031905Y0123746D02*
X0041945Y0123746D01*
X0041945Y0124532D02*
X0031905Y0124532D01*
X0031905Y0125318D02*
X0032619Y0125318D01*
X0033318Y0124619D02*
X0031905Y0126031D01*
X0031905Y0121730D01*
X0031593Y0121418D01*
X0034329Y0121418D01*
X0035252Y0120495D01*
X0035252Y0117222D01*
X0034408Y0116379D01*
X0034751Y0116036D01*
X0038547Y0116036D01*
X0038547Y0119013D01*
X0041945Y0122410D01*
X0041945Y0125992D01*
X0040638Y0127299D01*
X0040638Y0131088D01*
X0040987Y0131438D01*
X0039438Y0131438D01*
X0039787Y0131088D01*
X0039787Y0127299D01*
X0037108Y0124619D01*
X0033318Y0124619D01*
X0031905Y0122960D02*
X0041945Y0122960D01*
X0041708Y0122174D02*
X0031905Y0122174D01*
X0034359Y0121388D02*
X0040923Y0121388D01*
X0040137Y0120602D02*
X0035145Y0120602D01*
X0035252Y0119816D02*
X0039351Y0119816D01*
X0038565Y0119030D02*
X0035252Y0119030D01*
X0035252Y0118245D02*
X0038547Y0118245D01*
X0038547Y0117459D02*
X0035252Y0117459D01*
X0034702Y0116673D02*
X0038547Y0116673D01*
X0040516Y0118197D02*
X0043913Y0121595D01*
X0043913Y0127894D01*
X0045213Y0129194D01*
X0049787Y0129247D02*
X0050638Y0129247D01*
X0050638Y0128461D02*
X0049787Y0128461D01*
X0049787Y0127675D02*
X0050638Y0127675D01*
X0051047Y0126890D02*
X0049378Y0126890D01*
X0048592Y0126104D02*
X0051833Y0126104D01*
X0052619Y0125318D02*
X0047807Y0125318D01*
X0045882Y0124532D02*
X0066805Y0124532D01*
X0066019Y0123746D02*
X0045882Y0123746D01*
X0045882Y0122960D02*
X0065234Y0122960D01*
X0064019Y0122174D02*
X0045882Y0122174D01*
X0045882Y0121388D02*
X0047168Y0121388D01*
X0046382Y0120602D02*
X0045704Y0120602D01*
X0046276Y0119816D02*
X0044919Y0119816D01*
X0044133Y0119030D02*
X0046276Y0119030D01*
X0046276Y0118245D02*
X0043347Y0118245D01*
X0042561Y0117459D02*
X0046276Y0117459D01*
X0046825Y0116673D02*
X0042484Y0116673D01*
X0042509Y0115887D02*
X0042738Y0115887D01*
X0040516Y0113969D02*
X0040516Y0118197D01*
X0041945Y0125318D02*
X0037807Y0125318D01*
X0038592Y0126104D02*
X0041833Y0126104D01*
X0041047Y0126890D02*
X0039378Y0126890D01*
X0039787Y0127675D02*
X0040638Y0127675D01*
X0040638Y0128461D02*
X0039787Y0128461D01*
X0039787Y0129247D02*
X0040638Y0129247D01*
X0040638Y0130033D02*
X0039787Y0130033D01*
X0039787Y0130819D02*
X0040638Y0130819D01*
X0042402Y0135535D02*
X0038023Y0135535D01*
X0038809Y0136321D02*
X0041616Y0136321D01*
X0040830Y0137106D02*
X0039595Y0137106D01*
X0039787Y0137892D02*
X0040638Y0137892D01*
X0040638Y0138678D02*
X0039787Y0138678D01*
X0039787Y0139464D02*
X0040638Y0139464D01*
X0040638Y0140250D02*
X0039787Y0140250D01*
X0039787Y0141036D02*
X0040638Y0141036D01*
X0041371Y0141822D02*
X0039054Y0141822D01*
X0038268Y0142608D02*
X0042157Y0142608D01*
X0042943Y0143394D02*
X0037482Y0143394D01*
X0032943Y0143394D02*
X0012675Y0143394D01*
X0011848Y0142608D02*
X0032157Y0142608D01*
X0031371Y0141822D02*
X0011021Y0141822D01*
X0010449Y0141036D02*
X0030638Y0141036D01*
X0030638Y0140250D02*
X0009964Y0140250D01*
X0009478Y0139464D02*
X0030638Y0139464D01*
X0030638Y0138678D02*
X0008992Y0138678D01*
X0008718Y0137892D02*
X0030638Y0137892D01*
X0030830Y0137106D02*
X0008479Y0137106D01*
X0008239Y0136321D02*
X0031616Y0136321D01*
X0032402Y0135535D02*
X0007999Y0135535D01*
X0007837Y0134749D02*
X0029874Y0134749D01*
X0029088Y0133963D02*
X0007756Y0133963D01*
X0007693Y0133177D02*
X0028302Y0133177D01*
X0027516Y0132391D02*
X0007693Y0132391D01*
X0007693Y0131605D02*
X0026787Y0131605D01*
X0026787Y0130819D02*
X0007693Y0130819D01*
X0007693Y0130033D02*
X0026787Y0130033D01*
X0026787Y0129247D02*
X0007693Y0129247D01*
X0007693Y0128461D02*
X0026787Y0128461D01*
X0026787Y0127675D02*
X0007693Y0127675D01*
X0007693Y0126890D02*
X0016469Y0126890D01*
X0015961Y0126104D02*
X0007693Y0126104D01*
X0007693Y0125318D02*
X0015961Y0125318D01*
X0015961Y0124532D02*
X0007693Y0124532D01*
X0007693Y0123746D02*
X0015961Y0123746D01*
X0015961Y0122960D02*
X0007693Y0122960D01*
X0007693Y0122174D02*
X0014597Y0122174D01*
X0013928Y0121388D02*
X0007693Y0121388D01*
X0007693Y0120602D02*
X0013602Y0120602D01*
X0011364Y0119816D02*
X0007693Y0119816D01*
X0007693Y0119030D02*
X0010843Y0119030D01*
X0010843Y0118245D02*
X0007693Y0118245D01*
X0007693Y0117459D02*
X0010843Y0117459D01*
X0010843Y0116673D02*
X0007693Y0116673D01*
X0007693Y0115887D02*
X0010843Y0115887D01*
X0010843Y0115101D02*
X0007693Y0115101D01*
X0007693Y0114315D02*
X0010974Y0114315D01*
X0009604Y0113529D02*
X0007693Y0113529D01*
X0007693Y0112743D02*
X0009465Y0112743D01*
X0009465Y0111957D02*
X0007693Y0111957D01*
X0007693Y0111171D02*
X0009465Y0111171D01*
X0009465Y0110385D02*
X0007693Y0110385D01*
X0007693Y0109599D02*
X0009465Y0109599D01*
X0009465Y0108814D02*
X0007693Y0108814D01*
X0013795Y0116871D02*
X0013795Y0117461D01*
X0016354Y0120020D01*
X0025295Y0126890D02*
X0026311Y0126890D01*
X0029417Y0113969D02*
X0029346Y0113898D01*
X0025817Y0105670D02*
X0042634Y0105670D01*
X0042634Y0106456D02*
X0034446Y0106456D01*
X0040775Y0107242D02*
X0042634Y0107242D01*
X0043171Y0108028D02*
X0041561Y0108028D01*
X0042347Y0108814D02*
X0043850Y0108814D01*
X0045563Y0110837D02*
X0045119Y0111281D01*
X0045563Y0110837D02*
X0057034Y0110837D01*
X0059661Y0108209D01*
X0043584Y0100954D02*
X0020972Y0100954D01*
X0021758Y0101740D02*
X0042534Y0101740D01*
X0042105Y0102526D02*
X0022673Y0102526D01*
X0023459Y0103312D02*
X0041935Y0103312D01*
X0041962Y0104098D02*
X0024245Y0104098D01*
X0025031Y0104884D02*
X0042287Y0104884D01*
X0016854Y0100954D02*
X0015854Y0100954D01*
X0049787Y0130033D02*
X0050638Y0130033D01*
X0050638Y0130819D02*
X0049787Y0130819D01*
X0049271Y0131605D02*
X0051154Y0131605D01*
X0051940Y0132391D02*
X0048485Y0132391D01*
X0048891Y0133177D02*
X0052726Y0133177D01*
X0049677Y0133963D02*
X0065989Y0133963D01*
X0069054Y0141822D02*
X0152040Y0141822D01*
X0151577Y0142608D02*
X0068268Y0142608D01*
X0067482Y0143394D02*
X0151384Y0143394D01*
X0151387Y0144180D02*
X0013564Y0144180D01*
X0014995Y0144966D02*
X0151712Y0144966D01*
X0152367Y0145751D02*
X0016426Y0145751D01*
X0019403Y0146537D02*
X0154001Y0146537D01*
X0112487Y0106456D02*
X0108233Y0106456D01*
X0109019Y0105670D02*
X0111774Y0105670D01*
X0111448Y0104884D02*
X0109804Y0104884D01*
X0105882Y0102815D02*
X0104602Y0104094D01*
X0106206Y0077897D02*
X0107116Y0076986D01*
X0096069Y0043042D02*
X0095130Y0043042D01*
X0094234Y0042146D01*
X0085016Y0042146D01*
X0093246Y0039431D02*
X0096039Y0036638D01*
X0096039Y0033091D01*
X0098008Y0033091D02*
X0098008Y0038885D01*
X0096035Y0040858D01*
X0095781Y0028650D02*
X0103303Y0028650D01*
X0102517Y0027865D02*
X0094995Y0027865D01*
X0094209Y0027079D02*
X0101731Y0027079D01*
X0088840Y0028234D02*
X0088840Y0028234D01*
X0043808Y0014504D02*
X0017387Y0014504D01*
X0015370Y0015290D02*
X0043022Y0015290D01*
X0042237Y0016076D02*
X0014099Y0016076D01*
X0012841Y0016862D02*
X0041451Y0016862D01*
X0040665Y0017648D02*
X0012094Y0017648D01*
X0011347Y0018434D02*
X0039879Y0018434D01*
X0036188Y0019220D02*
X0028804Y0019220D01*
X0029150Y0019565D02*
X0029150Y0023625D01*
X0028227Y0024548D01*
X0022198Y0024548D01*
X0021608Y0023958D01*
X0021293Y0024273D01*
X0020132Y0024754D01*
X0018876Y0024754D01*
X0017714Y0024273D01*
X0016826Y0023385D01*
X0016345Y0022223D01*
X0016345Y0020967D01*
X0016826Y0019806D01*
X0017714Y0018917D01*
X0018876Y0018436D01*
X0020132Y0018436D01*
X0021293Y0018917D01*
X0021608Y0019232D01*
X0022198Y0018642D01*
X0028227Y0018642D01*
X0029150Y0019565D01*
X0029150Y0020005D02*
X0035843Y0020005D01*
X0035843Y0020791D02*
X0029150Y0020791D01*
X0029150Y0021577D02*
X0035843Y0021577D01*
X0035843Y0022363D02*
X0029150Y0022363D01*
X0029150Y0023149D02*
X0035843Y0023149D01*
X0036152Y0023935D02*
X0028840Y0023935D01*
X0021900Y0027079D02*
X0041907Y0027079D01*
X0041907Y0026293D02*
X0007775Y0026293D01*
X0007929Y0025507D02*
X0041907Y0025507D01*
X0041907Y0024721D02*
X0020213Y0024721D01*
X0018795Y0024721D02*
X0008125Y0024721D01*
X0008322Y0023935D02*
X0017376Y0023935D01*
X0016728Y0023149D02*
X0008518Y0023149D01*
X0008783Y0022363D02*
X0016403Y0022363D01*
X0016345Y0021577D02*
X0009215Y0021577D01*
X0009647Y0020791D02*
X0016418Y0020791D01*
X0016743Y0020005D02*
X0010078Y0020005D01*
X0010601Y0019220D02*
X0017412Y0019220D01*
X0021596Y0019220D02*
X0021621Y0019220D01*
X0141154Y0015290D02*
X0143438Y0015290D01*
X0143113Y0016076D02*
X0141940Y0016076D01*
X0142726Y0016862D02*
X0142913Y0016862D01*
X0143590Y0020005D02*
X0143817Y0020005D01*
X0143590Y0020791D02*
X0144603Y0020791D01*
X0179523Y0020791D02*
X0184603Y0020791D01*
X0183817Y0020005D02*
X0180308Y0020005D01*
X0180794Y0019220D02*
X0183332Y0019220D01*
X0183007Y0018434D02*
X0181119Y0018434D01*
X0181213Y0017648D02*
X0182913Y0017648D01*
X0182913Y0016862D02*
X0181213Y0016862D01*
X0181013Y0016076D02*
X0183113Y0016076D01*
X0183438Y0015290D02*
X0180688Y0015290D01*
X0180053Y0014504D02*
X0184073Y0014504D01*
X0185704Y0029436D02*
X0188422Y0029436D01*
X0189034Y0030222D02*
X0185092Y0030222D01*
X0184153Y0031008D02*
X0189973Y0031008D01*
X0207299Y0034152D02*
X0223441Y0034152D01*
X0223441Y0034938D02*
X0207299Y0034938D01*
X0207299Y0035724D02*
X0223441Y0035724D01*
X0223441Y0033366D02*
X0207995Y0033366D01*
X0208781Y0032580D02*
X0222806Y0032580D01*
X0222020Y0031794D02*
X0209567Y0031794D01*
X0214153Y0031008D02*
X0219973Y0031008D01*
X0219034Y0030222D02*
X0215092Y0030222D01*
X0215704Y0029436D02*
X0218422Y0029436D01*
X0218097Y0028650D02*
X0216029Y0028650D01*
X0216213Y0027865D02*
X0217913Y0027865D01*
X0217913Y0027079D02*
X0216213Y0027079D01*
X0216103Y0026293D02*
X0218023Y0026293D01*
X0218348Y0025507D02*
X0215778Y0025507D01*
X0215270Y0024721D02*
X0218856Y0024721D01*
X0219642Y0023935D02*
X0214484Y0023935D01*
X0210213Y0023149D02*
X0239900Y0023149D01*
X0240139Y0023935D02*
X0224484Y0023935D01*
X0225270Y0024721D02*
X0240379Y0024721D01*
X0240593Y0025507D02*
X0225778Y0025507D01*
X0226103Y0026293D02*
X0240674Y0026293D01*
X0240756Y0027079D02*
X0226213Y0027079D01*
X0226999Y0027865D02*
X0240764Y0027865D01*
X0240764Y0028650D02*
X0227785Y0028650D01*
X0228571Y0029436D02*
X0240764Y0029436D01*
X0240764Y0030222D02*
X0229357Y0030222D01*
X0230357Y0031008D02*
X0240764Y0031008D01*
X0240764Y0031794D02*
X0230921Y0031794D01*
X0230921Y0032580D02*
X0240764Y0032580D01*
X0240764Y0033366D02*
X0230921Y0033366D01*
X0230921Y0034152D02*
X0240764Y0034152D01*
X0240764Y0034938D02*
X0230921Y0034938D01*
X0230921Y0035724D02*
X0240764Y0035724D01*
X0240764Y0036510D02*
X0230921Y0036510D01*
X0230440Y0037296D02*
X0240764Y0037296D01*
X0240764Y0038081D02*
X0237233Y0038081D01*
X0237417Y0038867D02*
X0240764Y0038867D01*
X0240764Y0039653D02*
X0237417Y0039653D01*
X0237417Y0040439D02*
X0240764Y0040439D01*
X0240764Y0041225D02*
X0237417Y0041225D01*
X0237417Y0042011D02*
X0240764Y0042011D01*
X0240764Y0042797D02*
X0237417Y0042797D01*
X0237342Y0043583D02*
X0240764Y0043583D01*
X0240764Y0044369D02*
X0236556Y0044369D01*
X0237217Y0046726D02*
X0240764Y0046726D01*
X0240764Y0045941D02*
X0225016Y0045941D01*
X0225016Y0045155D02*
X0240764Y0045155D01*
X0240764Y0047512D02*
X0237417Y0047512D01*
X0237417Y0048298D02*
X0240764Y0048298D01*
X0240764Y0049084D02*
X0237417Y0049084D01*
X0237417Y0049870D02*
X0240764Y0049870D01*
X0240764Y0050656D02*
X0237417Y0050656D01*
X0237417Y0051442D02*
X0240764Y0051442D01*
X0240764Y0052228D02*
X0237358Y0052228D01*
X0236572Y0053014D02*
X0240764Y0053014D01*
X0240764Y0053800D02*
X0239686Y0053800D01*
X0240670Y0054586D02*
X0240764Y0054586D01*
X0237118Y0053800D02*
X0236219Y0053800D01*
X0235994Y0059301D02*
X0240764Y0059301D01*
X0240764Y0058515D02*
X0240304Y0058515D01*
X0240764Y0060087D02*
X0231709Y0060087D01*
X0221912Y0059301D02*
X0207299Y0059301D01*
X0207299Y0058515D02*
X0221126Y0058515D01*
X0221079Y0057729D02*
X0214979Y0057729D01*
X0215687Y0056943D02*
X0221079Y0056943D01*
X0220798Y0056157D02*
X0216013Y0056157D01*
X0216068Y0055372D02*
X0220012Y0055372D01*
X0219519Y0054586D02*
X0215945Y0054586D01*
X0215601Y0053800D02*
X0219307Y0053800D01*
X0219307Y0053014D02*
X0214798Y0053014D01*
X0213342Y0052228D02*
X0219307Y0052228D01*
X0219110Y0051442D02*
X0213795Y0051442D01*
X0213795Y0050656D02*
X0219110Y0050656D01*
X0219110Y0049870D02*
X0213795Y0049870D01*
X0213795Y0049084D02*
X0218802Y0049084D01*
X0218016Y0048298D02*
X0213795Y0048298D01*
X0213795Y0047512D02*
X0214651Y0047512D01*
X0213992Y0046726D02*
X0213795Y0046726D01*
X0213992Y0045941D02*
X0213202Y0045941D01*
X0213992Y0045155D02*
X0200606Y0045155D01*
X0200606Y0045941D02*
X0200609Y0045941D01*
X0200606Y0044369D02*
X0213992Y0044369D01*
X0213992Y0043583D02*
X0213326Y0043583D01*
X0213795Y0042797D02*
X0213992Y0042797D01*
X0213992Y0042011D02*
X0213795Y0042011D01*
X0213795Y0041225D02*
X0213992Y0041225D01*
X0213992Y0040439D02*
X0213795Y0040439D01*
X0213795Y0039653D02*
X0213992Y0039653D01*
X0213992Y0038867D02*
X0213795Y0038867D01*
X0213795Y0038081D02*
X0213992Y0038081D01*
X0213992Y0037296D02*
X0213219Y0037296D01*
X0214764Y0036510D02*
X0207299Y0036510D01*
X0219126Y0036510D02*
X0219882Y0036510D01*
X0210213Y0022363D02*
X0239660Y0022363D01*
X0239305Y0021577D02*
X0210213Y0021577D01*
X0210213Y0020791D02*
X0238820Y0020791D01*
X0238334Y0020005D02*
X0210308Y0020005D01*
X0210794Y0019220D02*
X0237848Y0019220D01*
X0237165Y0018434D02*
X0211119Y0018434D01*
X0211213Y0017648D02*
X0236338Y0017648D01*
X0235510Y0016862D02*
X0211213Y0016862D01*
X0211013Y0016076D02*
X0234423Y0016076D01*
X0232993Y0015290D02*
X0210688Y0015290D01*
X0210053Y0014504D02*
X0231167Y0014504D01*
X0197088Y0057729D02*
X0196448Y0057729D01*
X0199819Y0062146D02*
X0200409Y0062737D01*
X0211793Y0065588D02*
X0215173Y0065588D01*
X0215173Y0064802D02*
X0212579Y0064802D01*
X0212614Y0064017D02*
X0215173Y0064017D01*
X0215173Y0063231D02*
X0212614Y0063231D01*
X0212614Y0062445D02*
X0215173Y0062445D01*
X0215173Y0061659D02*
X0212614Y0061659D01*
X0212614Y0060873D02*
X0215173Y0060873D01*
X0215793Y0060087D02*
X0211995Y0060087D01*
X0221640Y0060087D02*
X0221857Y0060087D01*
X0233928Y0073448D02*
X0203954Y0073448D01*
X0204287Y0074233D02*
X0233283Y0074233D01*
X0233096Y0075019D02*
X0204356Y0075019D01*
X0204356Y0075805D02*
X0217153Y0075805D01*
X0216367Y0076591D02*
X0204891Y0076591D01*
X0210781Y0077377D02*
X0210904Y0077377D01*
X0207496Y0081044D02*
X0207299Y0081241D01*
X0206906Y0081241D01*
X0192142Y0079735D02*
X0190961Y0079735D01*
X0190961Y0078949D02*
X0192142Y0078949D01*
X0192142Y0078163D02*
X0190961Y0078163D01*
X0190961Y0077377D02*
X0192142Y0077377D01*
X0192142Y0076591D02*
X0190961Y0076591D01*
X0190508Y0075805D02*
X0192201Y0075805D01*
X0227890Y0086022D02*
X0228440Y0086022D01*
X0235291Y0078949D02*
X0240764Y0078949D01*
D36*
X0220704Y0089312D03*
X0210824Y0086949D03*
X0205115Y0087737D03*
X0199819Y0086162D03*
X0194939Y0082619D03*
X0191596Y0082574D03*
X0178559Y0094036D03*
X0170113Y0101910D03*
X0173047Y0105847D03*
X0171462Y0108478D03*
X0173606Y0115406D03*
X0153362Y0112934D03*
X0151413Y0110159D03*
X0138402Y0117658D03*
X0132024Y0123721D03*
X0128953Y0120808D03*
X0125803Y0120808D03*
X0124089Y0118306D03*
X0119504Y0120808D03*
X0118333Y0117827D03*
X0115352Y0117658D03*
X0108209Y0112934D03*
X0101394Y0107422D03*
X0099749Y0104851D03*
X0103698Y0101910D03*
X0101729Y0099548D03*
X0110055Y0101910D03*
X0113205Y0101123D03*
X0114170Y0104228D03*
X0119504Y0108997D03*
X0137005Y0099548D03*
X0148062Y0098972D03*
X0146276Y0091674D03*
X0139189Y0087737D03*
X0139976Y0083800D03*
X0140764Y0079075D03*
X0135361Y0075817D03*
X0132242Y0075786D03*
X0129740Y0077501D03*
X0125016Y0079863D03*
X0124228Y0083012D03*
X0125783Y0085674D03*
X0128165Y0083012D03*
X0118717Y0083012D03*
X0119249Y0086162D03*
X0116354Y0088524D03*
X0113205Y0087737D03*
X0110843Y0083800D03*
X0107874Y0086331D03*
X0107693Y0089312D03*
X0104021Y0077962D03*
X0107116Y0076986D03*
X0108135Y0074005D03*
X0103756Y0072206D03*
X0100353Y0074981D03*
X0097457Y0076368D03*
X0109048Y0070257D03*
X0110067Y0067276D03*
X0103756Y0065663D03*
X0103803Y0062682D03*
X0103756Y0059701D03*
X0100606Y0059701D03*
X0100606Y0051170D03*
X0102676Y0048986D03*
X0103756Y0046005D03*
X0103756Y0042855D03*
X0101729Y0040493D03*
X0099016Y0042068D03*
X0096035Y0040858D03*
X0093246Y0039431D03*
X0108981Y0039992D03*
X0111630Y0037638D03*
X0118717Y0038131D03*
X0121593Y0039470D03*
X0125582Y0043642D03*
X0128165Y0040493D03*
X0130528Y0038131D03*
X0135252Y0038131D03*
X0140764Y0045217D03*
X0134071Y0048564D03*
X0137614Y0051182D03*
X0138686Y0054163D03*
X0137984Y0057398D03*
X0115870Y0054181D03*
X0115783Y0051179D03*
X0115675Y0048198D03*
X0115567Y0045217D03*
X0143126Y0033406D03*
X0136039Y0025532D03*
X0138402Y0023170D03*
X0144307Y0021595D03*
X0151787Y0021595D03*
X0151787Y0014509D03*
X0141551Y0014509D03*
X0133029Y0023030D03*
X0131315Y0025532D03*
X0128048Y0025354D03*
X0161236Y0021595D03*
X0162024Y0014509D03*
X0172260Y0014509D03*
X0173835Y0021595D03*
X0182496Y0014509D03*
X0191945Y0014509D03*
X0202181Y0014509D03*
X0212417Y0014509D03*
X0197457Y0025748D03*
X0187220Y0026320D03*
X0184661Y0031831D03*
X0172260Y0032619D03*
X0162811Y0042068D03*
X0184465Y0045611D03*
X0202311Y0067135D03*
X0169110Y0079075D03*
X0141551Y0071201D03*
X0118717Y0075926D03*
X0084071Y0096951D03*
X0080134Y0091674D03*
X0075409Y0091674D03*
X0074838Y0078748D03*
X0074838Y0066937D03*
X0068323Y0067212D03*
X0049195Y0069396D03*
X0043913Y0073798D03*
X0043913Y0079554D03*
X0041718Y0081801D03*
X0043913Y0083985D03*
X0048638Y0084513D03*
X0054937Y0088524D03*
X0054937Y0092461D03*
X0056512Y0095611D03*
X0044701Y0103485D03*
X0045119Y0111281D03*
X0040516Y0113969D03*
X0036827Y0116871D03*
X0049425Y0123957D03*
X0050213Y0134194D03*
X0058874Y0134194D03*
X0060449Y0142855D03*
X0050213Y0142855D03*
X0039976Y0142855D03*
X0016354Y0120020D03*
X0059661Y0108209D03*
X0062811Y0108209D03*
X0069134Y0106162D03*
X0086641Y0107342D03*
X0090016Y0104666D03*
X0095094Y0109568D03*
X0095882Y0116871D03*
X0091836Y0119911D03*
X0102969Y0121595D03*
X0109268Y0124745D03*
X0113992Y0134194D03*
X0111630Y0137343D03*
X0106906Y0138131D03*
X0120291Y0134194D03*
X0126591Y0134194D03*
X0126680Y0137175D03*
X0143913Y0136556D03*
X0154150Y0143623D03*
X0158087Y0142086D03*
X0166748Y0145217D03*
X0169110Y0142855D03*
X0176197Y0131044D03*
X0179230Y0128916D03*
X0185488Y0128761D03*
X0193520Y0127894D03*
X0193520Y0123957D03*
X0213205Y0127894D03*
X0221079Y0120020D03*
X0219937Y0116438D03*
X0220331Y0111320D03*
X0235252Y0105847D03*
X0218717Y0098760D03*
X0234746Y0120302D03*
X0234465Y0123957D03*
X0234465Y0130257D03*
X0224024Y0144395D03*
X0147850Y0124745D03*
X0087329Y0137234D03*
X0082496Y0135768D03*
X0012417Y0091674D03*
X0012417Y0079075D03*
X0013344Y0076065D03*
X0011630Y0073564D03*
X0013992Y0071023D03*
X0011630Y0068839D03*
X0013992Y0057028D03*
X0011630Y0054666D03*
X0011630Y0049942D03*
X0013992Y0047401D03*
X0012417Y0043642D03*
X0047850Y0058603D03*
X0049882Y0060787D03*
X0050140Y0056313D03*
X0052248Y0054205D03*
X0054150Y0046005D03*
X0056181Y0043820D03*
X0054150Y0041636D03*
X0056080Y0039350D03*
X0054010Y0037204D03*
X0056118Y0034981D03*
X0054007Y0032225D03*
X0056118Y0029272D03*
X0053953Y0026320D03*
X0067535Y0029469D03*
X0069898Y0031831D03*
X0073047Y0032978D03*
X0076984Y0037343D03*
X0074622Y0049942D03*
X0069110Y0049942D03*
X0217142Y0029469D03*
D37*
X0187220Y0026320D02*
X0187063Y0026162D01*
X0187063Y0017383D01*
X0162063Y0027383D02*
X0159661Y0029784D01*
X0159661Y0038918D01*
X0152496Y0046083D01*
X0146433Y0046083D01*
X0146433Y0044115D02*
X0151315Y0044115D01*
X0156512Y0038918D01*
X0156512Y0017934D01*
X0157063Y0017383D01*
X0147850Y0018170D02*
X0147063Y0017383D01*
X0147850Y0018170D02*
X0147850Y0030257D01*
X0151000Y0033406D01*
X0151000Y0038918D01*
X0149740Y0040178D01*
X0146433Y0040178D01*
X0148953Y0040178D01*
X0150291Y0042146D02*
X0146433Y0042146D01*
X0150291Y0042146D02*
X0152781Y0039656D01*
X0152781Y0028101D01*
X0152063Y0027383D01*
X0143126Y0033406D02*
X0141425Y0031705D01*
X0141425Y0018623D01*
X0139799Y0016997D01*
X0118338Y0016997D01*
X0117376Y0016036D01*
X0045339Y0016036D01*
X0039780Y0021595D01*
X0076984Y0037343D02*
X0079346Y0034981D01*
X0079346Y0032978D01*
X0081083Y0031241D01*
X0082496Y0031241D01*
X0107850Y0033091D02*
X0107850Y0036153D01*
X0108735Y0037038D01*
X0111030Y0037038D01*
X0111630Y0037638D01*
X0108981Y0039992D02*
X0109421Y0040432D01*
X0114718Y0040432D01*
X0127378Y0053091D01*
X0124792Y0046220D02*
X0123200Y0044629D01*
X0123171Y0044629D01*
X0121900Y0043358D01*
X0122499Y0043358D01*
X0123200Y0042656D01*
X0123200Y0044629D01*
X0121900Y0043358D02*
X0120576Y0043358D01*
X0115724Y0038506D01*
X0115724Y0033091D01*
X0123598Y0033091D02*
X0123598Y0036153D01*
X0123997Y0036552D01*
X0123997Y0041859D01*
X0123200Y0042656D01*
X0129171Y0038131D02*
X0127535Y0036495D01*
X0127535Y0033091D01*
X0129171Y0038131D02*
X0130528Y0038131D01*
X0146433Y0044115D02*
X0150053Y0044115D01*
X0146433Y0050020D02*
X0154858Y0050020D01*
X0155490Y0049389D01*
X0146433Y0051989D02*
X0139879Y0051989D01*
X0139673Y0051782D01*
X0138214Y0051782D01*
X0137614Y0051182D01*
X0138892Y0053957D02*
X0138686Y0054163D01*
X0138892Y0053957D02*
X0146433Y0053957D01*
X0146433Y0055926D02*
X0142654Y0055926D01*
X0141151Y0057428D01*
X0141126Y0057403D01*
X0137989Y0057403D01*
X0137984Y0057398D01*
X0140291Y0059863D02*
X0139976Y0060178D01*
X0140291Y0059863D02*
X0146433Y0059863D01*
X0152890Y0059863D01*
X0155490Y0057263D01*
X0159109Y0060730D02*
X0161789Y0058050D01*
X0155490Y0064350D02*
X0154071Y0065768D01*
X0146433Y0065768D01*
X0140055Y0065768D01*
X0139976Y0065690D01*
X0146433Y0071674D02*
X0152260Y0071674D01*
X0152575Y0071989D01*
X0124228Y0060450D02*
X0123798Y0060450D01*
X0121630Y0062618D01*
X0119504Y0060492D01*
X0119504Y0060450D01*
X0121630Y0060659D02*
X0121630Y0062618D01*
X0121630Y0094509D01*
X0121630Y0098131D01*
X0125962Y0102463D01*
X0122495Y0106082D02*
X0129581Y0106082D01*
X0136865Y0106082D01*
X0133246Y0102463D02*
X0133798Y0101910D01*
X0133246Y0102463D02*
X0129504Y0098721D01*
X0129504Y0094509D01*
X0129505Y0094510D01*
X0121631Y0094510D02*
X0121630Y0094509D01*
X0115726Y0094510D02*
X0115724Y0094509D01*
X0115724Y0099312D01*
X0118876Y0102463D01*
X0132890Y0112934D02*
X0132890Y0113020D01*
X0134483Y0114614D01*
X0134483Y0119449D01*
X0137417Y0122383D01*
X0135843Y0123957D01*
X0135843Y0128879D01*
X0133874Y0128879D02*
X0133874Y0125729D01*
X0133677Y0125532D01*
X0133874Y0128879D02*
X0133874Y0132422D01*
X0133677Y0132619D01*
X0129937Y0128879D02*
X0129937Y0124942D01*
X0129740Y0124745D01*
X0141748Y0125335D02*
X0142339Y0124745D01*
X0141748Y0125335D02*
X0141748Y0128879D01*
X0141748Y0132816D01*
X0143717Y0136359D02*
X0143717Y0128879D01*
X0145685Y0128879D02*
X0145882Y0128682D01*
X0148638Y0128682D01*
X0150784Y0126535D01*
X0153643Y0126535D01*
X0156802Y0123376D01*
X0162123Y0123376D01*
X0166266Y0119233D01*
X0166551Y0119233D01*
X0175981Y0126535D02*
X0180414Y0126535D01*
X0183780Y0123170D01*
X0186433Y0123170D01*
X0187811Y0121792D01*
X0187811Y0119528D01*
X0183185Y0116674D02*
X0180331Y0116674D01*
X0169898Y0127107D01*
X0166157Y0127107D01*
X0166269Y0132619D02*
X0166128Y0132760D01*
X0166269Y0132619D02*
X0169898Y0132619D01*
X0175981Y0126535D01*
X0176197Y0131044D02*
X0176197Y0135178D01*
X0184071Y0135178D02*
X0186236Y0135178D01*
X0193520Y0127894D01*
X0194307Y0127894D01*
X0196669Y0125532D01*
X0196669Y0119542D01*
X0196683Y0119528D01*
X0202181Y0123170D02*
X0202578Y0123567D01*
X0202969Y0123957D01*
X0202969Y0127894D01*
X0202969Y0131831D01*
X0200213Y0134587D01*
X0196669Y0134587D01*
X0199819Y0142855D02*
X0207496Y0135178D01*
X0208480Y0135178D01*
X0215567Y0135178D02*
X0215567Y0130257D01*
X0213205Y0127894D01*
X0209268Y0127894D01*
X0209268Y0123957D01*
X0225016Y0117461D02*
X0224819Y0116871D01*
X0231512Y0105847D02*
X0235252Y0105847D01*
X0228559Y0101910D02*
X0231315Y0099154D01*
X0228559Y0101910D02*
X0221866Y0101910D01*
X0220882Y0102894D01*
X0219701Y0102894D01*
X0224425Y0098564D02*
X0225016Y0099154D01*
X0225016Y0094102D01*
X0225016Y0094036D01*
X0218717Y0086162D02*
X0214780Y0086162D01*
X0213205Y0087737D01*
X0213205Y0093249D01*
X0211433Y0095020D01*
X0210154Y0095020D01*
X0210824Y0086949D02*
X0210824Y0085197D01*
X0214780Y0081241D01*
X0218520Y0077501D01*
X0233677Y0077501D01*
X0235252Y0075926D01*
X0236039Y0075926D01*
X0235646Y0081831D02*
X0226591Y0081831D01*
X0226197Y0082225D01*
X0222654Y0082225D01*
X0218717Y0086162D01*
X0210843Y0086931D02*
X0210824Y0086949D01*
X0235646Y0081831D02*
X0236039Y0082225D01*
X0222063Y0049154D02*
X0221795Y0049154D01*
X0221778Y0049154D01*
X0197654Y0049154D02*
X0197369Y0049154D01*
X0121839Y0060450D02*
X0121630Y0060659D01*
X0092302Y0066603D02*
X0091168Y0067737D01*
X0085016Y0067737D01*
X0080409Y0067737D01*
X0078559Y0066674D01*
X0079071Y0073642D02*
X0078559Y0074154D01*
X0079071Y0073642D02*
X0085016Y0073642D01*
X0085016Y0055926D02*
X0078835Y0055926D01*
X0078559Y0055650D01*
X0092102Y0094509D02*
X0092102Y0101083D01*
X0092142Y0101123D01*
X0097260Y0101123D02*
X0097260Y0104469D01*
X0096669Y0105060D01*
X0097260Y0101123D02*
X0098008Y0100375D01*
X0098008Y0094509D01*
X0086641Y0107342D02*
X0083560Y0107342D01*
X0082929Y0107697D01*
X0072654Y0103682D02*
X0071615Y0103682D01*
X0069134Y0106162D01*
X0090567Y0121180D02*
X0091836Y0119911D01*
X0090567Y0121180D02*
X0090567Y0128879D01*
X0092535Y0128879D02*
X0092535Y0122579D01*
X0094504Y0123760D02*
X0096148Y0122117D01*
X0099733Y0122117D01*
X0096669Y0124745D02*
X0096472Y0124942D01*
X0096472Y0128879D01*
X0096472Y0133209D01*
X0096669Y0133406D01*
X0094504Y0128879D02*
X0094504Y0123760D01*
X0082693Y0128879D02*
X0082693Y0135571D01*
X0082496Y0135768D01*
X0080724Y0134173D02*
X0080115Y0134782D01*
X0080115Y0136755D01*
X0081510Y0138149D01*
X0083482Y0138149D01*
X0084398Y0137234D01*
X0087329Y0137234D01*
X0080724Y0134173D02*
X0080724Y0128879D01*
X0071945Y0133406D02*
X0071472Y0132934D01*
X0013795Y0109784D02*
X0013795Y0104272D01*
X0013795Y0109784D02*
X0013008Y0110571D01*
X0012417Y0091674D02*
X0012417Y0087934D01*
X0012417Y0082816D02*
X0012417Y0079075D01*
X0134483Y0114614D02*
X0136164Y0112934D01*
X0143717Y0136359D02*
X0143913Y0136556D01*
X0154150Y0143623D02*
X0155743Y0145217D01*
X0166748Y0145217D01*
X0167753Y0142855D02*
X0167734Y0142836D01*
X0158836Y0142836D01*
X0158087Y0142086D01*
X0167753Y0142855D02*
X0169110Y0142855D01*
X0196669Y0143249D02*
X0197063Y0142855D01*
X0199819Y0142855D01*
X0215567Y0142658D02*
X0216157Y0142658D01*
X0220276Y0146776D01*
X0227326Y0146776D01*
X0227403Y0146767D01*
X0230528Y0143642D01*
X0224024Y0144395D02*
X0221696Y0142068D01*
X0221276Y0142068D01*
X0225016Y0130453D02*
X0230528Y0130453D01*
D38*
X0171079Y0140099D03*
X0151394Y0133012D03*
X0096669Y0105060D03*
X0127378Y0053091D03*
X0213205Y0055453D03*
X0238402Y0056368D03*
D39*
X0239189Y0053091D03*
X0239189Y0060965D03*
X0239189Y0071989D03*
X0239189Y0077501D03*
X0239189Y0087737D03*
X0239189Y0098760D03*
X0239189Y0105847D03*
X0199031Y0127894D03*
X0179346Y0123957D03*
X0155724Y0129469D03*
X0152575Y0123957D03*
X0155724Y0138131D03*
X0148638Y0108209D03*
X0148638Y0104272D03*
X0157299Y0107422D03*
X0151787Y0098760D03*
X0159661Y0086162D03*
X0171472Y0086162D03*
X0164386Y0076713D03*
X0169110Y0075138D03*
X0179740Y0066871D03*
X0178559Y0062540D03*
X0239189Y0044430D03*
X0239189Y0034981D03*
X0236039Y0137343D03*
D40*
X0166157Y0138131D02*
X0166128Y0132760D01*
X0166157Y0132619D01*
X0159465Y0132619D02*
X0156315Y0130453D01*
X0151394Y0133012D01*
X0159858Y0110768D02*
X0157299Y0107422D01*
X0157496Y0107225D01*
D41*
X0166748Y0110768D02*
X0183185Y0110768D01*
X0189780Y0110768D01*
X0190764Y0111753D01*
X0195685Y0119528D02*
X0196683Y0119528D01*
X0197654Y0119528D01*
X0199622Y0119528D02*
X0199622Y0126123D01*
X0199031Y0127894D01*
X0231512Y0116871D02*
X0231512Y0111359D01*
X0210154Y0098957D02*
X0210154Y0096989D01*
X0210154Y0098957D02*
X0203559Y0098957D01*
X0202575Y0099942D01*
X0203559Y0098957D02*
X0203559Y0092166D01*
X0197654Y0092166D02*
X0197654Y0087658D01*
X0197230Y0087234D01*
X0191748Y0092166D02*
X0191748Y0098957D01*
X0190764Y0099942D01*
D42*
X0085016Y0079548D02*
X0079622Y0079548D01*
X0078559Y0079272D01*
X0078559Y0050532D02*
X0075213Y0050532D01*
X0074622Y0049942D01*
X0078559Y0050532D02*
X0079071Y0050020D01*
X0085016Y0050020D01*
X0085016Y0040178D02*
X0085016Y0033760D01*
X0082496Y0031241D01*
X0082496Y0026123D02*
X0079902Y0026123D01*
X0073047Y0032978D01*
X0082496Y0026123D02*
X0088008Y0026123D01*
X0091015Y0029135D02*
X0088909Y0031241D01*
X0088008Y0031241D01*
X0091015Y0029135D02*
X0093190Y0029135D01*
X0093893Y0029838D01*
X0093893Y0032913D01*
X0094071Y0033091D01*
D43*
X0089583Y0032816D02*
X0088008Y0031241D01*
X0089583Y0032816D02*
X0089583Y0037343D01*
X0078559Y0055650D02*
X0075016Y0059194D01*
X0071472Y0059194D01*
X0072260Y0059981D01*
X0072260Y0070414D01*
X0074838Y0066937D02*
X0074838Y0065277D01*
X0078559Y0061556D01*
X0071472Y0059194D02*
X0068520Y0059194D01*
X0066748Y0060965D01*
X0062811Y0060965D01*
X0055020Y0060965D01*
X0052620Y0063365D01*
X0048814Y0063365D01*
X0048776Y0063327D01*
X0043725Y0063327D01*
X0041767Y0061369D01*
X0041767Y0066261D02*
X0057611Y0066261D01*
X0059758Y0064115D01*
X0062811Y0064115D01*
X0068323Y0064115D01*
X0068520Y0064312D01*
X0068323Y0064509D01*
X0068323Y0067212D01*
X0074838Y0078748D02*
X0074838Y0086378D01*
X0080134Y0091674D01*
X0078559Y0079272D02*
X0078035Y0078748D01*
X0074838Y0078748D01*
X0058087Y0098760D02*
X0066748Y0107422D01*
X0067339Y0113524D02*
X0059661Y0113524D01*
X0059661Y0118642D02*
X0061433Y0118642D01*
X0059661Y0118642D02*
X0059445Y0118859D01*
X0052181Y0118859D01*
X0052181Y0113859D02*
X0044051Y0113859D01*
X0039091Y0108898D01*
X0029346Y0108898D01*
X0029248Y0108997D01*
X0025803Y0108997D01*
X0021079Y0104272D01*
X0018913Y0104272D01*
X0013795Y0104272D02*
X0009490Y0104272D01*
X0008702Y0105060D01*
X0018913Y0111359D02*
X0019701Y0110571D01*
X0018913Y0111359D02*
X0018913Y0116871D01*
X0020902Y0118859D01*
X0029346Y0118859D01*
X0029346Y0103898D02*
X0035665Y0103898D01*
X0036039Y0104272D01*
X0067339Y0113524D02*
X0071472Y0118446D01*
X0114170Y0104228D02*
X0115936Y0102463D01*
X0118876Y0102463D01*
X0133246Y0102463D02*
X0133583Y0102126D01*
X0138073Y0102126D01*
X0139076Y0101123D01*
X0141551Y0101123D01*
X0140529Y0106082D02*
X0136865Y0106082D01*
X0130255Y0060450D02*
X0124228Y0060450D01*
X0121839Y0060450D01*
X0119504Y0060450D01*
X0113247Y0060450D01*
X0130255Y0060450D02*
X0130528Y0060178D01*
X0128165Y0047579D02*
X0126151Y0047579D01*
X0124792Y0046220D01*
X0124228Y0021398D02*
X0118202Y0021398D01*
X0124228Y0021398D02*
X0131016Y0021398D01*
X0131961Y0020452D01*
X0137969Y0020452D01*
X0138650Y0019772D01*
X0044701Y0040493D02*
X0035252Y0049942D01*
X0026337Y0060965D02*
X0018717Y0060965D01*
X0012614Y0060965D01*
X0012417Y0060375D01*
X0012614Y0064115D02*
X0012417Y0065493D01*
X0012614Y0064115D02*
X0018717Y0064115D01*
X0024838Y0064115D01*
X0025016Y0063937D01*
X0026337Y0060965D02*
X0031061Y0065690D01*
X0025213Y0021595D02*
X0019504Y0021595D01*
D44*
X0019504Y0021595D03*
X0017676Y0016083D03*
X0011376Y0020808D03*
X0009014Y0027107D03*
X0012164Y0033406D03*
X0012164Y0038918D03*
X0023975Y0049942D03*
X0035252Y0049942D03*
X0027124Y0059390D03*
X0025016Y0063937D03*
X0031061Y0065690D03*
X0041767Y0066261D03*
X0041767Y0061369D03*
X0026337Y0079863D03*
X0036039Y0090886D03*
X0041551Y0096398D03*
X0049425Y0096398D03*
X0047850Y0090886D03*
X0058087Y0098760D03*
X0036039Y0104272D03*
X0008702Y0105060D03*
X0065173Y0119233D03*
X0071472Y0118446D03*
X0078353Y0111931D03*
X0090055Y0116556D03*
X0085646Y0124745D03*
X0158087Y0077186D03*
X0140055Y0065768D03*
X0139976Y0060178D03*
X0130528Y0060178D03*
X0127378Y0057028D03*
X0127378Y0064115D03*
X0132102Y0066477D03*
X0117929Y0064115D03*
X0113247Y0060450D03*
X0113992Y0068839D03*
X0092302Y0066603D03*
X0089583Y0037343D03*
X0072476Y0037343D03*
X0050746Y0034981D03*
X0044701Y0040493D03*
X0035786Y0015296D03*
X0025550Y0015296D03*
X0138650Y0019772D03*
X0166748Y0045217D03*
X0174622Y0049154D03*
X0171472Y0057028D03*
X0188261Y0053879D03*
X0188261Y0049154D03*
X0199819Y0059390D03*
X0206118Y0067798D03*
X0210843Y0067798D03*
X0215567Y0067798D03*
X0220545Y0068052D03*
X0225269Y0068052D03*
X0229994Y0068052D03*
X0234718Y0068052D03*
X0225016Y0060178D03*
X0152575Y0053879D03*
X0189583Y0138918D03*
D45*
X0017142Y0137343D03*
X0231315Y0023957D03*
D46*
X0217070Y0044430D02*
X0221795Y0049154D01*
X0217070Y0044430D02*
X0216945Y0044430D01*
X0213008Y0055257D02*
X0209071Y0055257D01*
X0213008Y0055257D02*
X0213205Y0055453D01*
X0197654Y0049154D02*
X0197403Y0049154D01*
X0192709Y0044460D01*
X0192535Y0044430D01*
X0192709Y0044460D02*
X0193012Y0044513D01*
X0184071Y0050138D02*
X0182102Y0052107D01*
X0178559Y0052107D01*
X0178953Y0072579D02*
X0182388Y0076015D01*
X0182388Y0082905D01*
X0183283Y0083800D01*
X0184937Y0083800D01*
X0189780Y0088643D01*
X0189780Y0092166D01*
X0191748Y0092166D02*
X0191748Y0085954D01*
X0189313Y0083519D01*
X0189313Y0081759D01*
X0186433Y0079469D01*
X0179346Y0079666D02*
X0178953Y0079272D01*
X0179346Y0079666D02*
X0179346Y0083012D01*
X0184858Y0088524D01*
X0186433Y0088524D01*
X0187811Y0089902D01*
X0187811Y0092166D01*
X0183185Y0095020D02*
X0179543Y0095020D01*
X0178559Y0094036D01*
X0177181Y0098957D02*
X0169898Y0091674D01*
X0166551Y0091674D01*
X0166157Y0097973D02*
X0167812Y0099627D01*
X0174537Y0099627D01*
X0175835Y0100926D01*
X0183185Y0100926D01*
X0183185Y0102894D02*
X0175563Y0102894D01*
X0174649Y0101980D01*
X0170183Y0101980D01*
X0170113Y0101910D01*
X0172102Y0103564D02*
X0171394Y0104272D01*
X0166157Y0104272D01*
X0172102Y0103564D02*
X0173993Y0103564D01*
X0175291Y0104863D01*
X0183185Y0104863D01*
X0183185Y0106831D02*
X0174031Y0106831D01*
X0173047Y0105847D01*
X0171462Y0108478D02*
X0171784Y0108800D01*
X0183185Y0108800D01*
X0183185Y0112737D02*
X0173047Y0112737D01*
X0166551Y0119233D01*
X0173606Y0115406D02*
X0174307Y0114705D01*
X0183185Y0114705D01*
X0191748Y0119528D02*
X0191748Y0122501D01*
X0185488Y0128761D01*
X0186433Y0131044D02*
X0180331Y0131044D01*
X0176197Y0135178D01*
X0186433Y0131044D02*
X0193520Y0123957D01*
X0193717Y0123760D01*
X0193717Y0119528D01*
X0201591Y0119528D02*
X0201591Y0122579D01*
X0202578Y0123567D01*
X0207496Y0122186D02*
X0207496Y0119528D01*
X0207496Y0122186D02*
X0209268Y0123957D01*
X0213205Y0120808D02*
X0216120Y0123723D01*
X0213205Y0120808D02*
X0213205Y0118446D01*
X0211433Y0116674D01*
X0210154Y0116674D01*
X0210154Y0114705D02*
X0214976Y0114705D01*
X0220291Y0120020D01*
X0221079Y0120020D01*
X0219937Y0116438D02*
X0216236Y0112737D01*
X0210154Y0112737D01*
X0210154Y0110768D02*
X0216551Y0110768D01*
X0219504Y0113721D01*
X0221503Y0113721D01*
X0222398Y0114616D01*
X0222565Y0114616D01*
X0224819Y0116871D01*
X0224819Y0123564D01*
X0225016Y0123760D01*
X0230528Y0123760D02*
X0230724Y0123957D01*
X0234465Y0123957D01*
X0236740Y0123005D02*
X0236827Y0123091D01*
X0236827Y0131831D01*
X0232299Y0136359D01*
X0231315Y0136359D01*
X0230724Y0135768D01*
X0226591Y0135768D01*
X0227181Y0135768D01*
X0221276Y0135768D02*
X0221276Y0136556D01*
X0226591Y0142068D01*
X0221276Y0135768D02*
X0221079Y0134981D01*
X0221079Y0131831D01*
X0219739Y0130491D01*
X0219739Y0127342D01*
X0230528Y0130453D02*
X0234268Y0130453D01*
X0234465Y0130257D01*
X0236747Y0123012D02*
X0236740Y0123005D01*
X0234746Y0121011D01*
X0234746Y0120302D01*
X0220331Y0111320D02*
X0217811Y0108800D01*
X0210154Y0108800D01*
X0210154Y0104863D02*
X0213402Y0104863D01*
X0214780Y0103485D01*
X0219110Y0103485D01*
X0219701Y0102894D01*
X0217929Y0099548D02*
X0218717Y0098760D01*
X0217929Y0099548D02*
X0216354Y0099548D01*
X0213008Y0102894D01*
X0210154Y0102894D01*
X0210154Y0100926D02*
X0212614Y0100926D01*
X0215567Y0097973D01*
X0215567Y0096005D01*
X0217142Y0094430D01*
X0221866Y0094036D02*
X0224950Y0094036D01*
X0225016Y0094102D01*
X0221866Y0094036D02*
X0217142Y0089312D01*
X0220704Y0089312D02*
X0224819Y0089312D01*
X0231315Y0089509D02*
X0231315Y0094036D01*
X0235252Y0097973D01*
X0235252Y0105847D01*
X0231315Y0089509D02*
X0231512Y0089312D01*
X0207496Y0092166D02*
X0207496Y0081044D01*
X0206906Y0081241D02*
X0206315Y0081241D01*
X0203756Y0083800D01*
X0203756Y0085453D01*
X0201591Y0087619D01*
X0201591Y0092166D01*
X0205528Y0092166D02*
X0205528Y0088149D01*
X0205115Y0087737D01*
X0199819Y0086162D02*
X0199819Y0083376D01*
X0197230Y0080286D02*
X0195882Y0078485D01*
X0197230Y0080286D02*
X0197230Y0087234D01*
X0183185Y0098957D02*
X0177181Y0098957D01*
X0166748Y0110768D02*
X0166551Y0110965D01*
X0166551Y0112146D01*
X0169110Y0079075D02*
X0173638Y0079075D01*
X0173835Y0079272D01*
X0233283Y0056438D02*
X0238331Y0056438D01*
X0238402Y0056368D01*
X0197457Y0025748D02*
X0197457Y0017776D01*
X0197063Y0017383D01*
X0052181Y0108859D02*
X0046925Y0108859D01*
X0044701Y0106634D01*
X0044701Y0103485D01*
X0040516Y0113969D02*
X0029417Y0113969D01*
X0022850Y0123957D02*
X0018913Y0123957D01*
X0106315Y0128879D02*
X0106315Y0137540D01*
X0106906Y0138131D01*
D47*
X0204543Y0061753D02*
X0205921Y0063131D01*
X0209071Y0062737D01*
X0204543Y0061753D02*
X0204543Y0049154D01*
X0206906Y0049154D01*
X0200409Y0055257D02*
X0197654Y0053091D01*
X0197654Y0049154D01*
X0197654Y0044430D02*
X0197654Y0039705D01*
X0203410Y0039705D01*
X0203559Y0039854D01*
X0203559Y0041083D01*
X0203756Y0041280D01*
X0206512Y0041280D01*
X0206906Y0040493D01*
X0203559Y0039854D02*
X0203559Y0034194D01*
X0192535Y0039705D02*
X0192535Y0044430D01*
X0199819Y0059390D02*
X0199819Y0062146D01*
X0200409Y0062737D02*
X0195094Y0062737D01*
X0193520Y0061162D01*
X0218717Y0063524D02*
X0219110Y0063918D01*
X0224622Y0063918D01*
X0228953Y0061753D02*
X0228953Y0051123D01*
X0230528Y0049548D01*
X0222063Y0049154D02*
X0222063Y0053525D01*
X0224622Y0056084D01*
X0224622Y0056438D01*
X0228953Y0061753D02*
X0231118Y0063918D01*
X0233283Y0063918D01*
X0222063Y0044430D02*
X0222063Y0039705D01*
X0222462Y0040105D01*
X0227378Y0040105D01*
X0227378Y0041280D01*
X0227378Y0040105D02*
X0227378Y0034390D01*
X0227181Y0034194D01*
X0216945Y0039705D02*
X0216945Y0044430D01*
X0131315Y0050729D02*
X0131315Y0053879D01*
D48*
X0134618Y0057182D02*
X0134618Y0060136D01*
X0140055Y0065573D01*
X0140055Y0065768D01*
X0165408Y0054431D02*
X0166748Y0053091D01*
X0166748Y0045217D01*
X0174622Y0049154D02*
X0188795Y0034981D01*
X0201926Y0034981D01*
X0207063Y0029844D01*
X0207063Y0017383D01*
X0222063Y0027383D02*
X0227181Y0032501D01*
X0227181Y0034194D01*
X0227181Y0041083D02*
X0227378Y0041280D01*
X0230134Y0041280D01*
X0230528Y0040886D01*
X0203559Y0034194D02*
X0201926Y0034981D01*
X0171472Y0057028D02*
X0167591Y0060909D01*
X0167026Y0060909D01*
X0225016Y0060178D02*
X0225016Y0063524D01*
X0142420Y0112934D02*
X0108209Y0112934D01*
X0091749Y0112934D01*
X0090755Y0111940D01*
X0078353Y0111940D01*
X0078353Y0111931D01*
X0078353Y0111940D02*
X0077772Y0111359D01*
X0077772Y0108132D01*
X0065173Y0119233D02*
X0064583Y0118642D01*
X0059661Y0118642D01*
X0065173Y0119233D02*
X0065961Y0119233D01*
X0071472Y0124745D01*
X0071472Y0132934D01*
X0065213Y0139194D01*
D49*
X0118876Y0102539D02*
X0118876Y0102463D01*
X0133246Y0102463D02*
X0133912Y0102463D01*
X0141551Y0101123D02*
X0150777Y0091897D01*
X0154937Y0096058D01*
X0154937Y0101123D01*
X0154187Y0101872D01*
X0154187Y0111308D01*
X0153362Y0112133D01*
X0153362Y0112934D01*
X0142420Y0112934D01*
X0136164Y0112934D01*
X0132890Y0112934D01*
X0150777Y0091897D02*
X0154937Y0087737D01*
X0154937Y0085375D01*
X0153362Y0083800D01*
X0153362Y0081634D01*
X0153639Y0081634D01*
X0158087Y0077186D01*
X0166551Y0085651D01*
X0166551Y0091674D01*
X0200419Y0073532D02*
X0200419Y0069167D01*
X0198507Y0067255D01*
X0189573Y0067255D01*
X0179346Y0057028D01*
X0171472Y0057028D01*
X0167026Y0056050D02*
X0167026Y0060909D01*
X0167026Y0056050D02*
X0165408Y0054431D01*
X0160558Y0049581D01*
X0158731Y0049581D01*
X0158539Y0049389D01*
X0155490Y0049389D01*
X0131315Y0050729D02*
X0128165Y0047579D01*
X0200419Y0073532D02*
X0201797Y0074910D01*
X0201797Y0077116D01*
X0204543Y0079863D01*
X0205528Y0079863D01*
X0206906Y0081241D01*
X0185488Y0128761D02*
X0179385Y0128761D01*
X0179230Y0128916D01*
X0189583Y0138918D02*
X0193913Y0143249D01*
X0196669Y0143249D01*
D50*
X0092142Y0101123D02*
X0083040Y0101123D01*
X0083021Y0101104D01*
X0078164Y0101104D01*
X0077772Y0101496D01*
X0077772Y0103682D01*
X0077811Y0107697D01*
X0077772Y0101496D02*
X0077772Y0101123D01*
X0070685Y0094036D01*
X0070685Y0076713D01*
X0073244Y0074154D01*
X0073638Y0074154D01*
X0072260Y0072776D01*
X0072260Y0070414D01*
X0073638Y0074154D02*
X0078559Y0074154D01*
X0131315Y0053879D02*
X0134618Y0057182D01*
D51*
X0210154Y0106831D02*
X0213909Y0106831D01*
X0215139Y0105601D01*
X0219538Y0105601D01*
X0224819Y0105847D02*
X0224819Y0111359D01*
M02*
