%
M48
M72
T01C0.01181
T02C0.01378
T03C0.01575
T04C0.01969
T05C0.03150
T06C0.04000
T07C0.07874
%
T01
X212417Y14509
X202181Y14509
X191945Y14509
X182496Y14509
X172260Y14509
X173835Y21595
X161236Y21595
X162024Y14509
X151787Y14509
X151787Y21595
X144307Y21595
X138402Y23170
X136039Y25532
X133029Y23030
X131315Y25532
X128048Y25354
X143126Y33406
X135252Y38131
X130528Y38131
X128165Y40493
X125582Y43642
X121593Y39470
X118717Y38131
X111630Y37638
X108981Y39992
X103756Y42855
X101729Y40493
X99016Y42068
X96035Y40858
X93246Y39431
X103756Y46005
X102676Y48986
X100606Y51170
X100606Y59701
X103756Y59701
X103803Y62682
X103756Y65663
X110067Y67276
X109048Y70257
X103756Y72206
X100353Y74981
X97457Y76368
X104021Y77962
X107116Y76986
X108135Y74005
X118717Y75926
X125016Y79863
X118717Y83012
X118717Y86949
X116354Y89312
X113205Y87737
X110843Y83800
X107874Y86331
X107693Y89312
X101729Y99548
X103698Y101910
X104543Y105060
X100606Y108209
X112792Y108936
X113992Y102697
X129740Y108997
X128953Y115709
X132102Y115709
X123851Y115709
X140764Y108997
X145488Y109784
X151413Y110159
X153362Y112934
X171462Y108478
X173047Y105847
X170113Y101910
X178559Y94036
X190764Y99942
X194701Y99942
X198638Y99942
X202575Y99942
X202575Y103879
X198638Y103879
X198638Y107816
X202575Y107816
X202575Y111753
X198638Y111753
X194701Y111753
X190764Y111753
X190764Y107816
X194701Y107816
X194701Y103879
X190764Y103879
X173606Y115406
X171472Y119233
X179230Y128916
X176197Y131044
X185488Y128761
X193520Y127894
X193520Y123957
X213205Y127894
X221079Y120020
X219937Y116438
X220331Y111320
X235252Y105847
X218717Y98760
X220704Y89312
X210824Y86949
X205115Y87737
X199819Y86162
X194939Y82619
X191596Y82574
X169110Y79075
X147063Y89803
X141551Y90099
X139189Y87737
X141887Y86162
X139976Y83012
X136649Y83978
X134465Y86162
X128953Y86162
X125440Y86525
X124011Y89312
X140764Y79863
X141551Y71201
X137984Y57398
X138686Y54163
X137614Y51182
X134071Y48564
X140764Y45217
X162811Y42068
X172260Y32619
X184661Y31831
X187220Y26320
X197457Y25748
X217142Y29469
X53953Y26320
X56118Y29272
X54007Y32225
X56118Y34981
X54010Y37204
X56080Y39350
X54150Y41636
X56181Y43820
X54150Y46005
X52248Y54205
X50140Y56313
X47850Y58603
X49882Y60787
X49195Y69396
X43913Y73798
X43913Y79554
X41718Y81801
X43913Y83985
X48638Y84513
X54937Y88524
X54937Y92461
X56512Y95611
X44701Y103485
X45119Y111281
X40516Y113969
X39189Y123957
X28953Y127894
X40764Y134194
X50213Y134194
X58874Y134194
X54937Y142855
X64386Y142855
X43126Y142855
X51787Y123957
X58874Y123170
X59661Y108209
X62811Y108209
X69134Y106162
X81709Y104272
X86641Y107342
X84071Y96951
X80134Y91674
X74838Y78748
X74838Y66937
X68323Y67212
X69110Y49942
X74622Y49942
X76984Y37343
X73047Y32978
X69898Y31831
X67535Y29469
X115567Y45217
X115675Y48198
X115783Y51179
X115870Y54181
X141551Y14509
X184465Y45611
X202311Y67135
X145699Y99759
X104543Y118446
X100606Y118446
X92732Y120808
X85468Y120808
X87220Y128682
X89946Y132255
X92732Y135768
X86649Y137343
X83707Y132195
X98244Y131831
X102969Y128682
X106227Y128573
X110843Y129469
X113344Y131183
X115528Y129152
X119897Y128682
X123441Y128682
X117713Y131831
X110951Y133297
X101394Y136556
X93520Y146005
X87220Y146005
X117142Y146005
X124228Y146005
X135252Y141280
X143913Y138131
X148638Y139705
X151000Y144430
X155706Y138131
X143913Y127107
X127378Y134981
X224024Y144395
X234465Y130257
X234465Y123957
X234746Y120302
X13344Y76065
X11630Y73564
X13992Y71023
X11630Y68839
X12417Y79075
X12417Y91674
X13992Y57028
X11630Y54666
X11630Y49942
X13992Y47401
X12417Y43642
T02
X127378Y53091
X96669Y105060
X155331Y133800
X171079Y141674
X238402Y56368
X213205Y55453
T03
X151787Y98760
X157299Y107422
X146276Y116871
X147850Y121595
X142339Y121595
X154937Y124745
X132890Y130257
X179346Y123957
X199031Y127894
X236039Y137343
X239189Y105847
X239189Y98760
X239189Y87737
X239189Y77501
X239189Y71989
X239189Y60965
X239189Y53091
X239189Y44430
X239189Y34981
X178559Y62540
X179740Y66871
X169110Y75138
X164386Y76713
X159661Y86162
X171472Y86162
X168323Y37343
X11630Y99548
T04
X9014Y27107
X11376Y20808
X17676Y16083
X19504Y21595
X12164Y33406
X12164Y38918
X23975Y49942
X35252Y49942
X27124Y59390
X25016Y63937
X31061Y65690
X41767Y66261
X41767Y61369
X26337Y79863
X36039Y90886
X41551Y96398
X47850Y90886
X58087Y98760
X68323Y110571
X64386Y113721
X73835Y113721
X81709Y112146
X86433Y116083
X77772Y124745
X73047Y122383
X36039Y104272
X8702Y105060
X117929Y112934
X158087Y77186
X136039Y70414
X132102Y66477
X127378Y64115
X130528Y60178
X127378Y57028
X117929Y64115
X113247Y60450
X113992Y68839
X92302Y66603
X89583Y37343
X72476Y37343
X50746Y34981
X44701Y40493
X35786Y15296
X25550Y15296
X138650Y19772
X166748Y45217
X174622Y49154
X171472Y57028
X188261Y53879
X188261Y49154
X199819Y59390
X206118Y67798
X210843Y67798
X215567Y67798
X220545Y68052
X225269Y68052
X229994Y68052
X234718Y68052
X225016Y60178
X152575Y53879
X139976Y60178
X189583Y138918
T05
X217063Y17383
X207063Y17383
X197063Y17383
X187063Y17383
X177063Y17383
X167063Y17383
X157063Y17383
X147063Y17383
X152063Y27383
X162063Y27383
X172063Y27383
X182063Y27383
X192063Y27383
X202063Y27383
X212063Y27383
X222063Y27383
T06
X39150Y139194
X49150Y139194
X59150Y139194
X69150Y139194
X69150Y129194
X59150Y129194
X49150Y129194
X39150Y129194
T07
X231315Y23957
X17142Y137343
M30
