G75*
%MOIN*%
%OFA0B0*%
%FSLAX25Y25*%
%IPPOS*%
%LPD*%
%AMOC8*
5,1,8,0,0,1.08239X$1,22.5*
%
%ADD10C,0.00000*%
%ADD11C,0.00600*%
%ADD12C,0.01300*%
%ADD13C,0.03100*%
%ADD14C,0.00394*%
%ADD15R,0.03937X0.00787*%
%ADD16R,0.00787X0.03937*%
%ADD17C,0.00984*%
%ADD18C,0.00197*%
%ADD19C,0.00787*%
%ADD20R,0.01181X0.02362*%
%ADD21R,0.02362X0.01181*%
%ADD22C,0.00500*%
%ADD23R,0.00787X0.05512*%
%ADD24C,0.00400*%
%ADD25R,0.05709X0.02953*%
%ADD26R,0.00787X0.01575*%
%ADD27R,0.00787X0.03150*%
%ADD28R,0.02953X0.05709*%
%ADD29R,0.01969X0.03740*%
%ADD30R,0.01575X0.00787*%
%ADD31R,0.03150X0.00787*%
%ADD32R,0.01600X0.03400*%
%ADD33R,0.03400X0.01600*%
%ADD34R,0.03740X0.01969*%
%ADD35C,0.00200*%
%ADD36R,0.03543X0.01378*%
%ADD37R,0.02000X0.02000*%
%ADD38R,0.01575X0.03543*%
%ADD39R,0.01181X0.00591*%
%ADD40R,0.01181X0.01181*%
%ADD41R,0.03543X0.01575*%
%ADD42R,0.00591X0.01181*%
D10*
X0006118Y0012146D02*
X0006118Y0026320D01*
X0006118Y0027894D02*
X0006118Y0133406D01*
X0006137Y0133787D01*
X0006166Y0134168D01*
X0006204Y0134547D01*
X0006251Y0134926D01*
X0006308Y0135303D01*
X0006374Y0135679D01*
X0006449Y0136053D01*
X0006533Y0136426D01*
X0006627Y0136796D01*
X0006729Y0137163D01*
X0006841Y0137528D01*
X0006961Y0137890D01*
X0007090Y0138249D01*
X0007228Y0138605D01*
X0007374Y0138957D01*
X0007530Y0139306D01*
X0007693Y0139651D01*
X0007865Y0139991D01*
X0008046Y0140328D01*
X0008234Y0140659D01*
X0008431Y0140986D01*
X0008635Y0141309D01*
X0008848Y0141626D01*
X0009068Y0141937D01*
X0009296Y0142243D01*
X0009531Y0142544D01*
X0009773Y0142839D01*
X0010023Y0143127D01*
X0010280Y0143410D01*
X0010543Y0143686D01*
X0010813Y0143955D01*
X0011090Y0144218D01*
X0011373Y0144474D01*
X0011662Y0144723D01*
X0011957Y0144965D01*
X0012258Y0145199D01*
X0012565Y0145426D01*
X0012877Y0145646D01*
X0013195Y0145858D01*
X0013517Y0146061D01*
X0013845Y0146257D01*
X0014177Y0146445D01*
X0014514Y0146625D01*
X0014854Y0146796D01*
X0015200Y0146959D01*
X0015549Y0147113D01*
X0015901Y0147259D01*
X0016257Y0147396D01*
X0016617Y0147525D01*
X0016979Y0147644D01*
X0017344Y0147755D01*
X0017712Y0147856D01*
X0018082Y0147949D01*
X0018455Y0148032D01*
X0018829Y0148106D01*
X0019205Y0148171D01*
X0019582Y0148227D01*
X0019961Y0148274D01*
X0020341Y0148311D01*
X0020722Y0148339D01*
X0021103Y0148358D01*
X0021484Y0148367D01*
X0021866Y0148367D01*
X0227378Y0148367D01*
X0228165Y0148367D02*
X0242339Y0148367D01*
X0242339Y0134194D01*
X0242339Y0132619D02*
X0242339Y0027107D01*
X0242338Y0027107D02*
X0242319Y0026726D01*
X0242290Y0026345D01*
X0242252Y0025966D01*
X0242205Y0025587D01*
X0242148Y0025210D01*
X0242082Y0024834D01*
X0242007Y0024460D01*
X0241923Y0024087D01*
X0241829Y0023717D01*
X0241727Y0023350D01*
X0241615Y0022985D01*
X0241495Y0022623D01*
X0241366Y0022264D01*
X0241228Y0021908D01*
X0241082Y0021556D01*
X0240926Y0021207D01*
X0240763Y0020862D01*
X0240591Y0020522D01*
X0240410Y0020185D01*
X0240222Y0019854D01*
X0240025Y0019527D01*
X0239821Y0019204D01*
X0239608Y0018887D01*
X0239388Y0018576D01*
X0239160Y0018270D01*
X0238925Y0017969D01*
X0238683Y0017674D01*
X0238433Y0017386D01*
X0238176Y0017103D01*
X0237913Y0016827D01*
X0237643Y0016558D01*
X0237366Y0016295D01*
X0237083Y0016039D01*
X0236794Y0015790D01*
X0236499Y0015548D01*
X0236198Y0015314D01*
X0235891Y0015087D01*
X0235579Y0014867D01*
X0235261Y0014655D01*
X0234939Y0014452D01*
X0234611Y0014256D01*
X0234279Y0014068D01*
X0233942Y0013888D01*
X0233602Y0013717D01*
X0233256Y0013554D01*
X0232907Y0013400D01*
X0232555Y0013254D01*
X0232199Y0013117D01*
X0231839Y0012988D01*
X0231477Y0012869D01*
X0231112Y0012758D01*
X0230744Y0012657D01*
X0230374Y0012564D01*
X0230001Y0012481D01*
X0229627Y0012407D01*
X0229251Y0012342D01*
X0228874Y0012286D01*
X0228495Y0012239D01*
X0228115Y0012202D01*
X0227734Y0012174D01*
X0227353Y0012155D01*
X0226972Y0012146D01*
X0226590Y0012146D01*
X0226591Y0012146D02*
X0021079Y0012146D01*
X0006118Y0012146D01*
X0021079Y0012147D02*
X0020698Y0012166D01*
X0020317Y0012195D01*
X0019938Y0012233D01*
X0019559Y0012280D01*
X0019182Y0012337D01*
X0018806Y0012403D01*
X0018432Y0012478D01*
X0018059Y0012562D01*
X0017689Y0012656D01*
X0017322Y0012758D01*
X0016957Y0012870D01*
X0016595Y0012990D01*
X0016236Y0013119D01*
X0015880Y0013257D01*
X0015528Y0013403D01*
X0015179Y0013559D01*
X0014834Y0013722D01*
X0014494Y0013894D01*
X0014157Y0014075D01*
X0013826Y0014263D01*
X0013499Y0014460D01*
X0013176Y0014664D01*
X0012859Y0014877D01*
X0012548Y0015097D01*
X0012242Y0015325D01*
X0011941Y0015560D01*
X0011646Y0015802D01*
X0011358Y0016052D01*
X0011075Y0016309D01*
X0010799Y0016572D01*
X0010530Y0016842D01*
X0010267Y0017119D01*
X0010011Y0017402D01*
X0009762Y0017691D01*
X0009520Y0017986D01*
X0009286Y0018287D01*
X0009059Y0018594D01*
X0008839Y0018906D01*
X0008627Y0019224D01*
X0008424Y0019546D01*
X0008228Y0019874D01*
X0008040Y0020206D01*
X0007860Y0020543D01*
X0007689Y0020883D01*
X0007526Y0021229D01*
X0007372Y0021578D01*
X0007226Y0021930D01*
X0007089Y0022286D01*
X0006960Y0022646D01*
X0006841Y0023008D01*
X0006730Y0023373D01*
X0006629Y0023741D01*
X0006536Y0024111D01*
X0006453Y0024484D01*
X0006379Y0024858D01*
X0006314Y0025234D01*
X0006258Y0025611D01*
X0006211Y0025990D01*
X0006174Y0026370D01*
X0006146Y0026751D01*
X0006127Y0027132D01*
X0006118Y0027513D01*
X0006118Y0027895D01*
X0227378Y0148367D02*
X0227759Y0148348D01*
X0228140Y0148319D01*
X0228519Y0148281D01*
X0228898Y0148234D01*
X0229275Y0148177D01*
X0229651Y0148111D01*
X0230025Y0148036D01*
X0230398Y0147952D01*
X0230768Y0147858D01*
X0231135Y0147756D01*
X0231500Y0147644D01*
X0231862Y0147524D01*
X0232221Y0147395D01*
X0232577Y0147257D01*
X0232929Y0147111D01*
X0233278Y0146955D01*
X0233623Y0146792D01*
X0233963Y0146620D01*
X0234300Y0146439D01*
X0234631Y0146251D01*
X0234958Y0146054D01*
X0235281Y0145850D01*
X0235598Y0145637D01*
X0235909Y0145417D01*
X0236215Y0145189D01*
X0236516Y0144954D01*
X0236811Y0144712D01*
X0237099Y0144462D01*
X0237382Y0144205D01*
X0237658Y0143942D01*
X0237927Y0143672D01*
X0238190Y0143395D01*
X0238446Y0143112D01*
X0238695Y0142823D01*
X0238937Y0142528D01*
X0239171Y0142227D01*
X0239398Y0141920D01*
X0239618Y0141608D01*
X0239830Y0141290D01*
X0240033Y0140968D01*
X0240229Y0140640D01*
X0240417Y0140308D01*
X0240597Y0139971D01*
X0240768Y0139631D01*
X0240931Y0139285D01*
X0241085Y0138936D01*
X0241231Y0138584D01*
X0241368Y0138228D01*
X0241497Y0137868D01*
X0241616Y0137506D01*
X0241727Y0137141D01*
X0241828Y0136773D01*
X0241921Y0136403D01*
X0242004Y0136030D01*
X0242078Y0135656D01*
X0242143Y0135280D01*
X0242199Y0134903D01*
X0242246Y0134524D01*
X0242283Y0134144D01*
X0242311Y0133763D01*
X0242330Y0133382D01*
X0242339Y0133001D01*
X0242339Y0132619D01*
D11*
X0240661Y0132581D02*
X0240661Y0131305D01*
X0238109Y0131305D01*
X0238109Y0132581D01*
X0238534Y0133006D01*
X0240235Y0133006D01*
X0240661Y0132581D01*
X0240661Y0134205D02*
X0240661Y0135906D01*
X0240661Y0135056D02*
X0238109Y0135056D01*
X0238959Y0134205D01*
X0237314Y0134205D02*
X0237314Y0135906D01*
X0237314Y0135056D02*
X0234762Y0135056D01*
X0235613Y0134205D01*
X0235188Y0133006D02*
X0234762Y0132581D01*
X0234762Y0131305D01*
X0237314Y0131305D01*
X0237314Y0132581D01*
X0236889Y0133006D01*
X0235188Y0133006D01*
X0235325Y0130283D02*
X0235751Y0130283D01*
X0236176Y0129857D01*
X0236601Y0130283D01*
X0237027Y0130283D01*
X0237452Y0129857D01*
X0237452Y0129007D01*
X0237027Y0128582D01*
X0238168Y0128542D02*
X0239444Y0128542D01*
X0239019Y0129392D01*
X0239019Y0129818D01*
X0239444Y0130243D01*
X0240294Y0130243D01*
X0240720Y0129818D01*
X0240720Y0128967D01*
X0240294Y0128542D01*
X0240720Y0127343D02*
X0240720Y0125642D01*
X0240720Y0126492D02*
X0238168Y0126492D01*
X0239019Y0125642D01*
X0239444Y0124443D02*
X0239869Y0124017D01*
X0239869Y0122742D01*
X0239869Y0123592D02*
X0240720Y0124443D01*
X0239444Y0124443D02*
X0238593Y0124443D01*
X0238168Y0124017D01*
X0238168Y0122742D01*
X0240720Y0122742D01*
X0237452Y0122781D02*
X0234900Y0122781D01*
X0234900Y0124057D01*
X0235325Y0124483D01*
X0236176Y0124483D01*
X0236601Y0124057D01*
X0236601Y0122781D01*
X0236601Y0123632D02*
X0237452Y0124483D01*
X0237452Y0125681D02*
X0237452Y0127383D01*
X0237452Y0126532D02*
X0234900Y0126532D01*
X0235751Y0125681D01*
X0235325Y0128582D02*
X0234900Y0129007D01*
X0234900Y0129857D01*
X0235325Y0130283D01*
X0236176Y0129857D02*
X0236176Y0129432D01*
X0238168Y0130243D02*
X0238168Y0128542D01*
X0231929Y0128808D02*
X0231929Y0125406D01*
X0229126Y0125406D02*
X0229126Y0128808D01*
X0226417Y0128808D02*
X0226417Y0125406D01*
X0223614Y0125406D02*
X0223614Y0128808D01*
X0219235Y0125591D02*
X0217871Y0124226D01*
X0216623Y0125474D02*
X0217988Y0126838D01*
X0220394Y0123114D02*
X0220093Y0122212D01*
X0220093Y0121009D01*
X0220996Y0121911D01*
X0221597Y0121911D01*
X0221898Y0121610D01*
X0221898Y0121009D01*
X0221296Y0120407D01*
X0220695Y0120407D01*
X0220093Y0121009D01*
X0219246Y0120161D02*
X0218043Y0118958D01*
X0218043Y0120762D01*
X0219847Y0118958D01*
X0217796Y0117509D02*
X0217796Y0116907D01*
X0217195Y0116306D01*
X0216593Y0116306D01*
X0215391Y0117509D01*
X0215391Y0118110D01*
X0215992Y0118712D01*
X0216593Y0118712D01*
X0207975Y0123108D02*
X0207550Y0122683D01*
X0206699Y0122683D01*
X0206274Y0123108D01*
X0206274Y0123533D01*
X0206699Y0123958D01*
X0207550Y0123958D01*
X0207975Y0123533D01*
X0207975Y0123108D01*
X0207550Y0123958D02*
X0207975Y0124384D01*
X0207975Y0124809D01*
X0207550Y0125234D01*
X0206699Y0125234D01*
X0206274Y0124809D01*
X0206274Y0124384D01*
X0206699Y0123958D01*
X0205075Y0123108D02*
X0205075Y0124809D01*
X0204650Y0125234D01*
X0203374Y0125234D01*
X0203374Y0122683D01*
X0204650Y0122683D01*
X0205075Y0123108D01*
X0201606Y0123029D02*
X0201606Y0123880D01*
X0201180Y0124305D01*
X0201180Y0125504D02*
X0201606Y0125929D01*
X0201606Y0126780D01*
X0201180Y0127205D01*
X0200755Y0127205D01*
X0200330Y0126780D01*
X0200330Y0126354D01*
X0200330Y0126780D02*
X0199904Y0127205D01*
X0199479Y0127205D01*
X0199054Y0126780D01*
X0199054Y0125929D01*
X0199479Y0125504D01*
X0199479Y0124305D02*
X0199054Y0123880D01*
X0199054Y0123029D01*
X0199479Y0122604D01*
X0201180Y0122604D01*
X0201606Y0123029D01*
X0198062Y0123029D02*
X0198062Y0123880D01*
X0197637Y0124305D01*
X0197637Y0125504D02*
X0198062Y0125929D01*
X0198062Y0126780D01*
X0197637Y0127205D01*
X0197212Y0127205D01*
X0196786Y0126780D01*
X0196786Y0126354D01*
X0196786Y0126780D02*
X0196361Y0127205D01*
X0195936Y0127205D01*
X0195510Y0126780D01*
X0195510Y0125929D01*
X0195936Y0125504D01*
X0195936Y0124305D02*
X0195510Y0123880D01*
X0195510Y0123029D01*
X0195936Y0122604D01*
X0197637Y0122604D01*
X0198062Y0123029D01*
X0199054Y0128404D02*
X0200330Y0128404D01*
X0199904Y0129255D01*
X0199904Y0129680D01*
X0200330Y0130105D01*
X0201180Y0130105D01*
X0201606Y0129680D01*
X0201606Y0128829D01*
X0201180Y0128404D01*
X0199054Y0128404D02*
X0199054Y0130105D01*
X0198062Y0129680D02*
X0195510Y0129680D01*
X0196786Y0128404D01*
X0196786Y0130105D01*
X0194484Y0129896D02*
X0194484Y0130321D01*
X0194059Y0130746D01*
X0193208Y0130746D01*
X0192783Y0130321D01*
X0193633Y0129470D02*
X0194059Y0129470D01*
X0194484Y0129045D01*
X0194484Y0128620D01*
X0194059Y0128194D01*
X0193208Y0128194D01*
X0192783Y0128620D01*
X0191584Y0128194D02*
X0189883Y0128194D01*
X0189883Y0130746D01*
X0188172Y0130471D02*
X0187321Y0130045D01*
X0186471Y0129195D01*
X0187747Y0129195D01*
X0188172Y0128769D01*
X0188172Y0128344D01*
X0187747Y0127919D01*
X0186896Y0127919D01*
X0186471Y0128344D01*
X0186471Y0129195D01*
X0185272Y0129620D02*
X0184847Y0129195D01*
X0185272Y0128769D01*
X0185272Y0128344D01*
X0184847Y0127919D01*
X0183996Y0127919D01*
X0183571Y0128344D01*
X0182372Y0128344D02*
X0181946Y0127919D01*
X0181096Y0127919D01*
X0180671Y0128344D01*
X0180671Y0130045D01*
X0181096Y0130471D01*
X0181946Y0130471D01*
X0182372Y0130045D01*
X0183571Y0130045D02*
X0183996Y0130471D01*
X0184847Y0130471D01*
X0185272Y0130045D01*
X0185272Y0129620D01*
X0184847Y0129195D02*
X0184421Y0129195D01*
X0178723Y0129258D02*
X0178723Y0128833D01*
X0178298Y0128407D01*
X0177447Y0128407D01*
X0177022Y0128833D01*
X0177022Y0129258D01*
X0177447Y0129683D01*
X0178298Y0129683D01*
X0178723Y0129258D01*
X0178298Y0128407D02*
X0178723Y0127982D01*
X0178723Y0127557D01*
X0178298Y0127131D01*
X0177447Y0127131D01*
X0177022Y0127557D01*
X0177022Y0127982D01*
X0177447Y0128407D01*
X0175823Y0128407D02*
X0174122Y0128407D01*
X0175398Y0129683D01*
X0175398Y0127131D01*
X0172923Y0127557D02*
X0172498Y0127131D01*
X0171647Y0127131D01*
X0171222Y0127557D01*
X0171222Y0129258D01*
X0171647Y0129683D01*
X0172498Y0129683D01*
X0172923Y0129258D01*
X0164512Y0131217D02*
X0161110Y0131217D01*
X0161110Y0134020D02*
X0164512Y0134020D01*
X0164512Y0136729D02*
X0161110Y0136729D01*
X0161110Y0139532D02*
X0164512Y0139532D01*
X0154176Y0138844D02*
X0154176Y0137143D01*
X0153751Y0136718D01*
X0152900Y0136718D01*
X0152475Y0137143D01*
X0152900Y0137994D02*
X0154176Y0137994D01*
X0154176Y0138844D02*
X0153751Y0139270D01*
X0152900Y0139270D01*
X0152475Y0138844D01*
X0152475Y0138419D01*
X0152900Y0137994D01*
X0151276Y0136718D02*
X0149575Y0136718D01*
X0150425Y0136718D02*
X0150425Y0139270D01*
X0149575Y0138419D01*
X0148376Y0138844D02*
X0148376Y0137994D01*
X0147950Y0137569D01*
X0146674Y0137569D01*
X0147525Y0137569D02*
X0148376Y0136718D01*
X0146674Y0136718D02*
X0146674Y0139270D01*
X0147950Y0139270D01*
X0148376Y0138844D01*
X0148312Y0133758D02*
X0148312Y0131206D01*
X0146263Y0131206D02*
X0146263Y0133758D01*
X0147462Y0133758D02*
X0149163Y0133758D01*
X0150362Y0133333D02*
X0150362Y0131631D01*
X0150787Y0131206D01*
X0151638Y0131206D01*
X0152063Y0131631D01*
X0153262Y0131206D02*
X0154963Y0131206D01*
X0154113Y0131206D02*
X0154113Y0133758D01*
X0153262Y0132907D01*
X0152063Y0133333D02*
X0151638Y0133758D01*
X0150787Y0133758D01*
X0150362Y0133333D01*
X0146263Y0131206D02*
X0144562Y0133758D01*
X0144562Y0131206D01*
X0147100Y0127459D02*
X0146674Y0127033D01*
X0146674Y0125332D01*
X0147100Y0124907D01*
X0147950Y0124907D01*
X0148376Y0125332D01*
X0149575Y0126183D02*
X0151276Y0126183D01*
X0152475Y0126183D02*
X0154176Y0126183D01*
X0153751Y0124907D02*
X0153751Y0127459D01*
X0152475Y0126183D01*
X0150850Y0124907D02*
X0150850Y0127459D01*
X0149575Y0126183D01*
X0148376Y0127033D02*
X0147950Y0127459D01*
X0147100Y0127459D01*
X0136217Y0121690D02*
X0134287Y0121690D01*
X0134287Y0119926D02*
X0136217Y0119926D01*
X0141064Y0119659D02*
X0141914Y0120510D01*
X0141914Y0117958D01*
X0141064Y0117958D02*
X0142765Y0117958D01*
X0143380Y0114654D02*
X0143982Y0114654D01*
X0143982Y0112248D01*
X0144583Y0112248D01*
X0145185Y0112850D01*
X0145185Y0113451D01*
X0143982Y0114654D01*
X0143380Y0114654D02*
X0142779Y0114053D01*
X0142779Y0113451D01*
X0143982Y0112248D01*
X0143435Y0111100D02*
X0142232Y0109897D01*
X0142833Y0110498D02*
X0141029Y0112303D01*
X0141029Y0111100D01*
X0139880Y0110553D02*
X0139279Y0110553D01*
X0138677Y0109951D01*
X0138677Y0109350D01*
X0139880Y0108147D01*
X0140482Y0108147D01*
X0141083Y0108748D01*
X0141083Y0109350D01*
X0136151Y0111100D02*
X0134948Y0109897D01*
X0135550Y0110498D02*
X0133745Y0112303D01*
X0133745Y0111100D01*
X0132597Y0110553D02*
X0131995Y0110553D01*
X0131394Y0109951D01*
X0131394Y0109350D01*
X0132597Y0108147D01*
X0133198Y0108147D01*
X0133800Y0108748D01*
X0133800Y0109350D01*
X0135114Y0105578D02*
X0133749Y0104214D01*
X0134997Y0102967D02*
X0136361Y0104331D01*
X0129077Y0104331D02*
X0127713Y0102967D01*
X0126466Y0104214D02*
X0127830Y0105578D01*
X0126112Y0108147D02*
X0126713Y0108748D01*
X0126713Y0109350D01*
X0127862Y0109897D02*
X0129065Y0111100D01*
X0128463Y0110498D02*
X0126659Y0112303D01*
X0126659Y0111100D01*
X0125510Y0110553D02*
X0124909Y0110553D01*
X0124307Y0109951D01*
X0124307Y0109350D01*
X0125510Y0108147D01*
X0126112Y0108147D01*
X0121991Y0104331D02*
X0120627Y0102967D01*
X0119379Y0104214D02*
X0120743Y0105578D01*
X0129912Y0111948D02*
X0131115Y0113150D01*
X0130514Y0112549D02*
X0128709Y0114353D01*
X0128709Y0113150D01*
X0128317Y0118883D02*
X0127466Y0118883D01*
X0127041Y0119309D01*
X0128742Y0121010D01*
X0128742Y0119309D01*
X0128317Y0118883D01*
X0127041Y0119309D02*
X0127041Y0121010D01*
X0127466Y0121435D01*
X0128317Y0121435D01*
X0128742Y0121010D01*
X0125842Y0121010D02*
X0125842Y0120584D01*
X0124141Y0118883D01*
X0125842Y0118883D01*
X0125842Y0121010D02*
X0125417Y0121435D01*
X0124566Y0121435D01*
X0124141Y0121010D01*
X0122942Y0121010D02*
X0122517Y0121435D01*
X0121666Y0121435D01*
X0121241Y0121010D01*
X0121241Y0119309D01*
X0121666Y0118883D01*
X0122517Y0118883D01*
X0122942Y0119309D01*
X0113231Y0127151D02*
X0112797Y0126717D01*
X0111062Y0126717D01*
X0110628Y0127151D01*
X0110628Y0128018D01*
X0111062Y0128452D01*
X0111062Y0129663D02*
X0110628Y0130097D01*
X0110628Y0130965D01*
X0111062Y0131398D01*
X0111496Y0131398D01*
X0113231Y0129663D01*
X0113231Y0131398D01*
X0112797Y0132610D02*
X0113231Y0133044D01*
X0113231Y0133911D01*
X0112797Y0134345D01*
X0111930Y0134345D01*
X0111496Y0133911D01*
X0111496Y0133477D01*
X0111930Y0132610D01*
X0110628Y0132610D01*
X0110628Y0134345D01*
X0112797Y0128452D02*
X0113231Y0128018D01*
X0113231Y0127151D01*
X0131888Y0128725D02*
X0132322Y0128292D01*
X0134057Y0128292D01*
X0134491Y0128725D01*
X0134491Y0129593D01*
X0134057Y0130027D01*
X0134491Y0131238D02*
X0132756Y0132973D01*
X0132322Y0132973D01*
X0131888Y0132539D01*
X0131888Y0131672D01*
X0132322Y0131238D01*
X0132322Y0130027D02*
X0131888Y0129593D01*
X0131888Y0128725D01*
X0134491Y0131238D02*
X0134491Y0132973D01*
X0134057Y0134185D02*
X0134491Y0134619D01*
X0134491Y0135486D01*
X0134057Y0135920D01*
X0132322Y0135920D01*
X0131888Y0135486D01*
X0131888Y0134619D01*
X0132322Y0134185D01*
X0132756Y0134185D01*
X0133189Y0134619D01*
X0133189Y0135920D01*
X0132871Y0140281D02*
X0131136Y0140281D01*
X0132871Y0142016D01*
X0132871Y0142449D01*
X0132437Y0142883D01*
X0131570Y0142883D01*
X0131136Y0142449D01*
X0129925Y0142449D02*
X0129491Y0142883D01*
X0128623Y0142883D01*
X0128190Y0142449D01*
X0128190Y0140715D01*
X0128623Y0140281D01*
X0129491Y0140281D01*
X0129925Y0140715D01*
X0134083Y0140715D02*
X0134083Y0141148D01*
X0134516Y0141582D01*
X0135384Y0141582D01*
X0135818Y0141148D01*
X0135818Y0140715D01*
X0135384Y0140281D01*
X0134516Y0140281D01*
X0134083Y0140715D01*
X0134516Y0141582D02*
X0134083Y0142016D01*
X0134083Y0142449D01*
X0134516Y0142883D01*
X0135384Y0142883D01*
X0135818Y0142449D01*
X0135818Y0142016D01*
X0135384Y0141582D01*
X0147238Y0120234D02*
X0146812Y0119809D01*
X0146812Y0118108D01*
X0147238Y0117683D01*
X0148088Y0117683D01*
X0148513Y0118108D01*
X0149712Y0118958D02*
X0151414Y0118958D01*
X0150988Y0117683D02*
X0150988Y0120234D01*
X0149712Y0118958D01*
X0148513Y0119809D02*
X0148088Y0120234D01*
X0147238Y0120234D01*
X0152612Y0119809D02*
X0153038Y0120234D01*
X0153888Y0120234D01*
X0154314Y0119809D01*
X0154314Y0119384D01*
X0153888Y0118958D01*
X0154314Y0118533D01*
X0154314Y0118108D01*
X0153888Y0117683D01*
X0153038Y0117683D01*
X0152612Y0118108D01*
X0153463Y0118958D02*
X0153888Y0118958D01*
X0153888Y0112360D02*
X0153038Y0112360D01*
X0152612Y0111935D01*
X0153888Y0112360D02*
X0154314Y0111935D01*
X0154314Y0111510D01*
X0152612Y0109809D01*
X0154314Y0109809D01*
X0151414Y0111084D02*
X0149712Y0111084D01*
X0150988Y0112360D01*
X0150988Y0109809D01*
X0148513Y0110234D02*
X0148088Y0109809D01*
X0147238Y0109809D01*
X0146812Y0110234D01*
X0146812Y0111935D01*
X0147238Y0112360D01*
X0148088Y0112360D01*
X0148513Y0111935D01*
X0147950Y0104624D02*
X0147100Y0104624D01*
X0146674Y0104199D01*
X0146674Y0102498D01*
X0147100Y0102072D01*
X0147950Y0102072D01*
X0148376Y0102498D01*
X0149575Y0102498D02*
X0150000Y0102072D01*
X0150850Y0102072D01*
X0151276Y0102498D01*
X0151276Y0102923D01*
X0150850Y0103348D01*
X0150425Y0103348D01*
X0150850Y0103348D02*
X0151276Y0103773D01*
X0151276Y0104199D01*
X0150850Y0104624D01*
X0150000Y0104624D01*
X0149575Y0104199D01*
X0148376Y0104199D02*
X0147950Y0104624D01*
X0152475Y0104199D02*
X0152475Y0103773D01*
X0152900Y0103348D01*
X0154176Y0103348D01*
X0154176Y0102498D02*
X0154176Y0104199D01*
X0153751Y0104624D01*
X0152900Y0104624D01*
X0152475Y0104199D01*
X0152475Y0102498D02*
X0152900Y0102072D01*
X0153751Y0102072D01*
X0154176Y0102498D01*
X0154963Y0099112D02*
X0154113Y0098687D01*
X0153262Y0097836D01*
X0154538Y0097836D01*
X0154963Y0097411D01*
X0154963Y0096986D01*
X0154538Y0096560D01*
X0153687Y0096560D01*
X0153262Y0096986D01*
X0153262Y0097836D01*
X0152063Y0096560D02*
X0150362Y0096560D01*
X0151213Y0096560D02*
X0151213Y0099112D01*
X0150362Y0098262D01*
X0149163Y0098687D02*
X0149163Y0097836D01*
X0148738Y0097411D01*
X0147462Y0097411D01*
X0148312Y0097411D02*
X0149163Y0096560D01*
X0147462Y0096560D02*
X0147462Y0099112D01*
X0148738Y0099112D01*
X0149163Y0098687D01*
X0161110Y0099375D02*
X0164512Y0099375D01*
X0164512Y0096571D02*
X0161110Y0096571D01*
X0171908Y0090913D02*
X0172333Y0090913D01*
X0174035Y0089212D01*
X0174460Y0089212D01*
X0174460Y0087587D02*
X0171908Y0087587D01*
X0173184Y0086311D01*
X0173184Y0088013D01*
X0171908Y0089212D02*
X0171908Y0090913D01*
X0177538Y0090676D02*
X0177538Y0088975D01*
X0177538Y0090676D02*
X0177963Y0090676D01*
X0179664Y0088975D01*
X0180090Y0088975D01*
X0180090Y0087776D02*
X0180090Y0086075D01*
X0180090Y0086925D02*
X0177538Y0086925D01*
X0178389Y0086075D01*
X0178814Y0084876D02*
X0179239Y0084451D01*
X0179239Y0083175D01*
X0179239Y0084025D02*
X0180090Y0084876D01*
X0178814Y0084876D02*
X0177963Y0084876D01*
X0177538Y0084451D01*
X0177538Y0083175D01*
X0180090Y0083175D01*
X0183308Y0084604D02*
X0183308Y0086305D01*
X0183733Y0086730D01*
X0184584Y0086730D01*
X0185009Y0086305D01*
X0186208Y0086305D02*
X0186633Y0086730D01*
X0187484Y0086730D01*
X0187909Y0086305D01*
X0187909Y0085880D01*
X0187484Y0085454D01*
X0187909Y0085029D01*
X0187909Y0084604D01*
X0187484Y0084179D01*
X0186633Y0084179D01*
X0186208Y0084604D01*
X0185009Y0084604D02*
X0184584Y0084179D01*
X0183733Y0084179D01*
X0183308Y0084604D01*
X0187059Y0085454D02*
X0187484Y0085454D01*
X0189108Y0084604D02*
X0189108Y0084179D01*
X0189108Y0084604D02*
X0190809Y0086305D01*
X0190809Y0086730D01*
X0189108Y0086730D01*
X0192107Y0086002D02*
X0193383Y0086002D01*
X0193808Y0085577D01*
X0193808Y0084726D01*
X0193383Y0084301D01*
X0192107Y0084301D01*
X0192958Y0084301D02*
X0193808Y0083450D01*
X0195007Y0083450D02*
X0196708Y0083450D01*
X0195858Y0083450D02*
X0195858Y0086002D01*
X0195007Y0085151D01*
X0197907Y0085151D02*
X0197907Y0085577D01*
X0198333Y0086002D01*
X0199183Y0086002D01*
X0199608Y0085577D01*
X0199608Y0085151D01*
X0199183Y0084726D01*
X0198333Y0084726D01*
X0197907Y0085151D01*
X0198333Y0084726D02*
X0197907Y0084301D01*
X0197907Y0083876D01*
X0198333Y0083450D01*
X0199183Y0083450D01*
X0199608Y0083876D01*
X0199608Y0084301D01*
X0199183Y0084726D01*
X0192107Y0083450D02*
X0192107Y0086002D01*
X0180354Y0077627D02*
X0180354Y0074225D01*
X0177551Y0074225D02*
X0177551Y0077627D01*
X0174035Y0083411D02*
X0172333Y0083411D01*
X0171908Y0083837D01*
X0171908Y0084687D01*
X0172333Y0085112D01*
X0174035Y0085112D02*
X0174460Y0084687D01*
X0174460Y0083837D01*
X0174035Y0083411D01*
X0166125Y0084250D02*
X0165699Y0083824D01*
X0164849Y0083824D01*
X0164423Y0084250D01*
X0164423Y0084675D01*
X0164849Y0085100D01*
X0165699Y0085100D01*
X0166125Y0084675D01*
X0166125Y0084250D01*
X0165699Y0085100D02*
X0166125Y0085525D01*
X0166125Y0085951D01*
X0165699Y0086376D01*
X0164849Y0086376D01*
X0164423Y0085951D01*
X0164423Y0085525D01*
X0164849Y0085100D01*
X0163225Y0084675D02*
X0163225Y0084250D01*
X0162799Y0083824D01*
X0161949Y0083824D01*
X0161523Y0084250D01*
X0160324Y0084250D02*
X0159899Y0083824D01*
X0159049Y0083824D01*
X0158623Y0084250D01*
X0158623Y0085951D01*
X0159049Y0086376D01*
X0159899Y0086376D01*
X0160324Y0085951D01*
X0161523Y0085951D02*
X0161949Y0086376D01*
X0162799Y0086376D01*
X0163225Y0085951D01*
X0163225Y0085525D01*
X0162799Y0085100D01*
X0163225Y0084675D01*
X0162799Y0085100D02*
X0162374Y0085100D01*
X0154244Y0080040D02*
X0154244Y0078111D01*
X0152480Y0078111D02*
X0152480Y0080040D01*
X0152373Y0072815D02*
X0154074Y0071114D01*
X0154499Y0071114D01*
X0154074Y0069915D02*
X0154499Y0069490D01*
X0154499Y0068639D01*
X0154074Y0068214D01*
X0152373Y0068214D01*
X0151947Y0068639D01*
X0151947Y0069490D01*
X0152373Y0069915D01*
X0151947Y0071114D02*
X0151947Y0072815D01*
X0152373Y0072815D01*
X0151955Y0063642D02*
X0151353Y0063642D01*
X0150150Y0062439D01*
X0150150Y0061838D01*
X0150752Y0061236D01*
X0151353Y0061236D01*
X0152201Y0060389D02*
X0152201Y0059787D01*
X0152802Y0059186D01*
X0153404Y0059186D01*
X0154607Y0060389D01*
X0154607Y0060990D01*
X0154005Y0061591D01*
X0153404Y0061591D01*
X0153103Y0061291D01*
X0153103Y0060689D01*
X0154005Y0059787D01*
X0152556Y0062439D02*
X0152556Y0063041D01*
X0151955Y0063642D01*
X0155994Y0062598D02*
X0157358Y0061234D01*
X0158605Y0062482D02*
X0157241Y0063846D01*
X0157241Y0056759D02*
X0158605Y0055395D01*
X0157358Y0054148D02*
X0155994Y0055512D01*
X0154005Y0053717D02*
X0154607Y0053116D01*
X0154607Y0052515D01*
X0154306Y0052214D01*
X0153705Y0052214D01*
X0153103Y0052815D01*
X0153103Y0053417D01*
X0153404Y0053717D01*
X0154005Y0053717D01*
X0153103Y0052815D02*
X0152502Y0052815D01*
X0152201Y0052515D01*
X0152201Y0051913D01*
X0152802Y0051312D01*
X0153404Y0051312D01*
X0153705Y0051612D01*
X0153705Y0052214D01*
X0152556Y0054565D02*
X0152556Y0055167D01*
X0151955Y0055768D01*
X0151353Y0055768D01*
X0150150Y0054565D01*
X0150150Y0053964D01*
X0150752Y0053362D01*
X0151353Y0053362D01*
X0157241Y0048885D02*
X0158605Y0047521D01*
X0157358Y0046274D02*
X0155994Y0047638D01*
X0161174Y0049239D02*
X0161775Y0048638D01*
X0162377Y0048638D01*
X0161174Y0049239D02*
X0161174Y0049841D01*
X0162377Y0051044D01*
X0162978Y0051044D01*
X0163580Y0050442D01*
X0163580Y0049841D01*
X0163826Y0048392D02*
X0165029Y0047189D01*
X0165630Y0048392D02*
X0163826Y0048392D01*
X0165630Y0048392D02*
X0163826Y0046587D01*
X0169505Y0049068D02*
X0170708Y0047865D01*
X0170107Y0048466D02*
X0171911Y0050271D01*
X0170708Y0050271D01*
X0170161Y0051419D02*
X0170161Y0052021D01*
X0169560Y0052622D01*
X0168958Y0052622D01*
X0167755Y0051419D01*
X0167755Y0050818D01*
X0168357Y0050216D01*
X0168958Y0050216D01*
X0171857Y0047318D02*
X0172157Y0047618D01*
X0172759Y0047618D01*
X0173360Y0047017D01*
X0173360Y0046416D01*
X0173060Y0046115D01*
X0172458Y0046115D01*
X0171857Y0046716D01*
X0171857Y0047318D01*
X0172759Y0047618D02*
X0172759Y0048220D01*
X0173060Y0048521D01*
X0173661Y0048521D01*
X0174262Y0047919D01*
X0174262Y0047318D01*
X0173962Y0047017D01*
X0173360Y0047017D01*
X0177094Y0047769D02*
X0177528Y0047335D01*
X0177094Y0047769D02*
X0177094Y0048637D01*
X0177528Y0049070D01*
X0177961Y0049070D01*
X0179696Y0047335D01*
X0179696Y0049070D01*
X0179696Y0046124D02*
X0179696Y0044389D01*
X0177961Y0046124D01*
X0177528Y0046124D01*
X0177094Y0045690D01*
X0177094Y0044823D01*
X0177528Y0044389D01*
X0177528Y0043177D02*
X0178395Y0043177D01*
X0178829Y0042743D01*
X0178829Y0041442D01*
X0179696Y0041442D02*
X0177094Y0041442D01*
X0177094Y0042743D01*
X0177528Y0043177D01*
X0178829Y0042310D02*
X0179696Y0043177D01*
X0181968Y0042813D02*
X0183269Y0042813D01*
X0183703Y0042379D01*
X0183703Y0041512D01*
X0183269Y0041078D01*
X0181968Y0041078D01*
X0181968Y0040211D02*
X0181968Y0042813D01*
X0182165Y0043754D02*
X0182165Y0046356D01*
X0183466Y0046356D01*
X0183900Y0045923D01*
X0183900Y0045055D01*
X0183466Y0044622D01*
X0182165Y0044622D01*
X0183033Y0044622D02*
X0183900Y0043754D01*
X0185112Y0043754D02*
X0186846Y0045489D01*
X0186846Y0045923D01*
X0186413Y0046356D01*
X0185545Y0046356D01*
X0185112Y0045923D01*
X0187330Y0047742D02*
X0189932Y0047742D01*
X0189932Y0049476D01*
X0189932Y0050688D02*
X0187330Y0050688D01*
X0187330Y0052423D01*
X0187330Y0053635D02*
X0187330Y0054936D01*
X0187764Y0055369D01*
X0189499Y0055369D01*
X0189932Y0054936D01*
X0189932Y0053635D01*
X0187330Y0053635D01*
X0189932Y0052423D02*
X0189932Y0050688D01*
X0188631Y0050688D02*
X0188631Y0051555D01*
X0194130Y0050036D02*
X0196059Y0050036D01*
X0196059Y0048272D02*
X0194130Y0048272D01*
X0194130Y0045312D02*
X0196059Y0045312D01*
X0196059Y0043548D02*
X0194130Y0043548D01*
X0194130Y0040587D02*
X0196059Y0040587D01*
X0196059Y0038823D02*
X0194130Y0038823D01*
X0194700Y0034871D02*
X0194266Y0034438D01*
X0194700Y0034871D02*
X0195567Y0034871D01*
X0196001Y0034438D01*
X0196001Y0034004D01*
X0194266Y0032269D01*
X0196001Y0032269D01*
X0197213Y0032269D02*
X0198948Y0034004D01*
X0198948Y0034438D01*
X0198514Y0034871D01*
X0197646Y0034871D01*
X0197213Y0034438D01*
X0197213Y0032269D02*
X0198948Y0032269D01*
X0193054Y0032703D02*
X0192621Y0032269D01*
X0191753Y0032269D01*
X0191320Y0032703D01*
X0191320Y0034438D01*
X0191753Y0034871D01*
X0192621Y0034871D01*
X0193054Y0034438D01*
X0189793Y0037101D02*
X0189359Y0036668D01*
X0188492Y0036668D01*
X0188058Y0037101D01*
X0188926Y0037969D02*
X0189359Y0037969D01*
X0189793Y0037535D01*
X0189793Y0037101D01*
X0189359Y0037969D02*
X0189793Y0038402D01*
X0189793Y0038836D01*
X0189359Y0039270D01*
X0188492Y0039270D01*
X0188058Y0038836D01*
X0186846Y0038836D02*
X0186413Y0039270D01*
X0185545Y0039270D01*
X0185112Y0038836D01*
X0183900Y0038836D02*
X0183466Y0039270D01*
X0182599Y0039270D01*
X0182165Y0038836D01*
X0182165Y0037101D01*
X0182599Y0036668D01*
X0183466Y0036668D01*
X0183900Y0037101D01*
X0185112Y0036668D02*
X0186846Y0038402D01*
X0186846Y0038836D01*
X0186650Y0040211D02*
X0184915Y0040211D01*
X0185782Y0040211D02*
X0185782Y0042813D01*
X0184915Y0041946D01*
X0185112Y0043754D02*
X0186846Y0043754D01*
X0188058Y0043754D02*
X0189793Y0043754D01*
X0188926Y0043754D02*
X0188926Y0046356D01*
X0188058Y0045489D01*
X0188295Y0042813D02*
X0187861Y0042379D01*
X0187861Y0040645D01*
X0189596Y0042379D01*
X0189596Y0040645D01*
X0189162Y0040211D01*
X0188295Y0040211D01*
X0187861Y0040645D01*
X0183703Y0040211D02*
X0182836Y0041078D01*
X0185112Y0036668D02*
X0186846Y0036668D01*
X0188295Y0042813D02*
X0189162Y0042813D01*
X0189596Y0042379D01*
X0179441Y0053701D02*
X0179441Y0055631D01*
X0177677Y0055631D02*
X0177677Y0053701D01*
X0173552Y0057980D02*
X0172950Y0060987D01*
X0174399Y0061234D02*
X0174399Y0062436D01*
X0176204Y0060632D01*
X0175602Y0060031D02*
X0176805Y0061234D01*
X0174754Y0059183D02*
X0171747Y0059784D01*
X0164904Y0056182D02*
X0163540Y0057546D01*
X0162293Y0056299D02*
X0163657Y0054935D01*
X0174722Y0067009D02*
X0175949Y0068236D01*
X0175335Y0067623D02*
X0173495Y0069463D01*
X0173495Y0068236D01*
X0187262Y0066844D02*
X0188563Y0065543D01*
X0188563Y0067278D01*
X0187262Y0066844D02*
X0189865Y0066844D01*
X0189865Y0064331D02*
X0189865Y0062597D01*
X0188130Y0064331D01*
X0187696Y0064331D01*
X0187262Y0063898D01*
X0187262Y0063030D01*
X0187696Y0062597D01*
X0187696Y0061385D02*
X0187262Y0060951D01*
X0187262Y0060084D01*
X0187696Y0059650D01*
X0189431Y0059650D01*
X0189865Y0060084D01*
X0189865Y0060951D01*
X0189431Y0061385D01*
X0189932Y0058316D02*
X0189932Y0056581D01*
X0188197Y0058316D01*
X0187764Y0058316D01*
X0187330Y0057882D01*
X0187330Y0057015D01*
X0187764Y0056581D01*
X0194070Y0065360D02*
X0194921Y0065360D01*
X0194496Y0065360D02*
X0194496Y0067911D01*
X0194921Y0067911D02*
X0194070Y0067911D01*
X0196004Y0067486D02*
X0196004Y0065785D01*
X0196429Y0065360D01*
X0197280Y0065360D01*
X0197705Y0065785D01*
X0198904Y0065785D02*
X0198904Y0066636D01*
X0200180Y0066636D01*
X0200605Y0066210D01*
X0200605Y0065785D01*
X0200180Y0065360D01*
X0199329Y0065360D01*
X0198904Y0065785D01*
X0198904Y0066636D02*
X0199754Y0067486D01*
X0200605Y0067911D01*
X0202993Y0067478D02*
X0202993Y0069179D01*
X0203418Y0069604D01*
X0204269Y0069604D01*
X0204694Y0069179D01*
X0205893Y0068328D02*
X0207594Y0068328D01*
X0207169Y0067053D02*
X0207169Y0069604D01*
X0205893Y0068328D01*
X0204694Y0067478D02*
X0204269Y0067053D01*
X0203418Y0067053D01*
X0202993Y0067478D01*
X0197705Y0067486D02*
X0197280Y0067911D01*
X0196429Y0067911D01*
X0196004Y0067486D01*
X0197283Y0073438D02*
X0197283Y0076839D01*
X0194480Y0076839D02*
X0194480Y0073438D01*
X0208793Y0069179D02*
X0208793Y0067478D01*
X0210494Y0069179D01*
X0210494Y0067478D01*
X0210069Y0067053D01*
X0209218Y0067053D01*
X0208793Y0067478D01*
X0208793Y0069179D02*
X0209218Y0069604D01*
X0210069Y0069604D01*
X0210494Y0069179D01*
X0211654Y0069179D02*
X0211654Y0067478D01*
X0212080Y0067053D01*
X0212930Y0067053D01*
X0213356Y0067478D01*
X0214554Y0068328D02*
X0215830Y0069604D01*
X0215830Y0067053D01*
X0215129Y0066393D02*
X0215129Y0064658D01*
X0215129Y0065526D02*
X0212527Y0065526D01*
X0213394Y0064658D01*
X0213394Y0063447D02*
X0212961Y0063447D01*
X0212527Y0063013D01*
X0212527Y0062145D01*
X0212961Y0061712D01*
X0212961Y0060500D02*
X0212527Y0060066D01*
X0212527Y0059199D01*
X0212961Y0058765D01*
X0214695Y0058765D01*
X0215129Y0059199D01*
X0215129Y0060066D01*
X0214695Y0060500D01*
X0215129Y0061712D02*
X0213394Y0063447D01*
X0215129Y0063447D02*
X0215129Y0061712D01*
X0215317Y0057298D02*
X0215317Y0055563D01*
X0213583Y0057298D01*
X0213149Y0057298D01*
X0212715Y0056864D01*
X0212715Y0055996D01*
X0213149Y0055563D01*
X0215317Y0054351D02*
X0215317Y0052616D01*
X0212715Y0052616D01*
X0218539Y0050036D02*
X0220469Y0050036D01*
X0220469Y0048272D02*
X0218539Y0048272D01*
X0218539Y0045312D02*
X0220469Y0045312D01*
X0220469Y0043548D02*
X0218539Y0043548D01*
X0218539Y0040587D02*
X0220469Y0040587D01*
X0220469Y0038823D02*
X0218539Y0038823D01*
X0219109Y0036446D02*
X0218676Y0036012D01*
X0218676Y0035579D01*
X0219109Y0035145D01*
X0220410Y0035145D01*
X0220410Y0034278D02*
X0220410Y0036012D01*
X0219977Y0036446D01*
X0219109Y0036446D01*
X0217464Y0036012D02*
X0217464Y0035145D01*
X0217030Y0034711D01*
X0215729Y0034711D01*
X0215729Y0033844D02*
X0215729Y0036446D01*
X0217030Y0036446D01*
X0217464Y0036012D01*
X0216597Y0034711D02*
X0217464Y0033844D01*
X0217030Y0033297D02*
X0217464Y0032863D01*
X0217464Y0031995D01*
X0217030Y0031562D01*
X0215729Y0031562D01*
X0216597Y0031562D02*
X0217464Y0030694D01*
X0217030Y0030147D02*
X0216163Y0030147D01*
X0215729Y0029713D01*
X0215729Y0027978D01*
X0216163Y0027545D01*
X0217030Y0027545D01*
X0217464Y0027978D01*
X0218676Y0027545D02*
X0220410Y0027545D01*
X0219543Y0027545D02*
X0219543Y0030147D01*
X0218676Y0029280D01*
X0217464Y0029713D02*
X0217030Y0030147D01*
X0215729Y0030694D02*
X0215729Y0033297D01*
X0217030Y0033297D01*
X0218676Y0032863D02*
X0218676Y0032429D01*
X0219109Y0031995D01*
X0219977Y0031995D01*
X0220410Y0031562D01*
X0220410Y0031128D01*
X0219977Y0030694D01*
X0219109Y0030694D01*
X0218676Y0031128D01*
X0218676Y0031562D01*
X0219109Y0031995D01*
X0219977Y0031995D02*
X0220410Y0032429D01*
X0220410Y0032863D01*
X0219977Y0033297D01*
X0219109Y0033297D01*
X0218676Y0032863D01*
X0219109Y0033844D02*
X0219977Y0033844D01*
X0220410Y0034278D01*
X0219109Y0033844D02*
X0218676Y0034278D01*
X0221622Y0030147D02*
X0223357Y0030147D01*
X0223357Y0029713D01*
X0221622Y0027978D01*
X0221622Y0027545D01*
X0238511Y0030852D02*
X0238945Y0030419D01*
X0240680Y0030419D01*
X0241113Y0030852D01*
X0241113Y0031720D01*
X0240680Y0032154D01*
X0241113Y0033365D02*
X0241113Y0035100D01*
X0241113Y0034233D02*
X0238511Y0034233D01*
X0239379Y0033365D01*
X0238945Y0032154D02*
X0238511Y0031720D01*
X0238511Y0030852D01*
X0238511Y0036312D02*
X0239812Y0036312D01*
X0239379Y0037179D01*
X0239379Y0037613D01*
X0239812Y0038047D01*
X0240680Y0038047D01*
X0241113Y0037613D01*
X0241113Y0036745D01*
X0240680Y0036312D01*
X0238511Y0036312D02*
X0238511Y0038047D01*
X0238699Y0042079D02*
X0241251Y0042079D01*
X0241251Y0043780D01*
X0241251Y0044979D02*
X0241251Y0046680D01*
X0241251Y0045830D02*
X0238699Y0045830D01*
X0239550Y0044979D01*
X0239176Y0055683D02*
X0239176Y0056551D01*
X0239176Y0056117D02*
X0236573Y0056117D01*
X0236573Y0055683D02*
X0236573Y0056551D01*
X0237007Y0057648D02*
X0238742Y0057648D01*
X0239176Y0058081D01*
X0239176Y0058949D01*
X0238742Y0059383D01*
X0238742Y0060594D02*
X0239176Y0061028D01*
X0239176Y0061895D01*
X0238742Y0062329D01*
X0237874Y0062329D01*
X0237441Y0061895D01*
X0237441Y0061462D01*
X0237874Y0060594D01*
X0236573Y0060594D01*
X0236573Y0062329D01*
X0237007Y0059383D02*
X0236573Y0058949D01*
X0236573Y0058081D01*
X0237007Y0057648D01*
X0237314Y0067564D02*
X0234762Y0067564D01*
X0237314Y0067564D02*
X0237314Y0069266D01*
X0237912Y0068946D02*
X0238337Y0069371D01*
X0240038Y0069371D01*
X0240464Y0068946D01*
X0240464Y0067670D01*
X0237912Y0067670D01*
X0237912Y0068946D01*
X0238337Y0070570D02*
X0238763Y0070570D01*
X0239188Y0070995D01*
X0239188Y0072271D01*
X0240038Y0072271D02*
X0238337Y0072271D01*
X0237912Y0071846D01*
X0237912Y0070995D01*
X0238337Y0070570D01*
X0237314Y0071740D02*
X0234762Y0071740D01*
X0236038Y0070465D01*
X0236038Y0072166D01*
X0240038Y0072271D02*
X0240464Y0071846D01*
X0240464Y0070995D01*
X0240038Y0070570D01*
X0219156Y0067053D02*
X0217455Y0067053D01*
X0218305Y0067053D02*
X0218305Y0069604D01*
X0217455Y0068754D01*
X0216256Y0068328D02*
X0214554Y0068328D01*
X0213356Y0069179D02*
X0212930Y0069604D01*
X0212080Y0069604D01*
X0211654Y0069179D01*
X0212506Y0086797D02*
X0212081Y0087222D01*
X0212506Y0086797D02*
X0213356Y0086797D01*
X0213782Y0087222D01*
X0213782Y0088073D01*
X0213356Y0088498D01*
X0212931Y0088498D01*
X0212081Y0088073D01*
X0212081Y0089348D01*
X0213782Y0089348D01*
X0216260Y0090906D02*
X0216260Y0092835D01*
X0218024Y0092835D02*
X0218024Y0090906D01*
X0210882Y0088073D02*
X0209180Y0088073D01*
X0210456Y0089348D01*
X0210456Y0086797D01*
X0207981Y0087222D02*
X0207556Y0086797D01*
X0206706Y0086797D01*
X0206280Y0087222D01*
X0206280Y0088923D01*
X0206706Y0089348D01*
X0207556Y0089348D01*
X0207981Y0088923D01*
X0213987Y0101679D02*
X0215688Y0101679D01*
X0216113Y0102104D01*
X0216113Y0102954D01*
X0215688Y0103380D01*
X0215688Y0104579D02*
X0216113Y0105004D01*
X0216113Y0105855D01*
X0215688Y0106280D01*
X0214837Y0106280D01*
X0214412Y0105855D01*
X0214412Y0105429D01*
X0214837Y0104579D01*
X0213562Y0104579D01*
X0213562Y0106280D01*
X0213987Y0107479D02*
X0213562Y0107904D01*
X0213562Y0108755D01*
X0213987Y0109180D01*
X0215688Y0107479D01*
X0216113Y0107904D01*
X0216113Y0108755D01*
X0215688Y0109180D01*
X0213987Y0109180D01*
X0213987Y0107479D02*
X0215688Y0107479D01*
X0218819Y0106418D02*
X0218819Y0104489D01*
X0220583Y0104489D02*
X0220583Y0106418D01*
X0213987Y0103380D02*
X0213562Y0102954D01*
X0213562Y0102104D01*
X0213987Y0101679D01*
X0226465Y0104446D02*
X0229866Y0104446D01*
X0229866Y0107249D02*
X0226465Y0107249D01*
X0226465Y0109957D02*
X0229866Y0109957D01*
X0229866Y0112760D02*
X0226465Y0112760D01*
X0226465Y0115469D02*
X0229866Y0115469D01*
X0229866Y0118272D02*
X0226465Y0118272D01*
X0234430Y0117892D02*
X0234430Y0115340D01*
X0234430Y0116191D02*
X0235706Y0116191D01*
X0236131Y0116616D01*
X0236131Y0117466D01*
X0235706Y0117892D01*
X0234430Y0117892D01*
X0235281Y0116191D02*
X0236131Y0115340D01*
X0237330Y0115340D02*
X0239031Y0115340D01*
X0238181Y0115340D02*
X0238181Y0117892D01*
X0237330Y0117041D01*
X0240230Y0116616D02*
X0241931Y0116616D01*
X0241506Y0115340D02*
X0241506Y0117892D01*
X0240230Y0116616D01*
X0240695Y0112301D02*
X0240270Y0111876D01*
X0240695Y0112301D02*
X0241546Y0112301D01*
X0241971Y0111876D01*
X0241971Y0111451D01*
X0240270Y0109749D01*
X0241971Y0109749D01*
X0241081Y0107065D02*
X0241081Y0104513D01*
X0241931Y0104513D02*
X0240230Y0104513D01*
X0239031Y0104513D02*
X0237330Y0104513D01*
X0238181Y0104513D02*
X0238181Y0107065D01*
X0237330Y0106214D01*
X0236131Y0105789D02*
X0235706Y0105364D01*
X0234430Y0105364D01*
X0235281Y0105364D02*
X0236131Y0104513D01*
X0236131Y0105789D02*
X0236131Y0106640D01*
X0235706Y0107065D01*
X0234430Y0107065D01*
X0234430Y0104513D01*
X0234174Y0100628D02*
X0235450Y0100628D01*
X0235875Y0100203D01*
X0235875Y0098502D01*
X0235450Y0098076D01*
X0234174Y0098076D01*
X0234174Y0100628D01*
X0237074Y0099777D02*
X0237925Y0100628D01*
X0237925Y0098076D01*
X0238775Y0098076D02*
X0237074Y0098076D01*
X0239974Y0098076D02*
X0241675Y0099777D01*
X0241675Y0100203D01*
X0241250Y0100628D01*
X0240400Y0100628D01*
X0239974Y0100203D01*
X0239974Y0098076D02*
X0241675Y0098076D01*
X0241211Y0095510D02*
X0240361Y0095510D01*
X0239935Y0095085D01*
X0240786Y0094234D02*
X0241211Y0094234D01*
X0241636Y0093809D01*
X0241636Y0093383D01*
X0241211Y0092958D01*
X0240361Y0092958D01*
X0239935Y0093383D01*
X0238736Y0092958D02*
X0237035Y0092958D01*
X0237886Y0092958D02*
X0237886Y0095510D01*
X0237035Y0094659D01*
X0235836Y0095085D02*
X0235836Y0093383D01*
X0235411Y0092958D01*
X0234135Y0092958D01*
X0234135Y0095510D01*
X0235411Y0095510D01*
X0235836Y0095085D01*
X0235549Y0090451D02*
X0235974Y0090026D01*
X0235974Y0089175D01*
X0235549Y0088750D01*
X0234273Y0088750D01*
X0235123Y0088750D02*
X0235974Y0087899D01*
X0237173Y0087899D02*
X0238874Y0089600D01*
X0238874Y0090026D01*
X0238449Y0090451D01*
X0237598Y0090451D01*
X0237173Y0090026D01*
X0235549Y0090451D02*
X0234273Y0090451D01*
X0234273Y0087899D01*
X0237173Y0087899D02*
X0238874Y0087899D01*
X0240073Y0088324D02*
X0241774Y0090026D01*
X0241774Y0088324D01*
X0241349Y0087899D01*
X0240498Y0087899D01*
X0240073Y0088324D01*
X0240073Y0090026D01*
X0240498Y0090451D01*
X0241349Y0090451D01*
X0241774Y0090026D01*
X0241211Y0094234D02*
X0241636Y0094659D01*
X0241636Y0095085D01*
X0241211Y0095510D01*
X0229866Y0090713D02*
X0226465Y0090713D01*
X0226465Y0087910D02*
X0229866Y0087910D01*
X0240230Y0106214D02*
X0241081Y0107065D01*
X0239071Y0109749D02*
X0237370Y0109749D01*
X0238220Y0109749D02*
X0238220Y0112301D01*
X0237370Y0111451D01*
X0236171Y0111876D02*
X0236171Y0111025D01*
X0235746Y0110600D01*
X0234470Y0110600D01*
X0235320Y0110600D02*
X0236171Y0109749D01*
X0234470Y0109749D02*
X0234470Y0112301D01*
X0235746Y0112301D01*
X0236171Y0111876D01*
X0236889Y0137105D02*
X0235188Y0137105D01*
X0234762Y0137531D01*
X0234762Y0138381D01*
X0235188Y0138806D01*
X0236889Y0137105D01*
X0237314Y0137531D01*
X0237314Y0138381D01*
X0236889Y0138806D01*
X0235188Y0138806D01*
X0238109Y0137956D02*
X0240661Y0137956D01*
X0240661Y0138806D02*
X0240661Y0137105D01*
X0238959Y0137105D02*
X0238109Y0137956D01*
X0232197Y0137953D02*
X0232197Y0139883D01*
X0230433Y0139883D02*
X0230433Y0137953D01*
X0230616Y0144474D02*
X0231467Y0144474D01*
X0231892Y0144899D01*
X0231892Y0146600D01*
X0231467Y0147026D01*
X0230616Y0147026D01*
X0230191Y0146600D01*
X0230191Y0146175D01*
X0230616Y0145750D01*
X0231892Y0145750D01*
X0230616Y0144474D02*
X0230191Y0144899D01*
X0228992Y0145750D02*
X0227291Y0145750D01*
X0228567Y0147026D01*
X0228567Y0144474D01*
X0226092Y0144899D02*
X0225666Y0144474D01*
X0224816Y0144474D01*
X0224391Y0144899D01*
X0224391Y0146600D01*
X0224816Y0147026D01*
X0225666Y0147026D01*
X0226092Y0146600D01*
X0194484Y0129896D02*
X0194059Y0129470D01*
X0178558Y0106776D02*
X0178558Y0105075D01*
X0177282Y0106351D01*
X0179834Y0106351D01*
X0179409Y0103876D02*
X0179834Y0103451D01*
X0179834Y0102600D01*
X0179409Y0102175D01*
X0177707Y0102175D01*
X0177282Y0102600D01*
X0177282Y0103451D01*
X0177707Y0103876D01*
X0177282Y0101092D02*
X0177282Y0100242D01*
X0177282Y0100667D02*
X0179834Y0100667D01*
X0179834Y0100242D02*
X0179834Y0101092D01*
X0109451Y0101262D02*
X0107750Y0101262D01*
X0109026Y0102537D01*
X0109026Y0099986D01*
X0106551Y0099986D02*
X0104850Y0099986D01*
X0105700Y0099986D02*
X0105700Y0102537D01*
X0104850Y0101687D01*
X0103651Y0102112D02*
X0103225Y0102537D01*
X0102375Y0102537D01*
X0101950Y0102112D01*
X0101950Y0100411D01*
X0102375Y0099986D01*
X0103225Y0099986D01*
X0103651Y0100411D01*
X0095665Y0100241D02*
X0093736Y0100241D01*
X0093736Y0102005D02*
X0095665Y0102005D01*
X0085094Y0107301D02*
X0085094Y0107726D01*
X0084669Y0108151D01*
X0083393Y0108151D01*
X0083393Y0107301D01*
X0083818Y0106875D01*
X0084669Y0106875D01*
X0085094Y0107301D01*
X0084244Y0109002D02*
X0083393Y0108151D01*
X0082194Y0108151D02*
X0082194Y0109002D01*
X0081769Y0109427D01*
X0080493Y0109427D01*
X0080493Y0106875D01*
X0080493Y0107726D02*
X0081769Y0107726D01*
X0082194Y0108151D01*
X0081344Y0107726D02*
X0082194Y0106875D01*
X0084244Y0109002D02*
X0085094Y0109427D01*
X0076177Y0110075D02*
X0074248Y0110075D01*
X0074248Y0108312D02*
X0076177Y0108312D01*
X0076177Y0104564D02*
X0074248Y0104564D01*
X0074248Y0102800D02*
X0076177Y0102800D01*
X0068940Y0102758D02*
X0068940Y0101907D01*
X0068514Y0101482D01*
X0067664Y0101482D01*
X0067238Y0101907D01*
X0067238Y0102758D02*
X0068089Y0103183D01*
X0068514Y0103183D01*
X0068940Y0102758D01*
X0068940Y0104034D02*
X0067238Y0104034D01*
X0067238Y0102758D01*
X0066040Y0102758D02*
X0065614Y0102332D01*
X0064338Y0102332D01*
X0064338Y0101482D02*
X0064338Y0104034D01*
X0065614Y0104034D01*
X0066040Y0103608D01*
X0066040Y0102758D01*
X0065189Y0102332D02*
X0066040Y0101482D01*
X0061074Y0102734D02*
X0061074Y0103585D01*
X0060649Y0104010D01*
X0061074Y0105209D02*
X0061074Y0106910D01*
X0061074Y0106060D02*
X0058522Y0106060D01*
X0059373Y0105209D01*
X0058948Y0104010D02*
X0058522Y0103585D01*
X0058522Y0102734D01*
X0058948Y0102309D01*
X0060649Y0102309D01*
X0061074Y0102734D01*
X0060649Y0108109D02*
X0061074Y0108534D01*
X0061074Y0109385D01*
X0060649Y0109810D01*
X0058948Y0109810D01*
X0058522Y0109385D01*
X0058522Y0108534D01*
X0058948Y0108109D01*
X0059373Y0108109D01*
X0059798Y0108534D01*
X0059798Y0109810D01*
X0060543Y0115119D02*
X0060543Y0117048D01*
X0058780Y0117048D02*
X0058780Y0115119D01*
X0050606Y0115197D02*
X0050606Y0117520D01*
X0050606Y0120158D02*
X0050606Y0120571D01*
X0050606Y0102068D01*
X0050606Y0102560D01*
X0050606Y0102107D02*
X0050604Y0102045D01*
X0050598Y0101984D01*
X0050589Y0101923D01*
X0050575Y0101862D01*
X0050558Y0101803D01*
X0050537Y0101745D01*
X0050512Y0101688D01*
X0050484Y0101633D01*
X0050453Y0101580D01*
X0050418Y0101529D01*
X0050380Y0101480D01*
X0050339Y0101433D01*
X0050296Y0101390D01*
X0050249Y0101349D01*
X0050200Y0101311D01*
X0050149Y0101276D01*
X0050096Y0101245D01*
X0050041Y0101217D01*
X0049984Y0101192D01*
X0049926Y0101171D01*
X0049867Y0101154D01*
X0049806Y0101140D01*
X0049745Y0101131D01*
X0049684Y0101125D01*
X0049622Y0101123D01*
X0031906Y0101123D01*
X0031844Y0101125D01*
X0031783Y0101131D01*
X0031722Y0101140D01*
X0031661Y0101154D01*
X0031602Y0101171D01*
X0031544Y0101192D01*
X0031487Y0101217D01*
X0031432Y0101245D01*
X0031379Y0101276D01*
X0031328Y0101311D01*
X0031279Y0101349D01*
X0031232Y0101390D01*
X0031189Y0101433D01*
X0031148Y0101480D01*
X0031110Y0101529D01*
X0031075Y0101580D01*
X0031044Y0101633D01*
X0031016Y0101688D01*
X0030991Y0101745D01*
X0030970Y0101803D01*
X0030953Y0101862D01*
X0030939Y0101923D01*
X0030930Y0101984D01*
X0030924Y0102045D01*
X0030922Y0102107D01*
X0030921Y0102068D02*
X0030921Y0120571D01*
X0030921Y0120158D01*
X0030922Y0120611D02*
X0030924Y0120673D01*
X0030930Y0120734D01*
X0030939Y0120795D01*
X0030953Y0120856D01*
X0030970Y0120915D01*
X0030991Y0120973D01*
X0031016Y0121030D01*
X0031044Y0121085D01*
X0031075Y0121138D01*
X0031110Y0121189D01*
X0031148Y0121238D01*
X0031189Y0121285D01*
X0031232Y0121328D01*
X0031279Y0121369D01*
X0031328Y0121407D01*
X0031379Y0121442D01*
X0031432Y0121473D01*
X0031487Y0121501D01*
X0031544Y0121526D01*
X0031602Y0121547D01*
X0031661Y0121564D01*
X0031722Y0121578D01*
X0031783Y0121587D01*
X0031844Y0121593D01*
X0031906Y0121595D01*
X0031945Y0121595D02*
X0049622Y0121595D01*
X0049684Y0121593D01*
X0049745Y0121587D01*
X0049806Y0121578D01*
X0049867Y0121564D01*
X0049926Y0121547D01*
X0049984Y0121526D01*
X0050041Y0121501D01*
X0050096Y0121473D01*
X0050149Y0121442D01*
X0050200Y0121407D01*
X0050249Y0121369D01*
X0050296Y0121328D01*
X0050339Y0121285D01*
X0050380Y0121238D01*
X0050418Y0121189D01*
X0050453Y0121138D01*
X0050484Y0121085D01*
X0050512Y0121030D01*
X0050537Y0120973D01*
X0050558Y0120915D01*
X0050575Y0120856D01*
X0050589Y0120795D01*
X0050598Y0120734D01*
X0050604Y0120673D01*
X0050606Y0120611D01*
X0052713Y0124194D02*
X0050213Y0126694D01*
X0047713Y0124194D01*
X0042713Y0124194D01*
X0040213Y0126694D01*
X0037713Y0124194D01*
X0032713Y0124194D01*
X0030213Y0126694D01*
X0030213Y0141694D01*
X0032713Y0144194D01*
X0037713Y0144194D01*
X0040213Y0141694D01*
X0042713Y0144194D01*
X0047713Y0144194D01*
X0050213Y0141694D01*
X0052713Y0144194D01*
X0057713Y0144194D01*
X0060213Y0141694D01*
X0062713Y0144194D01*
X0067713Y0144194D01*
X0070213Y0141694D01*
X0070213Y0126694D01*
X0067713Y0124194D01*
X0062713Y0124194D01*
X0060213Y0126694D01*
X0057713Y0124194D01*
X0052713Y0124194D01*
X0050606Y0112520D02*
X0050606Y0110197D01*
X0050606Y0107520D02*
X0050606Y0105197D01*
X0030921Y0105197D02*
X0030921Y0107560D01*
X0030921Y0110197D02*
X0030921Y0112560D01*
X0030921Y0115197D02*
X0030921Y0117520D01*
X0023989Y0116679D02*
X0023989Y0115829D01*
X0023564Y0115403D01*
X0021863Y0115403D01*
X0021438Y0115829D01*
X0021438Y0116679D01*
X0021863Y0117105D01*
X0021863Y0118303D02*
X0021438Y0118729D01*
X0021438Y0119579D01*
X0021863Y0120005D01*
X0022288Y0120005D01*
X0022713Y0119579D01*
X0023139Y0120005D01*
X0023564Y0120005D01*
X0023989Y0119579D01*
X0023989Y0118729D01*
X0023564Y0118303D01*
X0023564Y0117105D02*
X0023989Y0116679D01*
X0022713Y0119154D02*
X0022713Y0119579D01*
X0017319Y0117753D02*
X0015390Y0117753D01*
X0015390Y0115989D02*
X0017319Y0115989D01*
X0018055Y0111973D02*
X0014654Y0111973D01*
X0014654Y0109170D02*
X0018055Y0109170D01*
X0017319Y0105154D02*
X0015390Y0105154D01*
X0015390Y0103390D02*
X0017319Y0103390D01*
X0014480Y0097721D02*
X0014480Y0096020D01*
X0012778Y0097721D01*
X0012353Y0097721D01*
X0011928Y0097296D01*
X0011928Y0096445D01*
X0012353Y0096020D01*
X0012353Y0094821D02*
X0011928Y0094396D01*
X0011928Y0093545D01*
X0012353Y0093120D01*
X0014054Y0093120D01*
X0014480Y0093545D01*
X0014480Y0094396D01*
X0014054Y0094821D01*
X0014480Y0092037D02*
X0014480Y0091186D01*
X0014480Y0091612D02*
X0011928Y0091612D01*
X0011928Y0092037D02*
X0011928Y0091186D01*
X0011535Y0086339D02*
X0011535Y0084410D01*
X0013299Y0084410D02*
X0013299Y0086339D01*
X0013341Y0079889D02*
X0013341Y0078188D01*
X0012066Y0079464D01*
X0014617Y0079464D01*
X0014617Y0076989D02*
X0013767Y0076138D01*
X0013767Y0076564D02*
X0013767Y0075288D01*
X0014617Y0075288D02*
X0012066Y0075288D01*
X0012066Y0076564D01*
X0012491Y0076989D01*
X0013341Y0076989D01*
X0013767Y0076564D01*
X0013299Y0063898D02*
X0013299Y0061969D01*
X0011535Y0061969D02*
X0011535Y0063898D01*
X0012066Y0056661D02*
X0012491Y0056661D01*
X0014192Y0054960D01*
X0014617Y0054960D01*
X0014617Y0053761D02*
X0014617Y0052059D01*
X0012916Y0053761D01*
X0012491Y0053761D01*
X0012066Y0053335D01*
X0012066Y0052485D01*
X0012491Y0052059D01*
X0012491Y0050861D02*
X0012066Y0050435D01*
X0012066Y0049585D01*
X0012491Y0049159D01*
X0014192Y0049159D01*
X0014617Y0049585D01*
X0014617Y0050435D01*
X0014192Y0050861D01*
X0012066Y0054960D02*
X0012066Y0056661D01*
X0028559Y0024351D02*
X0036433Y0024351D01*
X0036433Y0018839D01*
X0028559Y0018839D01*
X0028559Y0024351D01*
X0032102Y0023170D02*
X0034465Y0021595D01*
X0032102Y0020020D01*
X0032102Y0023170D01*
X0040775Y0022872D02*
X0040775Y0020320D01*
X0042051Y0020320D01*
X0042477Y0020746D01*
X0042477Y0022447D01*
X0042051Y0022872D01*
X0040775Y0022872D01*
X0043675Y0022021D02*
X0044526Y0022872D01*
X0044526Y0020320D01*
X0043675Y0020320D02*
X0045377Y0020320D01*
X0075845Y0025569D02*
X0076270Y0025144D01*
X0077972Y0025144D01*
X0078397Y0025569D01*
X0078397Y0026419D01*
X0077972Y0026845D01*
X0078397Y0028044D02*
X0078397Y0029745D01*
X0078397Y0028894D02*
X0075845Y0028894D01*
X0076696Y0028044D01*
X0076270Y0026845D02*
X0075845Y0026419D01*
X0075845Y0025569D01*
X0081614Y0027717D02*
X0081614Y0029646D01*
X0083378Y0029646D02*
X0083378Y0027717D01*
X0087126Y0027717D02*
X0087126Y0029646D01*
X0088890Y0029646D02*
X0088890Y0027717D01*
X0091593Y0027432D02*
X0091593Y0028283D01*
X0092018Y0028708D01*
X0092444Y0028708D01*
X0092869Y0028283D01*
X0093294Y0028708D01*
X0093720Y0028708D01*
X0094145Y0028283D01*
X0094145Y0027432D01*
X0093720Y0027007D01*
X0093720Y0025808D02*
X0094145Y0025383D01*
X0094145Y0024532D01*
X0093720Y0024107D01*
X0092018Y0024107D01*
X0091593Y0024532D01*
X0091593Y0025383D01*
X0092018Y0025808D01*
X0092018Y0027007D02*
X0091593Y0027432D01*
X0092869Y0027857D02*
X0092869Y0028283D01*
X0078397Y0031369D02*
X0078397Y0032220D01*
X0077972Y0032645D01*
X0077546Y0032645D01*
X0077121Y0032220D01*
X0077121Y0030944D01*
X0077972Y0030944D01*
X0078397Y0031369D01*
X0077121Y0030944D02*
X0076270Y0031794D01*
X0075845Y0032645D01*
X0070019Y0047742D02*
X0070444Y0048167D01*
X0070444Y0049017D01*
X0070019Y0049443D01*
X0070444Y0050642D02*
X0068743Y0052343D01*
X0068318Y0052343D01*
X0067892Y0051918D01*
X0067892Y0051067D01*
X0068318Y0050642D01*
X0068318Y0049443D02*
X0067892Y0049017D01*
X0067892Y0048167D01*
X0068318Y0047742D01*
X0070019Y0047742D01*
X0072695Y0049978D02*
X0073121Y0049553D01*
X0074822Y0049553D01*
X0075247Y0049978D01*
X0075247Y0050829D01*
X0074822Y0051254D01*
X0075247Y0052453D02*
X0075247Y0054154D01*
X0075247Y0053304D02*
X0072695Y0053304D01*
X0073546Y0052453D01*
X0073121Y0051254D02*
X0072695Y0050829D01*
X0072695Y0049978D01*
X0070444Y0050642D02*
X0070444Y0052343D01*
X0070019Y0053542D02*
X0070444Y0053967D01*
X0070444Y0054818D01*
X0070019Y0055243D01*
X0069594Y0055243D01*
X0069168Y0054818D01*
X0069168Y0053542D01*
X0070019Y0053542D01*
X0069168Y0053542D02*
X0068318Y0054392D01*
X0067892Y0055243D01*
X0072695Y0055779D02*
X0072695Y0056629D01*
X0073121Y0057054D01*
X0073546Y0057054D01*
X0073971Y0056629D01*
X0074397Y0057054D01*
X0074822Y0057054D01*
X0075247Y0056629D01*
X0075247Y0055779D01*
X0074822Y0055353D01*
X0073971Y0056204D02*
X0073971Y0056629D01*
X0073121Y0055353D02*
X0072695Y0055779D01*
X0077677Y0054056D02*
X0077677Y0052127D01*
X0079441Y0052127D02*
X0079441Y0054056D01*
X0074822Y0060327D02*
X0075247Y0060752D01*
X0075247Y0061603D01*
X0074822Y0062028D01*
X0075247Y0063227D02*
X0073546Y0064928D01*
X0073121Y0064928D01*
X0072695Y0064503D01*
X0072695Y0063653D01*
X0073121Y0063227D01*
X0073121Y0062028D02*
X0072695Y0061603D01*
X0072695Y0060752D01*
X0073121Y0060327D01*
X0074822Y0060327D01*
X0075247Y0063227D02*
X0075247Y0064928D01*
X0077677Y0065079D02*
X0077677Y0063150D01*
X0079441Y0063150D02*
X0079441Y0065079D01*
X0069402Y0062717D02*
X0069402Y0060788D01*
X0067638Y0060788D02*
X0067638Y0062717D01*
X0072845Y0072938D02*
X0072420Y0073364D01*
X0072420Y0074214D01*
X0072845Y0074640D01*
X0073270Y0075839D02*
X0072420Y0076689D01*
X0074972Y0076689D01*
X0074972Y0075839D02*
X0074972Y0077540D01*
X0074972Y0078739D02*
X0073270Y0080440D01*
X0072845Y0080440D01*
X0072420Y0080015D01*
X0072420Y0079164D01*
X0072845Y0078739D01*
X0074972Y0078739D02*
X0074972Y0080440D01*
X0077677Y0077678D02*
X0077677Y0075749D01*
X0079441Y0075749D02*
X0079441Y0077678D01*
X0074972Y0074214D02*
X0074546Y0074640D01*
X0074972Y0074214D02*
X0074972Y0073364D01*
X0074546Y0072938D01*
X0072845Y0072938D01*
X0030921Y0102186D02*
X0030921Y0102599D01*
X0023989Y0113470D02*
X0023989Y0114321D01*
X0023989Y0113895D02*
X0021438Y0113895D01*
X0021438Y0113470D02*
X0021438Y0114321D01*
X0009893Y0114658D02*
X0007341Y0114658D01*
X0007341Y0115934D01*
X0007766Y0116359D01*
X0008617Y0116359D01*
X0009042Y0115934D01*
X0009042Y0114658D01*
X0009042Y0115508D02*
X0009893Y0116359D01*
X0009468Y0117558D02*
X0009893Y0117983D01*
X0009893Y0118834D01*
X0009468Y0119259D01*
X0009042Y0119259D01*
X0008617Y0118834D01*
X0008617Y0118409D01*
X0008617Y0118834D02*
X0008192Y0119259D01*
X0007766Y0119259D01*
X0007341Y0118834D01*
X0007341Y0117983D01*
X0007766Y0117558D01*
X0007916Y0112973D02*
X0007491Y0112973D01*
X0007066Y0112547D01*
X0007066Y0111697D01*
X0007491Y0111272D01*
X0007491Y0110073D02*
X0008341Y0110073D01*
X0008767Y0109647D01*
X0008767Y0108371D01*
X0009617Y0108371D02*
X0007066Y0108371D01*
X0007066Y0109647D01*
X0007491Y0110073D01*
X0008767Y0109222D02*
X0009617Y0110073D01*
X0009617Y0111272D02*
X0007916Y0112973D01*
X0009617Y0112973D02*
X0009617Y0111272D01*
X0009893Y0105873D02*
X0009893Y0104172D01*
X0009893Y0105023D02*
X0007341Y0105023D01*
X0008192Y0104172D01*
X0008617Y0102973D02*
X0009042Y0102548D01*
X0009042Y0101272D01*
X0009042Y0102123D02*
X0009893Y0102973D01*
X0008617Y0102973D02*
X0007766Y0102973D01*
X0007341Y0102548D01*
X0007341Y0101272D01*
X0009893Y0101272D01*
X0015390Y0123075D02*
X0017319Y0123075D01*
X0017319Y0124839D02*
X0015390Y0124839D01*
X0015068Y0126757D02*
X0014218Y0127608D01*
X0014643Y0127608D02*
X0013367Y0127608D01*
X0013367Y0126757D02*
X0013367Y0129309D01*
X0014643Y0129309D01*
X0015068Y0128884D01*
X0015068Y0128033D01*
X0014643Y0127608D01*
X0016267Y0127183D02*
X0016267Y0126757D01*
X0016267Y0127183D02*
X0017968Y0128884D01*
X0017968Y0129309D01*
X0016267Y0129309D01*
X0020940Y0129034D02*
X0020940Y0126482D01*
X0022641Y0126482D01*
X0023840Y0126482D02*
X0025541Y0126482D01*
X0026740Y0126482D02*
X0028016Y0126482D01*
X0028441Y0126907D01*
X0028441Y0128608D01*
X0028016Y0129034D01*
X0026740Y0129034D01*
X0026740Y0126482D01*
X0024690Y0127758D02*
X0023840Y0127758D01*
X0023840Y0129034D02*
X0023840Y0126482D01*
X0023840Y0129034D02*
X0025541Y0129034D01*
X0026837Y0131029D02*
X0027263Y0131029D01*
X0027688Y0131454D01*
X0027688Y0132305D01*
X0028113Y0132730D01*
X0028538Y0132730D01*
X0028964Y0132305D01*
X0028964Y0131454D01*
X0028538Y0131029D01*
X0026837Y0131029D02*
X0026412Y0131454D01*
X0026412Y0132305D01*
X0026837Y0132730D01*
X0026412Y0133929D02*
X0028113Y0133929D01*
X0028964Y0134780D01*
X0028113Y0135630D01*
X0026412Y0135630D01*
X0027263Y0136829D02*
X0026412Y0137680D01*
X0028964Y0137680D01*
X0028964Y0138530D02*
X0028964Y0136829D01*
X0030491Y0129034D02*
X0030491Y0126482D01*
X0031341Y0126482D02*
X0029640Y0126482D01*
X0029640Y0128183D02*
X0030491Y0129034D01*
X0146542Y0037044D02*
X0147410Y0037912D01*
X0147410Y0035309D01*
X0148277Y0035309D02*
X0146542Y0035309D01*
X0139565Y0030037D02*
X0139565Y0027486D01*
X0138715Y0027486D02*
X0140416Y0027486D01*
X0138715Y0029187D02*
X0139565Y0030037D01*
X0137516Y0029612D02*
X0137091Y0030037D01*
X0136240Y0030037D01*
X0135815Y0029612D01*
X0135815Y0027911D01*
X0136240Y0027486D01*
X0137091Y0027486D01*
X0137516Y0027911D01*
X0134732Y0027486D02*
X0133881Y0027486D01*
X0134307Y0027486D02*
X0134307Y0030037D01*
X0134732Y0030037D02*
X0133881Y0030037D01*
X0129940Y0025558D02*
X0129515Y0025558D01*
X0129089Y0025133D01*
X0129089Y0023857D01*
X0129940Y0023857D01*
X0130365Y0024283D01*
X0130365Y0025133D01*
X0129940Y0025558D01*
X0128239Y0024708D02*
X0129089Y0023857D01*
X0128239Y0024708D02*
X0127814Y0025558D01*
X0125110Y0024922D02*
X0125110Y0022993D01*
X0123346Y0022993D02*
X0123346Y0024922D01*
X0127814Y0022233D02*
X0127814Y0021382D01*
X0128239Y0020957D01*
X0129940Y0020957D01*
X0130365Y0021382D01*
X0130365Y0022233D01*
X0129940Y0022658D01*
X0128239Y0022658D02*
X0127814Y0022233D01*
X0117660Y0023111D02*
X0116296Y0024476D01*
X0115049Y0023228D02*
X0116413Y0021864D01*
X0114750Y0021319D02*
X0113547Y0022522D01*
X0112645Y0021620D01*
X0113547Y0021319D01*
X0113848Y0021018D01*
X0113848Y0020417D01*
X0113246Y0019816D01*
X0112645Y0019816D01*
X0112043Y0020417D01*
X0112043Y0021018D01*
X0111196Y0021866D02*
X0110594Y0021866D01*
X0109993Y0022468D01*
X0109993Y0023069D01*
X0111196Y0024272D01*
X0111797Y0024272D01*
X0112399Y0023671D01*
X0112399Y0023069D01*
D12*
X0114665Y0019375D02*
X0115499Y0019375D01*
X0115499Y0014371D01*
X0114665Y0014371D02*
X0116333Y0014371D01*
X0118532Y0015205D02*
X0118532Y0016873D01*
X0119366Y0017707D01*
X0121034Y0017707D01*
X0121868Y0016873D01*
X0121868Y0015205D01*
X0121034Y0014371D01*
X0119366Y0014371D01*
X0118532Y0015205D01*
X0124332Y0015205D02*
X0125166Y0014371D01*
X0127668Y0014371D01*
X0127668Y0013537D02*
X0127668Y0017707D01*
X0125166Y0017707D01*
X0124332Y0016873D01*
X0124332Y0015205D01*
X0126000Y0012703D02*
X0126834Y0012703D01*
X0127668Y0013537D01*
X0130132Y0014371D02*
X0131800Y0014371D01*
X0130966Y0014371D02*
X0130966Y0017707D01*
X0130132Y0017707D01*
X0130966Y0019375D02*
X0130966Y0020209D01*
X0133999Y0016873D02*
X0134833Y0017707D01*
X0136501Y0017707D01*
X0137335Y0016873D01*
X0137335Y0016039D01*
X0133999Y0016039D01*
X0133999Y0015205D02*
X0133999Y0016873D01*
X0133999Y0015205D02*
X0134833Y0014371D01*
X0136501Y0014371D01*
X0139799Y0014371D02*
X0142301Y0014371D01*
X0143135Y0015205D01*
X0142301Y0016039D01*
X0140633Y0016039D01*
X0139799Y0016873D01*
X0140633Y0017707D01*
X0143135Y0017707D01*
X0112200Y0016873D02*
X0112200Y0015205D01*
X0111367Y0014371D01*
X0109699Y0014371D01*
X0108865Y0015205D01*
X0108865Y0016873D01*
X0109699Y0017707D01*
X0111367Y0017707D01*
X0112200Y0016873D01*
X0106400Y0016873D02*
X0106400Y0014371D01*
X0106400Y0016873D02*
X0105566Y0017707D01*
X0103065Y0017707D01*
X0103065Y0014371D01*
X0100600Y0014371D02*
X0100600Y0016873D01*
X0099766Y0017707D01*
X0098098Y0017707D01*
X0097264Y0016873D01*
X0097264Y0019375D02*
X0097264Y0014371D01*
X0094800Y0014371D02*
X0092298Y0014371D01*
X0091464Y0015205D01*
X0091464Y0016873D01*
X0092298Y0017707D01*
X0094800Y0017707D01*
X0089000Y0016873D02*
X0089000Y0016039D01*
X0085664Y0016039D01*
X0085664Y0016873D02*
X0086498Y0017707D01*
X0088166Y0017707D01*
X0089000Y0016873D01*
X0088166Y0014371D02*
X0086498Y0014371D01*
X0085664Y0015205D01*
X0085664Y0016873D01*
X0083199Y0019375D02*
X0079864Y0019375D01*
X0081532Y0019375D02*
X0081532Y0014371D01*
X0071599Y0014371D02*
X0071599Y0017707D01*
X0069931Y0019375D01*
X0068263Y0017707D01*
X0068263Y0014371D01*
X0068263Y0016873D02*
X0071599Y0016873D01*
X0065799Y0015205D02*
X0065799Y0018541D01*
X0064965Y0019375D01*
X0062463Y0019375D01*
X0062463Y0014371D01*
X0064965Y0014371D01*
X0065799Y0015205D01*
X0059998Y0014371D02*
X0059998Y0019375D01*
X0056663Y0019375D02*
X0059998Y0014371D01*
X0056663Y0014371D02*
X0056663Y0019375D01*
X0054198Y0019375D02*
X0054198Y0015205D01*
X0053364Y0014371D01*
X0051697Y0014371D01*
X0050863Y0015205D01*
X0050863Y0019375D01*
D13*
X0042081Y0029444D02*
X0046300Y0033664D01*
X0042081Y0037884D01*
X0033642Y0037884D01*
X0033642Y0043945D02*
X0033642Y0050274D01*
X0035751Y0052384D01*
X0044191Y0052384D01*
X0046300Y0050274D01*
X0046300Y0043945D01*
X0033642Y0043945D01*
X0048410Y0058445D02*
X0048410Y0066885D01*
X0046300Y0072946D02*
X0033642Y0072946D01*
X0033642Y0079275D01*
X0035751Y0081385D01*
X0039971Y0081385D01*
X0042081Y0079275D01*
X0042081Y0072946D01*
X0042081Y0077166D02*
X0046300Y0081385D01*
X0046300Y0087447D02*
X0046300Y0093776D01*
X0044191Y0095886D01*
X0035751Y0095886D01*
X0033642Y0093776D01*
X0033642Y0087447D01*
X0046300Y0087447D01*
X0042081Y0029444D02*
X0033642Y0029444D01*
D14*
X0088165Y0038209D02*
X0090134Y0036241D01*
X0141315Y0036241D01*
X0143283Y0038209D01*
X0143283Y0089390D01*
X0141315Y0091359D01*
X0090134Y0091359D01*
X0088165Y0089390D01*
X0088165Y0038209D01*
X0134594Y0042146D02*
X0134596Y0042251D01*
X0134602Y0042357D01*
X0134612Y0042461D01*
X0134626Y0042566D01*
X0134644Y0042670D01*
X0134665Y0042773D01*
X0134691Y0042875D01*
X0134721Y0042976D01*
X0134754Y0043076D01*
X0134791Y0043175D01*
X0134832Y0043272D01*
X0134876Y0043367D01*
X0134924Y0043461D01*
X0134976Y0043553D01*
X0135031Y0043643D01*
X0135089Y0043731D01*
X0135151Y0043816D01*
X0135216Y0043899D01*
X0135283Y0043980D01*
X0135354Y0044058D01*
X0135428Y0044133D01*
X0135505Y0044205D01*
X0135584Y0044275D01*
X0135666Y0044341D01*
X0135750Y0044404D01*
X0135837Y0044464D01*
X0135926Y0044521D01*
X0136017Y0044574D01*
X0136109Y0044624D01*
X0136204Y0044670D01*
X0136300Y0044713D01*
X0136398Y0044752D01*
X0136498Y0044787D01*
X0136598Y0044819D01*
X0136700Y0044846D01*
X0136803Y0044870D01*
X0136906Y0044890D01*
X0137010Y0044906D01*
X0137115Y0044918D01*
X0137220Y0044926D01*
X0137325Y0044930D01*
X0137431Y0044930D01*
X0137536Y0044926D01*
X0137641Y0044918D01*
X0137746Y0044906D01*
X0137850Y0044890D01*
X0137953Y0044870D01*
X0138056Y0044846D01*
X0138158Y0044819D01*
X0138258Y0044787D01*
X0138358Y0044752D01*
X0138456Y0044713D01*
X0138552Y0044670D01*
X0138647Y0044624D01*
X0138739Y0044574D01*
X0138830Y0044521D01*
X0138919Y0044464D01*
X0139006Y0044404D01*
X0139090Y0044341D01*
X0139172Y0044275D01*
X0139251Y0044205D01*
X0139328Y0044133D01*
X0139402Y0044058D01*
X0139473Y0043980D01*
X0139540Y0043899D01*
X0139605Y0043816D01*
X0139667Y0043731D01*
X0139725Y0043643D01*
X0139780Y0043553D01*
X0139832Y0043461D01*
X0139880Y0043367D01*
X0139924Y0043272D01*
X0139965Y0043175D01*
X0140002Y0043076D01*
X0140035Y0042976D01*
X0140065Y0042875D01*
X0140091Y0042773D01*
X0140112Y0042670D01*
X0140130Y0042566D01*
X0140144Y0042461D01*
X0140154Y0042357D01*
X0140160Y0042251D01*
X0140162Y0042146D01*
X0140160Y0042041D01*
X0140154Y0041935D01*
X0140144Y0041831D01*
X0140130Y0041726D01*
X0140112Y0041622D01*
X0140091Y0041519D01*
X0140065Y0041417D01*
X0140035Y0041316D01*
X0140002Y0041216D01*
X0139965Y0041117D01*
X0139924Y0041020D01*
X0139880Y0040925D01*
X0139832Y0040831D01*
X0139780Y0040739D01*
X0139725Y0040649D01*
X0139667Y0040561D01*
X0139605Y0040476D01*
X0139540Y0040393D01*
X0139473Y0040312D01*
X0139402Y0040234D01*
X0139328Y0040159D01*
X0139251Y0040087D01*
X0139172Y0040017D01*
X0139090Y0039951D01*
X0139006Y0039888D01*
X0138919Y0039828D01*
X0138830Y0039771D01*
X0138739Y0039718D01*
X0138647Y0039668D01*
X0138552Y0039622D01*
X0138456Y0039579D01*
X0138358Y0039540D01*
X0138258Y0039505D01*
X0138158Y0039473D01*
X0138056Y0039446D01*
X0137953Y0039422D01*
X0137850Y0039402D01*
X0137746Y0039386D01*
X0137641Y0039374D01*
X0137536Y0039366D01*
X0137431Y0039362D01*
X0137325Y0039362D01*
X0137220Y0039366D01*
X0137115Y0039374D01*
X0137010Y0039386D01*
X0136906Y0039402D01*
X0136803Y0039422D01*
X0136700Y0039446D01*
X0136598Y0039473D01*
X0136498Y0039505D01*
X0136398Y0039540D01*
X0136300Y0039579D01*
X0136204Y0039622D01*
X0136109Y0039668D01*
X0136017Y0039718D01*
X0135926Y0039771D01*
X0135837Y0039828D01*
X0135750Y0039888D01*
X0135666Y0039951D01*
X0135584Y0040017D01*
X0135505Y0040087D01*
X0135428Y0040159D01*
X0135354Y0040234D01*
X0135283Y0040312D01*
X0135216Y0040393D01*
X0135151Y0040476D01*
X0135089Y0040561D01*
X0135031Y0040649D01*
X0134976Y0040739D01*
X0134924Y0040831D01*
X0134876Y0040925D01*
X0134832Y0041020D01*
X0134791Y0041117D01*
X0134754Y0041216D01*
X0134721Y0041316D01*
X0134691Y0041417D01*
X0134665Y0041519D01*
X0134644Y0041622D01*
X0134626Y0041726D01*
X0134612Y0041831D01*
X0134602Y0041935D01*
X0134596Y0042041D01*
X0134594Y0042146D01*
D15*
X0145252Y0042146D03*
X0145252Y0040178D03*
X0145252Y0044115D03*
X0145252Y0046083D03*
X0145252Y0048052D03*
X0145252Y0050020D03*
X0145252Y0051989D03*
X0145252Y0053957D03*
X0145252Y0055926D03*
X0145252Y0057894D03*
X0145252Y0059863D03*
X0145252Y0061831D03*
X0145252Y0063800D03*
X0145252Y0065768D03*
X0145252Y0067737D03*
X0145252Y0069705D03*
X0145252Y0071674D03*
X0145252Y0073642D03*
X0145252Y0075611D03*
X0145252Y0077579D03*
X0145252Y0079548D03*
X0145252Y0081516D03*
X0145252Y0083485D03*
X0145252Y0085453D03*
X0145252Y0087422D03*
X0086197Y0087422D03*
X0086197Y0085453D03*
X0086197Y0083485D03*
X0086197Y0081516D03*
X0086197Y0079548D03*
X0086197Y0077579D03*
X0086197Y0075611D03*
X0086197Y0073642D03*
X0086197Y0071674D03*
X0086197Y0069705D03*
X0086197Y0067737D03*
X0086197Y0065768D03*
X0086197Y0063800D03*
X0086197Y0061831D03*
X0086197Y0059863D03*
X0086197Y0057894D03*
X0086197Y0055926D03*
X0086197Y0053957D03*
X0086197Y0051989D03*
X0086197Y0050020D03*
X0086197Y0048052D03*
X0086197Y0046083D03*
X0086197Y0044115D03*
X0086197Y0042146D03*
X0086197Y0040178D03*
D16*
X0092102Y0034272D03*
X0094071Y0034272D03*
X0096039Y0034272D03*
X0098008Y0034272D03*
X0099976Y0034272D03*
X0101945Y0034272D03*
X0103913Y0034272D03*
X0105882Y0034272D03*
X0107850Y0034272D03*
X0109819Y0034272D03*
X0111787Y0034272D03*
X0113756Y0034272D03*
X0115724Y0034272D03*
X0117693Y0034272D03*
X0119661Y0034272D03*
X0121630Y0034272D03*
X0123598Y0034272D03*
X0125567Y0034272D03*
X0127535Y0034272D03*
X0129504Y0034272D03*
X0131472Y0034272D03*
X0133441Y0034272D03*
X0135409Y0034272D03*
X0137378Y0034272D03*
X0139346Y0034272D03*
X0139346Y0093327D03*
X0137378Y0093327D03*
X0135409Y0093327D03*
X0133441Y0093327D03*
X0131472Y0093327D03*
X0129504Y0093327D03*
X0127535Y0093327D03*
X0125567Y0093327D03*
X0123598Y0093327D03*
X0121630Y0093327D03*
X0119661Y0093327D03*
X0117693Y0093327D03*
X0115724Y0093327D03*
X0113756Y0093327D03*
X0111787Y0093327D03*
X0109819Y0093327D03*
X0107850Y0093327D03*
X0105882Y0093327D03*
X0103913Y0093327D03*
X0101945Y0093327D03*
X0099976Y0093327D03*
X0098008Y0093327D03*
X0096039Y0093327D03*
X0094071Y0093327D03*
X0092102Y0093327D03*
D17*
X0090134Y0093327D02*
X0088165Y0093327D01*
X0086197Y0091359D01*
X0086197Y0089390D01*
X0141315Y0093327D02*
X0143283Y0093327D01*
X0145252Y0091359D01*
X0145252Y0089390D01*
X0145252Y0038209D02*
X0145252Y0036241D01*
X0143283Y0034272D01*
X0141315Y0034272D01*
X0145251Y0032304D02*
X0145253Y0032392D01*
X0145259Y0032480D01*
X0145269Y0032568D01*
X0145283Y0032656D01*
X0145300Y0032742D01*
X0145322Y0032828D01*
X0145347Y0032912D01*
X0145377Y0032996D01*
X0145409Y0033078D01*
X0145446Y0033158D01*
X0145486Y0033237D01*
X0145530Y0033314D01*
X0145577Y0033389D01*
X0145627Y0033461D01*
X0145681Y0033532D01*
X0145737Y0033599D01*
X0145797Y0033665D01*
X0145859Y0033727D01*
X0145925Y0033787D01*
X0145992Y0033843D01*
X0146063Y0033897D01*
X0146135Y0033947D01*
X0146210Y0033994D01*
X0146287Y0034038D01*
X0146366Y0034078D01*
X0146446Y0034115D01*
X0146528Y0034147D01*
X0146612Y0034177D01*
X0146696Y0034202D01*
X0146782Y0034224D01*
X0146868Y0034241D01*
X0146956Y0034255D01*
X0147044Y0034265D01*
X0147132Y0034271D01*
X0147220Y0034273D01*
X0147308Y0034271D01*
X0147396Y0034265D01*
X0147484Y0034255D01*
X0147572Y0034241D01*
X0147658Y0034224D01*
X0147744Y0034202D01*
X0147828Y0034177D01*
X0147912Y0034147D01*
X0147994Y0034115D01*
X0148074Y0034078D01*
X0148153Y0034038D01*
X0148230Y0033994D01*
X0148305Y0033947D01*
X0148377Y0033897D01*
X0148448Y0033843D01*
X0148515Y0033787D01*
X0148581Y0033727D01*
X0148643Y0033665D01*
X0148703Y0033599D01*
X0148759Y0033532D01*
X0148813Y0033461D01*
X0148863Y0033389D01*
X0148910Y0033314D01*
X0148954Y0033237D01*
X0148994Y0033158D01*
X0149031Y0033078D01*
X0149063Y0032996D01*
X0149093Y0032912D01*
X0149118Y0032828D01*
X0149140Y0032742D01*
X0149157Y0032656D01*
X0149171Y0032568D01*
X0149181Y0032480D01*
X0149187Y0032392D01*
X0149189Y0032304D01*
X0149187Y0032216D01*
X0149181Y0032128D01*
X0149171Y0032040D01*
X0149157Y0031952D01*
X0149140Y0031866D01*
X0149118Y0031780D01*
X0149093Y0031696D01*
X0149063Y0031612D01*
X0149031Y0031530D01*
X0148994Y0031450D01*
X0148954Y0031371D01*
X0148910Y0031294D01*
X0148863Y0031219D01*
X0148813Y0031147D01*
X0148759Y0031076D01*
X0148703Y0031009D01*
X0148643Y0030943D01*
X0148581Y0030881D01*
X0148515Y0030821D01*
X0148448Y0030765D01*
X0148377Y0030711D01*
X0148305Y0030661D01*
X0148230Y0030614D01*
X0148153Y0030570D01*
X0148074Y0030530D01*
X0147994Y0030493D01*
X0147912Y0030461D01*
X0147828Y0030431D01*
X0147744Y0030406D01*
X0147658Y0030384D01*
X0147572Y0030367D01*
X0147484Y0030353D01*
X0147396Y0030343D01*
X0147308Y0030337D01*
X0147220Y0030335D01*
X0147132Y0030337D01*
X0147044Y0030343D01*
X0146956Y0030353D01*
X0146868Y0030367D01*
X0146782Y0030384D01*
X0146696Y0030406D01*
X0146612Y0030431D01*
X0146528Y0030461D01*
X0146446Y0030493D01*
X0146366Y0030530D01*
X0146287Y0030570D01*
X0146210Y0030614D01*
X0146135Y0030661D01*
X0146063Y0030711D01*
X0145992Y0030765D01*
X0145925Y0030821D01*
X0145859Y0030881D01*
X0145797Y0030943D01*
X0145737Y0031009D01*
X0145681Y0031076D01*
X0145627Y0031147D01*
X0145577Y0031219D01*
X0145530Y0031294D01*
X0145486Y0031371D01*
X0145446Y0031450D01*
X0145409Y0031530D01*
X0145377Y0031612D01*
X0145347Y0031696D01*
X0145322Y0031780D01*
X0145300Y0031866D01*
X0145283Y0031952D01*
X0145269Y0032040D01*
X0145259Y0032128D01*
X0145253Y0032216D01*
X0145251Y0032304D01*
X0090134Y0034272D02*
X0088165Y0034272D01*
X0086197Y0036241D01*
X0086197Y0038209D01*
D18*
X0060449Y0026320D02*
X0021079Y0026320D01*
X0021079Y0098760D01*
X0060449Y0098760D01*
X0060449Y0026320D01*
X0158814Y0067451D02*
X0165774Y0074411D01*
X0174682Y0065503D01*
X0167722Y0058543D01*
X0158814Y0067451D01*
X0182890Y0092068D02*
X0210449Y0092068D01*
X0210449Y0119627D01*
X0182890Y0119627D01*
X0182890Y0092068D01*
X0220685Y0082225D02*
X0220685Y0072776D01*
X0221866Y0071595D01*
X0231315Y0071595D01*
X0232496Y0072776D01*
X0232496Y0082225D01*
X0231315Y0083406D01*
X0221866Y0083406D01*
X0220685Y0082225D01*
X0225803Y0092461D02*
X0225803Y0095611D01*
X0230528Y0095611D01*
X0230528Y0092461D01*
X0225803Y0092461D01*
X0225803Y0097579D02*
X0225803Y0100729D01*
X0230528Y0100729D01*
X0230528Y0097579D01*
X0225803Y0097579D01*
X0234465Y0081438D02*
X0237614Y0081438D01*
X0237614Y0076713D01*
X0234465Y0076713D01*
X0234465Y0081438D01*
X0235252Y0051123D02*
X0225803Y0051123D01*
X0224622Y0049942D01*
X0224622Y0040493D01*
X0225803Y0039312D01*
X0235252Y0039312D01*
X0236433Y0040493D01*
X0236433Y0049942D01*
X0235252Y0051123D01*
X0212811Y0049548D02*
X0212811Y0040099D01*
X0211630Y0038918D01*
X0202181Y0038918D01*
X0201000Y0040099D01*
X0201000Y0049548D01*
X0202181Y0050729D01*
X0211630Y0050729D01*
X0212811Y0049548D01*
X0183744Y0117658D02*
X0183746Y0117725D01*
X0183752Y0117791D01*
X0183762Y0117857D01*
X0183776Y0117922D01*
X0183793Y0117986D01*
X0183815Y0118049D01*
X0183840Y0118111D01*
X0183869Y0118171D01*
X0183902Y0118229D01*
X0183938Y0118286D01*
X0183977Y0118339D01*
X0184019Y0118391D01*
X0184064Y0118440D01*
X0184113Y0118486D01*
X0184163Y0118529D01*
X0184217Y0118569D01*
X0184272Y0118606D01*
X0184330Y0118639D01*
X0184390Y0118669D01*
X0184451Y0118695D01*
X0184514Y0118717D01*
X0184578Y0118736D01*
X0184643Y0118751D01*
X0184708Y0118762D01*
X0184775Y0118769D01*
X0184841Y0118772D01*
X0184908Y0118771D01*
X0184974Y0118766D01*
X0185040Y0118757D01*
X0185106Y0118744D01*
X0185170Y0118727D01*
X0185234Y0118707D01*
X0185296Y0118682D01*
X0185356Y0118654D01*
X0185415Y0118623D01*
X0185472Y0118588D01*
X0185526Y0118549D01*
X0185578Y0118508D01*
X0185628Y0118463D01*
X0185675Y0118416D01*
X0185718Y0118366D01*
X0185759Y0118313D01*
X0185797Y0118258D01*
X0185831Y0118201D01*
X0185862Y0118141D01*
X0185889Y0118080D01*
X0185912Y0118018D01*
X0185932Y0117954D01*
X0185948Y0117890D01*
X0185960Y0117824D01*
X0185968Y0117758D01*
X0185972Y0117691D01*
X0185972Y0117625D01*
X0185968Y0117558D01*
X0185960Y0117492D01*
X0185948Y0117426D01*
X0185932Y0117362D01*
X0185912Y0117298D01*
X0185889Y0117236D01*
X0185862Y0117175D01*
X0185831Y0117115D01*
X0185797Y0117058D01*
X0185759Y0117003D01*
X0185718Y0116950D01*
X0185675Y0116900D01*
X0185628Y0116853D01*
X0185578Y0116808D01*
X0185526Y0116767D01*
X0185472Y0116728D01*
X0185415Y0116693D01*
X0185356Y0116662D01*
X0185296Y0116634D01*
X0185234Y0116609D01*
X0185170Y0116589D01*
X0185106Y0116572D01*
X0185040Y0116559D01*
X0184974Y0116550D01*
X0184908Y0116545D01*
X0184841Y0116544D01*
X0184775Y0116547D01*
X0184708Y0116554D01*
X0184643Y0116565D01*
X0184578Y0116580D01*
X0184514Y0116599D01*
X0184451Y0116621D01*
X0184390Y0116647D01*
X0184330Y0116677D01*
X0184272Y0116710D01*
X0184217Y0116747D01*
X0184163Y0116787D01*
X0184113Y0116830D01*
X0184064Y0116876D01*
X0184019Y0116925D01*
X0183977Y0116977D01*
X0183938Y0117030D01*
X0183902Y0117087D01*
X0183869Y0117145D01*
X0183840Y0117205D01*
X0183815Y0117267D01*
X0183793Y0117330D01*
X0183776Y0117394D01*
X0183762Y0117459D01*
X0183752Y0117525D01*
X0183746Y0117591D01*
X0183744Y0117658D01*
X0203756Y0126320D02*
X0203756Y0129469D01*
X0208480Y0129469D01*
X0208480Y0126320D01*
X0203756Y0126320D01*
X0201394Y0133012D02*
X0202575Y0134194D01*
X0202575Y0143642D01*
X0201394Y0144823D01*
X0191945Y0144823D01*
X0190764Y0143642D01*
X0190764Y0134194D01*
X0191945Y0133012D01*
X0201394Y0133012D01*
X0219701Y0136556D02*
X0219701Y0141280D01*
X0222850Y0141280D01*
X0222850Y0136556D01*
X0219701Y0136556D01*
X0225016Y0136556D02*
X0225016Y0141280D01*
X0228165Y0141280D01*
X0228165Y0136556D01*
X0225016Y0136556D01*
X0022526Y0094823D02*
X0022528Y0094923D01*
X0022534Y0095022D01*
X0022544Y0095121D01*
X0022558Y0095220D01*
X0022576Y0095318D01*
X0022597Y0095415D01*
X0022623Y0095511D01*
X0022653Y0095607D01*
X0022686Y0095701D01*
X0022723Y0095793D01*
X0022763Y0095884D01*
X0022808Y0095973D01*
X0022855Y0096061D01*
X0022907Y0096146D01*
X0022961Y0096230D01*
X0023019Y0096311D01*
X0023080Y0096389D01*
X0023145Y0096466D01*
X0023212Y0096539D01*
X0023282Y0096610D01*
X0023355Y0096678D01*
X0023430Y0096743D01*
X0023508Y0096805D01*
X0023589Y0096863D01*
X0023672Y0096919D01*
X0023757Y0096971D01*
X0023844Y0097020D01*
X0023932Y0097065D01*
X0024023Y0097106D01*
X0024115Y0097144D01*
X0024209Y0097179D01*
X0024304Y0097209D01*
X0024400Y0097236D01*
X0024497Y0097258D01*
X0024595Y0097277D01*
X0024693Y0097292D01*
X0024792Y0097303D01*
X0024891Y0097310D01*
X0024991Y0097313D01*
X0025091Y0097312D01*
X0025190Y0097307D01*
X0025289Y0097298D01*
X0025388Y0097285D01*
X0025486Y0097268D01*
X0025584Y0097247D01*
X0025680Y0097223D01*
X0025776Y0097194D01*
X0025870Y0097162D01*
X0025963Y0097126D01*
X0026055Y0097086D01*
X0026144Y0097043D01*
X0026232Y0096996D01*
X0026318Y0096945D01*
X0026402Y0096892D01*
X0026484Y0096835D01*
X0026563Y0096774D01*
X0026640Y0096711D01*
X0026714Y0096644D01*
X0026785Y0096575D01*
X0026854Y0096503D01*
X0026920Y0096428D01*
X0026983Y0096350D01*
X0027042Y0096270D01*
X0027098Y0096188D01*
X0027151Y0096104D01*
X0027201Y0096017D01*
X0027247Y0095929D01*
X0027289Y0095839D01*
X0027328Y0095747D01*
X0027363Y0095654D01*
X0027395Y0095559D01*
X0027422Y0095463D01*
X0027446Y0095367D01*
X0027466Y0095269D01*
X0027482Y0095171D01*
X0027494Y0095072D01*
X0027502Y0094972D01*
X0027506Y0094873D01*
X0027506Y0094773D01*
X0027502Y0094674D01*
X0027494Y0094574D01*
X0027482Y0094475D01*
X0027466Y0094377D01*
X0027446Y0094279D01*
X0027422Y0094183D01*
X0027395Y0094087D01*
X0027363Y0093992D01*
X0027328Y0093899D01*
X0027289Y0093807D01*
X0027247Y0093717D01*
X0027201Y0093629D01*
X0027151Y0093542D01*
X0027098Y0093458D01*
X0027042Y0093376D01*
X0026983Y0093296D01*
X0026920Y0093218D01*
X0026854Y0093143D01*
X0026785Y0093071D01*
X0026714Y0093002D01*
X0026640Y0092935D01*
X0026563Y0092872D01*
X0026484Y0092811D01*
X0026402Y0092754D01*
X0026318Y0092701D01*
X0026232Y0092650D01*
X0026144Y0092603D01*
X0026055Y0092560D01*
X0025963Y0092520D01*
X0025870Y0092484D01*
X0025776Y0092452D01*
X0025680Y0092423D01*
X0025584Y0092399D01*
X0025486Y0092378D01*
X0025388Y0092361D01*
X0025289Y0092348D01*
X0025190Y0092339D01*
X0025091Y0092334D01*
X0024991Y0092333D01*
X0024891Y0092336D01*
X0024792Y0092343D01*
X0024693Y0092354D01*
X0024595Y0092369D01*
X0024497Y0092388D01*
X0024400Y0092410D01*
X0024304Y0092437D01*
X0024209Y0092467D01*
X0024115Y0092502D01*
X0024023Y0092540D01*
X0023932Y0092581D01*
X0023844Y0092626D01*
X0023757Y0092675D01*
X0023672Y0092727D01*
X0023589Y0092783D01*
X0023508Y0092841D01*
X0023430Y0092903D01*
X0023355Y0092968D01*
X0023282Y0093036D01*
X0023212Y0093107D01*
X0023145Y0093180D01*
X0023080Y0093257D01*
X0023019Y0093335D01*
X0022961Y0093416D01*
X0022907Y0093500D01*
X0022855Y0093585D01*
X0022808Y0093673D01*
X0022763Y0093762D01*
X0022723Y0093853D01*
X0022686Y0093945D01*
X0022653Y0094039D01*
X0022623Y0094135D01*
X0022597Y0094231D01*
X0022576Y0094328D01*
X0022558Y0094426D01*
X0022544Y0094525D01*
X0022534Y0094624D01*
X0022528Y0094723D01*
X0022526Y0094823D01*
D19*
X0020291Y0097186D02*
X0020291Y0099548D01*
X0061236Y0099548D01*
X0061236Y0097186D01*
X0073638Y0125138D02*
X0079543Y0125138D01*
X0079543Y0127107D01*
X0080528Y0127107D01*
X0073638Y0125138D02*
X0073638Y0136949D01*
X0073638Y0146792D02*
X0154346Y0146792D01*
X0154346Y0136949D02*
X0154346Y0125138D01*
X0148441Y0125138D01*
X0148441Y0127107D01*
X0147457Y0127107D01*
X0189583Y0132619D02*
X0190764Y0131438D01*
X0202575Y0131438D01*
X0203756Y0132619D01*
X0203756Y0145217D01*
X0202575Y0146398D01*
X0190764Y0146398D01*
X0189583Y0145217D01*
X0189583Y0132619D01*
X0203362Y0129863D02*
X0208874Y0129863D01*
X0206906Y0127894D02*
X0206709Y0127894D01*
X0205724Y0128879D01*
X0205724Y0126910D01*
X0206709Y0127894D01*
X0208874Y0125926D02*
X0203362Y0125926D01*
X0219307Y0136162D02*
X0219307Y0141674D01*
X0221276Y0139705D02*
X0221276Y0139509D01*
X0220291Y0138524D01*
X0222260Y0138524D01*
X0221276Y0139509D01*
X0225606Y0138524D02*
X0226591Y0139509D01*
X0227575Y0138524D01*
X0225606Y0138524D01*
X0226591Y0139509D02*
X0226591Y0139705D01*
X0228559Y0141674D02*
X0228559Y0136162D01*
X0224622Y0136162D02*
X0224622Y0141674D01*
X0223244Y0141674D02*
X0223244Y0136162D01*
X0225409Y0101123D02*
X0230921Y0101123D01*
X0228953Y0099154D02*
X0228756Y0099154D01*
X0227772Y0100138D01*
X0227772Y0098170D01*
X0228756Y0099154D01*
X0230921Y0097186D02*
X0225409Y0097186D01*
X0225409Y0096005D02*
X0230921Y0096005D01*
X0228559Y0095020D02*
X0228559Y0093052D01*
X0227575Y0094036D01*
X0228559Y0095020D01*
X0227575Y0094036D02*
X0227378Y0094036D01*
X0225409Y0092068D02*
X0230921Y0092068D01*
X0232496Y0084981D02*
X0220685Y0084981D01*
X0219504Y0083800D01*
X0219504Y0071201D01*
X0220685Y0070020D01*
X0232496Y0070020D01*
X0233677Y0071201D01*
X0233677Y0083800D01*
X0232496Y0084981D01*
X0234071Y0081831D02*
X0234071Y0076320D01*
X0238008Y0076320D02*
X0238008Y0081831D01*
X0236039Y0079863D02*
X0236039Y0079666D01*
X0235055Y0078682D01*
X0237024Y0078682D01*
X0236039Y0079666D01*
X0232102Y0066477D02*
X0225803Y0066477D01*
X0225016Y0061753D02*
X0225016Y0058603D01*
X0225803Y0053879D02*
X0232102Y0053879D01*
X0232563Y0052304D02*
X0232565Y0052371D01*
X0232571Y0052437D01*
X0232581Y0052503D01*
X0232595Y0052568D01*
X0232612Y0052632D01*
X0232634Y0052695D01*
X0232659Y0052757D01*
X0232688Y0052817D01*
X0232721Y0052875D01*
X0232757Y0052932D01*
X0232796Y0052985D01*
X0232838Y0053037D01*
X0232883Y0053086D01*
X0232932Y0053132D01*
X0232982Y0053175D01*
X0233036Y0053215D01*
X0233091Y0053252D01*
X0233149Y0053285D01*
X0233209Y0053315D01*
X0233270Y0053341D01*
X0233333Y0053363D01*
X0233397Y0053382D01*
X0233462Y0053397D01*
X0233527Y0053408D01*
X0233594Y0053415D01*
X0233660Y0053418D01*
X0233727Y0053417D01*
X0233793Y0053412D01*
X0233859Y0053403D01*
X0233925Y0053390D01*
X0233989Y0053373D01*
X0234053Y0053353D01*
X0234115Y0053328D01*
X0234175Y0053300D01*
X0234234Y0053269D01*
X0234291Y0053234D01*
X0234345Y0053195D01*
X0234397Y0053154D01*
X0234447Y0053109D01*
X0234494Y0053062D01*
X0234537Y0053012D01*
X0234578Y0052959D01*
X0234616Y0052904D01*
X0234650Y0052847D01*
X0234681Y0052787D01*
X0234708Y0052726D01*
X0234731Y0052664D01*
X0234751Y0052600D01*
X0234767Y0052536D01*
X0234779Y0052470D01*
X0234787Y0052404D01*
X0234791Y0052337D01*
X0234791Y0052271D01*
X0234787Y0052204D01*
X0234779Y0052138D01*
X0234767Y0052072D01*
X0234751Y0052008D01*
X0234731Y0051944D01*
X0234708Y0051882D01*
X0234681Y0051821D01*
X0234650Y0051761D01*
X0234616Y0051704D01*
X0234578Y0051649D01*
X0234537Y0051596D01*
X0234494Y0051546D01*
X0234447Y0051499D01*
X0234397Y0051454D01*
X0234345Y0051413D01*
X0234291Y0051374D01*
X0234234Y0051339D01*
X0234175Y0051308D01*
X0234115Y0051280D01*
X0234053Y0051255D01*
X0233989Y0051235D01*
X0233925Y0051218D01*
X0233859Y0051205D01*
X0233793Y0051196D01*
X0233727Y0051191D01*
X0233660Y0051190D01*
X0233594Y0051193D01*
X0233527Y0051200D01*
X0233462Y0051211D01*
X0233397Y0051226D01*
X0233333Y0051245D01*
X0233270Y0051267D01*
X0233209Y0051293D01*
X0233149Y0051323D01*
X0233091Y0051356D01*
X0233036Y0051393D01*
X0232982Y0051433D01*
X0232932Y0051476D01*
X0232883Y0051522D01*
X0232838Y0051571D01*
X0232796Y0051623D01*
X0232757Y0051676D01*
X0232721Y0051733D01*
X0232688Y0051791D01*
X0232659Y0051851D01*
X0232634Y0051913D01*
X0232612Y0051976D01*
X0232595Y0052040D01*
X0232581Y0052105D01*
X0232571Y0052171D01*
X0232565Y0052237D01*
X0232563Y0052304D01*
X0236433Y0052697D02*
X0237614Y0051516D01*
X0237614Y0038918D01*
X0236433Y0037737D01*
X0224622Y0037737D01*
X0223441Y0038918D01*
X0223441Y0051516D01*
X0224622Y0052697D01*
X0236433Y0052697D01*
X0213992Y0051123D02*
X0213992Y0038524D01*
X0212811Y0037343D01*
X0201000Y0037343D01*
X0199819Y0038524D01*
X0199819Y0051123D01*
X0201000Y0052304D01*
X0212811Y0052304D01*
X0213992Y0051123D01*
X0208351Y0051123D02*
X0208353Y0051190D01*
X0208359Y0051256D01*
X0208369Y0051322D01*
X0208383Y0051387D01*
X0208400Y0051451D01*
X0208422Y0051514D01*
X0208447Y0051576D01*
X0208476Y0051636D01*
X0208509Y0051694D01*
X0208545Y0051751D01*
X0208584Y0051804D01*
X0208626Y0051856D01*
X0208671Y0051905D01*
X0208720Y0051951D01*
X0208770Y0051994D01*
X0208824Y0052034D01*
X0208879Y0052071D01*
X0208937Y0052104D01*
X0208997Y0052134D01*
X0209058Y0052160D01*
X0209121Y0052182D01*
X0209185Y0052201D01*
X0209250Y0052216D01*
X0209315Y0052227D01*
X0209382Y0052234D01*
X0209448Y0052237D01*
X0209515Y0052236D01*
X0209581Y0052231D01*
X0209647Y0052222D01*
X0209713Y0052209D01*
X0209777Y0052192D01*
X0209841Y0052172D01*
X0209903Y0052147D01*
X0209963Y0052119D01*
X0210022Y0052088D01*
X0210079Y0052053D01*
X0210133Y0052014D01*
X0210185Y0051973D01*
X0210235Y0051928D01*
X0210282Y0051881D01*
X0210325Y0051831D01*
X0210366Y0051778D01*
X0210404Y0051723D01*
X0210438Y0051666D01*
X0210469Y0051606D01*
X0210496Y0051545D01*
X0210519Y0051483D01*
X0210539Y0051419D01*
X0210555Y0051355D01*
X0210567Y0051289D01*
X0210575Y0051223D01*
X0210579Y0051156D01*
X0210579Y0051090D01*
X0210575Y0051023D01*
X0210567Y0050957D01*
X0210555Y0050891D01*
X0210539Y0050827D01*
X0210519Y0050763D01*
X0210496Y0050701D01*
X0210469Y0050640D01*
X0210438Y0050580D01*
X0210404Y0050523D01*
X0210366Y0050468D01*
X0210325Y0050415D01*
X0210282Y0050365D01*
X0210235Y0050318D01*
X0210185Y0050273D01*
X0210133Y0050232D01*
X0210079Y0050193D01*
X0210022Y0050158D01*
X0209963Y0050127D01*
X0209903Y0050099D01*
X0209841Y0050074D01*
X0209777Y0050054D01*
X0209713Y0050037D01*
X0209647Y0050024D01*
X0209581Y0050015D01*
X0209515Y0050010D01*
X0209448Y0050009D01*
X0209382Y0050012D01*
X0209315Y0050019D01*
X0209250Y0050030D01*
X0209185Y0050045D01*
X0209121Y0050064D01*
X0209058Y0050086D01*
X0208997Y0050112D01*
X0208937Y0050142D01*
X0208879Y0050175D01*
X0208824Y0050212D01*
X0208770Y0050252D01*
X0208720Y0050295D01*
X0208671Y0050341D01*
X0208626Y0050390D01*
X0208584Y0050442D01*
X0208545Y0050495D01*
X0208509Y0050552D01*
X0208476Y0050610D01*
X0208447Y0050670D01*
X0208422Y0050732D01*
X0208400Y0050795D01*
X0208383Y0050859D01*
X0208369Y0050924D01*
X0208359Y0050990D01*
X0208353Y0051056D01*
X0208351Y0051123D01*
X0207890Y0052697D02*
X0201591Y0052697D01*
X0200803Y0057422D02*
X0200803Y0060571D01*
X0201591Y0065296D02*
X0207890Y0065296D01*
X0176213Y0065920D02*
X0167305Y0057012D01*
X0163766Y0061664D02*
X0161914Y0063516D01*
X0157840Y0067591D02*
X0165634Y0075385D01*
X0169726Y0071294D02*
X0171561Y0069459D01*
X0061236Y0027894D02*
X0061236Y0025532D01*
X0020291Y0025532D01*
X0020291Y0027894D01*
X0015567Y0100335D02*
X0015569Y0100414D01*
X0015575Y0100493D01*
X0015585Y0100572D01*
X0015599Y0100650D01*
X0015616Y0100727D01*
X0015638Y0100803D01*
X0015663Y0100878D01*
X0015693Y0100951D01*
X0015725Y0101023D01*
X0015762Y0101094D01*
X0015802Y0101162D01*
X0015845Y0101228D01*
X0015891Y0101292D01*
X0015941Y0101354D01*
X0015994Y0101413D01*
X0016049Y0101469D01*
X0016108Y0101523D01*
X0016169Y0101573D01*
X0016232Y0101621D01*
X0016298Y0101665D01*
X0016366Y0101706D01*
X0016436Y0101743D01*
X0016507Y0101777D01*
X0016581Y0101807D01*
X0016655Y0101833D01*
X0016731Y0101855D01*
X0016808Y0101874D01*
X0016886Y0101889D01*
X0016964Y0101900D01*
X0017043Y0101907D01*
X0017122Y0101910D01*
X0017201Y0101909D01*
X0017280Y0101904D01*
X0017359Y0101895D01*
X0017437Y0101882D01*
X0017514Y0101865D01*
X0017591Y0101845D01*
X0017666Y0101820D01*
X0017740Y0101792D01*
X0017813Y0101760D01*
X0017883Y0101725D01*
X0017952Y0101686D01*
X0018019Y0101643D01*
X0018084Y0101597D01*
X0018146Y0101549D01*
X0018206Y0101497D01*
X0018263Y0101442D01*
X0018317Y0101384D01*
X0018368Y0101324D01*
X0018416Y0101261D01*
X0018461Y0101196D01*
X0018503Y0101128D01*
X0018541Y0101059D01*
X0018575Y0100988D01*
X0018606Y0100915D01*
X0018634Y0100840D01*
X0018657Y0100765D01*
X0018677Y0100688D01*
X0018693Y0100611D01*
X0018705Y0100532D01*
X0018713Y0100454D01*
X0018717Y0100375D01*
X0018717Y0100295D01*
X0018713Y0100216D01*
X0018705Y0100138D01*
X0018693Y0100059D01*
X0018677Y0099982D01*
X0018657Y0099905D01*
X0018634Y0099830D01*
X0018606Y0099755D01*
X0018575Y0099682D01*
X0018541Y0099611D01*
X0018503Y0099542D01*
X0018461Y0099474D01*
X0018416Y0099409D01*
X0018368Y0099346D01*
X0018317Y0099286D01*
X0018263Y0099228D01*
X0018206Y0099173D01*
X0018146Y0099121D01*
X0018084Y0099073D01*
X0018019Y0099027D01*
X0017952Y0098984D01*
X0017883Y0098945D01*
X0017813Y0098910D01*
X0017740Y0098878D01*
X0017666Y0098850D01*
X0017591Y0098825D01*
X0017514Y0098805D01*
X0017437Y0098788D01*
X0017359Y0098775D01*
X0017280Y0098766D01*
X0017201Y0098761D01*
X0017122Y0098760D01*
X0017043Y0098763D01*
X0016964Y0098770D01*
X0016886Y0098781D01*
X0016808Y0098796D01*
X0016731Y0098815D01*
X0016655Y0098837D01*
X0016581Y0098863D01*
X0016507Y0098893D01*
X0016436Y0098927D01*
X0016366Y0098964D01*
X0016298Y0099005D01*
X0016232Y0099049D01*
X0016169Y0099097D01*
X0016108Y0099147D01*
X0016049Y0099201D01*
X0015994Y0099257D01*
X0015941Y0099316D01*
X0015891Y0099378D01*
X0015845Y0099442D01*
X0015802Y0099508D01*
X0015762Y0099576D01*
X0015725Y0099647D01*
X0015693Y0099719D01*
X0015663Y0099792D01*
X0015638Y0099867D01*
X0015616Y0099943D01*
X0015599Y0100020D01*
X0015585Y0100098D01*
X0015575Y0100177D01*
X0015569Y0100256D01*
X0015567Y0100335D01*
D20*
X0014745Y0104291D03*
X0017945Y0104291D03*
X0017945Y0116890D03*
X0014745Y0116890D03*
X0014764Y0123938D03*
X0017964Y0123938D03*
X0073603Y0109213D03*
X0076803Y0109213D03*
X0076803Y0103701D03*
X0073603Y0103701D03*
X0093110Y0101104D03*
X0096310Y0101104D03*
G36*
X0120826Y0102717D02*
X0119991Y0101882D01*
X0118322Y0103551D01*
X0119157Y0104386D01*
X0120826Y0102717D01*
G37*
G36*
X0123089Y0104980D02*
X0122254Y0104145D01*
X0120585Y0105814D01*
X0121420Y0106649D01*
X0123089Y0104980D01*
G37*
G36*
X0127912Y0102717D02*
X0127077Y0101882D01*
X0125408Y0103551D01*
X0126243Y0104386D01*
X0127912Y0102717D01*
G37*
G36*
X0130175Y0104980D02*
X0129340Y0104145D01*
X0127671Y0105814D01*
X0128506Y0106649D01*
X0130175Y0104980D01*
G37*
G36*
X0135196Y0102717D02*
X0134361Y0101882D01*
X0132692Y0103551D01*
X0133527Y0104386D01*
X0135196Y0102717D01*
G37*
G36*
X0137459Y0104980D02*
X0136624Y0104145D01*
X0134955Y0105814D01*
X0135790Y0106649D01*
X0137459Y0104980D01*
G37*
X0136861Y0120789D03*
X0133661Y0120789D03*
G36*
X0215526Y0124825D02*
X0216361Y0125660D01*
X0218030Y0123991D01*
X0217195Y0123156D01*
X0215526Y0124825D01*
G37*
G36*
X0217788Y0127087D02*
X0218623Y0127922D01*
X0220292Y0126253D01*
X0219457Y0125418D01*
X0217788Y0127087D01*
G37*
G36*
X0155744Y0062399D02*
X0154909Y0063234D01*
X0156578Y0064903D01*
X0157413Y0064068D01*
X0155744Y0062399D01*
G37*
G36*
X0158007Y0060136D02*
X0157172Y0060971D01*
X0158841Y0062640D01*
X0159676Y0061805D01*
X0158007Y0060136D01*
G37*
G36*
X0155744Y0055313D02*
X0154909Y0056148D01*
X0156578Y0057817D01*
X0157413Y0056982D01*
X0155744Y0055313D01*
G37*
G36*
X0158007Y0053050D02*
X0157172Y0053885D01*
X0158841Y0055554D01*
X0159676Y0054719D01*
X0158007Y0053050D01*
G37*
G36*
X0155744Y0047439D02*
X0154909Y0048274D01*
X0156578Y0049943D01*
X0157413Y0049108D01*
X0155744Y0047439D01*
G37*
G36*
X0158007Y0045176D02*
X0157172Y0046011D01*
X0158841Y0047680D01*
X0159676Y0046845D01*
X0158007Y0045176D01*
G37*
G36*
X0165154Y0056382D02*
X0165989Y0055547D01*
X0164320Y0053878D01*
X0163485Y0054713D01*
X0165154Y0056382D01*
G37*
G36*
X0162891Y0058644D02*
X0163726Y0057809D01*
X0162057Y0056140D01*
X0161222Y0056975D01*
X0162891Y0058644D01*
G37*
X0193504Y0049135D03*
X0196704Y0049135D03*
X0196685Y0044449D03*
X0193485Y0044449D03*
X0193504Y0039686D03*
X0196704Y0039686D03*
X0217913Y0039686D03*
X0221113Y0039686D03*
X0221094Y0044449D03*
X0217894Y0044449D03*
X0217913Y0049135D03*
X0221113Y0049135D03*
G36*
X0117062Y0020766D02*
X0116227Y0021601D01*
X0117896Y0023270D01*
X0118731Y0022435D01*
X0117062Y0020766D01*
G37*
G36*
X0114799Y0023029D02*
X0113964Y0023864D01*
X0115633Y0025533D01*
X0116468Y0024698D01*
X0114799Y0023029D01*
G37*
D21*
X0124209Y0022348D03*
X0124209Y0025548D03*
X0087989Y0027072D03*
X0087989Y0030272D03*
X0082477Y0030272D03*
X0082477Y0027072D03*
X0078540Y0051482D03*
X0078540Y0054682D03*
X0068539Y0060162D03*
X0068539Y0063362D03*
X0078540Y0062505D03*
X0078540Y0065705D03*
X0078578Y0075123D03*
X0078578Y0078323D03*
X0059642Y0114474D03*
X0059642Y0117674D03*
X0012398Y0086965D03*
X0012398Y0083765D03*
X0012398Y0064524D03*
X0012398Y0061324D03*
X0153343Y0077466D03*
X0153343Y0080666D03*
X0178540Y0056257D03*
X0178540Y0053057D03*
X0217123Y0090261D03*
X0217123Y0093461D03*
X0219720Y0103863D03*
X0219720Y0107063D03*
X0231296Y0137309D03*
X0231296Y0140509D03*
D22*
X0211236Y0120414D02*
X0208874Y0120414D01*
X0211236Y0120414D02*
X0211236Y0118052D01*
X0184465Y0120414D02*
X0182102Y0120414D01*
X0182102Y0118052D01*
X0180364Y0119627D02*
X0180366Y0119674D01*
X0180372Y0119720D01*
X0180381Y0119766D01*
X0180395Y0119810D01*
X0180412Y0119854D01*
X0180433Y0119895D01*
X0180457Y0119935D01*
X0180484Y0119973D01*
X0180515Y0120008D01*
X0180548Y0120041D01*
X0180584Y0120071D01*
X0180623Y0120097D01*
X0180663Y0120121D01*
X0180705Y0120140D01*
X0180749Y0120157D01*
X0180794Y0120169D01*
X0180840Y0120178D01*
X0180886Y0120183D01*
X0180933Y0120184D01*
X0180979Y0120181D01*
X0181025Y0120174D01*
X0181071Y0120163D01*
X0181115Y0120149D01*
X0181158Y0120131D01*
X0181199Y0120109D01*
X0181239Y0120084D01*
X0181276Y0120056D01*
X0181311Y0120025D01*
X0181343Y0119991D01*
X0181372Y0119954D01*
X0181397Y0119916D01*
X0181420Y0119875D01*
X0181439Y0119832D01*
X0181454Y0119788D01*
X0181466Y0119743D01*
X0181474Y0119697D01*
X0181478Y0119650D01*
X0181478Y0119604D01*
X0181474Y0119557D01*
X0181466Y0119511D01*
X0181454Y0119466D01*
X0181439Y0119422D01*
X0181420Y0119379D01*
X0181397Y0119338D01*
X0181372Y0119300D01*
X0181343Y0119263D01*
X0181311Y0119229D01*
X0181276Y0119198D01*
X0181239Y0119170D01*
X0181200Y0119145D01*
X0181158Y0119123D01*
X0181115Y0119105D01*
X0181071Y0119091D01*
X0181025Y0119080D01*
X0180979Y0119073D01*
X0180933Y0119070D01*
X0180886Y0119071D01*
X0180840Y0119076D01*
X0180794Y0119085D01*
X0180749Y0119097D01*
X0180705Y0119114D01*
X0180663Y0119133D01*
X0180623Y0119157D01*
X0180584Y0119183D01*
X0180548Y0119213D01*
X0180515Y0119246D01*
X0180484Y0119281D01*
X0180457Y0119319D01*
X0180433Y0119359D01*
X0180412Y0119400D01*
X0180395Y0119444D01*
X0180381Y0119488D01*
X0180372Y0119534D01*
X0180366Y0119580D01*
X0180364Y0119627D01*
X0153362Y0126123D02*
X0149425Y0126123D01*
X0149425Y0128091D01*
X0078559Y0128091D01*
X0078559Y0126123D01*
X0074622Y0126123D01*
X0074622Y0145611D01*
X0153362Y0145611D01*
X0153362Y0126320D01*
X0182102Y0093642D02*
X0182102Y0091280D01*
X0184465Y0091280D01*
X0208874Y0091280D02*
X0211236Y0091280D01*
X0211236Y0093642D01*
X0234563Y0029883D02*
X0134563Y0029883D01*
X0134563Y0012383D01*
X0234563Y0012383D01*
X0234563Y0029883D01*
X0068465Y0146694D02*
X0067715Y0145944D01*
X0066213Y0145944D01*
X0065463Y0146694D01*
X0065463Y0147445D01*
X0066213Y0148195D01*
X0067715Y0148195D01*
X0068465Y0147445D01*
X0068465Y0146694D01*
X0067715Y0148195D02*
X0068465Y0148946D01*
X0068465Y0149697D01*
X0067715Y0150447D01*
X0066213Y0150447D01*
X0065463Y0149697D01*
X0065463Y0148946D01*
X0066213Y0148195D01*
X0034964Y0122447D02*
X0034964Y0117944D01*
X0033463Y0117944D02*
X0036465Y0117944D01*
X0033463Y0120946D02*
X0034964Y0122447D01*
X0039496Y0024595D02*
X0025496Y0024595D01*
X0025496Y0018595D01*
X0039496Y0018595D01*
X0039496Y0024595D01*
D23*
X0034858Y0021595D03*
D24*
X0161311Y0089075D02*
X0164311Y0089075D01*
X0164213Y0094272D02*
X0161311Y0094272D01*
X0161409Y0102571D02*
X0164213Y0102571D01*
X0164213Y0105922D02*
X0161409Y0105922D01*
X0161311Y0109548D02*
X0164311Y0109548D01*
X0164213Y0114745D02*
X0161311Y0114745D01*
X0161311Y0116634D02*
X0164311Y0116634D01*
X0164213Y0121831D02*
X0161311Y0121831D01*
X0161409Y0125406D02*
X0164213Y0125406D01*
X0164213Y0128757D02*
X0161409Y0128757D01*
X0148563Y0121831D02*
X0145563Y0121831D01*
X0145661Y0116634D02*
X0148563Y0116634D01*
X0173598Y0137418D02*
X0173598Y0140320D01*
X0178795Y0140418D02*
X0178795Y0137418D01*
X0181472Y0137418D02*
X0181472Y0140418D01*
X0186669Y0140418D02*
X0186669Y0137516D01*
X0205882Y0137418D02*
X0205882Y0140418D01*
X0211079Y0140418D02*
X0211079Y0137516D01*
X0212969Y0137418D02*
X0212969Y0140418D01*
X0218165Y0140418D02*
X0218165Y0137516D01*
X0217378Y0079001D02*
X0217378Y0076001D01*
X0212181Y0076001D02*
X0212181Y0078902D01*
X0209504Y0079001D02*
X0209504Y0076001D01*
X0204307Y0076001D02*
X0204307Y0078902D01*
X0189031Y0077229D02*
X0189031Y0074229D01*
X0183835Y0074229D02*
X0183835Y0077131D01*
X0175535Y0077327D02*
X0175535Y0074524D01*
X0172185Y0074524D02*
X0172185Y0077327D01*
X0191870Y0059217D02*
X0191870Y0056414D01*
X0195220Y0056414D02*
X0195220Y0059217D01*
X0185646Y0054863D02*
X0185646Y0051320D01*
X0182496Y0051320D02*
X0182496Y0054863D01*
X0205504Y0035894D02*
X0208307Y0035894D01*
X0208307Y0032544D02*
X0205504Y0032544D01*
X0229126Y0032544D02*
X0231929Y0032544D01*
X0231929Y0035894D02*
X0229126Y0035894D01*
X0220417Y0058776D02*
X0220417Y0061579D01*
X0217067Y0061579D02*
X0217067Y0058776D01*
X0105567Y0115371D02*
X0105567Y0118371D01*
X0100370Y0118272D02*
X0100370Y0115371D01*
X0098480Y0115371D02*
X0098480Y0118371D01*
X0093283Y0118272D02*
X0093283Y0115371D01*
X0027575Y0122383D02*
X0024031Y0122383D01*
X0024031Y0125532D02*
X0027575Y0125532D01*
D25*
X0095886Y0119694D03*
X0102973Y0119694D03*
X0102973Y0113994D03*
X0095886Y0113994D03*
X0176201Y0136041D03*
X0184066Y0136095D03*
X0184066Y0141795D03*
X0176201Y0141741D03*
X0208476Y0141795D03*
X0215562Y0141795D03*
X0215562Y0136095D03*
X0208476Y0136095D03*
X0206910Y0080324D03*
X0214784Y0080324D03*
X0214784Y0074624D03*
X0206910Y0074624D03*
X0186438Y0072852D03*
X0186438Y0078552D03*
D26*
X0225409Y0094036D03*
X0230921Y0094036D03*
X0230921Y0099154D03*
X0225409Y0099154D03*
X0208874Y0127894D03*
X0203362Y0127894D03*
D27*
X0207299Y0127894D03*
X0207299Y0127894D03*
X0229346Y0099154D03*
X0229346Y0099154D03*
X0226984Y0094036D03*
X0226984Y0094036D03*
D28*
X0165634Y0091669D03*
X0159934Y0091669D03*
X0159934Y0112142D03*
X0165634Y0112142D03*
X0165634Y0119228D03*
X0159934Y0119228D03*
X0149940Y0119237D03*
X0144240Y0119237D03*
D29*
X0160527Y0127087D03*
X0165127Y0127087D03*
X0165127Y0104252D03*
X0160527Y0104252D03*
X0204590Y0034214D03*
X0209190Y0034214D03*
X0228212Y0034214D03*
X0232812Y0034214D03*
D30*
X0236039Y0076320D03*
X0236039Y0081831D03*
X0226591Y0136162D03*
X0221276Y0136162D03*
X0221276Y0141674D03*
X0226591Y0141674D03*
D31*
X0226591Y0140099D03*
X0226591Y0140099D03*
X0221276Y0140099D03*
X0221276Y0140099D03*
X0236039Y0080257D03*
X0236039Y0080257D03*
D32*
X0230665Y0089312D03*
X0225665Y0089312D03*
X0225665Y0105847D03*
X0230665Y0105847D03*
X0230665Y0111359D03*
X0225665Y0111359D03*
X0225665Y0116871D03*
X0230665Y0116871D03*
X0165311Y0132619D03*
X0160311Y0132619D03*
X0160311Y0138131D03*
X0165311Y0138131D03*
X0165311Y0097973D03*
X0160311Y0097973D03*
X0018854Y0110571D03*
X0013854Y0110571D03*
D33*
X0178953Y0078426D03*
X0178953Y0073426D03*
X0195882Y0072638D03*
X0195882Y0077638D03*
X0225016Y0124607D03*
X0230528Y0124607D03*
X0230528Y0129607D03*
X0225016Y0129607D03*
D34*
X0173855Y0078241D03*
X0173855Y0073641D03*
X0193540Y0060131D03*
X0193540Y0055531D03*
X0218737Y0057893D03*
X0218737Y0062493D03*
D35*
X0034405Y0116949D02*
X0034407Y0117037D01*
X0034413Y0117125D01*
X0034423Y0117213D01*
X0034437Y0117301D01*
X0034454Y0117387D01*
X0034476Y0117473D01*
X0034501Y0117557D01*
X0034531Y0117641D01*
X0034563Y0117723D01*
X0034600Y0117803D01*
X0034640Y0117882D01*
X0034684Y0117959D01*
X0034731Y0118034D01*
X0034781Y0118106D01*
X0034835Y0118177D01*
X0034891Y0118244D01*
X0034951Y0118310D01*
X0035013Y0118372D01*
X0035079Y0118432D01*
X0035146Y0118488D01*
X0035217Y0118542D01*
X0035289Y0118592D01*
X0035364Y0118639D01*
X0035441Y0118683D01*
X0035520Y0118723D01*
X0035600Y0118760D01*
X0035682Y0118792D01*
X0035766Y0118822D01*
X0035850Y0118847D01*
X0035936Y0118869D01*
X0036022Y0118886D01*
X0036110Y0118900D01*
X0036198Y0118910D01*
X0036286Y0118916D01*
X0036374Y0118918D01*
X0036462Y0118916D01*
X0036550Y0118910D01*
X0036638Y0118900D01*
X0036726Y0118886D01*
X0036812Y0118869D01*
X0036898Y0118847D01*
X0036982Y0118822D01*
X0037066Y0118792D01*
X0037148Y0118760D01*
X0037228Y0118723D01*
X0037307Y0118683D01*
X0037384Y0118639D01*
X0037459Y0118592D01*
X0037531Y0118542D01*
X0037602Y0118488D01*
X0037669Y0118432D01*
X0037735Y0118372D01*
X0037797Y0118310D01*
X0037857Y0118244D01*
X0037913Y0118177D01*
X0037967Y0118106D01*
X0038017Y0118034D01*
X0038064Y0117959D01*
X0038108Y0117882D01*
X0038148Y0117803D01*
X0038185Y0117723D01*
X0038217Y0117641D01*
X0038247Y0117557D01*
X0038272Y0117473D01*
X0038294Y0117387D01*
X0038311Y0117301D01*
X0038325Y0117213D01*
X0038335Y0117125D01*
X0038341Y0117037D01*
X0038343Y0116949D01*
X0038341Y0116861D01*
X0038335Y0116773D01*
X0038325Y0116685D01*
X0038311Y0116597D01*
X0038294Y0116511D01*
X0038272Y0116425D01*
X0038247Y0116341D01*
X0038217Y0116257D01*
X0038185Y0116175D01*
X0038148Y0116095D01*
X0038108Y0116016D01*
X0038064Y0115939D01*
X0038017Y0115864D01*
X0037967Y0115792D01*
X0037913Y0115721D01*
X0037857Y0115654D01*
X0037797Y0115588D01*
X0037735Y0115526D01*
X0037669Y0115466D01*
X0037602Y0115410D01*
X0037531Y0115356D01*
X0037459Y0115306D01*
X0037384Y0115259D01*
X0037307Y0115215D01*
X0037228Y0115175D01*
X0037148Y0115138D01*
X0037066Y0115106D01*
X0036982Y0115076D01*
X0036898Y0115051D01*
X0036812Y0115029D01*
X0036726Y0115012D01*
X0036638Y0114998D01*
X0036550Y0114988D01*
X0036462Y0114982D01*
X0036374Y0114980D01*
X0036286Y0114982D01*
X0036198Y0114988D01*
X0036110Y0114998D01*
X0036022Y0115012D01*
X0035936Y0115029D01*
X0035850Y0115051D01*
X0035766Y0115076D01*
X0035682Y0115106D01*
X0035600Y0115138D01*
X0035520Y0115175D01*
X0035441Y0115215D01*
X0035364Y0115259D01*
X0035289Y0115306D01*
X0035217Y0115356D01*
X0035146Y0115410D01*
X0035079Y0115466D01*
X0035013Y0115526D01*
X0034951Y0115588D01*
X0034891Y0115654D01*
X0034835Y0115721D01*
X0034781Y0115792D01*
X0034731Y0115864D01*
X0034684Y0115939D01*
X0034640Y0116016D01*
X0034600Y0116095D01*
X0034563Y0116175D01*
X0034531Y0116257D01*
X0034501Y0116341D01*
X0034476Y0116425D01*
X0034454Y0116511D01*
X0034437Y0116597D01*
X0034423Y0116685D01*
X0034413Y0116773D01*
X0034407Y0116861D01*
X0034405Y0116949D01*
D36*
X0029150Y0118859D03*
X0029150Y0113898D03*
X0029150Y0108898D03*
X0029150Y0103898D03*
X0052378Y0103859D03*
X0052378Y0108859D03*
X0052378Y0113859D03*
X0052378Y0118859D03*
D37*
X0055213Y0129194D03*
X0045213Y0129194D03*
X0035213Y0129194D03*
X0035213Y0139194D03*
X0045213Y0139194D03*
X0055213Y0139194D03*
X0065213Y0139194D03*
X0065213Y0129194D03*
D38*
X0028362Y0123957D03*
X0023244Y0123957D03*
D39*
X0025213Y0122481D03*
X0025213Y0125434D03*
D40*
X0025213Y0123957D03*
X0184071Y0053682D03*
D41*
X0184071Y0055650D03*
X0184071Y0050532D03*
D42*
X0185547Y0053682D03*
X0182594Y0053682D03*
M02*
