G75*
%MOIN*%
%OFA0B0*%
%FSLAX25Y25*%
%IPPOS*%
%LPD*%
%AMOC8*
5,1,8,0,0,1.08239X$1,22.5*
%
%ADD10C,0.00000*%
%ADD11R,0.04724X0.01969*%
%ADD12R,0.02756X0.03543*%
%ADD13R,0.03543X0.02756*%
%ADD14R,0.04724X0.02756*%
%ADD15R,0.00787X0.03150*%
%ADD16R,0.03150X0.00787*%
%ADD17R,0.04528X0.04528*%
%ADD18R,0.10630X0.03937*%
%ADD19R,0.05906X0.05118*%
%ADD20R,0.02362X0.02362*%
%ADD21R,0.05118X0.05906*%
%ADD22R,0.04331X0.03937*%
%ADD23R,0.03937X0.04331*%
%ADD24R,0.08661X0.01969*%
%ADD25R,0.03150X0.03150*%
%ADD26R,0.03937X0.02756*%
%ADD27R,0.05906X0.06693*%
%ADD28R,0.00984X0.04331*%
D10*
X0006118Y0012146D02*
X0006118Y0026320D01*
X0006118Y0027894D02*
X0006118Y0133406D01*
X0006137Y0133787D01*
X0006166Y0134168D01*
X0006204Y0134547D01*
X0006251Y0134926D01*
X0006308Y0135303D01*
X0006374Y0135679D01*
X0006449Y0136053D01*
X0006533Y0136426D01*
X0006627Y0136796D01*
X0006729Y0137163D01*
X0006841Y0137528D01*
X0006961Y0137890D01*
X0007090Y0138249D01*
X0007228Y0138605D01*
X0007374Y0138957D01*
X0007530Y0139306D01*
X0007693Y0139651D01*
X0007865Y0139991D01*
X0008046Y0140328D01*
X0008234Y0140659D01*
X0008431Y0140986D01*
X0008635Y0141309D01*
X0008848Y0141626D01*
X0009068Y0141937D01*
X0009296Y0142243D01*
X0009531Y0142544D01*
X0009773Y0142839D01*
X0010023Y0143127D01*
X0010280Y0143410D01*
X0010543Y0143686D01*
X0010813Y0143955D01*
X0011090Y0144218D01*
X0011373Y0144474D01*
X0011662Y0144723D01*
X0011957Y0144965D01*
X0012258Y0145199D01*
X0012565Y0145426D01*
X0012877Y0145646D01*
X0013195Y0145858D01*
X0013517Y0146061D01*
X0013845Y0146257D01*
X0014177Y0146445D01*
X0014514Y0146625D01*
X0014854Y0146796D01*
X0015200Y0146959D01*
X0015549Y0147113D01*
X0015901Y0147259D01*
X0016257Y0147396D01*
X0016617Y0147525D01*
X0016979Y0147644D01*
X0017344Y0147755D01*
X0017712Y0147856D01*
X0018082Y0147949D01*
X0018455Y0148032D01*
X0018829Y0148106D01*
X0019205Y0148171D01*
X0019582Y0148227D01*
X0019961Y0148274D01*
X0020341Y0148311D01*
X0020722Y0148339D01*
X0021103Y0148358D01*
X0021484Y0148367D01*
X0021866Y0148367D01*
X0227378Y0148367D01*
X0228165Y0148367D02*
X0242339Y0148367D01*
X0242339Y0134194D01*
X0242339Y0132619D02*
X0242339Y0027107D01*
X0242338Y0027107D02*
X0242319Y0026726D01*
X0242290Y0026345D01*
X0242252Y0025966D01*
X0242205Y0025587D01*
X0242148Y0025210D01*
X0242082Y0024834D01*
X0242007Y0024460D01*
X0241923Y0024087D01*
X0241829Y0023717D01*
X0241727Y0023350D01*
X0241615Y0022985D01*
X0241495Y0022623D01*
X0241366Y0022264D01*
X0241228Y0021908D01*
X0241082Y0021556D01*
X0240926Y0021207D01*
X0240763Y0020862D01*
X0240591Y0020522D01*
X0240410Y0020185D01*
X0240222Y0019854D01*
X0240025Y0019527D01*
X0239821Y0019204D01*
X0239608Y0018887D01*
X0239388Y0018576D01*
X0239160Y0018270D01*
X0238925Y0017969D01*
X0238683Y0017674D01*
X0238433Y0017386D01*
X0238176Y0017103D01*
X0237913Y0016827D01*
X0237643Y0016558D01*
X0237366Y0016295D01*
X0237083Y0016039D01*
X0236794Y0015790D01*
X0236499Y0015548D01*
X0236198Y0015314D01*
X0235891Y0015087D01*
X0235579Y0014867D01*
X0235261Y0014655D01*
X0234939Y0014452D01*
X0234611Y0014256D01*
X0234279Y0014068D01*
X0233942Y0013888D01*
X0233602Y0013717D01*
X0233256Y0013554D01*
X0232907Y0013400D01*
X0232555Y0013254D01*
X0232199Y0013117D01*
X0231839Y0012988D01*
X0231477Y0012869D01*
X0231112Y0012758D01*
X0230744Y0012657D01*
X0230374Y0012564D01*
X0230001Y0012481D01*
X0229627Y0012407D01*
X0229251Y0012342D01*
X0228874Y0012286D01*
X0228495Y0012239D01*
X0228115Y0012202D01*
X0227734Y0012174D01*
X0227353Y0012155D01*
X0226972Y0012146D01*
X0226590Y0012146D01*
X0226591Y0012146D02*
X0021079Y0012146D01*
X0006118Y0012146D01*
X0021079Y0012147D02*
X0020698Y0012166D01*
X0020317Y0012195D01*
X0019938Y0012233D01*
X0019559Y0012280D01*
X0019182Y0012337D01*
X0018806Y0012403D01*
X0018432Y0012478D01*
X0018059Y0012562D01*
X0017689Y0012656D01*
X0017322Y0012758D01*
X0016957Y0012870D01*
X0016595Y0012990D01*
X0016236Y0013119D01*
X0015880Y0013257D01*
X0015528Y0013403D01*
X0015179Y0013559D01*
X0014834Y0013722D01*
X0014494Y0013894D01*
X0014157Y0014075D01*
X0013826Y0014263D01*
X0013499Y0014460D01*
X0013176Y0014664D01*
X0012859Y0014877D01*
X0012548Y0015097D01*
X0012242Y0015325D01*
X0011941Y0015560D01*
X0011646Y0015802D01*
X0011358Y0016052D01*
X0011075Y0016309D01*
X0010799Y0016572D01*
X0010530Y0016842D01*
X0010267Y0017119D01*
X0010011Y0017402D01*
X0009762Y0017691D01*
X0009520Y0017986D01*
X0009286Y0018287D01*
X0009059Y0018594D01*
X0008839Y0018906D01*
X0008627Y0019224D01*
X0008424Y0019546D01*
X0008228Y0019874D01*
X0008040Y0020206D01*
X0007860Y0020543D01*
X0007689Y0020883D01*
X0007526Y0021229D01*
X0007372Y0021578D01*
X0007226Y0021930D01*
X0007089Y0022286D01*
X0006960Y0022646D01*
X0006841Y0023008D01*
X0006730Y0023373D01*
X0006629Y0023741D01*
X0006536Y0024111D01*
X0006453Y0024484D01*
X0006379Y0024858D01*
X0006314Y0025234D01*
X0006258Y0025611D01*
X0006211Y0025990D01*
X0006174Y0026370D01*
X0006146Y0026751D01*
X0006127Y0027132D01*
X0006118Y0027513D01*
X0006118Y0027895D01*
X0227378Y0148367D02*
X0227759Y0148348D01*
X0228140Y0148319D01*
X0228519Y0148281D01*
X0228898Y0148234D01*
X0229275Y0148177D01*
X0229651Y0148111D01*
X0230025Y0148036D01*
X0230398Y0147952D01*
X0230768Y0147858D01*
X0231135Y0147756D01*
X0231500Y0147644D01*
X0231862Y0147524D01*
X0232221Y0147395D01*
X0232577Y0147257D01*
X0232929Y0147111D01*
X0233278Y0146955D01*
X0233623Y0146792D01*
X0233963Y0146620D01*
X0234300Y0146439D01*
X0234631Y0146251D01*
X0234958Y0146054D01*
X0235281Y0145850D01*
X0235598Y0145637D01*
X0235909Y0145417D01*
X0236215Y0145189D01*
X0236516Y0144954D01*
X0236811Y0144712D01*
X0237099Y0144462D01*
X0237382Y0144205D01*
X0237658Y0143942D01*
X0237927Y0143672D01*
X0238190Y0143395D01*
X0238446Y0143112D01*
X0238695Y0142823D01*
X0238937Y0142528D01*
X0239171Y0142227D01*
X0239398Y0141920D01*
X0239618Y0141608D01*
X0239830Y0141290D01*
X0240033Y0140968D01*
X0240229Y0140640D01*
X0240417Y0140308D01*
X0240597Y0139971D01*
X0240768Y0139631D01*
X0240931Y0139285D01*
X0241085Y0138936D01*
X0241231Y0138584D01*
X0241368Y0138228D01*
X0241497Y0137868D01*
X0241616Y0137506D01*
X0241727Y0137141D01*
X0241828Y0136773D01*
X0241921Y0136403D01*
X0242004Y0136030D01*
X0242078Y0135656D01*
X0242143Y0135280D01*
X0242199Y0134903D01*
X0242246Y0134524D01*
X0242283Y0134144D01*
X0242311Y0133763D01*
X0242330Y0133382D01*
X0242339Y0133001D01*
X0242339Y0132619D01*
D11*
X0062811Y0095611D03*
X0062811Y0092461D03*
X0062811Y0089312D03*
X0062811Y0086162D03*
X0062811Y0083012D03*
X0062811Y0079863D03*
X0062811Y0076713D03*
X0062811Y0073564D03*
X0062811Y0070414D03*
X0062811Y0067264D03*
X0062811Y0064115D03*
X0062811Y0060965D03*
X0062811Y0057816D03*
X0062811Y0054666D03*
X0062811Y0051516D03*
X0062811Y0048367D03*
X0062811Y0045217D03*
X0062811Y0042068D03*
X0062811Y0038918D03*
X0062811Y0035768D03*
X0062811Y0032619D03*
X0062811Y0029469D03*
X0018717Y0029469D03*
X0018717Y0032619D03*
X0018717Y0035768D03*
X0018717Y0038918D03*
X0018717Y0042068D03*
X0018717Y0045217D03*
X0018717Y0048367D03*
X0018717Y0051516D03*
X0018717Y0054666D03*
X0018717Y0057816D03*
X0018717Y0060965D03*
X0018717Y0064115D03*
X0018717Y0067264D03*
X0018717Y0070414D03*
X0018717Y0073564D03*
X0018717Y0076713D03*
X0018717Y0079863D03*
X0018717Y0083012D03*
X0018717Y0086162D03*
X0018717Y0089312D03*
X0018717Y0092461D03*
X0018717Y0095611D03*
D12*
X0018913Y0104272D03*
X0013795Y0104272D03*
X0013795Y0116871D03*
X0018913Y0116871D03*
X0018913Y0123957D03*
X0013795Y0123957D03*
X0072654Y0109194D03*
X0077772Y0109194D03*
X0077772Y0103682D03*
X0072654Y0103682D03*
X0092142Y0101123D03*
X0097260Y0101123D03*
G36*
X0121102Y0102186D02*
X0119153Y0100237D01*
X0116650Y0102740D01*
X0118599Y0104689D01*
X0121102Y0102186D01*
G37*
G36*
X0124721Y0105805D02*
X0122772Y0103856D01*
X0120269Y0106359D01*
X0122218Y0108308D01*
X0124721Y0105805D01*
G37*
G36*
X0128188Y0102186D02*
X0126239Y0100237D01*
X0123736Y0102740D01*
X0125685Y0104689D01*
X0128188Y0102186D01*
G37*
G36*
X0131807Y0105805D02*
X0129858Y0103856D01*
X0127355Y0106359D01*
X0129304Y0108308D01*
X0131807Y0105805D01*
G37*
G36*
X0135472Y0102186D02*
X0133523Y0100237D01*
X0131020Y0102740D01*
X0132969Y0104689D01*
X0135472Y0102186D01*
G37*
G36*
X0139091Y0105805D02*
X0137142Y0103856D01*
X0134639Y0106359D01*
X0136588Y0108308D01*
X0139091Y0105805D01*
G37*
X0137811Y0120808D03*
X0132693Y0120808D03*
G36*
X0213894Y0124000D02*
X0215843Y0125949D01*
X0218346Y0123446D01*
X0216397Y0121497D01*
X0213894Y0124000D01*
G37*
G36*
X0217513Y0127619D02*
X0219462Y0129568D01*
X0221965Y0127065D01*
X0220016Y0125116D01*
X0217513Y0127619D01*
G37*
G36*
X0155213Y0062124D02*
X0153264Y0064073D01*
X0155767Y0066576D01*
X0157716Y0064627D01*
X0155213Y0062124D01*
G37*
G36*
X0158832Y0058504D02*
X0156883Y0060453D01*
X0159386Y0062956D01*
X0161335Y0061007D01*
X0158832Y0058504D01*
G37*
G36*
X0162066Y0060276D02*
X0164015Y0058327D01*
X0161512Y0055824D01*
X0159563Y0057773D01*
X0162066Y0060276D01*
G37*
G36*
X0155213Y0055037D02*
X0153264Y0056986D01*
X0155767Y0059489D01*
X0157716Y0057540D01*
X0155213Y0055037D01*
G37*
G36*
X0158832Y0051418D02*
X0156883Y0053367D01*
X0159386Y0055870D01*
X0161335Y0053921D01*
X0158832Y0051418D01*
G37*
G36*
X0155213Y0047163D02*
X0153264Y0049112D01*
X0155767Y0051615D01*
X0157716Y0049666D01*
X0155213Y0047163D01*
G37*
G36*
X0158832Y0043544D02*
X0156883Y0045493D01*
X0159386Y0047996D01*
X0161335Y0046047D01*
X0158832Y0043544D01*
G37*
G36*
X0165685Y0056657D02*
X0167634Y0054708D01*
X0165131Y0052205D01*
X0163182Y0054154D01*
X0165685Y0056657D01*
G37*
X0192535Y0049154D03*
X0197654Y0049154D03*
X0197654Y0044430D03*
X0192535Y0044430D03*
X0192535Y0039705D03*
X0197654Y0039705D03*
X0216945Y0039705D03*
X0222063Y0039705D03*
X0222063Y0044430D03*
X0216945Y0044430D03*
X0216945Y0049154D03*
X0222063Y0049154D03*
G36*
X0117887Y0019134D02*
X0115938Y0021083D01*
X0118441Y0023586D01*
X0120390Y0021637D01*
X0117887Y0019134D01*
G37*
G36*
X0114268Y0022753D02*
X0112319Y0024702D01*
X0114822Y0027205D01*
X0116771Y0025256D01*
X0114268Y0022753D01*
G37*
D13*
X0124228Y0021398D03*
X0124228Y0026516D03*
X0088008Y0026123D03*
X0088008Y0031241D03*
X0082496Y0031241D03*
X0082496Y0026123D03*
X0078559Y0050532D03*
X0078559Y0055650D03*
X0078559Y0061556D03*
X0078559Y0066674D03*
X0068520Y0064312D03*
X0068520Y0059194D03*
X0078559Y0074154D03*
X0078559Y0079272D03*
X0059661Y0113524D03*
X0059661Y0118642D03*
X0012417Y0087934D03*
X0012417Y0082816D03*
X0012417Y0065493D03*
X0012417Y0060375D03*
X0153362Y0076516D03*
X0153362Y0081634D03*
X0178559Y0057225D03*
X0178559Y0052107D03*
X0217142Y0089312D03*
X0217142Y0094430D03*
X0219701Y0102894D03*
X0219701Y0108012D03*
X0231315Y0136359D03*
X0231315Y0141477D03*
D14*
X0039780Y0021595D03*
X0025213Y0021595D03*
D15*
X0185843Y0092068D03*
X0187811Y0092068D03*
X0189780Y0092068D03*
X0191748Y0092068D03*
X0193717Y0092068D03*
X0195685Y0092068D03*
X0197654Y0092068D03*
X0199622Y0092068D03*
X0201591Y0092068D03*
X0203559Y0092068D03*
X0205528Y0092068D03*
X0207496Y0092068D03*
X0207496Y0119627D03*
X0205528Y0119627D03*
X0203559Y0119627D03*
X0201591Y0119627D03*
X0199622Y0119627D03*
X0197654Y0119627D03*
X0195685Y0119627D03*
X0193717Y0119627D03*
X0191748Y0119627D03*
X0189780Y0119627D03*
X0187811Y0119627D03*
X0185843Y0119627D03*
D16*
X0183087Y0116674D03*
X0183087Y0114705D03*
X0183087Y0112737D03*
X0183087Y0110768D03*
X0183087Y0108800D03*
X0183087Y0106831D03*
X0183087Y0104863D03*
X0183087Y0102894D03*
X0183087Y0100926D03*
X0183087Y0098957D03*
X0183087Y0096989D03*
X0183087Y0095020D03*
X0210252Y0095020D03*
X0210252Y0096989D03*
X0210252Y0098957D03*
X0210252Y0100926D03*
X0210252Y0102894D03*
X0210252Y0104863D03*
X0210252Y0106831D03*
X0210252Y0108800D03*
X0210252Y0110768D03*
X0210252Y0112737D03*
X0210252Y0114705D03*
X0210252Y0116674D03*
D17*
X0202083Y0111457D03*
X0196571Y0111457D03*
X0191059Y0111457D03*
X0191059Y0105946D03*
X0196571Y0105946D03*
X0202083Y0105946D03*
X0202083Y0100434D03*
X0196571Y0100434D03*
X0191059Y0100434D03*
D18*
X0226591Y0081831D03*
X0226591Y0073170D03*
X0230528Y0049548D03*
X0230528Y0040886D03*
X0206906Y0040493D03*
X0206906Y0049154D03*
X0196669Y0134587D03*
X0196669Y0143249D03*
D19*
X0208480Y0142658D03*
X0215567Y0142658D03*
X0215567Y0135178D03*
X0208480Y0135178D03*
X0184071Y0135178D03*
X0176197Y0135178D03*
X0176197Y0142658D03*
X0184071Y0142658D03*
X0102969Y0120611D03*
X0095882Y0120611D03*
X0095882Y0113131D03*
X0102969Y0113131D03*
X0186433Y0079469D03*
X0186433Y0071989D03*
X0206906Y0073760D03*
X0214780Y0073760D03*
X0214780Y0081241D03*
X0206906Y0081241D03*
D20*
X0225016Y0094036D03*
X0231315Y0094036D03*
X0231315Y0099154D03*
X0225016Y0099154D03*
X0236039Y0082225D03*
X0236039Y0075926D03*
X0209268Y0127894D03*
X0202969Y0127894D03*
X0221276Y0135768D03*
X0226591Y0135768D03*
X0226591Y0142068D03*
X0221276Y0142068D03*
D21*
X0166551Y0119233D03*
X0159071Y0119233D03*
X0150803Y0119233D03*
X0143323Y0119233D03*
X0159071Y0112146D03*
X0166551Y0112146D03*
X0166551Y0091674D03*
X0159071Y0091674D03*
D22*
X0159465Y0104272D03*
X0166157Y0104272D03*
X0166157Y0127107D03*
X0159465Y0127107D03*
X0225016Y0123760D03*
X0230528Y0123760D03*
X0230528Y0130453D03*
X0225016Y0130453D03*
X0195882Y0078485D03*
X0195882Y0071792D03*
X0178953Y0072579D03*
X0178953Y0079272D03*
X0203559Y0034194D03*
X0210252Y0034194D03*
X0227181Y0034194D03*
X0233874Y0034194D03*
D23*
X0218717Y0056831D03*
X0218717Y0063524D03*
X0193520Y0061162D03*
X0193520Y0054469D03*
G36*
X0172177Y0063277D02*
X0169394Y0066060D01*
X0172455Y0069121D01*
X0175238Y0066338D01*
X0172177Y0063277D01*
G37*
G36*
X0167165Y0063831D02*
X0169948Y0061048D01*
X0166887Y0057987D01*
X0164104Y0060770D01*
X0167165Y0063831D01*
G37*
G36*
X0161319Y0069677D02*
X0164102Y0066894D01*
X0161041Y0063833D01*
X0158258Y0066616D01*
X0161319Y0069677D01*
G37*
G36*
X0166331Y0069123D02*
X0163548Y0071906D01*
X0166609Y0074967D01*
X0169392Y0072184D01*
X0166331Y0069123D01*
G37*
X0173835Y0072579D03*
X0173835Y0079272D03*
X0166157Y0097973D03*
X0159465Y0097973D03*
X0159465Y0132619D03*
X0166157Y0132619D03*
X0166157Y0138131D03*
X0159465Y0138131D03*
X0224819Y0116871D03*
X0231512Y0116871D03*
X0231512Y0111359D03*
X0231512Y0105847D03*
X0224819Y0105847D03*
X0224819Y0111359D03*
X0224819Y0089312D03*
X0231512Y0089312D03*
X0019701Y0110571D03*
X0013008Y0110571D03*
D24*
X0029346Y0108898D03*
X0029346Y0103898D03*
X0029346Y0113898D03*
X0029346Y0118859D03*
X0052181Y0118859D03*
X0052181Y0113859D03*
X0052181Y0108859D03*
X0052181Y0103859D03*
D25*
X0028756Y0123957D03*
X0022850Y0123957D03*
X0184071Y0056044D03*
X0184071Y0050138D03*
D26*
X0200409Y0055257D03*
X0200409Y0062737D03*
X0209071Y0062737D03*
X0209071Y0058997D03*
X0209071Y0055257D03*
X0224622Y0056438D03*
X0233283Y0056438D03*
X0233283Y0060178D03*
X0233283Y0063918D03*
X0224622Y0063918D03*
D27*
X0153362Y0141871D03*
X0074819Y0141871D03*
D28*
X0082496Y0126910D03*
X0084465Y0126910D03*
X0086433Y0126910D03*
X0088402Y0126910D03*
X0090370Y0126910D03*
X0092339Y0126910D03*
X0094307Y0126910D03*
X0096276Y0126910D03*
X0098244Y0126910D03*
X0100213Y0126910D03*
X0102181Y0126910D03*
X0104150Y0126910D03*
X0106118Y0126910D03*
X0108087Y0126910D03*
X0110055Y0126910D03*
X0112024Y0126910D03*
X0113992Y0126910D03*
X0115961Y0126910D03*
X0117929Y0126910D03*
X0119898Y0126910D03*
X0121866Y0126910D03*
X0123835Y0126910D03*
X0125803Y0126910D03*
X0127772Y0126910D03*
X0129740Y0126910D03*
X0131709Y0126910D03*
X0133677Y0126910D03*
X0135646Y0126910D03*
X0137614Y0126910D03*
X0139583Y0126910D03*
X0141551Y0126910D03*
X0143520Y0126910D03*
X0145488Y0126910D03*
M02*
